<svg width="142" height="36" viewBox="0 0 142 36" fill="none" xmlns="http://www.w3.org/2000/svg">
<path d="M141.529 27.0149C140.006 30.3642 138.218 32.9776 136.165 34.8552C127.19 34.9059 118.2 34.9821 109.192 35.0836C101.675 35.185 94.1578 35.2612 86.6406 35.3119C86.1439 35.3119 85.6471 35.388 85.1504 35.3119C84.753 35.2358 84.455 34.9313 84.0576 34.8552C83.6105 34.703 83.3622 35.1597 82.9648 35.3119C82.6667 35.388 82.3687 35.3119 82.021 35.3119C81.2262 35.3627 80.4149 35.388 79.587 35.388C77.9975 35.388 76.4245 35.388 74.868 35.388C72.8811 35.388 70.9107 35.388 68.9569 35.388C67.9635 35.388 66.9866 35.388 66.0262 35.388C65.1818 35.388 64.2876 35.0836 63.4929 35.3119C63.2942 35.3119 63.1452 35.388 62.9465 35.388C62.7974 35.3119 62.6981 35.2358 62.5491 35.1597C62.2842 34.9567 62.0192 34.7791 61.7543 34.6268C61.4563 34.3985 61.1086 34.1701 60.8105 34.094C60.4628 34.094 60.1648 34.3224 59.8667 34.4746C59.3203 34.7791 58.6746 35.3119 58.0785 35.388C57.6314 35.4642 57.0354 35.3119 56.5883 35.3119C55.2637 35.3119 53.9556 35.3119 52.6641 35.3119C50.1142 35.2612 47.5643 35.2358 45.0144 35.2358C37.133 35.1343 29.2515 35.0582 21.37 35.0074L5.82228 34.8552C3.76912 32.9776 1.98089 30.3642 0.457575 27.0149C0.159535 21.0776 0.0105157 15.5209 0.159535 10.2686C1.50071 6.6149 3.23927 3.72236 5.52424 1.81938C5.9713 1.28654 7.2628 1.81938 7.51117 1.81938C9.29941 1.81938 11.0876 1.8955 12.9255 1.8955C16.0053 1.8955 19.4824 1.1343 22.4628 2.65669C22.6118 2.73281 22.7608 2.80893 22.9099 2.80893C23.0092 2.73281 23.1582 2.65669 23.2576 2.58057C25.2942 0.982065 28.2746 1.81938 30.5099 1.81938C43.2262 1.74326 55.9922 1.36266 68.7086 1.43878C76.5072 1.43878 84.3059 1.5149 92.1046 1.59102C95.648 1.64177 99.1913 1.69251 102.735 1.74326C104.523 1.74326 106.311 1.74326 108.099 1.74326C108.994 1.81938 109.888 1.74326 110.831 1.74326C111.179 1.74326 111.726 1.66714 112.123 1.8955C112.421 2.04774 112.421 2.42833 112.719 2.65669C112.918 2.88505 113.216 2.65669 113.414 2.42833C113.762 2.12386 113.961 1.81938 114.408 1.81938C115.17 1.81938 115.915 1.81938 116.643 1.81938C118.1 1.87012 119.574 1.8955 121.064 1.8955C123.978 1.8955 126.892 1.8955 129.807 1.8955C131.446 1.8955 133.085 1.8955 134.724 1.8955C135.072 1.8955 136.165 1.5149 136.463 1.81938C138.748 3.72236 140.486 6.6149 141.778 10.2686C142.175 11.2582 141.877 13.9224 141.877 15.0642C141.877 16.7388 141.877 17.7283 141.38 19.0985C141.182 19.8597 141.728 21.4582 141.728 22.3716C141.728 23.3612 141.877 26.1776 141.529 27.0149Z" fill="#4BC98A"/>
<path d="M141.529 26.1015C140.006 29.4508 138.218 32.0642 136.165 33.9418C127.19 33.9926 118.2 34.0687 109.192 34.1702C101.675 34.2717 94.1578 34.3478 86.6406 34.3985C86.1439 34.3985 85.6471 34.4746 85.1504 34.3985C84.753 34.3224 84.455 34.0179 84.0576 33.9418C83.6105 33.7896 83.3622 34.1702 82.9648 34.3985C82.6667 34.4746 82.3687 34.3985 82.021 34.3985C81.2262 34.4493 80.4149 34.4746 79.587 34.4746C77.9975 34.4746 76.4245 34.4746 74.868 34.4746C72.8811 34.4746 70.9107 34.4746 68.9569 34.4746C67.9635 34.4746 66.9866 34.4746 66.0262 34.4746C65.1818 34.4746 64.2876 34.1702 63.4929 34.3985C63.2942 34.3985 63.1452 34.4746 62.9465 34.4746C62.7974 34.3985 62.6981 34.3224 62.5491 34.2463C62.2842 34.0433 62.0192 33.8403 61.7543 33.6373C61.4563 33.4851 61.1086 33.2567 60.8105 33.1806C60.4628 33.1806 60.1648 33.3329 59.8667 33.5612C59.3203 33.8657 58.6746 34.3985 58.0785 34.4746C57.6314 34.5508 57.0354 34.3985 56.5883 34.3985C55.2637 34.3985 53.9556 34.3985 52.6641 34.3985C50.1142 34.3478 47.5643 34.3224 45.0144 34.3224C37.133 34.2209 29.2515 34.1448 21.37 34.094L5.82228 33.9418C3.76912 32.0642 1.98089 29.4508 0.457575 26.1015C0.159535 20.1642 0.0105157 14.6075 0.159535 9.35524C1.50071 5.70151 3.23927 2.80897 5.52424 0.905987C5.9713 0.373151 7.2628 0.905987 7.51117 0.905987C9.29941 0.905987 11.0876 0.982107 12.9255 0.982107C16.0053 0.982107 19.4824 0.220912 22.4628 1.7433C22.6118 1.81942 22.7608 1.89554 22.9099 1.89554C23.0092 1.81942 23.1582 1.7433 23.2576 1.66718C25.2942 0.0686735 28.2746 0.905987 30.5099 0.905987C43.2262 0.829867 55.9922 0.44927 68.7086 0.52539C76.5072 0.52539 84.3059 0.601509 92.1046 0.677628C95.648 0.728375 99.1913 0.779122 102.735 0.829868C104.523 0.829868 106.311 0.829868 108.099 0.829868C108.994 0.905987 109.888 0.829868 110.831 0.829868C111.179 0.829868 111.726 0.753748 112.123 0.982107C112.421 1.13435 112.421 1.51494 112.719 1.7433C112.918 1.97166 113.216 1.7433 113.414 1.51494C113.762 1.21046 113.961 0.905987 114.408 0.905987C115.17 0.905987 115.915 0.905987 116.643 0.905987C118.1 0.956733 119.574 0.982107 121.064 0.982107C123.978 0.982107 126.892 0.982107 129.807 0.982107C131.446 0.982107 133.085 0.982107 134.724 0.982107C135.072 0.982107 136.165 0.601509 136.463 0.905987C138.748 2.80897 140.486 5.70151 141.778 9.35524C142.175 10.3448 141.877 13.009 141.877 14.1508C141.877 15.8254 141.877 16.8149 141.38 18.1851C141.182 18.9463 141.728 20.5448 141.728 21.4582C141.728 22.4478 141.877 25.2642 141.529 26.1015Z" fill="url(#paint0_linear_883_50)"/>
<path d="M139.493 21.9149C139.493 22.5239 139.642 24.3508 139.393 24.8836C138.234 27.2179 136.943 29.0955 135.519 30.5164L109.192 30.8209L100.897 30.897C97.9826 30.897 95.0684 30.9224 92.1542 30.9731C90.6972 30.9731 89.2401 30.9985 87.783 31.0493C87.0876 31.0493 86.3425 31.1254 85.5974 31.0493C84.9516 30.897 84.5542 30.5164 83.9582 30.0597C83.8091 29.9836 83.6601 29.8313 83.4614 29.9075C83.2131 29.9075 83.064 30.2881 82.915 30.5925C82.468 31.5821 80.8287 31.0493 80.1333 31.0493C79.0074 31.0493 77.8815 31.0746 76.7555 31.1254C75.5634 31.1254 74.3712 31.1254 73.1791 31.1254C72.1194 31.1254 71.0431 31.1254 69.9503 31.1254C68.8906 31.1254 67.8144 31.1254 66.7216 31.1254C65.7778 31.1254 65.132 30.8209 64.1882 30.4403C63.4928 30.2119 62.698 30.8209 62.102 30.2119C61.8536 29.9836 61.7046 29.603 61.4562 29.4508C61.2078 29.3746 61.0091 29.5269 60.7608 29.6791C59.8667 30.2881 58.8235 30.897 57.8797 31.0493C55.9921 31.2776 54.0549 31.0493 52.217 30.9731C50.6937 30.9731 49.1538 30.9731 47.5974 30.9731C44.8819 30.9224 42.1499 30.897 39.4013 30.897C34.3677 30.8463 29.3176 30.7955 24.251 30.7448C20.0784 30.694 15.8893 30.6433 11.6836 30.5925C10.3921 30.5925 9.1172 30.5925 7.85881 30.5925C7.56077 30.5925 6.71633 30.8209 6.46796 30.5164C5.02744 29.1463 3.73593 27.2433 2.59345 24.8836C2.56033 24.3761 2.54378 23.894 2.54378 23.4373C2.54378 23.3866 2.54378 23.3358 2.54378 23.2851C2.51066 23.0821 2.4941 22.8791 2.4941 22.6761C2.29541 18.2612 2.24574 14.1508 2.34508 10.3448C3.38822 7.60448 4.7294 5.54926 6.36861 4.02687C6.51763 4.02687 6.71633 4.10299 6.81567 4.10299C7.06404 4.17911 7.21306 4.25523 7.46142 4.25523C8.15685 4.25523 8.83572 4.2806 9.49803 4.33135C10.624 4.33135 11.7499 4.35672 12.8758 4.40747C14.5978 4.35672 16.3364 4.33135 18.0915 4.33135C18.9856 4.33135 19.8797 4.33135 20.7738 4.33135C21.5686 4.40747 22.2144 4.94031 22.9595 5.3209C23.1085 5.3209 23.2575 5.39702 23.4065 5.3209C23.5059 5.24478 23.5555 5.16866 23.6052 5.09254C24.4 3.87463 25.7908 4.33135 26.7843 4.33135C28.0427 4.2806 29.2845 4.25523 30.5098 4.25523C32.3974 4.25523 34.285 4.22986 36.1725 4.17911C39.186 4.17911 42.1996 4.15374 45.2131 4.10299C52.4653 3.95075 59.966 3.87463 67.3673 3.87463H68.7085C77.8484 3.87463 87.1869 4.02687 96.2274 4.10299C98.976 4.15374 101.708 4.17911 104.424 4.17911C105.781 4.22986 107.156 4.25523 108.546 4.25523C109.689 4.25523 110.931 3.95075 112.123 4.10299C112.057 5.27016 111.99 6.41195 111.924 7.52836C112.09 7.12239 112.272 6.71642 112.471 6.31045C112.719 5.7015 112.868 5.24478 113.017 4.63583C113.067 4.55971 113.067 4.40747 113.166 4.40747C113.199 4.35672 113.249 4.33135 113.315 4.33135C115.948 4.25523 118.63 4.33135 121.263 4.33135C123.945 4.3821 126.644 4.40747 129.359 4.40747H130.999C132.257 4.40747 133.515 4.3821 134.774 4.33135C135.022 4.33135 135.32 4.25523 135.569 4.25523C136.016 4.25523 136.463 4.78807 136.761 5.24478C137.158 5.7015 137.506 6.15822 137.804 6.69105C138.168 7.19851 138.499 7.75672 138.797 8.36568C138.93 8.67016 139.062 8.97463 139.195 9.27911C139.294 9.50747 139.642 10.0403 139.642 10.3448C139.675 11.9179 139.675 13.4911 139.642 15.0642C139.642 15.7493 139.741 16.6627 139.542 17.2716C139.294 17.8045 138.897 18.0328 139.046 18.8702C139.095 19.0985 139.195 19.3269 139.244 19.5552C139.311 19.7075 139.36 19.8597 139.393 20.0119C139.592 20.6209 139.542 21.0776 139.493 21.9149Z" fill="url(#paint1_linear_883_50)"/>
<path d="M135.519 22.7523C136.512 23.3612 136.612 25.5687 135.569 26.2537C133.333 27.8523 133.631 21.6866 135.42 22.6761C135.453 22.6761 135.486 22.7015 135.519 22.7523Z" fill="url(#paint2_radial_883_50)"/>
<path d="M103.728 8.51794C105.218 8.13734 106.41 10.6493 105.566 12.7045C103.728 17.1956 100.996 9.50749 103.579 8.59406C103.645 8.59406 103.695 8.56869 103.728 8.51794Z" fill="url(#paint3_radial_883_50)"/>
<path d="M7.26274 12.0194C6.16993 11.7149 5.32548 13.5418 5.92156 14.988C7.26274 18.2612 9.19999 12.7045 7.31241 12.0194C7.31241 12.0194 7.29585 12.0194 7.26274 12.0194Z" fill="url(#paint4_radial_883_50)"/>
<path d="M70.7949 21.8388C72.2851 21.4582 73.4772 23.894 72.6328 25.9493C70.8445 30.4403 68.1125 22.7522 70.6955 21.8388C70.7286 21.8388 70.7617 21.8388 70.7949 21.8388Z" fill="url(#paint5_radial_883_50)"/>
<path d="M75.7124 24.1224C76.3084 23.9702 76.7555 24.9597 76.4575 25.7209C75.7124 27.5478 74.6196 24.503 75.6627 24.1224C75.6627 24.1224 75.6793 24.1224 75.7124 24.1224Z" fill="url(#paint6_radial_883_50)"/>
<path d="M40.3451 11.0299C40.9412 10.8776 41.4379 11.8672 41.0902 12.7045C40.3451 14.4552 39.3019 11.4104 40.2954 11.106C40.3285 11.0552 40.3451 11.0299 40.3451 11.0299Z" fill="url(#paint7_radial_883_50)"/>
<path d="M9.64705 11.2582C10.0941 11.1821 10.4418 11.9433 10.1935 12.5522C9.64705 13.9224 8.8026 11.5627 9.59738 11.3343C9.59738 11.2836 9.61393 11.2582 9.64705 11.2582Z" fill="url(#paint8_radial_883_50)"/>
<path d="M22.4131 25.0358C23.3073 24.8075 24.0027 26.2537 23.506 27.5477C22.4131 30.2119 20.7739 25.6448 22.3138 25.0358C22.3469 25.0358 22.38 25.0358 22.4131 25.0358Z" fill="url(#paint9_radial_883_50)"/>
<path style="mix-blend-mode:screen" opacity="0.29" d="M73.1791 31.1254C72.1194 31.1254 71.0432 31.1254 69.9504 31.1254C68.8907 31.1254 67.8144 31.1254 66.7216 31.1254C65.7778 31.1254 65.1321 30.8209 64.1883 30.4403C63.4929 30.2119 62.6981 30.8209 62.102 30.2119C61.8537 29.9836 61.7046 29.603 61.4563 29.4508C61.2079 29.3746 61.0092 29.5269 60.7608 29.6791C59.8667 30.2881 58.8236 30.897 57.8798 31.0493C55.9922 31.2776 54.055 31.0493 52.217 30.9731C50.6937 30.9731 49.1539 30.9731 47.5974 30.9731L36.1726 4.17911C39.1861 4.17911 42.1996 4.15374 45.2131 4.10299C52.4654 3.95075 59.9661 3.87463 67.3674 3.87463H68.6092L73.1791 31.1254Z" fill="url(#paint10_linear_883_50)"/>
<path d="M139.542 17.2716C139.294 17.8045 138.897 18.0328 139.046 18.8702C139.095 19.0985 139.195 19.3269 139.244 19.5552C139.311 19.7075 139.36 19.8597 139.393 20.0119C139.046 19.3269 138.748 18.5657 138.897 17.8045C138.996 17.5 139.095 17.2716 139.145 17.0433C139.294 16.5105 139.294 15.9015 139.294 15.2925C139.294 11.9433 138.648 9.35523 137.158 6.91941C135.817 4.63583 134.178 5.09254 132.34 5.09254C130.32 5.09254 128.283 5.09254 126.23 5.09254C122.19 5.0418 118.133 5.01642 114.06 5.01642C113.712 5.01642 113.315 4.63583 113.116 5.16866C112.719 6.33583 112.322 7.50299 111.924 8.67016C111.825 7.75672 111.775 5.7015 111.08 5.39702C110.682 5.24478 110.235 5.62538 109.788 5.54926C109.391 5.39702 108.993 5.24478 108.596 5.09254C107.752 4.86419 106.858 5.16866 106.013 5.24478C104.092 5.34627 102.172 5.39702 100.251 5.39702C99.0257 5.39702 97.7839 5.37165 96.5255 5.3209C95.3996 5.27016 94.2571 5.21941 93.098 5.16866C87.3856 5.01642 81.6732 4.48359 75.9608 4.71195C70.1987 4.94031 64.4366 5.16866 58.6248 5.09254C47.349 4.94031 36.1229 5.09254 24.847 5.09254C24.3006 5.09254 23.9529 6.0821 23.4065 6.15822C23.2575 6.23434 23.1085 6.15822 22.9595 6.0821C22.5124 5.92986 22.115 5.54926 21.668 5.54926C17.2967 5.49851 12.9255 5.42239 8.55423 5.3209C7.75946 5.3209 7.06404 5.24478 6.46796 5.92986C5.7063 6.7418 4.99432 7.62986 4.33201 8.59404C2.6928 10.8776 2.74247 13.6179 2.6928 16.8149C2.64312 18.794 2.6928 20.7731 2.4941 22.6761C2.29541 18.2612 2.24574 14.1508 2.34508 10.2687C3.38822 7.60448 4.7294 5.54926 6.36861 4.02687C6.51763 4.02687 6.71633 4.10299 6.81567 4.10299C7.06404 4.17911 7.21306 4.25523 7.46142 4.25523C8.15685 4.25523 8.83572 4.2806 9.49803 4.33135C10.624 4.33135 11.7499 4.33135 12.8758 4.33135C14.5978 4.33135 16.3364 4.33135 18.0915 4.33135C18.9856 4.33135 19.8797 4.33135 20.7738 4.33135C21.5686 4.33135 22.2144 4.94031 22.9595 5.3209C23.1085 5.3209 23.2575 5.39702 23.4065 5.3209C23.5059 5.24478 23.5555 5.16866 23.6052 5.09254C24.4 3.87463 25.7908 4.33135 26.7843 4.33135C28.0427 4.2806 29.2845 4.25523 30.5098 4.25523C35.4109 4.20448 40.312 4.15374 45.2131 4.10299C52.4653 3.95075 59.966 3.87463 67.3673 3.87463H68.7085C77.8484 3.87463 87.1869 4.02687 96.2274 4.10299C98.976 4.15374 101.708 4.17911 104.424 4.17911C105.781 4.22986 107.156 4.25523 108.546 4.25523C109.689 4.25523 110.931 3.95075 112.123 4.10299C112.057 5.27016 111.99 6.41195 111.924 7.52836C112.09 7.12239 112.272 6.71642 112.471 6.31045C112.719 5.7015 112.868 5.24478 113.017 4.63583C113.067 4.55971 113.116 4.40747 113.166 4.40747C113.199 4.35672 113.249 4.33135 113.315 4.33135C115.948 4.25523 118.63 4.33135 121.263 4.33135C123.945 4.33135 126.644 4.33135 129.359 4.33135H130.999C132.257 4.3821 133.515 4.3821 134.774 4.33135C135.022 4.33135 135.32 4.25523 135.569 4.25523C136.016 4.25523 136.463 4.78807 136.761 5.24478C137.158 5.7015 137.506 6.15821 137.804 6.69105C138.168 7.19851 138.499 7.75672 138.797 8.36568C138.93 8.67016 139.062 8.97463 139.195 9.27911C139.294 9.50747 139.592 10.0403 139.642 10.2687C139.675 11.8925 139.675 13.4911 139.642 15.0642C139.642 15.7493 139.741 16.6627 139.542 17.2716Z" fill="#B4F4FA"/>
<defs>
<linearGradient id="paint0_linear_883_50" x1="-1943.75" y1="527.039" x2="-1943.75" y2="12872.5" gradientUnits="userSpaceOnUse">
<stop stop-color="#40B8E3"/>
<stop offset="0.64" stop-color="#304891"/>
<stop offset="1" stop-color="#15AD8C"/>
</linearGradient>
<linearGradient id="paint1_linear_883_50" x1="-6061.37" y1="1303.56" x2="-6061.37" y2="22941.3" gradientUnits="userSpaceOnUse">
<stop stop-color="#4EBDE6"/>
</linearGradient>
<radialGradient id="paint2_radial_883_50" cx="0" cy="0" r="1" gradientUnits="userSpaceOnUse" gradientTransform="translate(696.013 148.367) scale(9.31361 15.8394)">
<stop stop-color="#62CEF5"/>
<stop offset="1" stop-color="#237FCF"/>
</radialGradient>
<radialGradient id="paint3_radial_883_50" cx="0" cy="0" r="1" gradientUnits="userSpaceOnUse" gradientTransform="translate(651.289 -418.286) rotate(-44.7461) scale(22.1646 26.8149)">
<stop stop-color="#62CEF5"/>
<stop offset="1" stop-color="#237FCF"/>
</radialGradient>
<radialGradient id="paint4_radial_883_50" cx="0" cy="0" r="1" gradientUnits="userSpaceOnUse" gradientTransform="translate(-4.85711 -92.9921) rotate(-135.43) scale(11.4282 13.9053)">
<stop stop-color="#62CEF5"/>
<stop offset="1" stop-color="#237FCF"/>
</radialGradient>
<radialGradient id="paint5_radial_883_50" cx="0" cy="0" r="1" gradientUnits="userSpaceOnUse" gradientTransform="translate(489.312 -187.653) rotate(-44.746) scale(21.8419 26.4569)">
<stop stop-color="#62CEF5"/>
<stop offset="1" stop-color="#237FCF"/>
</radialGradient>
<radialGradient id="paint6_radial_883_50" cx="0" cy="0" r="1" gradientUnits="userSpaceOnUse" gradientTransform="translate(254.257 -65.1612) rotate(-44.7459) scale(3.49123 4.15383)">
<stop stop-color="#62CEF5"/>
<stop offset="1" stop-color="#237FCF"/>
</radialGradient>
<radialGradient id="paint7_radial_883_50" cx="0" cy="0" r="1" gradientUnits="userSpaceOnUse" gradientTransform="translate(142.077 -36.9736) rotate(-44.7459) scale(3.48666 4.22271)">
<stop stop-color="#62CEF5"/>
<stop offset="1" stop-color="#237FCF"/>
</radialGradient>
<radialGradient id="paint8_radial_883_50" cx="0" cy="0" r="1" gradientUnits="userSpaceOnUse" gradientTransform="translate(43.9372 18.5989) rotate(-44.7625) scale(2.0561 2.52604)">
<stop stop-color="#62CEF5"/>
<stop offset="1" stop-color="#237FCF"/>
</radialGradient>
<radialGradient id="paint9_radial_883_50" cx="0" cy="0" r="1" gradientUnits="userSpaceOnUse" gradientTransform="translate(140.859 43.4142) rotate(-44.7552) scale(7.92422 9.59935)">
<stop stop-color="#62CEF5"/>
<stop offset="1" stop-color="#237FCF"/>
</radialGradient>
<linearGradient id="paint10_linear_883_50" x1="2384.03" y1="5620.81" x2="6079.1" y2="8478.24" gradientUnits="userSpaceOnUse">
<stop stop-color="#C7F0E1"/>
<stop offset="1"/>
</linearGradient>
</defs>
</svg>
