<svg width="97" height="29" viewBox="0 0 97 29" fill="none" xmlns="http://www.w3.org/2000/svg">
<path d="M96.462 18.9149C96.462 19.5239 96.566 21.3508 96.3928 21.8836C95.5845 24.2179 94.6838 26.0955 93.6908 27.5164L75.3313 27.8209L69.5463 27.897C67.5141 27.897 65.4819 27.9224 63.4496 27.9731C62.4335 27.9731 61.4174 27.9985 60.4013 28.0493C59.9163 28.0493 59.3967 28.1254 58.8771 28.0493C58.4267 27.897 58.1496 27.5164 57.7339 27.0597C57.63 26.9836 57.5261 26.8313 57.3875 26.9075C57.2143 26.9075 57.1104 27.2881 57.0065 27.5925C56.6947 28.5821 55.5516 28.0493 55.0666 28.0493C54.2814 28.0493 53.4962 28.0746 52.7111 28.1254C51.8797 28.1254 51.0483 28.1254 50.2169 28.1254C49.4779 28.1254 48.7274 28.1254 47.9653 28.1254C47.2263 28.1254 46.4758 28.1254 45.7137 28.1254C45.0555 28.1254 44.6052 27.8209 43.947 27.4403C43.462 27.2119 42.9078 27.8209 42.4921 27.2119C42.3189 26.9836 42.215 26.603 42.0418 26.4508C41.8686 26.3746 41.73 26.5269 41.5568 26.6791C40.9333 27.2881 40.2058 27.897 39.5477 28.0493C38.2313 28.2776 36.8803 28.0493 35.5986 27.9731C34.5363 27.9731 33.4625 27.9731 32.3771 27.9731C30.4834 27.9224 28.5782 27.897 26.6614 27.897C23.1511 27.8463 19.6294 27.7955 16.096 27.7448C13.1862 27.694 10.2649 27.6433 7.33197 27.5925C6.43132 27.5925 5.54221 27.5925 4.66465 27.5925C4.45681 27.5925 3.86792 27.8209 3.69472 27.5164C2.69014 26.1463 1.78949 24.2433 0.992755 21.8836C0.969661 21.3761 0.958115 20.894 0.958115 20.4373C0.958115 20.3866 0.958115 20.3358 0.958115 20.2851C0.935021 20.0821 0.923474 19.8791 0.923474 19.6761C0.784912 15.2612 0.750271 11.1508 0.819553 7.34478C1.547 4.60448 2.4823 2.54926 3.62543 1.02687C3.72936 1.02687 3.86792 1.10299 3.9372 1.10299C4.1104 1.17911 4.21432 1.25523 4.38753 1.25523C4.87249 1.25523 5.34591 1.2806 5.80779 1.33135C6.59297 1.33135 7.37816 1.35672 8.16334 1.40747C9.36422 1.35672 10.5766 1.33135 11.8006 1.33135C12.4241 1.33135 13.0477 1.33135 13.6712 1.33135C14.2254 1.40747 14.6758 1.94031 15.1954 2.3209C15.2993 2.3209 15.4032 2.39702 15.5071 2.3209C15.5764 2.24478 15.6111 2.16866 15.6457 2.09254C16.1999 0.874634 17.1699 1.33135 17.8627 1.33135C18.7402 1.2806 19.6063 1.25523 20.4607 1.25523C21.7771 1.25523 23.0934 1.22986 24.4097 1.17911C26.5113 1.17911 28.6128 1.15374 30.7143 1.10299C35.7718 0.950753 41.0026 0.874634 46.164 0.874634H47.0993C53.4731 0.874634 59.9856 1.02687 66.2901 1.10299C68.2069 1.15374 70.1122 1.17911 72.0058 1.17911C72.9527 1.22986 73.9111 1.25523 74.881 1.25523C75.6777 1.25523 76.5437 0.950753 77.3751 1.10299C77.3289 2.27016 77.2827 3.41195 77.2365 4.52836C77.352 4.12239 77.479 3.71642 77.6176 3.31045C77.7908 2.7015 77.8947 2.24478 77.9986 1.63583C78.0333 1.55971 78.0333 1.40747 78.1026 1.40747C78.1257 1.35672 78.1603 1.33135 78.2065 1.33135C80.0424 1.25523 81.913 1.33135 83.749 1.33135C85.6196 1.3821 87.5017 1.40747 89.3954 1.40747H90.5385C91.4161 1.40747 92.2936 1.3821 93.1712 1.33135C93.3444 1.33135 93.5522 1.25523 93.7254 1.25523C94.0372 1.25523 94.349 1.78807 94.5568 2.24478C94.8339 2.7015 95.0764 3.15822 95.2843 3.69105C95.5383 4.19851 95.7692 4.75672 95.9771 5.36568C96.0694 5.67016 96.1618 5.97463 96.2542 6.27911C96.3235 6.50747 96.566 7.04031 96.566 7.34478C96.5891 8.91792 96.5891 10.4911 96.566 12.0642C96.566 12.7493 96.6352 13.6627 96.4967 14.2716C96.3235 14.8045 96.0463 15.0328 96.1503 15.8702C96.1849 16.0985 96.2542 16.3269 96.2888 16.5552C96.335 16.7075 96.3697 16.8597 96.3928 17.0119C96.5313 17.6209 96.4967 18.0776 96.462 18.9149Z" fill="url(#paint0_linear_977_49)"/>
<path d="M93.6907 19.7522C94.3835 20.3611 94.4528 22.5686 93.7254 23.2537C92.1666 24.8522 92.3744 18.6865 93.6215 19.6761C93.6446 19.6761 93.6676 19.7014 93.6907 19.7522Z" fill="url(#paint1_radial_977_49)"/>
<path d="M71.521 5.51794C72.5602 5.13734 73.3916 7.64928 72.8027 9.70451C71.521 14.1956 69.6158 6.50749 71.4171 5.59406C71.4633 5.59406 71.4979 5.56869 71.521 5.51794Z" fill="url(#paint2_radial_977_49)"/>
<path d="M4.24908 9.01944C3.48699 8.71496 2.8981 10.5418 3.31379 11.9881C4.24908 15.2612 5.60006 9.70452 4.28372 9.01944C4.28372 9.01944 4.27218 9.01944 4.24908 9.01944Z" fill="url(#paint3_radial_977_49)"/>
<path d="M48.5542 18.8388C49.5934 18.4582 50.4247 20.894 49.8359 22.9493C48.5888 27.4403 46.6836 19.7522 48.4849 18.8388C48.508 18.8388 48.5311 18.8388 48.5542 18.8388Z" fill="url(#paint4_radial_977_49)"/>
<path d="M51.9837 21.1223C52.3994 20.9701 52.7111 21.9597 52.5033 22.7209C51.9837 24.5477 51.2216 21.5029 51.949 21.1223C51.949 21.1223 51.9606 21.1223 51.9837 21.1223Z" fill="url(#paint5_radial_977_49)"/>
<path d="M27.3195 8.02979C27.7352 7.87755 28.0816 8.8671 27.8391 9.70442C27.3195 11.4552 26.5921 8.41039 27.2849 8.10591C27.308 8.05516 27.3195 8.02979 27.3195 8.02979Z" fill="url(#paint6_radial_977_49)"/>
<path d="M5.91179 8.25822C6.22355 8.1821 6.46603 8.94329 6.29283 9.55225C5.91179 10.9224 5.3229 8.56269 5.87715 8.33434C5.87715 8.28359 5.88869 8.25822 5.91179 8.25822Z" fill="url(#paint7_radial_977_49)"/>
<path d="M14.8145 22.0358C15.438 21.8075 15.923 23.2537 15.5766 24.5477C14.8145 27.2119 13.6713 22.6448 14.7452 22.0358C14.7683 22.0358 14.7914 22.0358 14.8145 22.0358Z" fill="url(#paint8_radial_977_49)"/>
<path style="mix-blend-mode:screen" opacity="0.29" d="M50.2171 28.1254C49.4781 28.1254 48.7276 28.1254 47.9655 28.1254C47.2265 28.1254 46.4759 28.1254 45.7138 28.1254C45.0557 28.1254 44.6053 27.8209 43.9472 27.4403C43.4622 27.2119 42.908 27.8209 42.4923 27.2119C42.3191 26.9836 42.2151 26.603 42.0419 26.4508C41.8687 26.3746 41.7302 26.5269 41.557 26.6791C40.9334 27.2881 40.206 27.897 39.5478 28.0493C38.2315 28.2776 36.8805 28.0493 35.5988 27.9731C34.5365 27.9731 33.4626 27.9731 32.3772 27.9731L24.4099 1.17911C26.5114 1.17911 28.613 1.15374 30.7145 1.10299C35.772 0.950753 41.0027 0.874634 46.1642 0.874634H47.0302L50.2171 28.1254Z" fill="url(#paint9_linear_977_49)"/>
<path d="M96.4967 14.2716C96.3235 14.8045 96.0463 15.0328 96.1503 15.8702C96.1849 16.0985 96.2542 16.3269 96.2888 16.5552C96.335 16.7075 96.3697 16.8597 96.3928 17.0119C96.1503 16.3269 95.9424 15.5657 96.0464 14.8045C96.1156 14.5 96.1849 14.2716 96.2196 14.0433C96.3235 13.5105 96.3235 12.9015 96.3235 12.2925C96.3235 8.94329 95.8732 6.35523 94.8339 3.91941C93.8986 1.63583 92.7555 2.09254 91.4738 2.09254C90.0651 2.09254 88.6448 2.09254 87.213 2.09254C84.3956 2.0418 81.5666 2.01642 78.7261 2.01642C78.4836 2.01642 78.2065 1.63583 78.0679 2.16866C77.7908 3.33583 77.5137 4.50299 77.2365 5.67016C77.1673 4.75672 77.1326 2.7015 76.6477 2.39702C76.3705 2.24478 76.0588 2.62538 75.747 2.54926C75.4699 2.39702 75.1928 2.24478 74.9156 2.09254C74.3267 1.86419 73.7032 2.16866 73.1143 2.24478C71.7749 2.34627 70.4355 2.39702 69.096 2.39702C68.2416 2.39702 67.3755 2.37165 66.498 2.3209C65.7128 2.27016 64.9161 2.21941 64.1078 2.16866C60.1241 2.01642 56.1405 1.48359 52.1568 1.71195C48.1385 1.94031 44.1202 2.16866 40.0673 2.09254C32.2039 1.94031 24.3751 2.09254 16.5117 2.09254C16.1307 2.09254 15.8882 3.0821 15.5071 3.15822C15.4032 3.23434 15.2993 3.15822 15.1954 3.0821C14.8836 2.92986 14.6065 2.54926 14.2947 2.54926C11.2464 2.49851 8.19798 2.42239 5.14962 2.3209C4.59537 2.3209 4.1104 2.24478 3.69472 2.92986C3.16356 3.7418 2.66705 4.62986 2.20517 5.59404C1.06204 7.87762 1.09668 10.6179 1.06204 13.8149C1.0274 15.794 1.06204 17.7731 0.923474 19.6761C0.784912 15.2612 0.750271 11.1508 0.819553 7.26866C1.547 4.60448 2.4823 2.54926 3.62543 1.02687C3.72936 1.02687 3.86792 1.10299 3.9372 1.10299C4.1104 1.17911 4.21432 1.25523 4.38753 1.25523C4.87249 1.25523 5.34591 1.2806 5.80779 1.33135C6.59297 1.33135 7.37816 1.33135 8.16334 1.33135C9.36422 1.33135 10.5766 1.33135 11.8006 1.33135C12.4241 1.33135 13.0477 1.33135 13.6712 1.33135C14.2254 1.33135 14.6758 1.94031 15.1954 2.3209C15.2993 2.3209 15.4032 2.39702 15.5071 2.3209C15.5764 2.24478 15.6111 2.16866 15.6457 2.09254C16.1999 0.874634 17.1699 1.33135 17.8627 1.33135C18.7402 1.2806 19.6063 1.25523 20.4607 1.25523C23.8786 1.20448 27.2965 1.15374 30.7143 1.10299C35.7718 0.950753 41.0026 0.874634 46.164 0.874634H47.0993C53.4731 0.874634 59.9856 1.02687 66.2901 1.10299C68.2069 1.15374 70.1122 1.17911 72.0058 1.17911C72.9527 1.22986 73.9111 1.25523 74.881 1.25523C75.6777 1.25523 76.5437 0.950753 77.3751 1.10299C77.3289 2.27016 77.2827 3.41195 77.2365 4.52836C77.352 4.12239 77.479 3.71642 77.6176 3.31045C77.7908 2.7015 77.8947 2.24478 77.9986 1.63583C78.0333 1.55971 78.0679 1.40747 78.1026 1.40747C78.1257 1.35672 78.1603 1.33135 78.2065 1.33135C80.0424 1.25523 81.913 1.33135 83.749 1.33135C85.6196 1.33135 87.5017 1.33135 89.3954 1.33135H90.5385C91.4161 1.3821 92.2936 1.3821 93.1712 1.33135C93.3444 1.33135 93.5522 1.25523 93.7254 1.25523C94.0372 1.25523 94.349 1.78807 94.5568 2.24478C94.8339 2.7015 95.0764 3.15821 95.2843 3.69105C95.5383 4.19851 95.7692 4.75672 95.9771 5.36568C96.0694 5.67016 96.1618 5.97463 96.2542 6.27911C96.3235 6.50747 96.5313 7.0403 96.566 7.26866C96.5891 8.89254 96.5891 10.4911 96.566 12.0642C96.566 12.7493 96.6352 13.6627 96.4967 14.2716Z" fill="#B4F4FA"/>
<path d="M86.5854 16.696C86.2491 17.5314 85.0665 17.5314 84.7302 16.696L83.795 14.3735C83.5304 13.7163 84.0142 13 84.7227 13L86.5929 13C87.3013 13 87.7851 13.7163 87.5205 14.3735L86.5854 16.696Z" fill="white"/>
<defs>
<linearGradient id="paint0_linear_977_49" x1="-4227.82" y1="1300.56" x2="-4227.82" y2="22938.3" gradientUnits="userSpaceOnUse">
<stop stop-color="#5E9CAB"/>
</linearGradient>
<radialGradient id="paint1_radial_977_49" cx="0" cy="0" r="1" gradientUnits="userSpaceOnUse" gradientTransform="translate(484.561 145.366) scale(6.49502 15.8394)">
<stop stop-color="#62CEF5"/>
<stop offset="1" stop-color="#237FCF"/>
</radialGradient>
<radialGradient id="paint2_radial_977_49" cx="0" cy="0" r="1" gradientUnits="userSpaceOnUse" gradientTransform="translate(453.373 -421.286) rotate(-54.8706) scale(19.0781 21.7251)">
<stop stop-color="#62CEF5"/>
<stop offset="1" stop-color="#237FCF"/>
</radialGradient>
<radialGradient id="paint3_radial_977_49" cx="0" cy="0" r="1" gradientUnits="userSpaceOnUse" gradientTransform="translate(-4.20292 -95.9921) rotate(-125.295) scale(9.8263 11.2779)">
<stop stop-color="#62CEF5"/>
<stop offset="1" stop-color="#237FCF"/>
</radialGradient>
<radialGradient id="paint4_radial_977_49" cx="0" cy="0" r="1" gradientUnits="userSpaceOnUse" gradientTransform="translate(340.415 -190.653) rotate(-54.8706) scale(18.8003 21.4351)">
<stop stop-color="#62CEF5"/>
<stop offset="1" stop-color="#237FCF"/>
</radialGradient>
<radialGradient id="paint5_radial_977_49" cx="0" cy="0" r="1" gradientUnits="userSpaceOnUse" gradientTransform="translate(176.495 -68.1612) rotate(-54.8705) scale(3.00506 3.36539)">
<stop stop-color="#62CEF5"/>
<stop offset="1" stop-color="#237FCF"/>
</radialGradient>
<radialGradient id="paint6_radial_977_49" cx="0" cy="0" r="1" gradientUnits="userSpaceOnUse" gradientTransform="translate(98.2641 -39.9737) rotate(-54.8705) scale(3.00113 3.4212)">
<stop stop-color="#62CEF5"/>
<stop offset="1" stop-color="#237FCF"/>
</radialGradient>
<radialGradient id="paint7_radial_977_49" cx="0" cy="0" r="1" gradientUnits="userSpaceOnUse" gradientTransform="translate(29.8247 15.5989) rotate(-54.8861) scale(1.76995 2.04637)">
<stop stop-color="#62CEF5"/>
<stop offset="1" stop-color="#237FCF"/>
</radialGradient>
<radialGradient id="paint8_radial_977_49" cx="0" cy="0" r="1" gradientUnits="userSpaceOnUse" gradientTransform="translate(97.4152 40.4142) rotate(-54.8792) scale(6.82113 7.77687)">
<stop stop-color="#62CEF5"/>
<stop offset="1" stop-color="#237FCF"/>
</radialGradient>
<linearGradient id="paint9_linear_977_49" x1="1661.73" y1="5617.81" x2="4851.78" y2="7338.14" gradientUnits="userSpaceOnUse">
<stop stop-color="#C7F0E1"/>
<stop offset="1"/>
</linearGradient>
</defs>
</svg>
