<svg width="193" height="36" viewBox="0 0 193 36" fill="none" xmlns="http://www.w3.org/2000/svg">
<path d="M191.941 27.0149C189.877 30.3642 187.453 32.9776 184.671 34.8552C172.508 34.9059 160.323 34.9821 148.116 35.0836C137.928 35.185 127.74 35.2612 117.552 35.3119C116.879 35.3119 116.206 35.388 115.533 35.3119C114.994 35.2358 114.59 34.9313 114.052 34.8552C113.446 34.703 113.109 35.1597 112.571 35.3119C112.167 35.388 111.763 35.3119 111.291 35.3119C110.214 35.3627 109.115 35.388 107.993 35.388C105.839 35.388 103.707 35.388 101.597 35.388C98.9045 35.388 96.2342 35.388 93.5862 35.388C92.2398 35.388 90.9159 35.388 89.6143 35.388C88.4699 35.388 87.2581 35.0836 86.181 35.3119C85.9117 35.3119 85.7098 35.388 85.4405 35.388C85.2385 35.3119 85.1039 35.2358 84.9019 35.1597C84.5429 34.9567 84.1838 34.7791 83.8248 34.6268C83.4209 34.3985 82.9496 34.1701 82.5457 34.094C82.0745 34.094 81.6705 34.3224 81.2666 34.4746C80.5261 34.7791 79.6509 35.3119 78.8431 35.388C78.2372 35.4642 77.4294 35.3119 76.8235 35.3119C75.0283 35.3119 73.2555 35.3119 71.5052 35.3119C68.0494 35.2612 64.5936 35.2358 61.1379 35.2358C50.4564 35.1343 39.7749 35.0582 29.0934 35.0074L8.02217 34.8552C5.2396 32.9776 2.81607 30.3642 0.751585 27.0149C0.347663 21.0776 0.145702 15.5209 0.347663 10.2686C2.16531 6.6149 4.52152 3.72236 7.61825 1.81938C8.22413 1.28654 9.97446 1.81938 10.3111 1.81938C12.7346 1.81938 15.1581 1.8955 17.649 1.8955C21.8228 1.8955 26.5352 1.1343 30.5745 2.65669C30.7764 2.73281 30.9784 2.80893 31.1803 2.80893C31.315 2.73281 31.5169 2.65669 31.6516 2.58057C34.4117 0.982065 38.4509 1.81938 41.4803 1.81938C58.7143 1.74326 76.0156 1.36266 93.2496 1.43878C103.819 1.43878 114.388 1.5149 124.957 1.59102C129.76 1.64177 134.562 1.69251 139.364 1.74326C141.788 1.74326 144.211 1.74326 146.635 1.74326C147.846 1.81938 149.058 1.74326 150.337 1.74326C150.808 1.74326 151.549 1.66714 152.088 1.8955C152.491 2.04774 152.491 2.42833 152.895 2.65669C153.165 2.88505 153.569 2.65669 153.838 2.42833C154.309 2.12386 154.578 1.81938 155.184 1.81938C156.217 1.81938 157.226 1.81938 158.214 1.81938C160.188 1.87012 162.186 1.8955 164.205 1.8955C168.155 1.8955 172.104 1.8955 176.054 1.8955C178.275 1.8955 180.497 1.8955 182.718 1.8955C183.189 1.8955 184.671 1.5149 185.074 1.81938C188.171 3.72236 190.527 6.6149 192.278 10.2686C192.816 11.2582 192.412 13.9224 192.412 15.0642C192.412 16.7388 192.412 17.7283 191.739 19.0985C191.47 19.8597 192.21 21.4582 192.21 22.3716C192.21 23.3612 192.412 26.1776 191.941 27.0149Z" fill="#4BC98A"/>
<path d="M191.941 26.1015C189.877 29.4508 187.453 32.0642 184.671 33.9418C172.508 33.9926 160.323 34.0687 148.116 34.1702C137.928 34.2717 127.74 34.3478 117.552 34.3985C116.879 34.3985 116.206 34.4746 115.533 34.3985C114.994 34.3224 114.59 34.0179 114.052 33.9418C113.446 33.7896 113.109 34.1702 112.571 34.3985C112.167 34.4746 111.763 34.3985 111.291 34.3985C110.214 34.4493 109.115 34.4746 107.993 34.4746C105.839 34.4746 103.707 34.4746 101.597 34.4746C98.9045 34.4746 96.2342 34.4746 93.5862 34.4746C92.2398 34.4746 90.9159 34.4746 89.6143 34.4746C88.4699 34.4746 87.2581 34.1702 86.181 34.3985C85.9117 34.3985 85.7098 34.4746 85.4405 34.4746C85.2385 34.3985 85.1039 34.3224 84.9019 34.2463C84.5429 34.0433 84.1838 33.8403 83.8248 33.6373C83.4209 33.4851 82.9496 33.2567 82.5457 33.1806C82.0745 33.1806 81.6705 33.3329 81.2666 33.5612C80.5261 33.8657 79.6509 34.3985 78.8431 34.4746C78.2372 34.5508 77.4294 34.3985 76.8235 34.3985C75.0283 34.3985 73.2555 34.3985 71.5052 34.3985C68.0494 34.3478 64.5936 34.3224 61.1379 34.3224C50.4564 34.2209 39.7749 34.1448 29.0934 34.094L8.02217 33.9418C5.2396 32.0642 2.81607 29.4508 0.751585 26.1015C0.347663 20.1642 0.145702 14.6075 0.347663 9.35524C2.16531 5.70151 4.52152 2.80897 7.61825 0.905987C8.22413 0.373151 9.97446 0.905987 10.3111 0.905987C12.7346 0.905987 15.1581 0.982107 17.649 0.982107C21.8228 0.982107 26.5352 0.220912 30.5745 1.7433C30.7764 1.81942 30.9784 1.89554 31.1803 1.89554C31.315 1.81942 31.5169 1.7433 31.6516 1.66718C34.4117 0.0686735 38.4509 0.905987 41.4803 0.905987C58.7143 0.829867 76.0156 0.44927 93.2496 0.52539C103.819 0.52539 114.388 0.601509 124.957 0.677628C129.76 0.728375 134.562 0.779122 139.364 0.829868C141.788 0.829868 144.211 0.829868 146.635 0.829868C147.846 0.905987 149.058 0.829868 150.337 0.829868C150.808 0.829868 151.549 0.753748 152.088 0.982107C152.491 1.13435 152.491 1.51494 152.895 1.7433C153.165 1.97166 153.569 1.7433 153.838 1.51494C154.309 1.21046 154.578 0.905987 155.184 0.905987C156.217 0.905987 157.226 0.905987 158.214 0.905987C160.188 0.956733 162.186 0.982107 164.205 0.982107C168.155 0.982107 172.104 0.982107 176.054 0.982107C178.275 0.982107 180.497 0.982107 182.718 0.982107C183.189 0.982107 184.671 0.601509 185.074 0.905987C188.171 2.80897 190.527 5.70151 192.278 9.35524C192.816 10.3448 192.412 13.009 192.412 14.1508C192.412 15.8254 192.412 16.8149 191.739 18.1851C191.47 18.9463 192.21 20.5448 192.21 21.4582C192.21 22.4478 192.412 25.2642 191.941 26.1015Z" fill="url(#paint0_linear_868_50)"/>
<path d="M189.181 21.9149C189.181 22.5239 189.383 24.3508 189.046 24.8836C187.476 27.2179 185.725 29.0955 183.795 30.5164L148.116 30.8209L136.873 30.897C132.924 30.897 128.974 30.9224 125.025 30.9731C123.05 30.9731 121.075 30.9985 119.101 31.0493C118.158 31.0493 117.148 31.1254 116.139 31.0493C115.263 30.897 114.725 30.5164 113.917 30.0597C113.715 29.9836 113.513 29.8313 113.244 29.9075C112.907 29.9075 112.705 30.2881 112.503 30.5925C111.897 31.5821 109.676 31.0493 108.733 31.0493C107.207 31.0493 105.681 31.0746 104.156 31.1254C102.54 31.1254 100.924 31.1254 99.3085 31.1254C97.8723 31.1254 96.4137 31.1254 94.9326 31.1254C93.4965 31.1254 92.0379 31.1254 90.5568 31.1254C89.2777 31.1254 88.4026 30.8209 87.1235 30.4403C86.181 30.2119 85.1039 30.8209 84.296 30.2119C83.9594 29.9836 83.7575 29.603 83.4209 29.4508C83.0843 29.3746 82.815 29.5269 82.4784 29.6791C81.2666 30.2881 79.8529 30.897 78.5738 31.0493C76.0156 31.2776 73.3902 31.0493 70.8993 30.9731C68.8348 30.9731 66.7479 30.9731 64.6385 30.9731C60.9583 30.9224 57.2557 30.897 53.5307 30.897C46.7089 30.8463 39.8647 30.7955 32.998 30.7448C27.3431 30.694 21.6657 30.6433 15.966 30.5925C14.2156 30.5925 12.4877 30.5925 10.7823 30.5925C10.3784 30.5925 9.23394 30.8209 8.89733 30.5164C6.94505 29.1463 5.19472 27.2433 3.64635 24.8836C3.60147 24.3761 3.57903 23.894 3.57903 23.4373C3.57903 23.3866 3.57903 23.3358 3.57903 23.2851C3.53415 23.0821 3.51171 22.8791 3.51171 22.6761C3.24243 18.2612 3.17511 14.1508 3.30975 10.3448C4.72348 7.60448 6.54112 5.54926 8.76269 4.02687C8.96465 4.02687 9.23394 4.10299 9.36858 4.10299C9.70518 4.17911 9.90714 4.25523 10.2437 4.25523C11.1862 4.25523 12.1063 4.2806 13.0039 4.33135C14.5298 4.33135 16.0557 4.35672 17.5816 4.40747C19.9154 4.35672 22.2716 4.33135 24.6503 4.33135C25.862 4.33135 27.0738 4.33135 28.2856 4.33135C29.3627 4.40747 30.2379 4.94031 31.2477 5.3209C31.4496 5.3209 31.6516 5.39702 31.8535 5.3209C31.9882 5.24478 32.0555 5.16866 32.1228 5.09254C33.1999 3.87463 35.0849 4.33135 36.4313 4.33135C38.1368 4.2806 39.8198 4.25523 41.4803 4.25523C44.0385 4.25523 46.5967 4.22986 49.1549 4.17911C53.239 4.17911 57.323 4.15374 61.4071 4.10299C71.2359 3.95075 81.4013 3.87463 91.432 3.87463H93.2496C105.637 3.87463 118.293 4.02687 130.545 4.10299C134.27 4.15374 137.973 4.17911 141.653 4.17911C143.493 4.22986 145.356 4.25523 147.24 4.25523C148.789 4.25523 150.472 3.95075 152.088 4.10299C151.998 5.27016 151.908 6.41195 151.818 7.52836C152.043 7.12239 152.29 6.71642 152.559 6.31045C152.895 5.7015 153.097 5.24478 153.299 4.63583C153.367 4.55971 153.367 4.40747 153.501 4.40747C153.546 4.35672 153.613 4.33135 153.703 4.33135C157.271 4.25523 160.907 4.33135 164.474 4.33135C168.11 4.3821 171.768 4.40747 175.448 4.40747H177.669C179.375 4.40747 181.08 4.3821 182.786 4.33135C183.122 4.33135 183.526 4.25523 183.863 4.25523C184.469 4.25523 185.074 4.78807 185.478 5.24478C186.017 5.7015 186.488 6.15822 186.892 6.69105C187.386 7.19851 187.835 7.75672 188.239 8.36568C188.418 8.67016 188.598 8.97463 188.777 9.27911C188.912 9.50747 189.383 10.0403 189.383 10.3448C189.428 11.9179 189.428 13.4911 189.383 15.0642C189.383 15.7493 189.518 16.6627 189.248 17.2716C188.912 17.8045 188.373 18.0328 188.575 18.8702C188.642 19.0985 188.777 19.3269 188.844 19.5552C188.934 19.7075 189.001 19.8597 189.046 20.0119C189.316 20.6209 189.248 21.0776 189.181 21.9149Z" fill="url(#paint1_linear_868_50)"/>
<path d="M183.795 22.7523C185.142 23.3612 185.276 25.5687 183.863 26.2537C180.833 27.8523 181.237 21.6866 183.661 22.6761C183.706 22.6761 183.751 22.7015 183.795 22.7523Z" fill="url(#paint2_radial_868_50)"/>
<path d="M140.71 8.51794C142.73 8.13734 144.346 10.6493 143.201 12.7045C140.71 17.1956 137.008 9.50749 140.509 8.59406C140.598 8.59406 140.666 8.56869 140.71 8.51794Z" fill="url(#paint3_radial_868_50)"/>
<path d="M9.97455 12.0194C8.4935 11.7149 7.34906 13.5418 8.1569 14.988C9.97455 18.2612 12.6 12.7045 10.0419 12.0194C10.0419 12.0194 10.0194 12.0194 9.97455 12.0194Z" fill="url(#paint4_radial_868_50)"/>
<path d="M96.0771 21.8388C98.0967 21.4582 99.7124 23.894 98.568 25.9493C96.1444 30.4403 92.4418 22.7522 95.9425 21.8388C95.9873 21.8388 96.0322 21.8388 96.0771 21.8388Z" fill="url(#paint5_radial_868_50)"/>
<path d="M102.742 24.1224C103.55 23.9702 104.156 24.9597 103.752 25.7209C102.742 27.5478 101.261 24.503 102.674 24.1224C102.674 24.1224 102.697 24.1224 102.742 24.1224Z" fill="url(#paint6_radial_868_50)"/>
<path d="M54.8098 11.0299C55.6177 10.8776 56.2909 11.8672 55.8196 12.7045C54.8098 14.4552 53.3961 11.4104 54.7425 11.106C54.7874 11.0552 54.8098 11.0299 54.8098 11.0299Z" fill="url(#paint7_radial_868_50)"/>
<path d="M13.2059 11.2582C13.8118 11.1821 14.283 11.9433 13.9464 12.5522C13.2059 13.9224 12.0614 11.5627 13.1386 11.3343C13.1386 11.2836 13.161 11.2582 13.2059 11.2582Z" fill="url(#paint8_radial_868_50)"/>
<path d="M30.5072 25.0358C31.7189 24.8075 32.6614 26.2537 31.9882 27.5477C30.5072 30.2119 28.2856 25.6448 30.3725 25.0358C30.4174 25.0358 30.4623 25.0358 30.5072 25.0358Z" fill="url(#paint9_radial_868_50)"/>
<path style="mix-blend-mode:screen" opacity="0.29" d="M99.3085 31.1254C97.8723 31.1254 96.4137 31.1254 94.9327 31.1254C93.4965 31.1254 92.0379 31.1254 90.5569 31.1254C89.2778 31.1254 88.4026 30.8209 87.1235 30.4403C86.181 30.2119 85.1039 30.8209 84.2961 30.2119C83.9595 29.9836 83.7575 29.603 83.4209 29.4508C83.0843 29.3746 82.815 29.5269 82.4784 29.6791C81.2667 30.2881 79.8529 30.897 78.5739 31.0493C76.0157 31.2776 73.3902 31.0493 70.8993 30.9731C68.8349 30.9731 66.7479 30.9731 64.6386 30.9731L49.1549 4.17911C53.239 4.17911 57.3231 4.15374 61.4072 4.10299C71.236 3.95075 81.4013 3.87463 91.432 3.87463H93.115L99.3085 31.1254Z" fill="url(#paint10_linear_868_50)"/>
<path d="M189.248 17.2716C188.912 17.8045 188.373 18.0328 188.575 18.8702C188.642 19.0985 188.777 19.3269 188.844 19.5552C188.934 19.7075 189.001 19.8597 189.046 20.0119C188.575 19.3269 188.171 18.5657 188.373 17.8045C188.508 17.5 188.642 17.2716 188.71 17.0433C188.912 16.5105 188.912 15.9015 188.912 15.2925C188.912 11.9433 188.037 9.35523 186.017 6.91941C184.199 4.63583 181.978 5.09254 179.487 5.09254C176.749 5.09254 173.989 5.09254 171.207 5.09254C165.731 5.0418 160.233 5.01642 154.713 5.01642C154.242 5.01642 153.703 4.63583 153.434 5.16866C152.895 6.33583 152.357 7.50299 151.818 8.67016C151.684 7.75672 151.616 5.7015 150.674 5.39702C150.135 5.24478 149.529 5.62538 148.924 5.54926C148.385 5.39702 147.846 5.24478 147.308 5.09254C146.163 4.86419 144.952 5.16866 143.807 5.24478C141.204 5.34627 138.601 5.39702 135.998 5.39702C134.337 5.39702 132.654 5.37165 130.949 5.3209C129.423 5.27016 127.875 5.21941 126.304 5.16866C118.562 5.01642 110.82 4.48359 103.078 4.71195C95.2692 4.94031 87.4601 5.16866 79.5836 5.09254C64.3019 4.94031 49.0875 5.09254 33.8058 5.09254C33.0653 5.09254 32.5941 6.0821 31.8535 6.15822C31.6516 6.23434 31.4496 6.15822 31.2477 6.0821C30.6418 5.92986 30.1032 5.54926 29.4973 5.54926C23.5732 5.49851 17.649 5.42239 11.7248 5.3209C10.6477 5.3209 9.70518 5.24478 8.89733 5.92986C7.86509 6.7418 6.90017 7.62986 6.00256 8.59404C3.78099 10.8776 3.84831 13.6179 3.78099 16.8149C3.71367 18.794 3.78099 20.7731 3.51171 22.6761C3.24243 18.2612 3.17511 14.1508 3.30975 10.2687C4.72348 7.60448 6.54112 5.54926 8.76269 4.02687C8.96465 4.02687 9.23394 4.10299 9.36858 4.10299C9.70518 4.17911 9.90714 4.25523 10.2437 4.25523C11.1862 4.25523 12.1063 4.2806 13.0039 4.33135C14.5298 4.33135 16.0557 4.33135 17.5816 4.33135C19.9154 4.33135 22.2716 4.33135 24.6503 4.33135C25.862 4.33135 27.0738 4.33135 28.2856 4.33135C29.3627 4.33135 30.2379 4.94031 31.2477 5.3209C31.4496 5.3209 31.6516 5.39702 31.8535 5.3209C31.9882 5.24478 32.0555 5.16866 32.1228 5.09254C33.1999 3.87463 35.0849 4.33135 36.4313 4.33135C38.1368 4.2806 39.8198 4.25523 41.4803 4.25523C48.1226 4.20448 54.7649 4.15374 61.4071 4.10299C71.2359 3.95075 81.4013 3.87463 91.432 3.87463H93.2496C105.637 3.87463 118.293 4.02687 130.545 4.10299C134.27 4.15374 137.973 4.17911 141.653 4.17911C143.493 4.22986 145.356 4.25523 147.24 4.25523C148.789 4.25523 150.472 3.95075 152.088 4.10299C151.998 5.27016 151.908 6.41195 151.818 7.52836C152.043 7.12239 152.29 6.71642 152.559 6.31045C152.895 5.7015 153.097 5.24478 153.299 4.63583C153.367 4.55971 153.434 4.40747 153.501 4.40747C153.546 4.35672 153.613 4.33135 153.703 4.33135C157.271 4.25523 160.907 4.33135 164.474 4.33135C168.11 4.33135 171.768 4.33135 175.448 4.33135H177.669C179.375 4.3821 181.08 4.3821 182.786 4.33135C183.122 4.33135 183.526 4.25523 183.863 4.25523C184.469 4.25523 185.074 4.78807 185.478 5.24478C186.017 5.7015 186.488 6.15821 186.892 6.69105C187.386 7.19851 187.835 7.75672 188.239 8.36568C188.418 8.67016 188.598 8.97463 188.777 9.27911C188.912 9.50747 189.316 10.0403 189.383 10.2687C189.428 11.8925 189.428 13.4911 189.383 15.0642C189.383 15.7493 189.518 16.6627 189.248 17.2716Z" fill="#B4F4FA"/>
<defs>
<linearGradient id="paint0_linear_868_50" x1="-2634.16" y1="527.039" x2="-2634.16" y2="12872.5" gradientUnits="userSpaceOnUse">
<stop stop-color="#40B8E3"/>
<stop offset="0.64" stop-color="#304891"/>
<stop offset="1" stop-color="#15AD8C"/>
</linearGradient>
<linearGradient id="paint1_linear_868_50" x1="-8214.61" y1="1303.56" x2="-8214.61" y2="22941.3" gradientUnits="userSpaceOnUse">
<stop stop-color="#4EBDE6"/>
<stop offset="1" stop-color="#085A8A"/>
</linearGradient>
<radialGradient id="paint2_radial_868_50" cx="0" cy="0" r="1" gradientUnits="userSpaceOnUse" gradientTransform="translate(943.412 148.367) scale(12.6224 15.8394)">
<stop stop-color="#62CEF5"/>
<stop offset="1" stop-color="#237FCF"/>
</radialGradient>
<radialGradient id="paint3_radial_868_50" cx="0" cy="0" r="1" gradientUnits="userSpaceOnUse" gradientTransform="translate(882.8 -418.286) rotate(-36.18) scale(26.4315 30.4746)">
<stop stop-color="#62CEF5"/>
<stop offset="1" stop-color="#237FCF"/>
</radialGradient>
<radialGradient id="paint4_radial_868_50" cx="0" cy="0" r="1" gradientUnits="userSpaceOnUse" gradientTransform="translate(-6.45104 -92.9921) rotate(-143.987) scale(13.6405 15.7889)">
<stop stop-color="#62CEF5"/>
<stop offset="1" stop-color="#237FCF"/>
</radialGradient>
<radialGradient id="paint5_radial_868_50" cx="0" cy="0" r="1" gradientUnits="userSpaceOnUse" gradientTransform="translate(663.278 -187.653) rotate(-36.1799) scale(26.0466 30.0677)">
<stop stop-color="#62CEF5"/>
<stop offset="1" stop-color="#237FCF"/>
</radialGradient>
<radialGradient id="paint6_radial_868_50" cx="0" cy="0" r="1" gradientUnits="userSpaceOnUse" gradientTransform="translate(344.716 -65.1612) rotate(-36.1798) scale(4.16333 4.72074)">
<stop stop-color="#62CEF5"/>
<stop offset="1" stop-color="#237FCF"/>
</radialGradient>
<radialGradient id="paint7_radial_868_50" cx="0" cy="0" r="1" gradientUnits="userSpaceOnUse" gradientTransform="translate(192.683 -36.9736) rotate(-36.1798) scale(4.15788 4.79903)">
<stop stop-color="#62CEF5"/>
<stop offset="1" stop-color="#237FCF"/>
</radialGradient>
<radialGradient id="paint8_radial_868_50" cx="0" cy="0" r="1" gradientUnits="userSpaceOnUse" gradientTransform="translate(59.6781 18.5989) rotate(-36.1956) scale(2.45171 2.87104)">
<stop stop-color="#62CEF5"/>
<stop offset="1" stop-color="#237FCF"/>
</radialGradient>
<radialGradient id="paint9_radial_868_50" cx="0" cy="0" r="1" gradientUnits="userSpaceOnUse" gradientTransform="translate(191.033 43.4142) rotate(-36.1887) scale(9.44926 10.91)">
<stop stop-color="#62CEF5"/>
<stop offset="1" stop-color="#237FCF"/>
</radialGradient>
<linearGradient id="paint10_linear_868_50" x1="3231.11" y1="5620.81" x2="7044.77" y2="9617.66" gradientUnits="userSpaceOnUse">
<stop stop-color="#C7F0E1"/>
<stop offset="1"/>
</linearGradient>
</defs>
</svg>
