<svg width="200" height="166" viewBox="0 0 200 166" fill="none" xmlns="http://www.w3.org/2000/svg">
<path d="M199.359 124.992C197.211 141.354 194.691 154.12 191.796 163.293C179.146 163.541 166.473 163.913 153.776 164.408C143.179 164.904 132.583 165.276 121.987 165.524C121.287 165.524 120.586 165.896 119.886 165.524C119.326 165.152 118.906 163.665 118.346 163.293C117.716 162.549 117.366 164.408 116.805 165.524C116.385 165.896 115.965 165.524 115.475 165.524C114.355 165.772 113.211 165.896 112.044 165.896C109.803 165.896 107.586 165.896 105.392 165.896C102.591 165.896 99.8139 165.896 97.0598 165.896C95.6594 165.896 94.2823 165.896 92.9286 165.896C91.7383 165.896 90.4779 164.408 89.3576 165.524C89.0775 165.524 88.8675 165.896 88.5874 165.896C88.3773 165.524 88.2373 165.152 88.0272 164.78C87.6538 163.789 87.2803 162.797 86.9069 161.805C86.4868 161.062 85.9966 159.946 85.5765 159.574C85.0864 159.574 84.6663 160.318 84.2462 161.434C83.4759 162.921 82.5657 165.524 81.7254 165.896C81.0953 166.268 80.255 165.524 79.6248 165.524C77.7577 165.524 75.9138 165.524 74.0933 165.524C70.4989 165.276 66.9046 165.152 63.3102 165.152C52.2004 164.656 41.0906 164.285 29.9808 164.037L8.06466 163.293C5.17051 154.12 2.6498 141.354 0.502526 124.992C0.0824075 95.9873 -0.127652 68.8419 0.0824072 43.184C1.97294 25.335 4.42363 11.2045 7.64454 1.90817C8.27472 -0.694813 10.0952 1.90817 10.4453 1.90817C12.966 1.90817 15.4868 2.28002 18.0775 2.28002C22.4187 2.28002 27.3201 -1.43852 31.5213 5.99856C31.7313 6.37042 31.9414 6.74227 32.1515 6.74227C32.2915 6.37042 32.5016 5.99856 32.6416 5.62671C35.5124 -2.18223 39.7136 1.90817 42.8645 1.90817C60.7895 1.53631 78.7846 -0.322959 96.7097 0.0488952C107.703 0.0488952 118.696 0.420749 129.689 0.792603C134.684 1.04051 139.678 1.28841 144.673 1.53631C147.194 1.53631 149.715 1.53631 152.235 1.53631C153.496 1.90817 154.756 1.53631 156.086 1.53631C156.577 1.53631 157.347 1.16446 157.907 2.28002C158.327 3.02373 158.327 4.883 158.747 5.99856C159.027 7.11413 159.447 5.99856 159.727 4.883C160.218 3.39558 160.498 1.90817 161.128 1.90817C162.201 1.90817 163.252 1.90817 164.279 1.90817C166.333 2.15607 168.41 2.28002 170.51 2.28002C174.618 2.28002 178.726 2.28002 182.834 2.28002C185.145 2.28002 187.455 2.28002 189.766 2.28002C190.256 2.28002 191.796 0.420749 192.217 1.90817C195.438 11.2045 197.888 25.335 199.709 43.184C200.269 48.0181 199.849 61.033 199.849 66.6108C199.849 74.7916 199.849 79.6257 199.149 86.3191C198.868 90.0376 199.639 97.8466 199.639 102.309C199.639 107.143 199.849 120.902 199.359 124.992Z" fill="url(#paint0_linear_405_593)"/>
<path d="M69.916 3.19629C78.8868 2.73195 87.7916 2.36489 96.6582 2.54883H96.71C104.918 2.54883 113.13 2.75746 121.363 3.01855L129.604 3.29102C134.586 3.53826 139.567 3.78596 144.549 4.0332L144.611 4.03613H151.923C152.834 4.24074 153.671 4.21589 154.316 4.16895C155.039 4.11635 155.392 4.06229 155.803 4.04395C155.819 4.14297 155.836 4.25162 155.854 4.37207C155.938 4.9236 156.067 5.89217 156.354 6.72461C156.413 6.94111 156.503 7.20804 156.645 7.47754C156.779 7.73483 157.169 8.40313 158.013 8.75684C159.074 9.20198 160.027 8.83992 160.548 8.47266C160.988 8.16181 161.242 7.78487 161.354 7.60645C161.751 6.97437 161.997 6.09274 162.131 5.56934C162.254 5.18988 162.367 4.81367 162.458 4.51172C162.469 4.47609 162.48 4.44177 162.49 4.4082H164.136C166.239 4.65584 168.365 4.78027 170.511 4.78027H189.766C190.057 4.78027 190.307 4.73095 190.495 4.67969C193.31 13.689 195.531 26.865 197.222 43.4375L197.224 43.4551L197.226 43.4717C197.484 45.7052 197.525 50.002 197.489 54.5996C197.455 59.0732 197.349 63.8301 197.349 66.6104C197.349 74.8007 197.347 79.5124 196.662 86.0586L196.658 86.0947L196.655 86.1309C196.501 88.1826 196.637 91.2389 196.792 94.167C196.952 97.1975 197.139 100.164 197.139 102.309C197.139 104.829 197.191 109.312 197.183 113.925C197.174 118.535 197.1 122.828 196.876 124.694C194.87 139.974 192.549 152 189.935 160.83C177.87 161.078 165.784 161.437 153.678 161.91L153.669 161.911H153.659C143.082 162.406 132.505 162.777 121.929 163.024V163.025C121.667 163.029 121.43 163.056 121.242 163.083C121.136 162.884 120.999 162.63 120.848 162.395C120.711 162.181 120.447 161.796 120.04 161.448C119.762 161.177 119.336 160.859 118.741 160.707C117.851 160.479 117.06 160.737 116.527 161.094C116.068 161.401 115.788 161.781 115.646 161.997C115.486 162.237 115.366 162.476 115.28 162.662C115.224 162.784 115.169 162.914 115.116 163.043L114.935 163.083C113.995 163.291 113.032 163.396 112.044 163.396H93.0537C93.0313 163.388 93.0001 163.377 92.96 163.361C92.8601 163.321 92.7557 163.275 92.5879 163.2C92.4389 163.134 92.2331 163.042 92.0146 162.958C91.6017 162.799 90.9022 162.567 90.0732 162.616C90.0115 162.62 89.9497 162.624 89.8887 162.631C89.6745 162.062 89.4603 161.493 89.2461 160.925L89.1787 160.744L89.084 160.576L88.7998 160.044C88.7102 159.869 88.6074 159.668 88.4375 159.355C88.2468 159.005 87.827 158.228 87.2334 157.702L86.5244 157.074H85.5762C83.9889 157.074 83.1085 158.247 82.8105 158.69C82.4532 159.222 82.1771 159.85 81.959 160.416C81.7532 160.824 81.5498 161.272 81.3662 161.68C81.1518 162.156 80.9582 162.591 80.7637 162.991C80.7307 163.059 80.6956 163.122 80.665 163.183C80.5928 163.162 80.5164 163.139 80.4355 163.12C80.2223 163.071 79.9443 163.024 79.625 163.024H74.1748C70.578 162.778 66.981 162.654 63.3838 162.652C52.2683 162.157 41.1527 161.785 30.0371 161.537L9.93262 160.854C7.32176 152.043 5.00371 140.045 2.99902 124.804C2.58119 95.9127 2.37329 68.8796 2.58105 43.3301C4.36466 26.528 6.63165 13.2284 9.50781 4.22949C9.53032 4.23814 9.5524 4.24942 9.57617 4.25781C9.75818 4.32204 10.0623 4.4082 10.4453 4.4082C11.5985 4.4082 12.7668 4.49369 14.0527 4.58789C15.3086 4.67988 16.676 4.78026 18.0771 4.78027C19.4635 4.78027 20.8442 4.4848 21.9199 4.26465C23.095 4.02416 23.9996 3.85063 24.8516 3.85059C25.6348 3.85059 26.2945 4.00173 26.9355 4.40137C27.6039 4.8181 28.4368 5.62123 29.3447 7.22852C29.4243 7.36948 29.6152 7.7154 29.8398 8.01367C29.9557 8.16754 30.1615 8.42189 30.4629 8.65527C30.7594 8.88492 31.3411 9.24216 32.1514 9.24219H33.8818L34.4912 7.62305C34.5199 7.54692 34.5626 7.45205 34.6582 7.24902C34.7375 7.08048 34.8701 6.80342 34.9814 6.50781L34.9844 6.49902L34.9883 6.48926C35.627 4.75186 36.2316 3.98928 36.6191 3.66211C36.9261 3.40302 37.1937 3.32783 37.584 3.33789C38.0993 3.35125 38.691 3.50942 39.6309 3.78809C40.4097 4.01901 41.6397 4.40816 42.8643 4.4082H42.8906L42.916 4.40723C51.9294 4.22025 60.9713 3.65928 69.916 3.19629Z" stroke="#3C3C43" stroke-opacity="0.29" stroke-width="5"/>
<defs>
<linearGradient id="paint0_linear_405_593" x1="-2740.07" y1="2572.15" x2="-2740.07" y2="62881.6" gradientUnits="userSpaceOnUse">
<stop offset="1" stop-color="#6EC2B4"/>
</linearGradient>
</defs>
</svg>
