<svg width="383" height="319" viewBox="0 0 383 319" fill="none" xmlns="http://www.w3.org/2000/svg">
<path d="M381.772 240.195C377.66 271.637 372.833 296.171 367.29 313.798C343.065 314.274 318.795 314.989 294.481 315.942C274.189 316.894 253.897 317.609 233.605 318.085C232.264 318.085 230.923 318.8 229.582 318.085C228.509 317.371 227.705 314.512 226.632 313.798C225.425 312.369 224.755 315.942 223.682 318.085C222.878 318.8 222.073 318.085 221.135 318.085C218.989 318.562 216.799 318.8 214.564 318.8C210.273 318.8 206.027 318.8 201.826 318.8C196.462 318.8 191.144 318.8 185.869 318.8C183.188 318.8 180.551 318.8 177.958 318.8C175.679 318.8 173.265 315.942 171.12 318.085C170.583 318.085 170.181 318.8 169.645 318.8C169.243 318.085 168.974 317.371 168.572 316.656C167.857 314.751 167.142 312.845 166.427 310.939C165.622 309.51 164.684 307.367 163.879 306.652C162.94 306.652 162.136 308.081 161.331 310.225C159.856 313.083 158.113 318.085 156.504 318.8C155.297 319.514 153.688 318.085 152.482 318.085C148.906 318.085 145.375 318.085 141.889 318.085C135.005 317.609 128.122 317.371 121.239 317.371C99.9638 316.418 78.6886 315.703 57.4133 315.227L15.4438 313.798C9.90152 296.171 5.07436 271.637 0.962337 240.195C0.15781 184.457 -0.244454 132.293 0.15781 82.9861C3.77818 48.6859 8.47126 21.5316 14.6393 3.6669C15.8461 -1.33521 19.3324 3.6669 20.0028 3.6669C24.83 3.6669 29.6571 4.38149 34.6184 4.38149C42.9318 4.38149 52.318 -2.76439 60.3632 11.5274C60.7655 12.2419 61.1678 12.9565 61.57 12.9565C61.8382 12.2419 62.2405 11.5274 62.5087 10.8128C68.0063 -4.19356 76.0515 3.6669 82.0855 3.6669C116.412 2.95231 150.873 -0.620626 185.199 0.0939612C206.251 0.0939612 227.303 0.808547 248.354 1.52313C257.919 1.99953 267.484 2.47592 277.049 2.95231C281.876 2.95231 286.703 2.95231 291.531 2.95231C293.944 3.6669 296.358 2.95231 298.905 2.95231C299.844 2.95231 301.319 2.23773 302.392 4.38149C303.196 5.81066 303.196 9.3836 304.001 11.5274C304.537 13.6711 305.342 11.5274 305.878 9.3836C306.817 6.52525 307.353 3.6669 308.56 3.6669C310.616 3.6669 312.627 3.6669 314.594 3.6669C318.527 4.14329 322.505 4.38149 326.528 4.38149C334.394 4.38149 342.261 4.38149 350.127 4.38149C354.552 4.38149 358.977 4.38149 363.402 4.38149C364.34 4.38149 367.29 0.808549 368.095 3.6669C374.263 21.5316 378.956 48.6859 382.442 82.9861C383.515 92.2757 382.71 117.286 382.71 128.005C382.71 143.726 382.71 153.016 381.37 165.878C380.833 173.024 382.308 188.03 382.308 196.605C382.308 205.895 382.71 232.335 381.772 240.195Z" fill="url(#paint0_linear_405_594)"/>
<path d="M133.771 3.84082C150.959 2.94807 168.08 2.23846 185.147 2.59375H185.199C206.188 2.59375 227.185 3.30515 248.23 4.01953V4.02051C257.795 4.49689 267.36 4.97283 276.925 5.44922L276.987 5.45215H291.2C292.703 5.83001 294.129 5.80294 295.35 5.71387C296.817 5.60673 297.74 5.45217 298.905 5.45215C299.168 5.45215 299.407 5.42799 299.569 5.40918C299.653 5.39941 299.737 5.38836 299.803 5.37988C299.874 5.37073 299.93 5.36383 299.985 5.35742C300.018 5.35363 300.047 5.35208 300.072 5.34961C300.096 5.38919 300.125 5.43819 300.156 5.5L300.184 5.55469L300.213 5.60742C300.213 5.60769 300.241 5.66069 300.284 5.79297C300.329 5.92796 300.378 6.10741 300.429 6.33887C300.533 6.8126 300.622 7.37871 300.724 8.05762C300.903 9.24926 301.129 10.923 301.614 12.2793C301.702 12.6033 301.822 12.9587 301.998 13.2959C302.167 13.62 302.593 14.3308 303.476 14.7021C304.579 15.1663 305.574 14.7931 306.134 14.3965C306.614 14.0567 306.907 13.631 307.059 13.3887C307.621 12.4896 308.026 11.0834 308.283 10.0645C308.518 9.3433 308.732 8.62333 308.918 8.00293C309.12 7.32848 309.291 6.77885 309.459 6.33203C309.481 6.27316 309.504 6.21844 309.524 6.16699H314.457C318.438 6.6425 322.462 6.88183 326.527 6.88184H363.401C364.18 6.88184 364.799 6.55553 365.02 6.4375C365.324 6.27446 365.618 6.07678 365.837 5.92578C365.949 5.8487 366.05 5.77653 366.146 5.70996C372.012 23.3018 376.552 49.7621 379.955 83.2393L379.959 83.2725C380.474 87.7343 380.546 96.1445 380.479 104.94C380.412 113.613 380.21 122.654 380.21 128.005C380.21 143.735 380.208 152.903 378.883 165.619L378.879 165.655L378.877 165.691C378.594 169.456 378.842 175.168 379.142 180.838C379.446 186.61 379.808 192.404 379.808 196.605C379.808 201.353 379.908 210.121 379.892 218.932C379.875 227.74 379.737 236.146 379.289 239.898C375.318 270.254 370.692 294.045 365.435 311.335C341.793 311.811 318.109 312.514 294.383 313.443L294.373 313.444H294.363C274.091 314.396 253.818 315.11 233.546 315.586C233.024 315.591 232.55 315.66 232.188 315.72C231.74 315.794 231.551 315.837 231.264 315.875C231.123 315.894 231.022 315.899 230.949 315.9C230.942 315.889 230.933 315.878 230.925 315.866C230.751 315.594 230.567 315.249 230.32 314.778C230.098 314.356 229.812 313.807 229.5 313.32C229.256 312.939 228.867 312.384 228.309 311.933C227.976 311.6 227.49 311.233 226.824 311.062C225.866 310.817 225.012 311.09 224.419 311.488C223.9 311.837 223.564 312.283 223.365 312.583C223.151 312.908 222.976 313.252 222.836 313.556C222.563 314.148 222.302 314.859 222.088 315.425C222.056 315.508 222.023 315.589 221.992 315.668C221.746 315.623 221.455 315.585 221.135 315.585H220.86L220.593 315.645C218.628 316.081 216.62 316.3 214.564 316.3H177.958C177.879 316.3 177.663 316.269 177.166 316.068C176.928 315.972 176.685 315.863 176.379 315.727C176.091 315.598 175.746 315.444 175.39 315.307C174.7 315.04 173.725 314.732 172.625 314.797C171.964 314.836 171.329 315.005 170.735 315.305C170.437 314.51 170.138 313.714 169.84 312.919C169.482 311.966 169.125 311.014 168.768 310.062L168.699 309.881L168.605 309.713L168.306 309.163C168.021 308.624 167.761 308.093 167.351 307.336C166.952 306.6 166.324 305.481 165.539 304.783L164.829 304.152H163.879C162.063 304.152 160.975 305.503 160.479 306.243C159.919 307.079 159.454 308.135 159.049 309.199C158.664 309.955 158.273 310.816 157.9 311.646C157.497 312.545 157.109 313.42 156.718 314.228C156.323 315.044 155.969 315.7 155.655 316.166C155.588 316.266 155.528 316.345 155.48 316.407C155.45 316.396 155.417 316.387 155.382 316.374C155.241 316.32 155.099 316.262 154.911 316.186C154.737 316.115 154.522 316.027 154.3 315.946C153.891 315.798 153.23 315.585 152.481 315.585H141.971C135.085 315.11 128.199 314.873 121.312 314.871C102.693 314.037 84.0736 313.387 65.4541 312.918L57.4697 312.728L17.3066 311.359C12.0525 294.089 7.42849 270.327 3.45898 240.01C2.65664 184.38 2.25707 132.322 2.65723 83.1191C6.27203 48.9152 10.9376 22.0488 16.998 4.49121C17.1191 4.59371 17.2502 4.70744 17.3916 4.83301C17.5793 4.99972 17.8482 5.24216 18.0859 5.42871C18.2065 5.52333 18.3928 5.66235 18.6152 5.78809C18.7647 5.87257 19.289 6.16699 20.0029 6.16699C22.3089 6.167 24.6299 6.33769 27.0771 6.51758C29.4942 6.69525 32.0313 6.88183 34.6182 6.88184C36.9986 6.88184 39.405 6.37175 41.5195 5.9375C43.7341 5.48271 45.6916 5.09473 47.5918 5.09473C49.4225 5.09478 51.1256 5.46012 52.7891 6.50098C54.4805 7.55935 56.3148 9.43242 58.1846 12.7539C58.3603 13.066 58.6464 13.5838 58.9668 14.0107C59.1305 14.2288 59.3852 14.5362 59.7344 14.8076C60.0785 15.075 60.7093 15.4561 61.5703 15.4561H63.3018L63.9102 13.835C64.0031 13.5872 64.127 13.3209 64.3027 12.9463C64.4622 12.6064 64.6744 12.1581 64.8496 11.6914L64.8525 11.6816L64.8564 11.6729C66.1527 8.1347 67.4912 6.25849 68.6543 5.27344C69.7362 4.35724 70.8184 4.07996 72.0312 4.11133C73.3702 4.14597 74.7939 4.5495 76.541 5.06934C78.1263 5.54103 80.1391 6.16699 82.0859 6.16699H82.1113L82.1377 6.16602C99.3518 5.80766 116.61 4.73221 133.771 3.84082Z" stroke="black" stroke-opacity="0.3" stroke-width="5"/>
<defs>
<linearGradient id="paint0_linear_405_594" x1="-5247.23" y1="4942.86" x2="-5247.23" y2="120839" gradientUnits="userSpaceOnUse">
<stop stop-color="#40B8E3" stop-opacity="0.71"/>
</linearGradient>
</defs>
</svg>
