<svg width="41" height="41" viewBox="0 0 41 41" fill="none" xmlns="http://www.w3.org/2000/svg">
<path d="M40.8281 20.6872C40.8281 31.9203 31.7235 40.9261 20.5849 40.9261C9.44633 40.9261 0.341797 31.9203 0.341797 20.6872C0.341797 9.551 9.44633 0.545166 20.5849 0.545166C31.7235 0.545166 40.8281 9.551 40.8281 20.6872Z" fill="#E28830"/>
<path d="M39.3752 18.1693C39.3752 27.4657 31.8203 35.0189 22.4252 35.0189C13.1269 35.0189 5.57202 27.4657 5.57202 18.1693C5.57202 8.77617 13.1269 1.2229 22.4252 1.2229C31.8203 1.2229 39.3752 8.77617 39.3752 18.1693Z" fill="#F9A346"/>
<path fill-rule="evenodd" clip-rule="evenodd" d="M23.3937 27.3688C17.6791 27.3688 12.9331 22.6238 12.9331 16.8136C12.9331 11.1002 17.6791 6.35522 23.3937 6.35522C29.2051 6.35522 33.9511 11.1002 33.9511 16.8136C33.9511 22.6238 29.2051 27.3688 23.3937 27.3688ZM23.3937 9.74451C19.5194 9.74451 16.4199 12.9401 16.4199 16.8136C16.4199 20.7839 19.5194 23.8827 23.3937 23.8827C27.3648 23.8827 30.4642 20.7839 30.4642 16.8136C30.4642 12.9401 27.3648 9.74451 23.3937 9.74451Z" fill="#E28830"/>
<path d="M33.7573 11.4876C33.7573 14.3927 31.4327 16.7168 28.6238 16.7168C25.7181 16.7168 23.3936 14.3927 23.3936 11.4876C23.3936 8.67932 25.7181 6.35522 28.6238 6.35522C31.4327 6.35522 33.7573 8.67932 33.7573 11.4876Z" fill="#FFE8C4"/>
</svg>
