<svg width="286" height="47" viewBox="0 0 286 47" fill="none" xmlns="http://www.w3.org/2000/svg">
<path d="M285 35C281.933 39.4 278.333 42.8333 274.2 45.3C256.133 45.3667 238.033 45.4667 219.9 45.6C204.767 45.7333 189.633 45.8333 174.5 45.9C173.5 45.9 172.5 46 171.5 45.9C170.7 45.8 170.1 45.4 169.3 45.3C168.4 45.1 167.9 45.7 167.1 45.9C166.5 46 165.9 45.9 165.2 45.9C163.6 45.9667 161.967 46 160.3 46C157.1 46 153.933 46 150.8 46C146.8 46 142.833 46 138.9 46C136.9 46 134.933 46 133 46C131.3 46 129.5 45.6 127.9 45.9C127.5 45.9 127.2 46 126.8 46C126.5 45.9 126.3 45.8 126 45.7C125.467 45.4333 124.933 45.2 124.4 45C123.8 44.7 123.1 44.4 122.5 44.3C121.8 44.3 121.2 44.6 120.6 44.8C119.5 45.2 118.2 45.9 117 46C116.1 46.1 114.9 45.9 114 45.9C111.333 45.9 108.7 45.9 106.1 45.9C100.967 45.8333 95.8333 45.8 90.7 45.8C74.8333 45.6667 58.9667 45.5667 43.1 45.5L11.8 45.3C7.66667 42.8333 4.06667 39.4 1 35C0.400002 27.2 0.100002 19.9 0.400002 13C3.1 8.19999 6.6 4.39999 11.2 1.89999C12.1 1.19999 14.7 1.89999 15.2 1.89999C18.8 1.89999 22.4 1.99999 26.1 1.99999C32.3 1.99999 39.3 0.99999 45.3 2.99999C45.6 3.09999 45.9 3.19999 46.2 3.19999C46.4 3.09999 46.7 2.99999 46.9 2.89999C51 0.79999 57 1.89999 61.5 1.89999C87.1 1.79999 112.8 1.29999 138.4 1.39999C154.1 1.39999 169.8 1.49999 185.5 1.59999C192.633 1.66666 199.767 1.73332 206.9 1.79999C210.5 1.79999 214.1 1.79999 217.7 1.79999C219.5 1.89999 221.3 1.79999 223.2 1.79999C223.9 1.79999 225 1.69999 225.8 1.99999C226.4 2.19999 226.4 2.69999 227 2.99999C227.4 3.29999 228 2.99999 228.4 2.69999C229.1 2.29999 229.5 1.89999 230.4 1.89999C231.933 1.89999 233.433 1.89999 234.9 1.89999C237.833 1.96666 240.8 1.99999 243.8 1.99999C249.667 1.99999 255.533 1.99999 261.4 1.99999C264.7 1.99999 268 1.99999 271.3 1.99999C272 1.99999 274.2 1.49999 274.8 1.89999C279.4 4.39999 282.9 8.19999 285.5 13C286.3 14.3 285.7 17.8 285.7 19.3C285.7 21.5 285.7 22.8 284.7 24.6C284.3 25.6 285.4 27.7 285.4 28.9C285.4 30.2 285.7 33.9 285 35Z" fill="#4BC98A"/>
<path d="M285 33.8C281.933 38.2 278.333 41.6333 274.2 44.1C256.133 44.1667 238.033 44.2667 219.9 44.4C204.767 44.5333 189.633 44.6333 174.5 44.7C173.5 44.7 172.5 44.8 171.5 44.7C170.7 44.6 170.1 44.2 169.3 44.1C168.4 43.9 167.9 44.4 167.1 44.7C166.5 44.8 165.9 44.7 165.2 44.7C163.6 44.7667 161.967 44.8 160.3 44.8C157.1 44.8 153.933 44.8 150.8 44.8C146.8 44.8 142.833 44.8 138.9 44.8C136.9 44.8 134.933 44.8 133 44.8C131.3 44.8 129.5 44.4 127.9 44.7C127.5 44.7 127.2 44.8 126.8 44.8C126.5 44.7 126.3 44.6 126 44.5C125.467 44.2333 124.933 43.9667 124.4 43.7C123.8 43.5 123.1 43.2 122.5 43.1C121.8 43.1 121.2 43.3 120.6 43.6C119.5 44 118.2 44.7 117 44.8C116.1 44.9 114.9 44.7 114 44.7C111.333 44.7 108.7 44.7 106.1 44.7C100.967 44.6333 95.8333 44.6 90.7 44.6C74.8333 44.4667 58.9667 44.3667 43.1 44.3L11.8 44.1C7.66667 41.6333 4.06667 38.2 1 33.8C0.400002 26 0.100002 18.7 0.400002 11.8C3.1 7.00001 6.6 3.20001 11.2 0.700008C12.1 8.16584e-06 14.7 0.700008 15.2 0.700008C18.8 0.700008 22.4 0.800009 26.1 0.800009C32.3 0.800009 39.3 -0.199991 45.3 1.80001C45.6 1.90001 45.9 2.00001 46.2 2.00001C46.4 1.90001 46.7 1.80001 46.9 1.70001C51 -0.399992 57 0.700008 61.5 0.700008C87.1 0.600008 112.8 0.100008 138.4 0.200008C154.1 0.200008 169.8 0.300008 185.5 0.400008C192.633 0.466675 199.767 0.533342 206.9 0.600009C210.5 0.600009 214.1 0.600009 217.7 0.600009C219.5 0.700009 221.3 0.600009 223.2 0.600009C223.9 0.600009 225 0.500009 225.8 0.800009C226.4 1.00001 226.4 1.50001 227 1.80001C227.4 2.10001 228 1.80001 228.4 1.50001C229.1 1.10001 229.5 0.700008 230.4 0.700008C231.933 0.700008 233.433 0.700008 234.9 0.700008C237.833 0.766675 240.8 0.800009 243.8 0.800009C249.667 0.800009 255.533 0.800009 261.4 0.800009C264.7 0.800009 268 0.800009 271.3 0.800009C272 0.800009 274.2 0.300008 274.8 0.700008C279.4 3.20001 282.9 7.00001 285.5 11.8C286.3 13.1 285.7 16.6 285.7 18.1C285.7 20.3 285.7 21.6 284.7 23.4C284.3 24.4 285.4 26.5 285.4 27.7C285.4 29 285.7 32.7 285 33.8Z" fill="url(#paint0_linear_558_43)"/>
<path d="M280.9 28.3C280.9 29.1 281.2 31.5 280.7 32.2C278.367 35.2667 275.767 37.7333 272.9 39.6L219.9 40L203.2 40.1C197.333 40.1 191.467 40.1333 185.6 40.2C182.667 40.2 179.733 40.2333 176.8 40.3C175.4 40.3 173.9 40.4 172.4 40.3C171.1 40.1 170.3 39.6 169.1 39C168.8 38.9 168.5 38.7 168.1 38.8C167.6 38.8 167.3 39.3 167 39.7C166.1 41 162.8 40.3 161.4 40.3C159.133 40.3 156.867 40.3333 154.6 40.4C152.2 40.4 149.8 40.4 147.4 40.4C145.267 40.4 143.1 40.4 140.9 40.4C138.767 40.4 136.6 40.4 134.4 40.4C132.5 40.4 131.2 40 129.3 39.5C127.9 39.2 126.3 40 125.1 39.2C124.6 38.9 124.3 38.4 123.8 38.2C123.3 38.1 122.9 38.3 122.4 38.5C120.6 39.3 118.5 40.1 116.6 40.3C112.8 40.6 108.9 40.3 105.2 40.2C102.133 40.2 99.0333 40.2 95.9 40.2C90.4333 40.1333 84.9333 40.1 79.4 40.1C69.2667 40.0333 59.1 39.9667 48.9 39.9C40.5 39.8333 32.0667 39.7667 23.6 39.7C21 39.7 18.4333 39.7 15.9 39.7C15.3 39.7 13.6 40 13.1 39.6C10.2 37.8 7.6 35.3 5.3 32.2C5.23333 31.5333 5.2 30.9 5.2 30.3C5.2 30.2333 5.2 30.1667 5.2 30.1C5.13333 29.8333 5.1 29.5667 5.1 29.3C4.7 23.5 4.6 18.1 4.8 13.1C6.9 9.50001 9.6 6.80001 12.9 4.80001C13.2 4.80001 13.6 4.90001 13.8 4.90001C14.3 5.00001 14.6 5.10001 15.1 5.10001C16.5 5.10001 17.8667 5.13334 19.2 5.20001C21.4667 5.20001 23.7333 5.23334 26 5.3C29.4667 5.23334 32.9667 5.20001 36.5 5.20001C38.3 5.20001 40.1 5.20001 41.9 5.20001C43.5 5.30001 44.8 6.00001 46.3 6.50001C46.6 6.50001 46.9 6.60001 47.2 6.50001C47.4 6.40001 47.5 6.30001 47.6 6.20001C49.2 4.60001 52 5.20001 54 5.20001C56.5333 5.13334 59.0333 5.10001 61.5 5.10001C65.3 5.10001 69.1 5.06667 72.9 5.00001C78.9667 5.00001 85.0333 4.96667 91.1 4.90001C105.7 4.70001 120.8 4.60001 135.7 4.60001H138.4C156.8 4.60001 175.6 4.80001 193.8 4.90001C199.333 4.96667 204.833 5.00001 210.3 5.00001C213.033 5.06667 215.8 5.10001 218.6 5.10001C220.9 5.10001 223.4 4.70001 225.8 4.90001C225.667 6.43334 225.533 7.93334 225.4 9.40001C225.733 8.86667 226.1 8.33334 226.5 7.8C227 7.00001 227.3 6.40001 227.6 5.60001C227.7 5.50001 227.7 5.3 227.9 5.3C227.967 5.23334 228.067 5.20001 228.2 5.20001C233.5 5.10001 238.9 5.20001 244.2 5.20001C249.6 5.26667 255.033 5.3 260.5 5.3H263.8C266.333 5.3 268.867 5.26667 271.4 5.20001C271.9 5.20001 272.5 5.10001 273 5.10001C273.9 5.10001 274.8 5.80001 275.4 6.40001C276.2 7.00001 276.9 7.6 277.5 8.3C278.233 8.96667 278.9 9.70001 279.5 10.5C279.767 10.9 280.033 11.3 280.3 11.7C280.5 12 281.2 12.7 281.2 13.1C281.267 15.1667 281.267 17.2333 281.2 19.3C281.2 20.2 281.4 21.4 281 22.2C280.5 22.9 279.7 23.2 280 24.3C280.1 24.6 280.3 24.9 280.4 25.2C280.533 25.4 280.633 25.6 280.7 25.8C281.1 26.6 281 27.2 280.9 28.3Z" fill="url(#paint1_linear_558_43)"/>
<path d="M272.9 29.4C274.9 30.2 275.1 33.1 273 34C268.5 36.1 269.1 28 272.7 29.3C272.767 29.3 272.833 29.3333 272.9 29.4Z" fill="url(#paint2_radial_558_43)"/>
<path d="M208.9 10.7C211.9 10.2 214.3 13.5 212.6 16.2C208.9 22.1 203.4 12 208.6 10.8C208.733 10.8 208.833 10.7667 208.9 10.7Z" fill="url(#paint3_radial_558_43)"/>
<path d="M14.7 15.3C12.5 14.9 10.8 17.3 12 19.2C14.7 23.5 18.6 16.2 14.8 15.3C14.8 15.3 14.7667 15.3 14.7 15.3Z" fill="url(#paint4_radial_558_43)"/>
<path d="M142.6 28.2C145.6 27.7 148 30.9 146.3 33.6C142.7 39.5 137.2 29.4 142.4 28.2C142.467 28.2 142.533 28.2 142.6 28.2Z" fill="url(#paint5_radial_558_43)"/>
<path d="M152.5 31.2C153.7 31 154.6 32.3 154 33.3C152.5 35.7 150.3 31.7 152.4 31.2C152.4 31.2 152.433 31.2 152.5 31.2Z" fill="url(#paint6_radial_558_43)"/>
<path d="M81.3 14C82.5 13.8 83.5 15.1 82.8 16.2C81.3 18.5 79.2 14.5 81.2 14.1C81.2667 14.0333 81.3 14 81.3 14Z" fill="url(#paint7_radial_558_43)"/>
<path d="M19.5 14.3C20.4 14.2 21.1 15.2 20.6 16C19.5 17.8 17.8 14.7 19.4 14.4C19.4 14.3333 19.4333 14.3 19.5 14.3Z" fill="url(#paint8_radial_558_43)"/>
<path d="M45.2 32.4C47 32.1 48.4 34 47.4 35.7C45.2 39.2 41.9 33.2 45 32.4C45.0667 32.4 45.1333 32.4 45.2 32.4Z" fill="url(#paint9_radial_558_43)"/>
<path style="mix-blend-mode:screen" opacity="0.29" d="M147.4 40.4C145.267 40.4 143.1 40.4 140.9 40.4C138.767 40.4 136.6 40.4 134.4 40.4C132.5 40.4 131.2 40 129.3 39.5C127.9 39.2 126.3 40 125.1 39.2C124.6 38.9 124.3 38.4 123.8 38.2C123.3 38.1 122.9 38.3 122.4 38.5C120.6 39.3 118.5 40.1 116.6 40.3C112.8 40.6 108.9 40.3 105.2 40.2C102.133 40.2 99.0333 40.2 95.9 40.2L72.9 5.00001C78.9667 5.00001 85.0333 4.96667 91.1 4.90001C105.7 4.70001 120.8 4.60001 135.7 4.60001H138.2L147.4 40.4Z" fill="url(#paint10_linear_558_43)"/>
<path d="M281 22.2C280.5 22.9 279.7 23.2 280 24.3C280.1 24.6 280.3 24.9 280.4 25.2C280.533 25.4 280.633 25.6 280.7 25.8C280 24.9 279.4 23.9 279.7 22.9C279.9 22.5 280.1 22.2 280.2 21.9C280.5 21.2 280.5 20.4 280.5 19.6C280.5 15.2 279.2 11.8 276.2 8.60001C273.5 5.60001 270.2 6.20001 266.5 6.20001C262.433 6.20001 258.333 6.20001 254.2 6.20001C246.067 6.13334 237.9 6.10001 229.7 6.10001C229 6.10001 228.2 5.6 227.8 6.3C227 7.83334 226.2 9.36667 225.4 10.9C225.2 9.70001 225.1 7.00001 223.7 6.60001C222.9 6.40001 222 6.9 221.1 6.8C220.3 6.6 219.5 6.40001 218.7 6.20001C217 5.90001 215.2 6.30001 213.5 6.40001C209.633 6.53334 205.767 6.60001 201.9 6.60001C199.433 6.60001 196.933 6.56667 194.4 6.50001C192.133 6.43334 189.833 6.36667 187.5 6.3C176 6.1 164.5 5.40001 153 5.70001C141.4 6.00001 129.8 6.30001 118.1 6.20001C95.4 6.00001 72.8 6.20001 50.1 6.20001C49 6.20001 48.3 7.50001 47.2 7.60001C46.9 7.70001 46.6 7.60001 46.3 7.50001C45.4 7.30001 44.6 6.8 43.7 6.8C34.9 6.73334 26.1 6.63334 17.3 6.50001C15.7 6.50001 14.3 6.4 13.1 7.3C11.5667 8.36667 10.1333 9.53334 8.8 10.8C5.5 13.8 5.6 17.4 5.5 21.6C5.4 24.2 5.5 26.8 5.1 29.3C4.7 23.5 4.6 18.1 4.8 13C6.9 9.50001 9.6 6.80001 12.9 4.80001C13.2 4.80001 13.6 4.90001 13.8 4.90001C14.3 5.00001 14.6 5.10001 15.1 5.10001C16.5 5.10001 17.8667 5.13334 19.2 5.20001C21.4667 5.20001 23.7333 5.20001 26 5.20001C29.4667 5.20001 32.9667 5.20001 36.5 5.20001C38.3 5.20001 40.1 5.20001 41.9 5.20001C43.5 5.20001 44.8 6.00001 46.3 6.50001C46.6 6.50001 46.9 6.60001 47.2 6.50001C47.4 6.40001 47.5 6.30001 47.6 6.20001C49.2 4.60001 52 5.20001 54 5.20001C56.5333 5.13334 59.0333 5.10001 61.5 5.10001C71.3667 5.03334 81.2333 4.96667 91.1 4.90001C105.7 4.70001 120.8 4.60001 135.7 4.60001H138.4C156.8 4.60001 175.6 4.80001 193.8 4.90001C199.333 4.96667 204.833 5.00001 210.3 5.00001C213.033 5.06667 215.8 5.10001 218.6 5.10001C220.9 5.10001 223.4 4.70001 225.8 4.90001C225.667 6.43334 225.533 7.93334 225.4 9.40001C225.733 8.86667 226.1 8.33334 226.5 7.8C227 7.00001 227.3 6.40001 227.6 5.60001C227.7 5.50001 227.8 5.3 227.9 5.3C227.967 5.23334 228.067 5.20001 228.2 5.20001C233.5 5.10001 238.9 5.20001 244.2 5.20001C249.6 5.20001 255.033 5.20001 260.5 5.20001H263.8C266.333 5.26667 268.867 5.26667 271.4 5.20001C271.9 5.20001 272.5 5.10001 273 5.10001C273.9 5.10001 274.8 5.80001 275.4 6.40001C276.2 7.00001 276.9 7.6 277.5 8.3C278.233 8.96667 278.9 9.70001 279.5 10.5C279.767 10.9 280.033 11.3 280.3 11.7C280.5 12 281.1 12.7 281.2 13C281.267 15.1333 281.267 17.2333 281.2 19.3C281.2 20.2 281.4 21.4 281 22.2Z" fill="#B4F4FA"/>
<defs>
<linearGradient id="paint0_linear_558_43" x1="-3913" y1="691.895" x2="-3913" y2="16910.5" gradientUnits="userSpaceOnUse">
<stop stop-color="#40B8E3"/>
<stop offset="0.64" stop-color="#304891"/>
<stop offset="1" stop-color="#15AD8C"/>
</linearGradient>
<linearGradient id="paint1_linear_558_43" x1="-12202.4" y1="1712.02" x2="-12202.4" y2="30138" gradientUnits="userSpaceOnUse">
<stop stop-color="#4EBDE6"/>
<stop offset="1" stop-color="#085A8A"/>
</linearGradient>
<radialGradient id="paint2_radial_558_43" cx="0" cy="0" r="1" gradientUnits="userSpaceOnUse" gradientTransform="translate(1401.26 194.423) scale(18.7498 20.8087)">
<stop stop-color="#62CEF5"/>
<stop offset="1" stop-color="#237FCF"/>
</radialGradient>
<radialGradient id="paint3_radial_558_43" cx="0" cy="0" r="1" gradientUnits="userSpaceOnUse" gradientTransform="translate(1311.23 -550.004) rotate(-32.8952) scale(37.7427 41.6471)">
<stop stop-color="#62CEF5"/>
<stop offset="1" stop-color="#237FCF"/>
</radialGradient>
<radialGradient id="paint4_radial_558_43" cx="0" cy="0" r="1" gradientUnits="userSpaceOnUse" gradientTransform="translate(-9.69917 -122.656) rotate(-147.265) scale(19.4842 21.5703)">
<stop stop-color="#62CEF5"/>
<stop offset="1" stop-color="#237FCF"/>
</radialGradient>
<radialGradient id="paint5_radial_558_43" cx="0" cy="0" r="1" gradientUnits="userSpaceOnUse" gradientTransform="translate(985.142 -247.015) rotate(-32.8952) scale(37.1932 41.0911)">
<stop stop-color="#62CEF5"/>
<stop offset="1" stop-color="#237FCF"/>
</radialGradient>
<radialGradient id="paint6_radial_558_43" cx="0" cy="0" r="1" gradientUnits="userSpaceOnUse" gradientTransform="translate(511.938 -86.0941) rotate(-32.8951) scale(5.94501 6.45145)">
<stop stop-color="#62CEF5"/>
<stop offset="1" stop-color="#237FCF"/>
</radialGradient>
<radialGradient id="paint7_radial_558_43" cx="0" cy="0" r="1" gradientUnits="userSpaceOnUse" gradientTransform="translate(286.102 -49.0634) rotate(-32.8951) scale(5.93723 6.55844)">
<stop stop-color="#62CEF5"/>
<stop offset="1" stop-color="#237FCF"/>
</radialGradient>
<radialGradient id="paint8_radial_558_43" cx="0" cy="0" r="1" gradientUnits="userSpaceOnUse" gradientTransform="translate(88.5316 23.9437) rotate(-32.9102) scale(3.5008 3.92373)">
<stop stop-color="#62CEF5"/>
<stop offset="1" stop-color="#237FCF"/>
</radialGradient>
<radialGradient id="paint9_radial_558_43" cx="0" cy="0" r="1" gradientUnits="userSpaceOnUse" gradientTransform="translate(283.651 56.5442) rotate(-32.9036) scale(13.4928 14.91)">
<stop stop-color="#62CEF5"/>
<stop offset="1" stop-color="#237FCF"/>
</radialGradient>
<linearGradient id="paint10_linear_558_43" x1="4799.5" y1="7383.71" x2="9743.7" y2="13242.7" gradientUnits="userSpaceOnUse">
<stop stop-color="#C7F0E1"/>
<stop offset="1"/>
</linearGradient>
</defs>
</svg>
