<svg width="330" height="275" viewBox="0 0 330 275" fill="none" xmlns="http://www.w3.org/2000/svg">
<path d="M329.858 26.3461C329.637 30.8928 329.432 35.4552 329.242 40.0335C328.8 49.1584 328.374 58.2833 327.963 67.4082C327.727 72.0496 327.537 76.7383 327.348 81.3797C327.111 85.6896 327.49 90.6151 326.59 94.7829C326.543 94.925 326.495 95.1144 326.401 95.2092C326.258 95.3986 326.022 95.446 325.785 95.4933C325.074 95.6354 324.364 95.6828 323.701 95.6354C325.074 96.9615 326.59 97.2457 326.448 99.5664C326.258 102.171 326.069 104.776 325.88 107.381C325.548 112.354 325.501 117.374 325.216 122.347C325.027 126.373 324.932 130.351 324.648 134.329C324.553 136.366 324.885 139.681 323.511 141.386C322.801 142.286 321.806 142.381 320.907 142.854C321.759 142.428 323.227 143.802 323.464 144.512C323.748 145.128 323.796 145.886 323.796 146.596C323.985 150.622 323.654 154.695 323.464 158.673C322.943 168.572 322.375 178.47 321.759 188.321C321.143 199.498 320.433 210.628 319.817 221.758C319.581 225.547 319.391 229.383 319.154 233.219C318.87 237.956 316.218 241.65 313.329 245.297C312.161 246.812 310.913 248.264 309.587 249.654C307.409 251.927 306.13 253.158 302.909 253.158C301.583 253.158 300.257 253.158 298.931 253.111C294.953 253.08 290.99 253.048 287.043 253.016C279.181 252.922 271.367 252.827 263.552 252.78C263.047 252.78 262.558 252.78 262.084 252.78C237.646 252.637 213.302 253.727 188.911 252.259C188.201 252.211 187.443 252.164 186.827 251.832C186.354 251.596 186.022 251.217 185.549 251.027C184.885 250.79 184.175 250.885 183.559 250.98C181.996 251.264 180.481 251.738 179.06 252.353C178.35 252.637 177.639 253.016 176.834 253.158C176.218 253.253 175.603 253.206 174.94 253.158C166.888 252.685 158.979 252.448 150.88 252.495C126.284 252.495 101.688 252.574 77.0916 252.732C75.7023 252.732 74.2973 252.748 72.8765 252.78C63.1832 252.843 53.49 252.922 43.7967 253.016C39.85 253.048 35.8874 253.08 31.9091 253.111C30.583 253.158 29.2569 253.158 27.9308 253.158C24.7102 253.158 23.4315 251.927 21.2529 249.654C19.9267 248.264 18.6796 246.812 17.5113 245.297C14.6223 241.65 11.9701 237.956 11.6859 233.219C11.5912 231.578 11.4965 229.952 11.4017 228.341C11.307 226.763 11.2123 225.2 11.1176 223.652C10.2335 208.307 9.38101 192.978 8.56008 177.665C8.37064 174.255 8.18119 170.861 7.99175 167.482C7.42341 157.252 6.85508 146.975 6.42883 136.697C6.19202 131.819 6.42883 126.704 5.81314 121.873C5.48161 119.221 4.72383 116.522 5.33952 113.964C5.81314 112.07 6.42883 110.459 6.76036 108.565C7.51814 104.587 3.87133 104.587 3.72925 101.035C3.47665 94.6882 3.25564 88.3576 3.06619 82.0428C2.59258 67.9765 2.26105 54.0524 1.598 40.0335C1.40855 35.4552 1.20332 30.8928 0.982302 26.3461C0.934941 24.4517 0.603414 22.3678 1.17175 20.5207C1.69272 18.8157 2.82939 17.3949 3.82397 15.9267C5.40267 13.5586 7.10767 11.3011 8.93897 9.15402C10.9281 6.78596 12.7752 3.99166 15.6169 2.61818C17.2272 1.81305 19.0742 1.71832 20.8266 1.71832C23.2262 1.7499 25.6417 1.78147 28.0729 1.81305C33.5667 1.86041 39.0133 1.95513 44.5072 2.00249C49.7169 2.09721 54.6898 3.23388 59.8522 4.08638C60.8468 4.22846 61.8887 4.37055 62.9306 4.1811C63.9726 3.99166 64.9198 3.42332 65.9617 3.04444C69.4191 1.76569 74.913 2.38138 78.6072 2.42874C88.7109 2.55504 98.8146 2.68133 108.918 2.80763C126.915 2.99707 144.913 3.23388 162.91 3.42333C174.34 3.29703 185.785 3.17073 197.247 3.04444C202.962 2.98129 208.692 2.91814 214.439 2.85499C216.996 2.85499 220.122 2.28666 222.632 2.80763C224.764 3.23388 227.037 4.37054 229.168 5.0336C228.789 4.65471 228.505 4.13374 228.363 3.56541C231.773 2.14457 236.083 2.61819 239.73 2.57082C243.866 2.50768 248.018 2.46031 252.186 2.42874C261.689 2.30244 271.193 2.19194 280.697 2.09721C288.054 2.00249 295.411 1.90777 302.767 1.81305C305.167 1.78147 307.582 1.7499 310.014 1.71832C311.766 1.71832 313.613 1.81305 315.223 2.61818C318.065 3.99166 319.912 6.78596 321.901 9.15402C323.733 11.3011 325.438 13.5586 327.016 15.9267C327.963 17.3949 329.147 18.8157 329.668 20.5207C330.237 22.3678 329.905 24.4517 329.858 26.3461Z" fill="#4BC98A"/>
<path d="M329.716 24.8305C329.526 29.3772 329.321 33.9239 329.1 38.4705C328.69 47.5954 328.263 56.7204 327.821 65.8453C327.632 70.534 327.442 75.1754 327.206 79.8642C327.016 84.174 327.348 89.0522 326.448 93.2673C326.448 93.4094 326.401 93.5515 326.306 93.6936C326.164 93.883 325.88 93.9304 325.69 93.9778C324.98 94.1198 324.269 94.1672 323.559 94.1198C324.932 95.4459 326.495 95.6828 326.306 98.0508C326.116 100.656 325.927 103.261 325.785 105.818C325.406 110.838 325.359 115.859 325.122 120.832C324.932 124.81 324.79 128.836 324.553 132.814C324.411 134.85 324.79 138.166 323.417 139.871C322.706 140.771 321.712 140.865 320.765 141.339C321.664 140.913 323.085 142.286 323.369 142.949C323.606 143.612 323.654 144.37 323.701 145.08C323.89 149.106 323.559 153.132 323.322 157.157C322.801 167.056 322.233 176.907 321.664 186.806C321.001 197.935 320.338 209.113 319.723 220.242C319.486 224.031 319.249 227.868 319.012 231.657C318.775 236.44 316.123 240.134 313.234 243.781C312.034 245.265 310.787 246.702 309.493 248.091C307.314 250.412 306.035 251.643 302.767 251.643C301.441 251.643 300.115 251.596 298.836 251.596C294.858 251.564 290.88 251.532 286.901 251.501C279.087 251.406 271.272 251.311 263.41 251.264C262.937 251.264 262.447 251.264 261.942 251.264C237.551 251.122 213.207 252.211 188.816 250.743C188.106 250.696 187.348 250.648 186.733 250.317C186.259 250.08 185.88 249.701 185.406 249.512C184.791 249.275 184.08 249.322 183.417 249.464C181.902 249.748 180.386 250.222 178.965 250.838C178.208 251.122 177.497 251.501 176.739 251.596C176.124 251.738 175.461 251.69 174.845 251.643C166.794 251.169 158.837 250.932 150.786 250.932C126.189 250.964 101.593 251.059 76.9969 251.217C75.6077 251.217 74.2026 251.232 72.7818 251.264C63.0885 251.327 53.3953 251.406 43.702 251.501C39.7237 251.532 35.7612 251.564 31.8144 251.596C30.4883 251.596 29.1622 251.643 27.8361 251.643C24.5682 251.643 23.2894 250.412 21.1108 248.091C19.8163 246.702 18.5691 245.265 17.3693 243.781C14.5276 240.134 11.8754 236.44 11.5912 231.657C11.4965 230.046 11.4018 228.42 11.307 226.778C11.2123 225.231 11.1176 223.684 11.0229 222.137C10.1388 206.792 9.27052 191.447 8.41802 176.102C8.22858 172.723 8.03913 169.345 7.84969 165.967C7.28135 155.689 6.76038 145.459 6.28677 135.182C6.09733 130.256 6.33413 125.189 5.71844 120.311C5.33955 117.706 4.62913 115.006 5.24482 112.449C5.71844 110.554 6.28677 108.944 6.66566 107.049C7.42344 103.071 3.77663 103.071 3.63455 99.519C3.38195 93.1726 3.14515 86.8262 2.92413 80.4798C2.45052 66.461 2.11899 52.5368 1.5033 38.4705C1.28228 33.9239 1.07705 29.3772 0.887603 24.8305C0.792881 22.9361 0.508714 20.8048 1.02969 18.9578C1.55066 17.3001 2.73469 15.8793 3.68191 14.4111C5.29219 12.043 6.99719 9.7697 8.79691 7.59109C10.7861 5.2704 12.6805 2.47609 15.5222 1.05526C17.1325 0.297482 18.9322 0.202759 20.7319 0.202759C23.1315 0.234333 25.5312 0.265905 27.9308 0.29748C33.4247 0.344841 38.9186 0.439564 44.4125 0.486925C49.6222 0.534286 54.5477 1.71832 59.7101 2.52345C60.7521 2.7129 61.794 2.85498 62.7886 2.66553C63.8779 2.47609 64.8251 1.8604 65.8197 1.48151C69.3244 0.250118 74.7709 0.865814 78.5125 0.913175C88.6162 1.03947 98.7041 1.14998 108.776 1.2447C126.773 1.48151 144.771 1.67095 162.815 1.90776C174.245 1.78146 185.691 1.65517 197.152 1.52887C202.867 1.46572 208.582 1.40257 214.297 1.33943C216.854 1.29207 219.98 0.771091 222.49 1.2447C224.669 1.67095 226.942 2.80762 229.073 3.51804C228.647 3.13915 228.363 2.61818 228.268 2.04984C231.678 0.629009 235.988 1.10262 239.588 1.05526C243.755 0.992112 247.923 0.944749 252.091 0.913175C261.595 0.786879 271.083 0.660581 280.555 0.534285C287.943 0.471137 295.316 0.392202 302.673 0.29748C305.072 0.265905 307.472 0.234333 309.871 0.202759C311.671 0.202759 313.471 0.297482 315.129 1.05526C317.923 2.47609 319.817 5.2704 321.807 7.59109C323.638 9.7697 325.343 12.043 326.922 14.4111C327.869 15.8793 329.053 17.3001 329.574 18.9578C330.142 20.8048 329.811 22.9361 329.716 24.8305Z" fill="url(#paint0_linear_724_50)"/>
<path d="M323.559 21.8468C323.512 22.2731 323.464 22.6993 323.464 23.1256C323.306 26.3461 323.164 29.5825 323.038 32.8346C323.006 33.5292 322.975 34.2081 322.943 34.8711C322.912 35.5026 322.88 36.1499 322.849 36.8129C322.754 38.96 322.659 41.1228 322.564 43.3014C322.533 43.9013 322.501 44.5012 322.47 45.1011C322.343 48.0059 322.201 50.9108 322.043 53.8156C322.012 54.447 321.98 55.0943 321.949 55.7574C321.917 57.0519 321.854 58.3622 321.759 59.6884C321.759 60.3988 321.854 61.346 321.664 62.009C321.428 62.6247 320.954 63.2878 320.67 63.8561C320.528 64.235 320.338 64.5665 320.196 64.9454C320.054 65.5138 320.007 66.0821 319.912 66.6978C319.77 68.829 319.581 71.055 320.007 73.1389C320.48 75.3175 321.38 77.212 320.859 79.4379C320.623 80.5746 320.717 81.8533 320.67 83.0374C320.607 84.3003 320.544 85.5791 320.48 86.8736C320.386 88.7365 320.291 90.5994 320.196 92.4622C319.975 97.1983 319.738 101.934 319.486 106.671C319.454 107.365 319.423 108.076 319.391 108.802C319.202 112.275 319.028 115.748 318.87 119.221C318.554 125.126 318.239 131.062 317.923 137.029C317.876 138.024 317.97 139.018 317.639 139.965C317.355 140.818 317.165 141.765 317.402 142.665C317.639 143.518 317.544 144.228 317.497 145.128C317.339 148.096 317.181 151.048 317.023 153.984C316.991 154.521 316.96 155.058 316.928 155.595C316.676 160.015 316.439 164.451 316.218 168.903C316.186 169.535 316.155 170.166 316.123 170.798C316.029 172.06 315.95 173.308 315.886 174.539C315.508 181.548 315.129 188.653 314.702 195.804C314.639 196.972 314.576 198.141 314.513 199.309C314.355 202.056 314.197 204.787 314.039 207.502C313.945 209.113 313.755 210.676 313.613 212.286C313.566 213.28 313.282 214.275 313.282 215.27C313.329 216.643 313.471 218.017 313.518 219.343C313.566 220.763 313.187 222.137 313.139 223.51C313.013 225.31 312.903 227.11 312.808 228.91C312.776 229.32 312.761 229.731 312.761 230.141C312.571 233.077 310.582 235.777 308.214 238.761C307.125 240.134 305.988 241.508 304.804 242.739C304.378 243.165 303.525 244.113 303.194 244.302C303.146 244.302 303.004 244.349 302.578 244.349C301.757 244.318 300.92 244.302 300.068 244.302L280.508 244.113C275.156 244.065 269.851 242.55 264.594 241.602C263.363 241.413 261.942 241.223 261.042 242.123C260.474 242.739 260.237 243.734 259.432 244.065C259.148 244.16 258.769 244.16 258.39 244.113C252.659 243.592 246.787 243.876 241.008 243.828C238.072 243.828 235.136 243.781 232.199 243.686C225.19 243.497 218.086 243.307 211.076 243.734C208.661 243.876 206.151 243.686 203.688 243.686C198.952 243.686 194.2 243.67 189.432 243.639C180.086 243.639 170.74 243.639 161.394 243.639C154.574 243.639 147.849 243.639 141.219 243.639C136.514 243.639 131.841 243.655 127.2 243.686C123.442 243.686 119.685 243.686 115.928 243.686C90.8738 243.781 66.6249 243.923 42.6602 244.16L29.3043 244.302C28.4834 244.302 27.6467 244.318 26.7942 244.349C26.3206 244.349 26.1312 244.302 26.1312 244.302C25.8943 244.113 24.9945 243.165 24.5682 242.739C23.3842 241.46 22.2475 240.134 21.1582 238.761C20.3057 237.719 19.5006 236.677 18.8375 235.635C18.7112 235.445 18.5849 235.256 18.4587 235.067C17.4167 233.409 16.7537 231.799 16.6589 230.141C16.5011 227.331 16.3274 224.521 16.138 221.711C16.138 221.521 16.138 221.348 16.138 221.19C15.9959 218.585 15.7591 215.98 15.6643 213.328C15.6643 212.475 15.7591 211.575 15.8064 210.723C15.8064 209.728 15.5223 208.592 15.3802 207.597C15.1907 206.176 15.4749 204.85 15.3328 203.429C15.1907 202.482 15.0013 201.44 14.9539 200.446C14.7961 198.014 14.654 195.567 14.5277 193.105C14.4645 192.315 14.4172 191.526 14.3856 190.737C14.133 186.095 13.8804 181.47 13.6278 176.86C13.4857 174.823 15.1434 175.534 15.5223 173.734C14.4803 171.271 13.3437 168.95 13.0595 166.346C12.6806 163.457 12.728 160.473 12.5859 157.584C12.5227 156.763 12.4754 155.942 12.4438 155.121C12.2228 151.301 12.0175 147.496 11.8281 143.707C11.7649 142.665 11.7176 141.639 11.686 140.628C11.5913 138.829 11.023 136.461 11.3071 134.661C11.5913 133.003 12.6332 132.009 11.8755 130.162C10.6441 127.083 10.7862 124.005 10.6441 120.689C10.6125 120.184 10.5809 119.695 10.5493 119.221C10.3599 115.432 10.1705 111.659 9.98101 107.902C9.94944 107.523 9.91786 107.144 9.88629 106.765C9.72842 103.355 9.57055 99.9295 9.41268 96.4879C9.22323 92.7938 8.84435 89.0996 8.74962 85.4054C8.6549 82.99 8.56018 80.5746 8.46546 78.2066C8.27601 73.6599 8.07078 69.1132 7.84976 64.5665C7.81819 64.4402 7.8024 64.3139 7.8024 64.1877C7.61296 60.0199 7.42351 55.8521 7.23407 51.6843C7.20249 50.7371 7.15513 49.7741 7.09198 48.7953C6.93411 45.1959 6.76046 41.5964 6.57101 37.997C6.57101 37.5865 6.55523 37.1918 6.52365 36.8129C6.49208 36.0867 6.4605 35.3763 6.42893 34.6817C6.28685 30.8454 6.0974 26.9618 5.90796 23.1256C5.90796 22.7151 5.89217 22.2889 5.8606 21.8468C5.81323 20.9943 5.71851 19.7629 5.81323 19.3367C5.95532 18.9104 6.57101 18.0579 7.04462 17.3949C7.26564 17.0476 7.48666 16.7002 7.70768 16.3529C9.22323 14.127 10.7862 12.0431 12.4438 10.1486C12.8227 9.67501 13.2174 9.18561 13.6278 8.68043C13.6278 8.68043 13.6278 8.66464 13.6278 8.63307C13.9436 8.25418 14.2593 7.87529 14.575 7.4964C15.4749 6.45446 16.3748 5.50723 17.1325 5.12835C17.4799 4.97048 18.1903 4.89154 19.2638 4.89154L47.3016 5.22307L51.422 5.27043L77.1864 5.5546L128.384 6.17029C129.173 6.20186 129.962 6.21765 130.752 6.21765C133.309 6.26501 135.867 6.26501 138.424 6.31237C146.318 6.4071 154.211 6.50182 162.105 6.59654H162.247C162.721 6.59654 163.21 6.58075 163.715 6.54918C166.525 6.51761 169.335 6.50182 172.145 6.50182C177.86 6.43867 183.591 6.35974 189.338 6.26501C191.011 6.26501 192.7 6.24922 194.405 6.21765C197.594 6.18608 200.783 6.1545 203.972 6.12293C219.917 5.96506 235.862 5.7914 251.807 5.60196L265.684 5.41251L269.851 5.36515L310.108 4.89154C311.182 4.89154 311.892 4.97048 312.24 5.12835C312.808 5.41251 313.376 5.93348 313.992 6.59654C314.15 6.75441 314.308 6.92807 314.466 7.11751C314.892 7.59112 315.318 8.1121 315.744 8.63307C316.155 9.13825 316.565 9.64344 316.976 10.1486C318.586 12.0431 320.149 14.127 321.664 16.3529C321.696 16.4161 321.728 16.4634 321.759 16.495C321.949 16.8108 322.154 17.1107 322.375 17.3949C322.375 17.3949 322.375 17.4107 322.375 17.4422C322.849 18.1053 323.417 18.9104 323.559 19.3367C323.701 19.7629 323.606 20.9943 323.559 21.8468Z" fill="url(#paint1_radial_724_50)"/>
<path style="mix-blend-mode:screen" opacity="0.24" d="M232.199 243.686C225.19 243.497 218.086 243.307 211.076 243.734C208.661 243.876 206.151 243.686 203.688 243.686C198.952 243.686 194.2 243.67 189.432 243.639C180.086 243.639 170.74 243.639 161.394 243.639C154.574 243.639 147.849 243.639 141.219 243.639L77.1864 5.55457L128.384 6.17026C129.173 6.20183 129.962 6.21762 130.752 6.21762C133.309 6.26498 135.867 6.26498 138.424 6.31234C146.318 6.40706 154.211 6.50179 162.105 6.59651H162.247C162.721 6.59651 163.21 6.58072 163.715 6.54915C166.525 6.51757 169.335 6.50179 172.145 6.50179C177.86 6.43864 183.591 6.3597 189.338 6.26498C191.011 6.26498 192.7 6.24919 194.405 6.21762C197.594 6.18604 200.783 6.15447 203.972 6.1229L232.199 243.686Z" fill="url(#paint2_linear_724_50)"/>
<path d="M323.464 21.8468C323.464 22.2731 323.417 22.6993 323.417 23.0782C323.259 26.3303 323.101 29.5667 322.943 32.7872C322.943 33.4819 322.927 34.1607 322.896 34.8238C322.864 35.4868 322.833 36.1341 322.801 36.7656C322.706 38.9442 322.596 41.107 322.47 43.254C322.47 43.8855 322.454 44.5012 322.422 45.1011C322.296 47.9744 322.154 50.8634 321.996 53.7682C321.964 54.4313 321.933 55.0943 321.901 55.7574C321.838 57.0519 321.775 58.3464 321.712 59.641C321.664 60.7776 321.807 62.0564 321.522 63.1931C321.286 64.235 320.717 65.277 320.433 66.2715C320.149 67.124 319.912 67.9292 319.865 68.7817C319.817 69.4447 319.912 70.0604 320.007 70.7235C320.259 72.3653 320.512 74.023 320.765 75.6964C320.812 76.1226 320.907 76.5489 320.907 76.9752C320.954 80.2431 320.575 83.6057 320.433 86.8263C320.338 88.6891 320.244 90.552 320.149 92.4149C319.896 97.1826 319.66 101.919 319.438 106.623C319.407 107.349 319.375 108.06 319.344 108.754C319.154 112.228 318.965 115.701 318.775 119.174C318.491 125.11 318.191 131.062 317.876 137.029C317.812 138.292 317.733 139.555 317.639 140.818C317.418 145.175 317.197 149.548 316.976 153.937C316.944 154.474 316.913 155.01 316.881 155.547C316.628 159.999 316.392 164.435 316.171 168.856C316.107 169.487 316.06 170.134 316.028 170.798C315.965 172.029 315.902 173.26 315.839 174.492C315.46 181.548 315.034 188.653 314.655 195.757C314.592 196.925 314.529 198.093 314.466 199.262C314.308 202.008 314.15 204.74 313.992 207.455C313.834 208.244 313.676 209.034 313.518 209.823C313.755 208.781 313.613 207.55 313.66 206.508C313.724 205.34 313.771 204.171 313.803 203.003C313.897 200.667 313.992 198.346 314.087 196.041C314.276 191.4 314.466 186.758 314.655 182.117C315.034 172.802 315.413 163.504 315.792 154.221C315.886 151.853 315.981 149.485 316.076 147.117C316.123 146.122 316.029 145.08 316.218 144.133C316.407 143.233 316.455 142.428 315.697 141.765C314.939 141.149 313.897 141.007 312.95 140.865C310.898 140.613 308.845 140.344 306.793 140.06C310.329 140.565 313.881 141.007 317.449 141.386C317.165 140.865 316.644 140.486 316.076 140.297C316.834 139.587 316.407 138.734 316.455 137.882C316.502 136.745 316.549 135.561 316.597 134.424C316.692 132.009 316.834 129.593 316.881 127.178C316.928 126.278 316.644 125.378 316.692 124.573C316.786 123.578 317.497 122.773 317.591 121.779C317.686 120.547 317.118 119.363 317.213 118.085C317.307 116.569 317.386 115.053 317.449 113.538C317.576 110.317 317.702 107.113 317.828 103.924C317.923 101.745 318.397 99.6611 318.207 97.4825C318.112 96.3932 317.639 95.5407 317.97 94.4988C318.349 93.1727 318.87 91.8465 319.391 90.5678C317.97 90.7572 318.302 89.9047 318.302 88.9101C318.333 88.0892 318.349 87.2525 318.349 86.4C318.444 84.4424 318.539 82.4848 318.633 80.5272C318.775 77.6382 319.012 74.7965 319.154 71.9075C319.154 71.9075 319.154 71.8917 319.154 71.8601C319.438 64.6928 319.723 57.5255 320.007 50.3582C320.386 41.5017 321.238 32.5031 321.096 23.6465C321.049 17.1581 317.307 11.9957 312.429 7.54376C308.83 4.22848 301.82 6.21765 297.463 6.12293C292.158 5.96506 286.87 5.94927 281.597 6.07557C276.64 6.17029 271.683 6.37552 266.726 6.69126C262.179 7.02279 258.532 8.11209 254.222 9.53292C255.485 8.83829 256.748 8.14367 258.011 7.44904C251.57 7.51219 245.129 7.57533 238.688 7.63848C226.279 7.76478 213.886 7.87529 201.509 7.97001C195.321 8.00158 189.117 8.03316 182.896 8.06473C179.802 8.06473 176.708 8.08052 173.614 8.11209C170.914 8.11209 168.025 8.01737 165.373 8.44362C165.278 9.01195 165.941 10.859 166.415 11.1432C164.994 10.2433 163.573 9.15404 162.01 8.63307C160.305 8.15946 158.505 8.15946 156.8 8.15946C153.706 8.15946 150.612 8.17524 147.518 8.20682C141.298 8.20682 135.093 8.20682 128.905 8.20682C116.496 8.20682 104.088 8.15945 91.6789 8.06473C79.3019 7.97001 66.9091 7.84371 54.5005 7.68584C42.1234 7.52797 29.7464 7.30695 17.3693 7.02279C16.3748 7.02279 14.8118 9.29612 14.4803 10.1013C13.9593 11.4747 14.1961 12.8956 15.096 14.0322C13.6278 13.1324 11.9228 12.7535 10.8335 14.0796C9.64948 15.5478 8.56017 17.2054 7.61295 18.8157C5.4817 22.5572 6.28684 26.1093 6.47629 30.3245C6.66573 34.1133 6.83939 37.9022 6.99726 41.6911C7.04462 43.3488 6.90253 45.2432 7.28142 46.8061C7.8024 48.6532 8.46545 50.4056 8.13392 52.3474C8.0392 52.8683 7.89712 53.3893 7.75503 53.9103C7.23406 56.3731 7.75503 59.0253 7.84976 61.5354C7.94448 64.4087 8.05499 67.2661 8.18129 70.1078C8.37073 75.6964 8.60754 81.285 8.84434 86.8736C8.46545 79.2485 8.13392 71.6707 7.75503 64.1403C7.56559 59.9725 7.37615 55.8047 7.1867 51.637C7.12355 50.6897 7.07619 49.7267 7.04462 48.7479C6.85517 45.1485 6.68152 41.549 6.52365 37.9496C6.52365 37.5707 6.50786 37.176 6.47629 36.7656C6.44471 36.0709 6.41314 35.3605 6.38156 34.6343C6.23948 30.7981 6.05003 26.9618 5.86059 23.0782C5.86059 22.6677 5.82902 22.2573 5.76587 21.8468C5.71851 20.9943 5.67115 19.7156 5.76587 19.2893C5.90795 18.8631 6.47629 18.0579 6.9499 17.3475C7.20249 17.0318 7.4393 16.7002 7.66031 16.3529C9.17587 14.127 10.7388 11.9957 12.3964 10.1013C12.7753 9.62765 13.17 9.13825 13.5805 8.63307C13.5805 8.63307 13.5805 8.61728 13.5805 8.5857C13.8962 8.20681 14.2119 7.82793 14.5277 7.44904C15.4275 6.40709 16.28 5.45987 17.0852 5.08098C17.4325 4.92311 18.1429 4.84418 19.2164 4.84418L47.2542 5.1757C47.2542 5.1757 51.3273 5.22306 51.3746 5.22306L128.336 6.17029C129.126 6.17029 129.915 6.17029 130.704 6.17029C133.262 6.21765 135.819 6.21765 138.377 6.26501C146.27 6.35973 154.164 6.45445 162.058 6.54918H162.2C162.673 6.54918 163.163 6.54918 163.668 6.54918C166.478 6.5176 169.288 6.48603 172.098 6.45445C177.813 6.3913 183.528 6.32816 189.243 6.26501C190.948 6.23344 192.653 6.21765 194.358 6.21765C213.492 5.99663 232.626 5.77561 251.759 5.55459L265.636 5.36515L269.804 5.31779L310.061 4.84418C311.135 4.84418 311.845 4.92311 312.192 5.08098C312.761 5.36515 313.329 5.88612 313.945 6.54918C314.102 6.70705 314.26 6.8807 314.418 7.07015C314.844 7.54376 315.271 8.11209 315.697 8.63307C316.107 9.10668 316.502 9.59607 316.881 10.1013C318.539 11.9957 320.102 14.127 321.617 16.3529C321.617 16.3845 321.633 16.4161 321.664 16.4476C321.885 16.7634 322.091 17.0633 322.28 17.3475C322.312 17.3791 322.328 17.3949 322.328 17.3949C322.801 18.0579 323.369 18.9104 323.512 19.2893C323.606 19.7156 323.512 20.9943 323.464 21.8468Z" fill="#DEFCFF"/>
<path d="M159.358 12.2325C158.79 12.0431 157.606 12.3272 157.085 12.3746C154.527 12.5167 151.97 12.564 149.412 12.564C144.25 12.564 139.135 12.3272 133.972 12.0904C131.036 11.9484 128.052 11.8536 125.068 11.7589C113.954 11.4432 102.856 11.2853 91.7736 11.2853C80.9753 11.2537 70.177 11.3642 59.3786 11.6168C51.7061 11.8063 44.0336 11.901 36.4085 12.1378C30.2989 12.2799 23.5263 11.9483 18.6954 16.0214C16.801 17.6317 15.2381 19.5261 13.6752 21.3732C12.4911 22.794 10.4072 23.9307 11.2597 25.8252C12.87 29.5667 17.1325 32.4557 20.5899 34.6817C22.6264 35.9604 25.1839 31.9821 26.0364 30.7981C27.5046 28.8089 28.9254 26.5356 30.6304 24.6411C31.7197 23.4097 32.809 23.1729 31.4356 21.8468C30.3936 20.8522 29.3043 19.8577 28.4045 18.7683C27.7888 18.0579 25.9417 19.0052 25.4681 19.4788C23.4315 21.4206 21.5371 23.5992 19.4059 25.4936C18.1745 26.5356 21.5845 25.9672 22.2002 25.2568C23.4315 23.7886 24.9471 22.3678 26.5574 21.1838C27.5993 20.426 27.2678 20.5681 28.0729 21.2785C28.6413 21.7521 29.3043 22.4625 29.257 23.2677C29.257 23.5518 29.1149 23.836 28.9728 24.1202C27.3152 27.1039 24.284 29.2825 22.3422 32.1242C21.916 32.7872 15.096 26.1093 14.5277 25.541C13.0595 24.1675 13.0121 23.2203 14.3856 21.7047C16.5642 19.384 18.7428 17.0634 21.4897 15.4057C25.5628 13.0377 30.6778 13.606 35.2245 13.5586C42.8022 13.4165 50.3327 12.9429 57.8631 12.7535C69.2929 12.5009 80.7069 12.3904 92.1052 12.422C103.219 12.4535 114.333 12.6272 125.447 12.9429C136.246 13.2745 147.139 14.1743 157.937 13.3218C156.232 14.5532 154.859 16.1635 153.296 17.4896C151.543 19.0525 149.602 20.3313 147.565 21.4679C145.907 20.3313 144.297 19.1946 142.639 18.0579C142.608 17.9001 142.561 17.7264 142.497 17.537C142.45 17.4422 148.702 16.7318 149.223 16.7792C148.623 17.3475 148.023 17.9159 147.423 18.4842C147.281 18.6263 148.37 18.8631 148.512 18.8157C148.938 18.721 149.459 18.3421 149.791 18.1053C150.691 17.4896 151.543 16.8265 152.254 16.0214C152.633 15.5952 152.064 15.4531 151.733 15.4057C149.744 15.311 147.754 15.6425 145.765 16.0214C144.818 16.2108 143.824 16.4477 142.876 16.6371C142.403 16.7318 141.077 16.8739 140.934 17.3949C140.792 17.9632 141.503 18.2474 141.882 18.5315C142.403 18.9104 142.876 19.384 143.397 19.8103C144.25 20.5681 146.049 22.3204 147.234 22.2731C148.512 22.2257 149.744 20.8522 150.738 20.2365C152.127 19.384 153.454 18.4684 154.717 17.4896C155.758 16.6845 156.848 15.8793 157.748 14.9321C158.316 14.4111 159.547 13.5113 159.689 12.7535C159.737 12.4693 159.595 12.3272 159.358 12.2325Z" fill="#DEFCFF"/>
<path d="M158.742 11.8062C158.174 11.6168 156.99 11.8536 156.516 11.901C153.959 12.043 151.401 12.1378 148.844 12.1378C143.681 12.1378 138.519 11.901 133.404 11.6641C130.42 11.5221 127.437 11.38 124.453 11.3326C113.37 11.0169 102.272 10.8432 91.1579 10.8116C80.3596 10.8116 69.5612 10.9379 58.7629 11.1905C51.1378 11.3326 43.4653 11.4747 35.7928 11.6641C29.6832 11.8536 22.9105 11.5221 18.0797 15.5951C16.1853 17.2054 14.6697 19.0998 13.0594 20.9469C11.8754 22.3678 9.79152 23.4571 10.644 25.3989C12.2543 29.1404 16.5642 32.0294 20.0215 34.208C22.0107 35.4868 24.6155 31.5558 25.4207 30.3718C26.8889 28.3353 28.3097 26.1093 30.0147 24.1675C31.104 22.9361 32.1933 22.7466 30.8672 21.4205C29.8253 20.3786 28.736 19.4314 27.7887 18.2947C27.173 17.5843 25.3733 18.5789 24.8997 19.0525C22.8158 20.9943 20.9687 23.1729 18.8375 25.02C17.6061 26.1093 20.9687 25.541 21.5844 24.8305C22.8632 23.3623 24.3787 21.8941 25.9417 20.7575C27.031 19.9523 26.6521 20.1418 27.4572 20.8522C28.0729 21.3258 28.736 22.0362 28.6886 22.794C28.6412 23.1255 28.5465 23.4097 28.4044 23.6939C26.6994 26.6303 23.7157 28.8562 21.7739 31.6979C21.3003 32.3136 14.5276 25.683 13.9119 25.1147C12.4911 23.7412 12.3964 22.7466 13.8172 21.2785C15.9485 18.9578 18.1271 16.5897 20.9214 14.9794C24.9471 12.564 30.1094 13.1797 34.6561 13.1323C42.1865 12.9903 49.7169 12.5167 57.2947 12.3272C68.693 12.0746 80.107 11.9641 91.5368 11.9957C102.651 12.0272 113.749 12.2009 124.832 12.5166C135.63 12.8008 146.523 13.7007 157.321 12.8482C155.664 14.0796 154.29 15.7372 152.727 17.0633C150.928 18.5789 149.033 19.8576 146.997 21.0416C145.339 19.905 143.681 18.7683 142.024 17.5843C141.992 17.4264 141.961 17.2685 141.929 17.1107C141.882 16.9686 148.086 16.3055 148.607 16.3055C148.007 16.9054 147.407 17.4896 146.807 18.0579C146.665 18.2 147.802 18.3894 147.944 18.3894C148.323 18.2947 148.844 17.8685 149.175 17.6316C150.075 17.0633 150.928 16.3529 151.638 15.5478C152.064 15.1215 151.496 14.9794 151.117 14.9794C149.128 14.8847 147.139 15.2162 145.197 15.5951C144.202 15.7846 143.255 16.0214 142.261 16.2108C141.834 16.3055 140.508 16.4003 140.366 16.9686C140.177 17.5369 140.934 17.8211 141.266 18.0579C141.834 18.4368 142.261 18.9578 142.782 19.384C143.681 20.0944 145.481 21.8941 146.665 21.8468C147.944 21.7521 149.175 20.426 150.17 19.7629C151.528 18.942 152.838 18.0421 154.101 17.0633C155.143 16.2108 156.279 15.453 157.179 14.5058C157.7 13.9375 158.979 13.085 159.074 12.3272C159.121 12.043 158.979 11.8536 158.742 11.8062Z" fill="#36829E"/>
<path d="M168.309 12.5167C168.925 12.3272 170.062 12.6114 170.583 12.6114C173.14 12.8009 175.698 12.8482 178.255 12.8482C183.417 12.8482 188.532 12.6114 193.695 12.3746C196.631 12.2325 199.615 12.1378 202.599 12.0431C213.713 11.7273 224.811 11.5695 235.893 11.5695C246.692 11.5379 257.49 11.6484 268.289 11.901C275.961 12.0904 283.634 12.1852 291.259 12.422C297.368 12.5641 304.141 12.2325 308.972 16.3056C310.866 17.9159 312.429 19.8103 313.992 21.6574C315.176 23.0782 317.26 24.2149 316.407 26.1093C314.797 29.8509 310.535 32.7399 307.077 34.9659C305.041 36.2446 302.483 32.2663 301.631 31.0822C300.163 29.0931 298.789 26.8197 297.037 24.9253C295.947 23.6466 294.905 23.4571 296.232 22.131C297.273 21.1364 298.363 20.1418 299.31 19.0525C299.878 18.3421 301.725 19.2893 302.199 19.7629C304.236 21.7048 306.13 23.8834 308.261 25.7778C309.493 26.8197 306.083 26.2514 305.467 25.541C304.236 24.0728 302.72 22.652 301.157 21.4679C300.068 20.7102 300.447 20.8523 299.594 21.5627C299.026 22.0363 298.363 22.7467 298.41 23.5518C298.41 23.836 298.552 24.1202 298.694 24.4043C300.399 27.3407 303.383 29.5667 305.325 32.4084C305.751 33.0714 312.571 26.3935 313.139 25.8252C314.608 24.4517 314.655 23.5045 313.282 21.9889C311.103 19.6682 308.924 17.3475 306.177 15.6899C302.104 13.3218 296.989 13.8902 292.443 13.8428C284.865 13.7007 277.334 13.2271 269.804 13.0377C258.374 12.7851 246.96 12.6746 235.562 12.7061C224.448 12.7377 213.334 12.9114 202.22 13.2271C191.421 13.5586 180.528 14.4585 169.73 13.606C171.435 14.79 172.808 16.4477 174.371 17.7738C176.124 19.2893 178.066 20.6154 180.102 21.7521C181.76 20.6154 183.417 19.4788 185.028 18.3421C185.091 18.1527 185.138 17.979 185.17 17.8211C185.217 17.7264 178.965 17.016 178.444 17.0634C179.044 17.6317 179.644 18.2 180.244 18.7684C180.386 18.9104 179.297 19.1472 179.155 19.0999C178.729 19.0052 178.255 18.6263 177.876 18.3895C176.976 17.7738 176.124 17.1107 175.413 16.3056C175.034 15.8793 175.603 15.7372 175.934 15.6899C177.924 15.5952 179.913 15.9267 181.902 16.3056C182.849 16.495 183.844 16.7318 184.838 16.9213C185.264 17.016 186.591 17.1581 186.733 17.6791C186.875 18.2474 186.164 18.5316 185.785 18.7684C185.264 19.1946 184.791 19.6682 184.27 20.0945C183.417 20.8049 181.618 22.6046 180.434 22.5572C179.155 22.5099 177.923 21.1364 176.929 20.5207C175.54 19.6682 174.214 18.7526 172.951 17.7738C171.909 16.9686 170.819 16.1635 169.919 15.2163C169.351 14.6953 168.12 13.7954 167.978 13.0377C167.978 12.7535 168.072 12.6114 168.309 12.5167Z" fill="#DEFCFF"/>
<path d="M167.978 11.8062C168.546 11.6168 169.73 11.8536 170.204 11.901C172.761 12.043 175.319 12.1378 177.876 12.1378C183.039 12.1378 188.201 11.901 193.316 11.6641C196.3 11.5221 199.283 11.38 202.267 11.3326C213.35 11.0169 224.448 10.8432 235.562 10.8116C246.36 10.8116 257.159 10.9379 267.957 11.1905C275.582 11.3326 283.255 11.4747 290.927 11.6641C297.037 11.8536 303.809 11.5221 308.64 15.5951C310.535 17.2054 312.05 19.0998 313.66 20.9469C314.844 22.3678 316.928 23.4571 316.076 25.3989C314.466 29.1404 310.156 32.0294 306.698 34.208C304.709 35.4868 302.104 31.5558 301.299 30.3718C299.831 28.3353 298.41 26.1093 296.705 24.1675C295.616 22.9361 294.527 22.7466 295.853 21.4205C296.895 20.3786 297.984 19.4314 298.931 18.2947C299.547 17.5843 301.347 18.5789 301.868 19.0525C303.904 20.9943 305.751 23.1729 307.882 25.02C309.114 26.1093 305.751 25.541 305.135 24.8305C303.857 23.3623 302.341 21.8941 300.778 20.7575C299.689 19.9523 300.068 20.1418 299.263 20.8522C298.647 21.3258 297.984 22.0362 298.031 22.794C298.079 23.1255 298.173 23.4097 298.315 23.6939C300.02 26.6303 303.004 28.8562 304.946 31.6979C305.42 32.3136 312.192 25.683 312.808 25.1147C314.229 23.7412 314.324 22.7466 312.903 21.2785C310.771 18.9578 308.593 16.5897 305.799 14.9794C301.773 12.564 296.61 13.1797 292.064 13.1323C284.533 12.9903 277.003 12.5167 269.425 12.3272C258.027 12.0746 246.613 11.9641 235.183 11.9957C224.069 12.0272 212.971 12.2009 201.888 12.5166C191.09 12.8008 180.197 13.7007 169.399 12.8482C171.056 14.0796 172.43 15.7372 173.993 17.0633C175.792 18.5789 177.687 19.8576 179.723 21.0416C181.381 19.905 183.039 18.7683 184.696 17.5843C184.728 17.4264 184.759 17.2685 184.791 17.1107C184.838 16.9686 178.634 16.3055 178.113 16.3055C178.713 16.9054 179.313 17.4896 179.913 18.0579C180.055 18.2 178.918 18.3894 178.776 18.3894C178.397 18.2947 177.876 17.8685 177.545 17.6316C176.645 17.0633 175.792 16.3529 175.082 15.5478C174.656 15.1215 175.224 14.9794 175.603 14.9794C177.592 14.8847 179.581 15.2162 181.523 15.5951C182.518 15.7846 183.465 16.0214 184.459 16.2108C184.886 16.3055 186.212 16.4003 186.354 16.9686C186.543 17.5369 185.785 17.8211 185.454 18.0579C184.886 18.4368 184.459 18.9578 183.938 19.384C183.039 20.0944 181.239 21.8941 180.055 21.8468C178.776 21.7521 177.545 20.426 176.55 19.7629C175.192 18.942 173.882 18.0421 172.619 17.0633C171.577 16.2108 170.44 15.453 169.541 14.5058C169.02 13.9375 167.741 13.085 167.646 12.3272C167.599 12.043 167.741 11.8536 167.978 11.8062Z" fill="#36829E"/>
<path d="M167.504 17.016C165.752 15.8319 164.283 14.9794 163.81 14.9321C162.2 14.8847 160.068 16.7792 158.837 17.4896C155.853 19.384 153.248 21.6574 150.359 23.6465C149.365 24.3096 151.117 24.1201 151.543 23.8833C152.727 23.2676 153.769 21.9415 154.859 21.089C156.279 19.9524 157.763 18.8946 159.311 17.9158C160.1 17.4106 160.889 16.9213 161.679 16.4476C162.484 16.0214 162.957 15.5951 163.81 16.0214C164.568 16.4003 165.278 16.8739 165.941 17.3475C167.772 18.6105 169.604 19.8734 171.435 21.1364C172.319 21.7363 173.219 22.352 174.135 22.9835C174.561 23.2676 175.461 24.3569 175.934 23.5518C176.313 22.8414 174.892 22.3204 174.466 21.9889C173.771 21.4837 173.077 20.9627 172.382 20.426C170.772 19.2893 169.114 18.1053 167.504 17.016Z" fill="#DEFCFF"/>
<path d="M167.362 16.495C165.657 15.311 164.189 14.4111 163.715 14.4111C162.057 14.3164 159.926 16.2109 158.742 16.9686C155.758 18.8157 153.154 21.0891 150.265 23.0782C149.27 23.7886 151.022 23.5518 151.401 23.3624C152.633 22.7467 153.675 21.4206 154.764 20.5681C156.185 19.4314 157.653 18.3579 159.168 17.3475C159.958 16.8739 160.763 16.4003 161.584 15.9267C162.389 15.5004 162.863 15.0268 163.715 15.5004C164.473 15.8793 165.136 16.3529 165.846 16.8266C167.678 18.0895 169.493 19.3367 171.293 20.5681C172.209 21.1996 173.124 21.8153 174.04 22.4152C174.466 22.7467 175.366 23.836 175.84 23.0309C176.218 22.3204 174.798 21.7995 174.371 21.4679C173.645 20.9312 172.935 20.4102 172.24 19.905C170.63 18.721 169.02 17.5843 167.362 16.495Z" fill="#36829E"/>
<path d="M159.547 239.424C159.026 239.613 157.89 239.376 157.464 239.329C155.032 239.203 152.601 239.14 150.17 239.14C145.292 239.14 140.413 239.376 135.535 239.566C132.694 239.708 129.899 239.803 127.058 239.85C116.544 240.134 106.014 240.276 95.4678 240.276C85.2378 240.308 75.0078 240.213 64.7778 239.992C57.5316 239.85 50.2379 239.708 42.9917 239.566C37.2136 239.424 30.7725 239.708 26.1785 236.108C24.4261 234.735 22.9579 233.03 21.4424 231.42C20.3531 230.188 18.3639 229.194 19.1691 227.489C20.6846 224.221 24.7577 221.711 28.0256 219.769C29.92 218.632 32.3828 222.09 33.188 223.132C34.5614 224.931 35.8875 226.873 37.4978 228.578C38.5398 229.667 39.5817 229.857 38.3029 230.993C37.3084 231.893 36.3138 232.746 35.4139 233.74C34.8456 234.356 33.0932 233.504 32.6196 233.077C30.7252 231.372 28.9255 229.478 26.8889 227.82C25.7523 226.873 28.9254 227.394 29.5411 228.01C30.7252 229.288 32.146 230.567 33.6616 231.609C34.6561 232.272 34.3246 232.13 35.0824 231.514C35.6507 231.088 36.3138 230.472 36.2664 229.762C36.2191 229.525 36.1243 229.241 35.9823 229.004C34.372 226.399 31.5303 224.505 29.6832 221.995C29.257 221.427 22.8159 227.252 22.2475 227.773C20.8741 228.957 20.8267 229.809 22.1528 231.136C24.1893 233.172 26.2732 235.209 28.8781 236.677C32.7143 238.761 37.5925 238.24 41.9024 238.287C49.0539 238.382 56.2054 238.808 63.357 238.997C74.1869 239.219 85.0168 239.313 95.8467 239.282C106.361 239.25 116.891 239.092 127.437 238.808C137.667 238.571 147.991 237.766 158.221 238.524C156.611 237.435 155.332 236.014 153.817 234.83C152.159 233.504 150.359 232.367 148.418 231.372C146.807 232.32 145.292 233.362 143.729 234.356C143.697 234.514 143.65 234.656 143.587 234.782C143.587 234.877 149.459 235.493 149.933 235.493C149.396 234.988 148.844 234.482 148.275 233.977C148.086 233.835 149.175 233.646 149.317 233.646C149.696 233.74 150.17 234.119 150.501 234.309C151.354 234.83 152.159 235.445 152.822 236.156C153.201 236.535 152.68 236.629 152.348 236.677C150.454 236.724 148.56 236.487 146.713 236.108C145.765 235.966 144.865 235.73 143.918 235.587C143.492 235.493 142.261 235.398 142.118 234.924C141.976 234.403 142.639 234.167 143.018 233.93C143.492 233.598 143.966 233.172 144.439 232.793C145.292 232.177 146.949 230.567 148.086 230.615C149.317 230.709 150.454 231.893 151.401 232.414C152.696 233.172 153.943 233.977 155.143 234.83C156.137 235.54 157.179 236.251 158.079 237.056C158.553 237.577 159.784 238.334 159.879 238.997C159.926 239.234 159.784 239.376 159.547 239.424Z" fill="#DEFCFF"/>
<path d="M158.979 238.713C158.458 238.903 157.321 238.666 156.895 238.619C154.464 238.492 152.033 238.429 149.602 238.429C144.723 238.429 139.845 238.666 134.967 238.855C132.125 238.95 129.331 239.092 126.489 239.14C115.975 239.424 105.445 239.566 94.8995 239.566C84.6694 239.597 74.4394 239.503 64.2094 239.282C56.9632 239.14 49.717 238.997 42.4233 238.855C36.6453 238.713 30.2515 238.997 25.6575 235.398C23.8578 234.025 22.3896 232.32 20.874 230.709C19.7847 229.478 17.7956 228.483 18.6007 226.778C20.1163 223.51 24.1893 221 27.4572 219.058C29.3517 217.922 31.8145 221.379 32.6196 222.421C33.9931 224.221 35.3192 226.163 36.9768 227.868C38.0188 228.957 39.0133 229.146 37.7346 230.283C36.74 231.183 35.7454 232.035 34.8456 233.03C34.2772 233.646 32.5249 232.793 32.0986 232.367C30.1568 230.662 28.3571 228.767 26.3206 227.11C25.1839 226.163 28.4045 226.684 28.9728 227.299C30.1568 228.578 31.5776 229.857 33.0932 230.851C34.0878 231.562 33.7563 231.42 34.5614 230.804C35.0824 230.378 35.7454 229.762 35.6981 229.052C35.6507 228.815 35.556 228.531 35.4139 228.294C33.8036 225.689 30.9619 223.795 29.1149 221.284C28.6886 220.716 22.2475 226.542 21.6792 227.062C20.3531 228.247 20.2583 229.099 21.5845 230.425C23.621 232.462 25.7049 234.498 28.3097 235.966C32.146 238.05 37.0242 237.529 41.334 237.577C48.4856 237.671 55.6371 238.098 62.7886 238.287C73.6185 238.508 84.4484 238.603 95.2783 238.571C105.793 238.54 116.322 238.382 126.868 238.098C137.098 237.861 147.423 237.056 157.653 237.813C156.043 236.724 154.764 235.303 153.248 234.119C151.591 232.793 149.791 231.657 147.849 230.615C146.286 231.609 144.723 232.604 143.16 233.646C143.129 233.772 143.081 233.914 143.018 234.072C143.018 234.167 148.891 234.782 149.412 234.782C148.844 234.277 148.275 233.772 147.707 233.267C147.565 233.125 148.607 232.935 148.749 232.935C149.128 233.03 149.602 233.409 149.933 233.598C150.786 234.119 151.591 234.735 152.301 235.445C152.633 235.824 152.112 235.919 151.78 235.919C149.886 236.014 147.991 235.73 146.144 235.398C145.197 235.209 144.297 235.019 143.35 234.877C142.924 234.782 141.692 234.688 141.55 234.214C141.408 233.693 142.118 233.456 142.45 233.219C142.924 232.888 143.397 232.462 143.871 232.083C144.723 231.42 146.381 229.857 147.518 229.904C148.749 229.999 149.886 231.183 150.88 231.704C152.175 232.462 153.406 233.267 154.574 234.119C155.569 234.83 156.658 235.54 157.511 236.345C158.032 236.819 159.216 237.577 159.311 238.287C159.358 238.524 159.216 238.666 158.979 238.713Z" fill="#36829E"/>
<path d="M168.072 239.187C168.641 239.376 169.73 239.14 170.204 239.092C172.635 238.966 175.066 238.903 177.497 238.903C182.375 238.903 187.254 239.14 192.132 239.329C194.926 239.424 197.768 239.566 200.562 239.613C211.108 239.897 221.638 240.039 232.152 240.039C242.382 240.071 252.612 239.976 262.842 239.755C270.136 239.613 277.382 239.471 284.628 239.282C290.453 239.14 296.847 239.471 301.441 235.872C303.241 234.451 304.709 232.793 306.177 231.183C307.314 229.952 309.256 228.957 308.498 227.252C306.935 223.984 302.862 221.474 299.642 219.532C297.7 218.395 295.284 221.853 294.479 222.895C293.106 224.694 291.732 226.636 290.122 228.341C289.08 229.431 288.038 229.62 289.317 230.757C290.311 231.657 291.353 232.509 292.253 233.456C292.822 234.119 294.527 233.267 295 232.841C296.942 231.136 298.742 229.241 300.731 227.583C301.915 226.636 298.694 227.157 298.079 227.773C296.895 229.052 295.474 230.33 294.006 231.325C292.964 232.035 293.295 231.893 292.537 231.278C291.969 230.851 291.353 230.236 291.401 229.525C291.401 229.288 291.543 229.004 291.685 228.767C293.248 226.163 296.089 224.221 297.937 221.758C298.363 221.19 304.804 227.015 305.372 227.489C306.746 228.72 306.793 229.573 305.467 230.899C303.43 232.935 301.394 234.972 298.742 236.44C294.953 238.524 290.027 238.003 285.765 238.05C278.566 238.145 271.414 238.571 264.263 238.761C253.464 238.982 242.65 239.076 231.82 239.045C221.275 239.013 210.745 238.855 200.231 238.571C190.001 238.287 179.676 237.529 169.446 238.287C171.009 237.198 172.335 235.777 173.803 234.593C175.508 233.219 177.308 232.13 179.25 231.088C180.813 232.083 182.375 233.077 183.938 234.119C183.97 234.246 184.001 234.388 184.033 234.546C184.08 234.64 178.208 235.256 177.687 235.209C178.255 234.703 178.823 234.198 179.392 233.693C179.534 233.598 178.444 233.409 178.35 233.409C177.971 233.504 177.45 233.882 177.166 234.072C176.266 234.593 175.461 235.209 174.798 235.872C174.419 236.251 174.94 236.393 175.319 236.393C177.213 236.487 179.06 236.203 180.955 235.872C181.854 235.682 182.802 235.493 183.702 235.303C184.128 235.256 185.359 235.161 185.549 234.688C185.691 234.167 184.98 233.93 184.649 233.693C184.128 233.362 183.702 232.935 183.228 232.556C182.375 231.893 180.67 230.33 179.534 230.378C178.35 230.425 177.166 231.657 176.218 232.177C174.924 232.935 173.677 233.74 172.477 234.593C171.482 235.303 170.44 235.966 169.588 236.819C169.067 237.292 167.883 238.05 167.788 238.761C167.741 238.998 167.836 239.14 168.072 239.187Z" fill="#DEFCFF"/>
<path d="M167.741 238.713C168.309 238.903 169.398 238.666 169.872 238.619C172.303 238.492 174.734 238.429 177.166 238.429C182.044 238.429 186.922 238.666 191.8 238.855C194.595 238.95 197.436 239.092 200.231 239.14C210.745 239.424 221.275 239.566 231.82 239.566C242.05 239.597 252.28 239.503 262.51 239.282C269.804 239.14 277.05 238.997 284.297 238.855C290.075 238.713 296.516 238.997 301.11 235.398C302.909 234.025 304.378 232.32 305.846 230.709C306.982 229.478 308.924 228.483 308.167 226.778C306.604 223.51 302.531 221 299.263 219.058C297.368 217.922 294.905 221.379 294.1 222.421C292.727 224.221 291.401 226.163 289.79 227.868C288.748 228.957 287.707 229.146 288.985 230.283C289.98 231.183 291.022 232.035 291.874 233.03C292.49 233.646 294.195 232.793 294.669 232.367C296.61 230.662 298.363 228.767 300.399 227.11C301.536 226.163 298.363 226.684 297.747 227.299C296.563 228.578 295.142 229.857 293.627 230.851C292.632 231.562 292.964 231.42 292.206 230.804C291.637 230.378 291.022 229.762 291.069 229.052C291.069 228.815 291.164 228.531 291.306 228.294C292.916 225.689 295.758 223.795 297.605 221.284C298.031 220.716 304.472 226.542 305.041 227.062C306.414 228.247 306.462 229.099 305.135 230.425C303.099 232.462 301.015 234.498 298.41 235.966C294.574 238.05 289.696 237.529 285.386 237.577C278.234 237.671 271.083 238.098 263.931 238.287C253.101 238.508 242.287 238.603 231.489 238.571C220.943 238.54 210.413 238.382 199.899 238.098C189.622 237.861 179.297 237.056 169.067 237.813C170.677 236.724 172.003 235.303 173.472 234.119C175.177 232.793 176.976 231.657 178.918 230.615C180.481 231.609 182.044 232.604 183.559 233.646C183.623 233.772 183.67 233.914 183.702 234.072C183.749 234.167 177.829 234.782 177.355 234.782C177.923 234.277 178.492 233.772 179.06 233.267C179.202 233.125 178.113 232.935 178.018 232.935C177.592 233.03 177.118 233.409 176.787 233.598C175.934 234.119 175.129 234.735 174.466 235.445C174.087 235.824 174.608 235.919 174.94 235.919C176.882 236.014 178.729 235.73 180.576 235.398C181.523 235.209 182.423 235.019 183.37 234.877C183.796 234.782 185.028 234.688 185.17 234.214C185.359 233.693 184.649 233.456 184.317 233.219C183.796 232.888 183.37 232.462 182.849 232.083C182.044 231.42 180.339 229.857 179.202 229.904C177.971 229.999 176.834 231.183 175.887 231.704C174.592 232.462 173.345 233.267 172.145 234.119C171.151 234.83 170.109 235.54 169.209 236.345C168.735 236.819 167.551 237.577 167.409 238.287C167.409 238.524 167.504 238.666 167.741 238.713Z" fill="#36829E"/>
<path d="M167.267 235.256C165.61 236.298 164.283 237.056 163.81 237.056C162.247 237.15 160.21 235.493 159.074 234.83C156.279 233.219 153.769 231.183 151.07 229.478C150.122 228.862 151.78 229.052 152.159 229.194C153.296 229.762 154.29 230.946 155.285 231.704C156.643 232.683 158.048 233.614 159.5 234.498C160.258 234.94 161.016 235.351 161.773 235.73C162.531 236.108 163.005 236.535 163.81 236.108C164.52 235.777 165.183 235.351 165.846 234.972C167.551 233.867 169.272 232.762 171.009 231.657C171.861 231.12 172.73 230.583 173.614 230.046C173.992 229.762 174.845 228.815 175.271 229.525C175.65 230.141 174.324 230.615 173.898 230.899C173.235 231.341 172.572 231.783 171.909 232.225C170.393 233.267 168.83 234.309 167.267 235.256Z" fill="#DEFCFF"/>
<path d="M167.173 234.64C165.515 235.635 164.141 236.393 163.715 236.44C162.152 236.487 160.116 234.83 158.979 234.167C156.185 232.556 153.675 230.567 150.975 228.815C149.98 228.199 151.685 228.389 152.064 228.578C153.201 229.099 154.196 230.283 155.19 231.041C156.548 232.051 157.953 232.983 159.405 233.835C160.163 234.277 160.921 234.703 161.679 235.114C162.436 235.493 162.91 235.872 163.715 235.493C164.426 235.161 165.089 234.735 165.704 234.309C167.441 233.204 169.177 232.114 170.914 231.041C171.767 230.472 172.635 229.92 173.519 229.383C173.898 229.146 174.75 228.152 175.177 228.91C175.555 229.525 174.229 229.952 173.803 230.236C173.14 230.709 172.477 231.167 171.814 231.609C170.251 232.651 168.735 233.646 167.173 234.64Z" fill="#36829E"/>
<path d="M44.4125 202.056C48.6277 203.856 49.0065 209.823 44.6967 211.86C35.3192 216.264 36.5506 199.214 44.081 201.914C44.2073 201.977 44.3178 202.024 44.4125 202.056Z" fill="url(#paint3_radial_724_50)"/>
<path d="M296.374 76.0753C300.589 77.875 300.968 83.8425 296.658 85.8791C287.28 90.2836 288.512 73.2336 296.042 75.9332C296.168 75.9964 296.279 76.0437 296.374 76.0753Z" fill="url(#paint4_radial_724_50)"/>
<path d="M275.582 217.78C278.661 219.106 278.945 223.463 275.819 224.979C268.904 228.199 269.851 215.696 275.345 217.685C275.44 217.717 275.519 217.748 275.582 217.78Z" fill="url(#paint5_radial_724_50)"/>
<path d="M269.425 47.185C271.888 46.522 274.066 49.0321 272.882 51.4001C270.278 56.5151 265.021 48.6058 269.236 47.2324C269.299 47.2008 269.362 47.185 269.425 47.185Z" fill="url(#paint6_radial_724_50)"/>
<path d="M271.414 40.365C272.551 40.0808 273.593 41.2649 273.025 42.4015C271.793 44.8169 269.33 41.0754 271.32 40.4124C271.351 40.4124 271.383 40.3966 271.414 40.365Z" fill="url(#paint7_radial_724_50)"/>
<path d="M235.041 25.7304C236.178 25.4462 237.22 26.6303 236.651 27.7196C235.42 30.135 232.957 26.3935 234.946 25.7778C234.978 25.7462 235.009 25.7304 235.041 25.7304Z" fill="url(#paint8_radial_724_50)"/>
<path d="M234.567 63.2404C236.32 62.8141 237.883 64.5665 237.03 66.2241C235.183 69.8236 231.489 64.2823 234.473 63.2878C234.504 63.2878 234.536 63.272 234.567 63.2404Z" fill="url(#paint9_radial_724_50)"/>
<path d="M278.519 199.309C279.703 199.025 280.745 200.209 280.176 201.298C278.897 203.713 276.435 199.972 278.424 199.309C278.455 199.309 278.487 199.309 278.519 199.309Z" fill="url(#paint10_radial_724_50)"/>
<path d="M32.7617 171.271C34.0878 169.945 36.6926 171.745 36.1717 173.876C35.8401 175.107 34.9876 176.055 33.6142 175.581C32.0039 175.06 31.7671 173.734 32.1933 172.266C32.3512 171.824 32.5407 171.492 32.7617 171.271Z" fill="url(#paint11_radial_724_50)"/>
<path d="M81.8752 189.837C82.7751 188.511 85.3326 188.321 85.7588 190.642C86.1851 192.82 83.4855 194.099 82.112 192.252C81.3542 191.305 81.4489 190.452 81.8752 189.837Z" fill="url(#paint12_radial_724_50)"/>
<path d="M50.8063 55.2364C51.4693 54.2418 53.3164 54.0997 53.6479 55.8047C53.9795 57.415 51.9429 58.3622 50.9484 56.9887C50.4274 56.3257 50.4748 55.6626 50.8063 55.2364Z" fill="url(#paint13_radial_724_50)"/>
<path d="M31.3408 199.972C31.8618 199.167 33.4721 199.025 33.7089 200.446C33.993 201.772 32.288 202.577 31.4355 201.44C31.0093 200.872 31.0566 200.351 31.3408 199.972Z" fill="url(#paint14_radial_724_50)"/>
<path d="M274.303 56.5152C274.682 55.9468 275.772 55.8521 275.961 56.8467C276.151 57.7466 274.966 58.3149 274.398 57.5097C274.114 57.1309 274.114 56.752 274.303 56.5152Z" fill="url(#paint15_radial_724_50)"/>
<path d="M257.443 217.638C257.822 217.117 258.911 217.022 259.1 217.969C259.29 218.916 258.153 219.437 257.538 218.68C257.253 218.301 257.253 217.922 257.443 217.638Z" fill="url(#paint16_radial_724_50)"/>
<path d="M111.002 225.831C109.155 228.578 111.334 232.414 114.791 231.941C122.274 230.851 114.649 220.906 111.144 225.594C111.081 225.657 111.034 225.736 111.002 225.831Z" fill="url(#paint17_radial_724_50)"/>
<path d="M52.8901 105.108C52.0376 106.386 53.0322 108.091 54.5951 107.902C58.0525 107.381 54.5477 102.834 52.9375 105.013C52.9059 105.044 52.8901 105.076 52.8901 105.108Z" fill="url(#paint18_radial_724_50)"/>
<path d="M104.845 224.505C103.188 225.073 102.903 227.299 104.419 228.152C107.829 230.094 107.829 223.7 104.94 224.505C104.908 224.505 104.877 224.505 104.845 224.505Z" fill="url(#paint19_radial_724_50)"/>
<path d="M136.246 223.368C135.63 223.084 134.683 223.605 135.062 224.552C135.441 225.405 136.672 225.215 136.767 224.268C136.767 223.747 136.577 223.463 136.246 223.368Z" fill="url(#paint20_radial_724_50)"/>
<path d="M41.855 56.9888C47.8225 53.0578 49.5275 63.7614 44.4598 65.4191C43.6073 65.6559 42.7075 65.4191 41.9497 64.9928C38.9659 63.1931 38.8238 58.9306 41.855 56.9888Z" fill="url(#paint21_radial_724_50)"/>
<path d="M70.6032 28.3826C73.4449 26.5356 74.25 31.6032 71.8346 32.361C71.4557 32.5031 71.0294 32.4083 70.6979 32.1715C69.2771 31.319 69.1824 29.3299 70.6032 28.3826Z" fill="url(#paint22_radial_724_50)"/>
<path d="M53.8847 254.342C53.7268 254.279 53.5689 254.232 53.4111 254.2C51.9902 253.632 51.6587 251.785 51.3745 250.269C51.3272 249.985 51.2325 249.654 51.043 249.464C50.8062 249.227 50.4747 249.18 50.1905 249.085C49.5906 248.991 49.0065 248.88 48.4381 248.754C48.2487 248.707 48.0593 248.659 47.8698 248.754C47.5383 248.849 47.4436 249.227 47.3488 249.559C46.9384 251.611 46.5279 253.664 46.1175 255.716C45.8806 256.947 45.5965 258.273 44.6966 259.173C43.702 256.853 42.9916 254.39 42.6127 251.88C42.518 251.217 42.3286 250.412 41.6655 250.175C40.9551 252.353 40.9077 254.485 40.3394 256.663C38.8712 262.252 38.9659 268.172 38.2555 273.903C38.2555 274.045 38.2081 274.234 38.1134 274.329C37.924 274.66 37.3556 274.566 37.1188 274.282C36.8347 273.997 36.7873 273.618 36.74 273.24C35.9822 267.083 34.8455 260.594 34.8929 254.39C34.8929 253.679 35.177 252.78 35.035 252.117C35.035 251.974 34.3719 250.459 34.2772 250.648C33.0458 252.401 32.9037 255.527 32.4301 257.563C32.0038 259.457 32.2406 261.636 31.3408 263.388C31.1513 263.483 30.9145 263.341 30.8198 263.152C30.7251 262.962 30.6777 262.773 30.6304 262.536C30.4883 261.257 30.2515 259.931 30.2988 258.652C30.3462 256.995 29.5884 255.384 29.4463 253.869C29.2095 251.69 29.2095 249.796 28.0255 247.807C27.1256 246.291 26.2258 245.249 26.4626 243.355C30.4883 243.592 34.6561 243.686 38.6818 243.923C40.0552 244.018 41.4761 244.065 42.8495 244.112C46.2122 244.207 49.5748 244.018 52.8901 243.828C55.2897 243.67 57.6736 243.544 60.0416 243.449C66.2933 243.118 72.545 243.071 78.7966 243.165C81.954 243.228 85.1272 243.307 88.3162 243.402C89.6897 243.449 91.1105 243.402 92.484 243.449C93.0997 243.449 96.1308 244.065 96.5097 243.686C95.373 244.823 93.8575 246.007 92.2945 245.533C92.0104 245.439 91.6788 245.297 91.3947 245.439C91.1579 245.533 91.0631 245.77 90.8737 245.96C90.258 246.67 88.8845 246.338 88.6477 245.439C87.9847 246.544 87.3216 247.649 86.6586 248.754C86.5165 249.038 86.327 249.275 86.0429 249.275C85.8061 249.275 85.664 249.133 85.5219 248.943C84.7168 247.996 84.1484 246.859 83.9116 245.628C82.9644 246.812 82.254 248.138 81.8277 249.606C81.1173 248.517 80.6437 247.333 80.3595 246.054C79.4123 249.496 78.4493 252.937 77.4705 256.379C77.2337 257.326 76.9495 258.226 76.4286 259.031C76.4759 258.984 75.3393 256.663 75.2445 256.379C74.9604 255.384 74.7236 254.342 74.4868 253.301C74.0605 251.311 73.9184 249.085 73.1606 247.191C73.1133 247.002 73.0186 246.765 72.8291 246.717C72.3081 246.481 71.8345 247.286 71.2662 247.238C70.8873 247.144 70.6505 246.623 70.2716 246.481C69.9401 246.338 69.5138 246.481 69.277 246.765C69.0402 247.049 68.9455 247.38 68.8034 247.759C68.2825 249.227 67.572 250.648 66.7195 252.022C66.5775 252.259 66.4354 252.495 66.1512 252.543C65.8197 252.59 65.5355 252.353 65.3461 252.069C64.9198 251.453 64.7777 250.648 64.6356 249.938C64.5883 249.796 64.5409 249.654 64.4462 249.559C64.3041 249.417 64.02 249.464 63.8305 249.512C61.5572 250.222 59.568 253.395 59.0944 255.526C58.6208 257.847 58.9523 260.405 58.2419 262.631C58.0998 263.104 57.8156 263.673 57.2947 263.72C56.6 261.131 55.9054 258.526 55.2108 255.905C55.0687 255.384 54.9266 254.863 54.5004 254.579C54.3109 254.437 54.1215 254.39 53.8847 254.342Z" fill="url(#paint23_linear_724_50)"/>
<path d="M27.9782 245.912C28.3571 247.002 28.9728 248.138 29.6358 248.517C29.92 248.707 30.2515 248.801 30.441 249.038C30.6304 249.275 30.6778 249.606 30.6778 249.938C30.8672 252.464 31.0567 255.006 31.2461 257.563C31.4356 256.774 31.625 255.984 31.8145 255.195C32.3354 252.922 32.9038 250.601 34.1352 248.612C34.6088 249.228 35.5086 249.512 36.2664 249.37C36.5506 249.322 36.8347 249.228 37.0242 249.37C37.2136 249.512 37.2136 249.796 37.1663 249.985C36.9768 254.058 36.74 258.084 36.74 262.157C36.7874 263.72 36.8821 265.425 38.0661 266.42C38.7607 261.241 39.4396 256.063 40.1026 250.885C40.2921 249.559 40.8604 247.854 42.1865 247.996C43.039 249.954 43.8915 251.911 44.744 253.869C45.9754 251.832 46.9226 249.606 47.5857 247.333C48.3908 247.901 49.4328 247.144 50.4274 247.002C51.6588 246.859 52.7481 247.807 53.269 248.896C53.79 250.08 54.2163 252.448 55.3529 253.111C55.5897 253.253 55.8265 253.348 56.016 253.49C56.5843 253.916 56.5843 254.721 56.4896 255.384C56.3949 256.095 56.3001 256.853 56.7738 257.374C56.8211 257.468 56.8685 257.516 56.9632 257.516C57.2 257.61 57.3895 257.279 57.4368 256.995C58.0999 254.058 58.6682 251.69 60.1838 249.038C60.5153 248.47 61.1783 247.759 61.794 248.091C62.1729 248.28 62.315 248.707 62.6465 248.896C63.2149 249.228 63.8779 248.754 64.4463 248.47C65.0146 248.186 66.0092 248.328 65.9618 248.943C67.0038 247.854 68.1404 246.859 69.4192 245.96C69.656 245.818 69.9402 245.628 70.2717 245.628C70.6506 245.628 70.9821 245.96 71.3136 246.196C72.4503 247.002 73.8238 246.528 74.771 247.617C75.5761 248.564 75.4814 250.269 76.0024 251.406C76.0971 251.69 76.3339 252.022 76.6654 251.927C76.8075 251.927 76.9022 251.785 76.997 251.69C78.5125 249.938 77.9915 246.907 79.886 245.628C80.0754 245.818 80.3596 245.96 80.6438 246.054C81.0226 245.707 81.4015 245.344 81.7804 244.965C81.7804 245.581 82.5382 245.96 83.1065 245.818C83.6749 245.675 84.1485 245.249 84.5747 244.823C84.7957 245.233 85.001 245.66 85.1904 246.102C85.2851 246.244 90.7317 244.207 91.2526 243.876C89.7845 242.55 87.2743 242.55 85.5693 243.449C85.3799 243.544 85.1431 243.686 84.9063 243.639C84.7168 243.544 84.5747 243.307 84.3853 243.165C84.0538 242.834 83.4854 242.881 83.0118 242.976C81.6383 243.165 80.407 243.923 79.1282 244.16C78.3231 244.302 77.4232 243.923 76.6654 244.113C76.476 244.16 76.3339 244.302 76.1445 244.397C75.6235 244.681 75.0078 244.539 74.4868 244.255C73.9658 244.018 73.4922 243.639 72.9713 243.402C70.5558 242.313 67.4774 245.297 65.8197 246.765C65.725 246.907 65.5829 247.002 65.3935 247.002C65.204 247.049 65.0146 246.859 64.8725 246.67C63.5464 244.918 59.8049 241.555 57.9104 244.586C57.721 244.87 57.5789 245.154 57.3895 245.439C57.1526 245.675 56.8211 245.865 56.4896 245.77C56.3001 245.675 56.1581 245.533 56.016 245.391C55.0214 244.302 53.3164 241.839 51.8482 241.508C49.5749 240.939 49.0539 243.592 47.2068 244.16C46.0228 244.539 46.307 244.16 45.1703 243.544C43.7968 242.834 42.0445 242.076 40.4815 242.265C38.3976 242.55 36.5506 244.113 35.8875 246.102C35.6033 245.581 35.2718 245.06 34.7982 244.681C34.3246 244.302 33.7089 244.113 33.1406 244.302C32.809 244.444 32.5249 244.681 32.1933 244.633C31.6724 243.639 31.7197 242.265 30.7725 241.65C29.0675 240.56 27.4572 242.644 27.552 244.113C27.552 244.586 27.7414 245.249 27.9782 245.912Z" fill="url(#paint24_linear_724_50)"/>
<path d="M39.6763 245.249C39.2501 246.433 38.9659 247.665 38.8238 248.896C38.6344 250.08 38.6818 251.169 38.7765 252.353C38.7765 252.495 39.3448 252.259 39.3448 252.164C39.9605 249.796 40.5288 247.428 40.6236 245.012C40.6236 244.681 39.7711 245.012 39.6763 245.249Z" fill="#DEFCFF"/>
<path d="M39.8184 254.011C39.7711 253.916 39.7711 253.869 39.7237 253.822C39.7237 253.727 39.5343 253.774 39.4869 253.774C39.3922 253.822 39.2501 253.869 39.1554 253.916C39.0606 254.011 38.9659 254.106 38.8712 254.2C38.7765 254.295 38.7291 254.437 38.6818 254.532C38.6344 254.579 38.6344 254.627 38.6344 254.721C38.6344 254.753 38.6344 254.785 38.6344 254.816C38.666 254.848 38.6818 254.895 38.6818 254.958C38.6818 255.006 38.7291 255.053 38.7765 255.053C38.7765 255.053 38.7607 255.053 38.7291 255.053C38.8238 255.148 38.9186 255.242 39.0133 255.384C39.0606 255.432 39.2501 255.384 39.2975 255.337C39.3606 255.337 39.408 255.321 39.4395 255.29C39.4869 255.242 39.5343 255.195 39.5343 255.195C39.5658 255.037 39.6132 254.895 39.6763 254.769C39.6448 254.769 39.629 254.785 39.629 254.816C39.6763 254.769 39.7237 254.674 39.7237 254.627C39.7237 254.595 39.7395 254.548 39.7711 254.485C39.7711 254.39 39.8658 254.295 39.8184 254.2C39.8184 254.106 39.8184 254.058 39.8184 254.011Z" fill="#DEFCFF"/>
<path d="M32.9511 246.907C32.9511 246.812 32.8564 246.812 32.809 246.812C32.7143 246.812 32.6196 246.828 32.5249 246.859C32.4302 246.891 32.3354 246.938 32.2407 247.001C32.1933 247.049 32.0986 247.096 32.0513 247.144C32.0039 247.522 31.9092 247.854 31.9092 248.233C31.8776 248.296 31.8776 248.375 31.9092 248.47C31.9092 248.564 31.9092 248.659 31.9565 248.754C32.0039 248.896 32.146 248.991 32.2881 249.085C32.3354 249.133 32.4775 249.085 32.5249 249.085C32.5722 249.085 32.7143 249.038 32.7617 248.943C32.8564 248.754 33.0458 248.612 33.0932 248.375C33.1406 248.186 33.1879 247.996 33.1406 247.854C33.0932 247.522 33.0458 247.191 32.9511 246.907Z" fill="#DEFCFF"/>
<path d="M53.6006 243.023C53.6006 242.992 53.6006 242.96 53.6006 242.928C53.569 242.897 53.5532 242.881 53.5532 242.881L53.4112 242.692C53.348 242.629 53.2849 242.565 53.2217 242.502C53.1744 242.407 53.0796 242.407 53.0323 242.36C52.9375 242.313 52.7955 242.313 52.6534 242.313C52.4639 242.344 52.2745 242.392 52.085 242.455C51.8009 242.55 51.4694 242.692 51.3273 242.976C51.2799 243.071 51.2325 243.118 51.2325 243.213C51.2325 243.276 51.2168 243.339 51.1852 243.402C51.1852 243.592 51.1378 243.781 51.2325 243.923C51.2799 244.018 51.3273 244.16 51.3746 244.255C51.4062 244.318 51.4536 244.365 51.5167 244.397C51.5483 244.397 51.5799 244.412 51.6114 244.444C51.6746 244.476 51.7535 244.507 51.8482 244.539C51.8798 244.539 51.9114 244.539 51.943 244.539C52.0061 244.57 52.0693 244.602 52.1324 244.633C52.3218 244.728 52.5587 244.681 52.7481 244.633C52.9375 244.539 53.127 244.444 53.2217 244.255C53.2533 244.191 53.2849 244.112 53.3164 244.018C53.348 243.986 53.3796 243.955 53.4112 243.923C53.4585 243.876 53.5059 243.828 53.5532 243.734C53.5532 243.702 53.569 243.67 53.6006 243.639C53.648 243.592 53.648 243.544 53.648 243.497C53.648 243.339 53.6322 243.181 53.6006 243.023Z" fill="#DEFCFF"/>
<path d="M59.8522 245.96C59.8522 245.96 59.8522 245.944 59.8522 245.912C59.8206 245.881 59.8049 245.865 59.8049 245.865C59.8049 245.833 59.8049 245.817 59.8049 245.817C59.8049 245.786 59.7891 245.754 59.7575 245.723C59.7101 245.675 59.5681 245.675 59.4733 245.675C59.2839 245.675 59.0471 245.77 58.8576 245.865C58.8261 245.896 58.8103 245.912 58.8103 245.912C58.7155 245.944 58.6208 245.991 58.5261 246.054C58.4945 246.086 58.463 246.117 58.4314 246.149C58.3682 246.244 58.2893 246.338 58.1946 246.433C58.1946 246.433 58.1788 246.433 58.1472 246.433C58.1472 246.465 58.1472 246.496 58.1472 246.528C58.0999 246.575 58.0999 246.575 58.0999 246.67C58.0999 246.702 58.0999 246.733 58.0999 246.765C58.0999 246.796 58.1156 246.844 58.1472 246.907C58.1472 246.97 58.1788 247.017 58.2419 247.049C58.2419 247.049 58.384 247.096 58.4314 247.096C58.5261 247.096 58.6208 247.096 58.7155 247.096C58.7629 247.096 58.8576 247.049 58.905 247.049C59.0313 247.017 59.1576 246.97 59.2839 246.907C59.426 246.859 59.568 246.765 59.6628 246.67C59.6628 246.638 59.6786 246.623 59.7101 246.623C59.7101 246.575 59.8049 246.481 59.8049 246.481C59.8049 246.449 59.8049 246.433 59.8049 246.433C59.8049 246.402 59.8049 246.37 59.8049 246.338C59.8049 246.275 59.8206 246.212 59.8522 246.149C59.8996 246.102 59.8996 246.054 59.8996 246.007C59.868 246.007 59.8522 245.991 59.8522 245.96Z" fill="#DEFCFF"/>
<path d="M58.7629 249.796C58.7629 249.764 58.7629 249.717 58.7629 249.654C58.7629 249.622 58.7629 249.591 58.7629 249.559C58.8103 249.512 58.6682 249.512 58.6208 249.512C58.5261 249.512 58.4472 249.543 58.384 249.606C58.3209 249.638 58.2735 249.67 58.2419 249.701C58.2104 249.733 58.1946 249.748 58.1946 249.748C58.163 249.78 58.1314 249.812 58.0998 249.843C58.0683 249.875 58.0367 249.922 58.0051 249.985C57.9735 249.985 57.9578 250.001 57.9578 250.033C57.9104 250.08 57.9104 250.127 57.9104 250.175C57.9104 250.238 57.9262 250.301 57.9578 250.364C58.0051 250.459 58.0525 250.554 58.1472 250.601C58.1946 250.648 58.3367 250.601 58.384 250.601C58.4472 250.569 58.4945 250.538 58.5261 250.506C58.5735 250.506 58.6208 250.459 58.6208 250.412C58.6208 250.364 58.6208 250.269 58.6682 250.222C58.6682 250.159 58.684 250.08 58.7155 249.985C58.7471 249.954 58.7629 249.922 58.7629 249.891C58.8103 249.843 58.7629 249.843 58.7629 249.796Z" fill="#DEFCFF"/>
<path d="M78.2757 246.054C78.2441 245.991 78.2283 245.944 78.2283 245.912C78.1967 245.881 78.1652 245.849 78.1336 245.817C78.102 245.817 78.0862 245.817 78.0862 245.817C78.0547 245.786 78.0231 245.739 77.9915 245.675C77.9599 245.644 77.9284 245.612 77.8968 245.581C77.8652 245.581 77.8336 245.565 77.8021 245.533C77.8021 245.502 77.8021 245.47 77.8021 245.439C77.8021 245.391 77.6126 245.439 77.6126 245.439C77.5179 245.486 77.4232 245.486 77.4232 245.581C77.3758 245.628 77.3758 245.723 77.3285 245.77C77.36 245.739 77.4074 245.707 77.4705 245.675C77.2337 245.77 77.139 245.912 76.9969 246.102C76.9496 246.149 76.8548 246.196 76.8075 246.291C76.7443 246.386 76.6812 246.465 76.618 246.528C76.5707 246.623 76.5233 246.717 76.476 246.812C76.476 246.859 76.476 246.954 76.476 247.049C76.476 247.112 76.476 247.175 76.476 247.238C76.476 247.286 76.476 247.286 76.5233 247.333C76.5233 247.365 76.5391 247.38 76.5707 247.38C76.5707 247.428 76.5707 247.522 76.618 247.57C76.6654 247.617 76.7601 247.665 76.8075 247.712C76.9496 247.759 77.139 247.712 77.2337 247.665C77.4232 247.633 77.581 247.554 77.7073 247.428C77.7547 247.333 77.8968 247.238 77.9441 247.144C77.9757 247.08 78.0073 247.033 78.0389 247.002C78.0862 246.907 78.181 246.859 78.181 246.765C78.2125 246.702 78.2441 246.654 78.2757 246.623C78.2757 246.528 78.323 246.433 78.3704 246.338C78.3704 246.196 78.323 246.149 78.2757 246.054Z" fill="#DEFCFF"/>
<path d="M72.3082 244.16C72.3082 244.128 72.2924 244.097 72.2608 244.065C72.2608 244.034 72.245 244.018 72.2135 244.018C72.1819 244.018 72.1503 244.018 72.1187 244.018C71.9924 244.018 71.8977 244.034 71.8346 244.065C71.7083 244.097 71.5978 244.144 71.503 244.207C71.4557 244.255 71.361 244.302 71.361 244.349L71.3136 244.491C71.282 244.491 71.2662 244.507 71.2662 244.539C71.2662 244.57 71.2662 244.586 71.2662 244.586C71.2662 244.618 71.2662 244.633 71.2662 244.633C71.2662 244.665 71.2662 244.681 71.2662 244.681C71.2978 244.712 71.3136 244.744 71.3136 244.776C71.3136 244.807 71.3294 244.823 71.361 244.823C71.4241 244.854 71.4715 244.87 71.503 244.87C71.5978 244.87 71.6925 244.823 71.7872 244.776C71.9135 244.744 72.024 244.712 72.1187 244.681C72.2135 244.586 72.3082 244.539 72.3082 244.444C72.3398 244.412 72.3555 244.365 72.3555 244.302C72.3555 244.302 72.3555 244.255 72.3555 244.207C72.3555 244.207 72.3398 244.191 72.3082 244.16Z" fill="#DEFCFF"/>
<path d="M83.9117 243.639C83.9117 243.607 83.8959 243.592 83.8643 243.592C83.8012 243.592 83.7538 243.592 83.7222 243.592C83.6275 243.56 83.5486 243.56 83.4854 243.592C83.4223 243.592 83.3434 243.607 83.2486 243.639C83.2171 243.67 83.1697 243.686 83.1066 243.686C83.0434 243.718 82.9803 243.765 82.9171 243.828C82.8855 243.828 82.854 243.86 82.8224 243.923C82.8224 243.923 82.8224 243.939 82.8224 243.97C82.854 244.034 82.8855 244.065 82.9171 244.065C82.9803 244.065 83.0434 244.065 83.1066 244.065C83.1697 244.034 83.2486 244.018 83.3434 244.018C83.3749 244.018 83.4065 244.018 83.4381 244.018C83.5012 243.986 83.5644 243.955 83.6275 243.923C83.6591 243.923 83.6907 243.907 83.7222 243.876C83.7538 243.876 83.8012 243.86 83.8643 243.828C83.8643 243.797 83.8801 243.765 83.9117 243.734C83.9117 243.734 83.9117 243.718 83.9117 243.686C83.9433 243.655 83.9433 243.639 83.9117 243.639Z" fill="#DEFCFF"/>
<path d="M88.6952 243.402L88.6478 243.355C88.6478 243.323 88.632 243.292 88.6004 243.26C88.6004 243.26 88.5846 243.26 88.5531 243.26C88.5215 243.228 88.5057 243.213 88.5057 243.213C88.4426 243.213 88.3952 243.228 88.3636 243.26C88.3005 243.26 88.2531 243.276 88.2215 243.307C88.1584 243.339 88.0953 243.371 88.0321 243.402C88.0321 243.402 88.0321 243.418 88.0321 243.449C88.0005 243.481 88.0005 243.497 88.0321 243.497C88.0637 243.528 88.111 243.56 88.1742 243.592C88.1742 243.623 88.19 243.639 88.2215 243.639C88.2215 243.67 88.2215 243.686 88.2215 243.686H88.2689C88.3005 243.686 88.3163 243.686 88.3163 243.686C88.3163 243.686 88.3321 243.686 88.3636 243.686C88.3636 243.686 88.3794 243.686 88.411 243.686C88.4426 243.686 88.4741 243.686 88.5057 243.686C88.5373 243.686 88.5689 243.67 88.6004 243.639C88.632 243.639 88.6636 243.623 88.6952 243.592C88.6952 243.592 88.6952 243.576 88.6952 243.544C88.7267 243.513 88.7425 243.497 88.7425 243.497C88.7425 243.497 88.7425 243.481 88.7425 243.449C88.7425 243.449 88.7267 243.434 88.6952 243.402Z" fill="#DEFCFF"/>
<path d="M276.056 251.88C276.245 251.848 276.419 251.801 276.577 251.738C278.092 251.169 278.424 249.228 278.708 247.617C278.803 247.333 278.85 247.002 279.087 246.812C279.324 246.575 279.655 246.481 279.987 246.433C280.587 246.307 281.186 246.181 281.786 246.054C281.976 246.007 282.213 245.96 282.402 246.007C282.734 246.149 282.828 246.575 282.923 246.907C283.333 249.054 283.76 251.185 284.202 253.301C284.439 254.627 284.77 256 285.717 256.947C286.759 254.485 287.47 251.927 287.896 249.322C287.991 248.612 288.18 247.759 288.843 247.57C289.601 249.796 289.648 252.069 290.264 254.295C291.78 260.168 291.685 266.372 292.443 272.34C292.443 272.482 292.49 272.671 292.585 272.813C292.774 273.145 293.342 273.05 293.627 272.766C293.911 272.434 293.958 272.008 294.006 271.629C294.811 265.188 295.995 258.416 295.947 251.974C295.947 251.217 295.663 250.269 295.805 249.559C295.805 249.417 296.468 247.854 296.61 247.996C297.889 249.843 298.031 253.111 298.505 255.242C298.978 257.232 298.694 259.505 299.642 261.352C299.831 261.447 300.068 261.305 300.21 261.115C300.305 260.926 300.352 260.689 300.352 260.452C300.541 259.126 300.826 257.705 300.778 256.379C300.683 254.674 301.489 253.016 301.631 251.406C301.915 249.085 301.867 247.144 303.146 245.06C304.093 243.497 304.993 242.36 304.757 240.418C300.541 240.655 296.184 240.75 291.969 240.987C290.548 241.081 289.08 241.176 287.612 241.223C284.107 241.271 280.602 241.081 277.098 240.892C274.635 240.734 272.156 240.592 269.662 240.466C268.336 240.418 266.868 239.945 265.542 240.371C264.168 240.797 263.031 242.029 261.705 242.692C261.09 242.976 260.332 243.402 260.284 244.065C260.19 245.723 261.847 248.186 262.652 249.464C262.795 249.701 262.984 249.938 263.268 249.985C263.6 250.08 263.931 249.796 264.121 249.559C264.594 248.896 264.689 248.043 264.878 247.286C264.926 247.144 264.973 247.002 265.068 246.907C265.21 246.765 265.494 246.765 265.684 246.859C268.052 247.57 270.136 250.885 270.657 253.158C271.13 255.574 270.799 258.226 271.556 260.547C271.698 261.068 271.983 261.636 272.551 261.683C273.246 258.968 273.956 256.253 274.682 253.537C274.824 253.016 275.014 252.448 275.44 252.117C275.629 252.022 275.866 251.927 276.056 251.88Z" fill="url(#paint25_linear_724_50)"/>
<path d="M303.194 243.071C302.767 244.207 302.152 245.439 301.441 245.817C301.157 246.007 300.826 246.102 300.589 246.338C300.399 246.623 300.352 246.954 300.352 247.286C300.163 249.938 299.973 252.59 299.784 255.242C299.563 254.421 299.357 253.6 299.168 252.78C298.6 250.412 298.031 247.996 296.753 245.865C296.232 246.528 295.332 246.859 294.479 246.67C294.242 246.623 293.911 246.528 293.721 246.717C293.532 246.859 293.532 247.144 293.532 247.333C293.769 251.596 294.006 255.811 294.006 260.073C293.958 261.683 293.864 263.483 292.632 264.525C291.906 259.094 291.196 253.679 290.501 248.28C290.311 246.907 289.696 245.154 288.322 245.249C287.438 247.301 286.538 249.354 285.623 251.406C284.344 249.275 283.349 246.954 282.686 244.586C281.834 245.154 280.744 244.349 279.703 244.255C278.424 244.065 277.287 245.06 276.766 246.196C276.198 247.428 275.724 249.891 274.54 250.601C274.303 250.743 274.067 250.838 273.83 250.98C273.261 251.406 273.261 252.259 273.356 253.016C273.451 253.727 273.593 254.532 273.119 255.1C273.025 255.148 272.977 255.195 272.883 255.242C272.646 255.29 272.456 254.958 272.362 254.674C271.699 251.596 271.083 249.085 269.52 246.386C269.236 245.912 269.046 245.628 268.478 245.533C268.336 245.533 267.247 245.865 267.294 245.96C267.041 245.486 266.789 244.997 266.536 244.491C266.489 244.397 266.441 244.302 266.347 244.255C266.205 244.16 266.015 244.207 265.873 244.302C265.352 244.491 264.879 244.823 264.31 245.06C263.789 245.297 263.174 245.439 262.653 245.202C262.084 244.965 261.753 244.255 262.084 243.781C262.684 243.781 263.252 243.86 263.789 244.018C263.647 243.449 264.026 242.928 264.405 242.502C264.642 242.123 264.926 241.792 265.352 241.697C266.157 241.46 266.394 241.744 267.199 241.413C267.768 241.129 268.241 240.702 268.904 240.56C270.136 240.229 271.225 240.608 271.888 241.697C272.077 241.981 272.22 242.313 272.456 242.55C273.309 243.544 274.256 242.076 275.014 241.602C276.577 240.608 277.05 241.65 278.613 242.029C280.176 242.455 281.123 240.466 282.402 240.702C282.97 240.797 283.16 241.46 283.776 241.46C284.297 241.413 284.818 240.845 285.244 240.608C286.617 239.85 288.464 239.092 290.075 239.282C292.253 239.566 294.242 241.176 294.905 243.26C295.19 242.739 295.521 242.171 296.042 241.792C296.516 241.413 297.226 241.176 297.795 241.413C298.126 241.555 298.41 241.792 298.742 241.744C299.31 240.702 299.263 239.234 300.257 238.619C302.01 237.482 303.715 239.661 303.62 241.176C303.62 241.697 303.43 242.36 303.194 243.071Z" fill="url(#paint26_linear_724_50)"/>
<path d="M290.927 242.36C291.401 243.591 291.685 244.918 291.874 246.196C292.016 247.428 291.969 248.564 291.874 249.796C291.874 249.938 291.306 249.748 291.259 249.606C290.643 247.144 290.075 244.681 289.932 242.123C289.932 241.792 290.832 242.171 290.927 242.36Z" fill="#DEFCFF"/>
<path d="M290.832 251.501C290.832 251.453 290.88 251.406 290.88 251.359C290.88 251.264 291.069 251.311 291.117 251.311C291.259 251.311 291.401 251.359 291.495 251.453C291.59 251.548 291.685 251.659 291.78 251.785C291.874 251.832 291.922 251.974 291.969 252.069C292.016 252.164 292.016 252.211 292.016 252.259C292.016 252.29 292.016 252.338 292.016 252.401C292.016 252.432 292.001 252.48 291.969 252.543C291.969 252.59 291.922 252.638 291.874 252.638C291.906 252.638 291.922 252.622 291.922 252.59C291.827 252.732 291.732 252.874 291.638 252.969C291.59 253.016 291.401 252.969 291.353 252.922C291.29 252.922 291.243 252.906 291.211 252.874C291.164 252.874 291.117 252.827 291.069 252.78C291.069 252.622 291.038 252.464 290.974 252.306C290.974 252.338 290.974 252.353 290.974 252.353C290.927 252.306 290.88 252.259 290.88 252.164C290.88 252.132 290.864 252.101 290.832 252.069C290.832 251.927 290.785 251.832 290.785 251.738C290.785 251.69 290.785 251.596 290.832 251.501Z" fill="#DEFCFF"/>
<path d="M297.936 244.112C297.984 244.018 298.079 244.018 298.126 244.018C298.221 244.018 298.315 244.034 298.41 244.065C298.536 244.097 298.631 244.144 298.694 244.207C298.789 244.255 298.884 244.302 298.884 244.397C298.978 244.776 299.026 245.107 299.073 245.486C299.073 245.581 299.073 245.675 299.073 245.77C299.073 245.865 299.026 245.912 299.026 246.007C298.978 246.196 298.789 246.291 298.694 246.433C298.647 246.481 298.457 246.433 298.41 246.386C298.363 246.386 298.221 246.338 298.173 246.244C298.031 246.054 297.889 245.865 297.842 245.675C297.794 245.486 297.747 245.297 297.747 245.107C297.794 244.776 297.889 244.444 297.936 244.112Z" fill="#DEFCFF"/>
<path d="M274.303 243.686C274.303 243.734 274.303 243.781 274.351 243.828C274.382 243.891 274.414 243.939 274.445 243.97C274.445 244.018 274.493 244.112 274.54 244.16C274.572 244.191 274.603 244.223 274.635 244.255C274.666 244.349 274.714 244.428 274.777 244.491C274.872 244.681 275.061 244.823 275.251 244.87C275.44 244.965 275.677 245.012 275.914 244.918C275.977 244.886 276.04 244.839 276.103 244.776C276.135 244.776 276.166 244.776 276.198 244.776C276.261 244.744 276.34 244.712 276.435 244.681C276.466 244.681 276.498 244.665 276.529 244.633C276.592 244.602 276.64 244.555 276.671 244.491C276.766 244.397 276.813 244.255 276.861 244.113C276.908 243.97 276.861 243.781 276.861 243.592C276.861 243.528 276.861 243.465 276.861 243.402C276.813 243.307 276.766 243.213 276.719 243.165C276.577 242.881 276.198 242.692 275.914 242.597C275.724 242.534 275.535 242.486 275.345 242.455C275.203 242.455 275.061 242.455 274.966 242.502C274.872 242.55 274.777 242.597 274.73 242.644C274.666 242.707 274.603 242.786 274.54 242.881L274.445 243.023C274.414 243.055 274.382 243.086 274.351 243.118C274.351 243.165 274.351 243.165 274.351 243.213C274.351 243.371 274.335 243.528 274.303 243.686Z" fill="#DEFCFF"/>
<path d="M269.851 243.165C269.851 243.134 269.867 243.102 269.899 243.071C269.899 243.039 269.899 243.023 269.899 243.023C269.899 242.992 269.899 242.976 269.899 242.976C269.899 242.944 269.915 242.913 269.946 242.881C269.993 242.834 270.136 242.834 270.23 242.834C270.467 242.834 270.704 242.928 270.893 243.023C270.925 243.055 270.941 243.071 270.941 243.071C271.035 243.134 271.13 243.197 271.225 243.26C271.256 243.292 271.288 243.307 271.32 243.307C271.414 243.402 271.509 243.497 271.604 243.592C271.604 243.623 271.604 243.639 271.604 243.639C271.635 243.67 271.651 243.702 271.651 243.734C271.698 243.781 271.698 243.781 271.698 243.876C271.698 243.907 271.698 243.939 271.698 243.97C271.698 244.034 271.683 244.081 271.651 244.112C271.62 244.176 271.588 244.223 271.556 244.255C271.509 244.302 271.414 244.302 271.367 244.302C271.272 244.349 271.13 244.349 271.035 244.302C270.988 244.302 270.893 244.302 270.846 244.302C270.72 244.239 270.593 244.191 270.467 244.16C270.325 244.065 270.183 243.97 270.041 243.876C270.041 243.844 270.025 243.813 269.993 243.781C269.993 243.781 269.946 243.686 269.946 243.639C269.915 243.639 269.899 243.639 269.899 243.639C269.899 243.607 269.899 243.56 269.899 243.497C269.899 243.434 269.883 243.37 269.851 243.307C269.851 243.26 269.804 243.213 269.851 243.213C269.851 243.181 269.851 243.165 269.851 243.165Z" fill="#DEFCFF"/>
<path d="M270.988 247.144C271.02 247.08 271.035 247.033 271.035 247.002C271.004 246.97 270.988 246.938 270.988 246.907C270.941 246.812 271.13 246.812 271.13 246.859C271.225 246.859 271.32 246.891 271.414 246.954C271.446 246.986 271.493 247.017 271.556 247.049C271.556 247.08 271.572 247.096 271.604 247.096C271.572 247.096 271.572 247.096 271.604 247.096C271.635 247.128 271.667 247.159 271.698 247.191C271.73 247.223 271.762 247.27 271.793 247.333C271.825 247.365 271.841 247.38 271.841 247.38C271.888 247.428 271.888 247.475 271.888 247.523C271.888 247.617 271.872 247.696 271.841 247.759C271.793 247.854 271.746 247.949 271.651 247.996C271.556 248.043 271.414 247.996 271.367 247.949C271.335 247.949 271.288 247.933 271.225 247.901C271.225 247.901 271.178 247.854 271.13 247.807C271.13 247.712 271.13 247.665 271.13 247.57C271.099 247.507 271.067 247.444 271.035 247.38C271.035 247.317 271.02 247.27 270.988 247.238C270.988 247.191 270.988 247.191 270.988 247.144Z" fill="#DEFCFF"/>
<path d="M284.96 243.734C284.96 243.639 284.944 243.544 284.912 243.449C284.912 243.26 284.818 243.071 284.77 242.881C284.77 242.692 284.628 242.55 284.581 242.36C284.533 242.265 284.249 242.408 284.249 242.455C284.107 242.692 283.918 242.928 283.87 243.165C283.823 243.355 283.728 243.592 283.776 243.828C283.776 243.923 283.791 244.034 283.823 244.16C283.823 244.255 283.87 244.302 283.918 244.397C284.06 244.586 284.249 244.776 284.439 244.918C284.486 244.965 284.675 244.918 284.723 244.87C284.77 244.87 284.96 244.776 284.96 244.728C284.96 244.491 285.007 244.255 285.007 244.065C285.007 243.923 285.007 243.828 284.96 243.734Z" fill="#DEFCFF"/>
<path d="M265.636 242.36C265.605 242.297 265.573 242.234 265.541 242.171C265.541 242.123 265.447 242.123 265.399 242.123C265.336 242.155 265.273 242.171 265.21 242.171C265.115 242.202 265.036 242.234 264.973 242.265C264.926 242.313 264.831 242.36 264.831 242.408C264.799 242.502 264.768 242.597 264.736 242.692C264.736 242.692 264.721 242.692 264.689 242.692C264.689 242.723 264.689 242.739 264.689 242.739C264.689 242.786 264.689 242.786 264.689 242.786C264.721 242.818 264.736 242.834 264.736 242.834C264.736 242.834 264.736 242.85 264.736 242.881C264.768 242.913 264.784 242.928 264.784 242.928C264.815 242.96 264.831 242.976 264.831 242.976C264.894 242.976 264.942 242.976 264.973 242.976C265.068 242.976 265.163 242.96 265.257 242.928C265.32 242.897 265.384 242.85 265.447 242.786C265.478 242.786 265.51 242.771 265.541 242.739C265.573 242.707 265.589 242.676 265.589 242.644C265.62 242.613 265.636 242.581 265.636 242.55C265.668 242.518 265.684 242.471 265.684 242.408C265.684 242.408 265.668 242.392 265.636 242.36Z" fill="#DEFCFF"/>
<path d="M262.842 244.302C262.842 244.302 262.826 244.302 262.795 244.302C262.763 244.302 262.732 244.302 262.7 244.302C262.668 244.302 262.637 244.318 262.605 244.349C262.542 244.349 262.479 244.365 262.416 244.397C262.416 244.428 262.4 244.444 262.368 244.444C262.368 244.476 262.368 244.507 262.368 244.539C262.368 244.57 262.384 244.602 262.416 244.633C262.416 244.665 262.432 244.681 262.463 244.681C262.463 244.712 262.479 244.728 262.51 244.728C262.542 244.728 262.574 244.728 262.605 244.728C262.637 244.728 262.668 244.712 262.7 244.681C262.7 244.681 262.716 244.665 262.747 244.633C262.747 244.633 262.763 244.618 262.795 244.586C262.795 244.555 262.795 244.539 262.795 244.539L262.842 244.491C262.842 244.46 262.858 244.412 262.889 244.349C262.889 244.349 262.874 244.334 262.842 244.302Z" fill="#DEFCFF"/>
<defs>
<linearGradient id="paint0_linear_724_50" x1="-42136.7" y1="8514.62" x2="-38146.7" y2="225968" gradientUnits="userSpaceOnUse">
<stop stop-color="#2AA7C9"/>
<stop offset="0.49" stop-color="#1D6A9E"/>
<stop offset="1" stop-color="#18BA68"/>
</linearGradient>
<radialGradient id="paint1_radial_724_50" cx="0" cy="0" r="1" gradientUnits="userSpaceOnUse" gradientTransform="translate(21567.8 69993.1) scale(405391 305397)">
<stop stop-color="#74F2EC"/>
<stop offset="1" stop-color="#1496C2"/>
</radialGradient>
<linearGradient id="paint2_linear_724_50" x1="30875.5" y1="65907.7" x2="121426" y2="133364" gradientUnits="userSpaceOnUse">
<stop stop-color="#59F0B9"/>
<stop offset="1"/>
</linearGradient>
<radialGradient id="paint3_radial_724_50" cx="0" cy="0" r="1" gradientUnits="userSpaceOnUse" gradientTransform="translate(919.27 4706.09) scale(173.528 196.017)">
<stop stop-color="#91F2F2"/>
<stop offset="1" stop-color="#14A1C4"/>
</radialGradient>
<radialGradient id="paint4_radial_724_50" cx="0" cy="0" r="1" gradientUnits="userSpaceOnUse" gradientTransform="translate(5674.03 2328.71) scale(173.528 196.017)">
<stop stop-color="#91F2F2"/>
<stop offset="1" stop-color="#14A1C4"/>
</radialGradient>
<radialGradient id="paint5_radial_724_50" cx="0" cy="0" r="1" gradientUnits="userSpaceOnUse" gradientTransform="translate(3966.22 3725.62) scale(93.0273 105.317)">
<stop stop-color="#91F2F2"/>
<stop offset="1" stop-color="#14A1C4"/>
</radialGradient>
<radialGradient id="paint6_radial_724_50" cx="0" cy="0" r="1" gradientUnits="userSpaceOnUse" gradientTransform="translate(3049.38 -879.163) rotate(-37.7171) scale(55.2044 59.8282)">
<stop stop-color="#91F2F2"/>
<stop offset="1" stop-color="#14A1C4"/>
</radialGradient>
<radialGradient id="paint7_radial_724_50" cx="0" cy="0" r="1" gradientUnits="userSpaceOnUse" gradientTransform="translate(1577.1 -431.136) rotate(-37.7218) scale(12.2727 13.5291)">
<stop stop-color="#91F2F2"/>
<stop offset="1" stop-color="#14A1C4"/>
</radialGradient>
<radialGradient id="paint8_radial_724_50" cx="0" cy="0" r="1" gradientUnits="userSpaceOnUse" gradientTransform="translate(1363.66 -395.667) rotate(-37.7218) scale(12.2727 13.3101)">
<stop stop-color="#91F2F2"/>
<stop offset="1" stop-color="#14A1C4"/>
</radialGradient>
<radialGradient id="paint9_radial_724_50" cx="0" cy="0" r="1" gradientUnits="userSpaceOnUse" gradientTransform="translate(2072.8 -353.717) rotate(-37.7198) scale(27.4393 29.7382)">
<stop stop-color="#91F2F2"/>
<stop offset="1" stop-color="#14A1C4"/>
</radialGradient>
<radialGradient id="paint10_radial_724_50" cx="0" cy="0" r="1" gradientUnits="userSpaceOnUse" gradientTransform="translate(2067.1 297.537) rotate(-37.7217) scale(12.489 13.3069)">
<stop stop-color="#91F2F2"/>
<stop offset="1" stop-color="#14A1C4"/>
</radialGradient>
<radialGradient id="paint11_radial_724_50" cx="0" cy="0" r="1" gradientUnits="userSpaceOnUse" gradientTransform="translate(346.499 1776.73) scale(30.7172 35.4683)">
<stop stop-color="#91F2F2"/>
<stop offset="1" stop-color="#14A1C4"/>
</radialGradient>
<radialGradient id="paint12_radial_724_50" cx="0" cy="0" r="1" gradientUnits="userSpaceOnUse" gradientTransform="translate(719.364 1832.26) scale(29.2299 29.3804)">
<stop stop-color="#91F2F2"/>
<stop offset="1" stop-color="#14A1C4"/>
</radialGradient>
<radialGradient id="paint13_radial_724_50" cx="0" cy="0" r="1" gradientUnits="userSpaceOnUse" gradientTransform="translate(361.918 582.49) scale(15.737 15.842)">
<stop stop-color="#91F2F2"/>
<stop offset="1" stop-color="#14A1C4"/>
</radialGradient>
<radialGradient id="paint14_radial_724_50" cx="0" cy="0" r="1" gradientUnits="userSpaceOnUse" gradientTransform="translate(209.972 1252) scale(11.0363 11.0105)">
<stop stop-color="#91F2F2"/>
<stop offset="1" stop-color="#14A1C4"/>
</radialGradient>
<radialGradient id="paint15_radial_724_50" cx="0" cy="0" r="1" gradientUnits="userSpaceOnUse" gradientTransform="translate(1106.67 366.68) scale(5.27791 5.26116)">
<stop stop-color="#91F2F2"/>
<stop offset="1" stop-color="#14A1C4"/>
</radialGradient>
<radialGradient id="paint16_radial_724_50" cx="0" cy="0" r="1" gradientUnits="userSpaceOnUse" gradientTransform="translate(1040.65 997.769) scale(5.27998 5.22979)">
<stop stop-color="#91F2F2"/>
<stop offset="1" stop-color="#14A1C4"/>
</radialGradient>
<radialGradient id="paint17_radial_724_50" cx="0" cy="0" r="1" gradientUnits="userSpaceOnUse" gradientTransform="translate(-3185.7 -1900.35) rotate(146.692) scale(100.031 99.9836)">
<stop stop-color="#91F2F2"/>
<stop offset="1" stop-color="#14A1C4"/>
</radialGradient>
<radialGradient id="paint18_radial_724_50" cx="0" cy="0" r="1" gradientUnits="userSpaceOnUse" gradientTransform="translate(-770.494 -456.456) rotate(146.695) scale(20.8798 20.8838)">
<stop stop-color="#91F2F2"/>
<stop offset="1" stop-color="#14A1C4"/>
</radialGradient>
<radialGradient id="paint19_radial_724_50" cx="0" cy="0" r="1" gradientUnits="userSpaceOnUse" gradientTransform="translate(-514.696 -1655.86) rotate(-175.587) scale(24.1261 27.2467)">
<stop stop-color="#91F2F2"/>
<stop offset="1" stop-color="#14A1C4"/>
</radialGradient>
<radialGradient id="paint20_radial_724_50" cx="0" cy="0" r="1" gradientUnits="userSpaceOnUse" gradientTransform="translate(-657.232 -207.824) rotate(146.697) scale(5.22467 5.26569)">
<stop stop-color="#91F2F2"/>
<stop offset="1" stop-color="#14A1C4"/>
</radialGradient>
<radialGradient id="paint21_radial_724_50" cx="0" cy="0" r="1" gradientUnits="userSpaceOnUse" gradientTransform="translate(785.198 1617.07) scale(114.315 137.46)">
<stop stop-color="#91F2F2"/>
<stop offset="1" stop-color="#14A1C4"/>
</radialGradient>
<radialGradient id="paint22_radial_724_50" cx="0" cy="0" r="1" gradientUnits="userSpaceOnUse" gradientTransform="translate(631.114 572.764) scale(25.5576 30.8924)">
<stop stop-color="#91F2F2"/>
<stop offset="1" stop-color="#14A1C4"/>
</radialGradient>
<linearGradient id="paint23_linear_724_50" x1="-103957" y1="-11475.7" x2="-106760" y2="3243.79" gradientUnits="userSpaceOnUse">
<stop stop-color="#74F2EC"/>
<stop offset="1" stop-color="#1496C2"/>
</linearGradient>
<linearGradient id="paint24_linear_724_50" x1="-95208.6" y1="-11847.4" x2="-97360.9" y2="-996.081" gradientUnits="userSpaceOnUse">
<stop stop-color="#74F2EC"/>
<stop offset="1" stop-color="#1496C2"/>
</linearGradient>
<linearGradient id="paint25_linear_724_50" x1="-56826" y1="65522.3" x2="-55183.8" y2="74144" gradientUnits="userSpaceOnUse">
<stop stop-color="#74F2EC"/>
<stop offset="1" stop-color="#1496C2"/>
</linearGradient>
<linearGradient id="paint26_linear_724_50" x1="-57610.2" y1="55881.6" x2="-56323.2" y2="62370.4" gradientUnits="userSpaceOnUse">
<stop stop-color="#74F2EC"/>
<stop offset="1" stop-color="#1496C2"/>
</linearGradient>
</defs>
</svg>
