<svg width="45" height="25" viewBox="0 0 45 25" fill="none" xmlns="http://www.w3.org/2000/svg">
<path d="M7.98211 16.5283V6.14734H5.57263V18.829H13.1817V16.5283H7.98211ZM14.631 6.14734V18.829H17.0406V6.14734H14.631ZM27.168 6.14734L24.0337 15.2057L20.8994 6.14734H18.2182L22.8017 18.829H25.2655L29.849 6.14734H27.168ZM33.436 16.5283V13.6475H38.7806V11.3469H33.436V8.46618H39.3424V6.14734H31.0268V18.829H39.4509V16.5283H33.436Z" fill="#FF0000"/>
<path fill-rule="evenodd" clip-rule="evenodd" d="M5.57263 0.891907H39.4509C42.3417 0.891907 44.7064 3.25668 44.7064 6.14732V18.829C44.7064 21.7195 42.3417 24.0844 39.4509 24.0844H5.57263C2.68213 24.0844 0.317352 21.7195 0.317352 18.829V6.14732C0.317352 3.25668 2.68213 0.891907 5.57263 0.891907ZM5.57263 3.51962H39.4509C40.8963 3.51962 42.0786 4.70193 42.0786 6.14732V18.829C42.0786 20.2743 40.8963 21.4567 39.4509 21.4567H5.57263C4.12738 21.4567 2.94492 20.2743 2.94492 18.829V6.14732C2.94492 4.70193 4.12738 3.51962 5.57263 3.51962Z" fill="#FF0000"/>
</svg>
