<svg width="282" height="94" viewBox="0 0 282 94" fill="none" xmlns="http://www.w3.org/2000/svg">
<path d="M34.1344 33.803H62.5184L59.3902 65.337H45.1752L46.0953 56.6779H48.9015L50.3276 42.3695H44.6692L41.2649 76.7744L29.9021 76.7281L34.1344 33.803Z" fill="#2B2B2B"/>
<path d="M139.666 39.9153V33.4788H123.611V39.9153H128.395V65.7537H134.79V39.9153H139.666ZM156.365 33.4325H149.971V53.0197H146.75V33.4325H140.31V65.7537H146.75V59.5025H149.971V65.7537H156.365V33.4325ZM165.152 39.9153H172.834V33.4325H158.711V65.8H172.834V59.3172H165.152V56.0759H171.546V49.5931H165.152V39.9153ZM191.972 32.7842H191.604C189.395 32.8151 187.525 33.6023 185.991 35.1458C184.427 36.7202 183.645 38.6187 183.645 40.8414V58.2059C183.645 60.4286 184.427 62.3271 185.991 63.9015C187.525 65.445 189.395 66.2322 191.604 66.2631H191.972L199.7 65.8926V50.0562H191.742V56.5389H193.26V59.7803H191.65C191.22 59.7803 190.852 59.626 190.546 59.3172C190.208 59.0085 190.039 58.6227 190.039 58.1596V40.8877C190.039 40.8259 190.039 40.7642 190.039 40.7025C190.039 40.7025 190.055 40.687 190.085 40.6562C190.085 40.5944 190.085 40.5635 190.085 40.5635C190.085 40.5635 190.085 40.5327 190.085 40.4709C190.116 40.4401 190.131 40.4092 190.131 40.3783V40.332C190.162 40.2703 190.177 40.2394 190.177 40.2394C190.208 40.2085 190.224 40.1622 190.224 40.1005C190.254 40.1005 190.27 40.1005 190.27 40.1005C190.27 40.0696 190.285 40.0388 190.316 40.0079V39.9616C190.346 39.9307 190.377 39.8844 190.408 39.8227C190.438 39.8227 190.469 39.8072 190.5 39.7764C190.53 39.7455 190.546 39.7301 190.546 39.7301C190.576 39.6992 190.607 39.6683 190.638 39.6374C190.944 39.3905 191.282 39.267 191.65 39.267C192.079 39.267 192.462 39.4214 192.8 39.7301C193.106 40.0388 193.26 40.4246 193.26 40.8877V44.1754H199.7V40.8877C199.7 38.6959 198.933 36.8128 197.4 35.2384C195.928 33.6949 194.118 32.8769 191.972 32.7842ZM211.477 52.8345H208.257V40.8877C208.257 40.4246 208.425 40.0388 208.763 39.7301C209.069 39.4214 209.453 39.267 209.913 39.267C210.342 39.267 210.71 39.4214 211.017 39.7301C211.324 40.0388 211.477 40.4246 211.477 40.8877V52.8345ZM209.913 32.7842C207.674 32.7842 205.773 33.5714 204.208 35.1458C202.644 36.7202 201.862 38.6187 201.862 40.8414V65.7537H208.257V59.3172H211.477V65.7537H217.917V40.8414C217.917 38.6187 217.135 36.7202 215.571 35.1458C214.007 33.5714 212.121 32.7842 209.913 32.7842ZM245.887 65.7537V40.8414C245.887 38.6187 245.105 36.7202 243.541 35.1458C241.977 33.5714 240.091 32.7842 237.883 32.7842C236.073 32.7842 234.463 33.3245 233.053 34.4049C231.703 33.3862 230.2 32.846 228.544 32.7842H228.222C226.014 32.8151 224.128 33.6023 222.564 35.1458C221.03 36.7202 220.248 38.6187 220.218 40.8414V65.7537H226.658V40.8414C226.658 40.7796 226.658 40.7333 226.658 40.7025C226.658 40.7025 226.658 40.687 226.658 40.6562C226.689 40.5944 226.704 40.5635 226.704 40.5635C226.704 40.5635 226.704 40.5327 226.704 40.4709C226.704 40.4092 226.704 40.3783 226.704 40.3783L226.75 40.2857C226.75 40.2548 226.75 40.2394 226.75 40.2394C226.781 40.2085 226.811 40.1622 226.842 40.1005C226.842 40.0696 226.842 40.0696 226.842 40.1005C226.842 40.0696 226.857 40.0233 226.888 39.9616C226.949 39.9307 226.965 39.9307 226.934 39.9616C226.934 39.9307 226.949 39.8998 226.98 39.869C226.98 39.869 226.995 39.869 227.026 39.869C227.026 39.869 227.026 39.8535 227.026 39.8227C227.057 39.7918 227.087 39.7609 227.118 39.7301C227.149 39.6992 227.179 39.6683 227.21 39.6374C227.517 39.3596 227.87 39.2207 228.268 39.2207C228.698 39.2207 229.066 39.3905 229.372 39.7301C229.71 40.0388 229.878 40.4092 229.878 40.8414V65.7537H236.273V40.8414C236.273 40.4092 236.426 40.0388 236.733 39.7301C237.039 39.3905 237.423 39.2207 237.883 39.2207C238.312 39.2207 238.68 39.3905 238.987 39.7301C239.294 40.0388 239.447 40.4092 239.447 40.8414V65.7537H245.887ZM254.628 39.9153H262.311V33.4325H248.188V65.8H262.311V59.3172H254.628V56.0759H261.023V49.5931H254.628V39.9153Z" fill="#FCFFFE"/>
<path d="M61.2304 54.6404H89.6144L86.4861 86.1281L58.1481 86.0818L61.2304 54.6404ZM75.9974 77.5616L77.3775 63.2069H71.7191L70.293 77.5153L75.9974 77.5616Z" fill="#2B2B2B"/>
<path d="M93.2486 33.803H121.633L118.504 65.2907L107.142 65.337L109.442 42.3695H103.691L101.437 65.2907L90.1664 65.2444L93.2486 33.803Z" fill="#2B2B2B"/>
<path d="M66.6587 10.1872H95.0427L90.7644 53.1123H62.3804L63.2085 44.6384L80.2297 44.5921L82.8519 18.7537H77.1935L75.7674 33.0621H78.5736L77.7455 41.7212H63.5305L66.6587 10.1872Z" fill="#2B2B2B"/>
<path fill-rule="evenodd" clip-rule="evenodd" d="M109.258 28.2463C105.301 28.2463 102.127 25.0512 102.127 21.0689C102.127 17.0867 105.301 13.8916 109.258 13.8916C113.214 13.8916 116.388 17.0867 116.388 21.0689C116.388 25.0512 113.214 28.2463 109.258 28.2463Z" fill="#15F5BA"/>
</svg>
