<svg width="189" height="61" viewBox="0 0 189 61" fill="none" xmlns="http://www.w3.org/2000/svg">
<path opacity="0.42" fill-rule="evenodd" clip-rule="evenodd" d="M45 19.9226C41.9131 19.9226 39.4348 17.3097 39.4348 14.0871C39.4348 10.8645 41.9131 8.25161 45 8.25161C48.0435 8.25161 50.5218 10.8645 50.5218 14.0871C50.5218 17.3097 48.0435 19.9226 45 19.9226Z" fill="url(#paint0_radial_581_43)"/>
<path fill-rule="evenodd" clip-rule="evenodd" d="M45 19.9226C41.9131 19.9226 39.4348 17.3097 39.4348 14.0871C39.4348 10.8645 41.9131 8.25161 45 8.25161C48.0435 8.25161 50.5218 10.8645 50.5218 14.0871C50.5218 17.3097 48.0435 19.9226 45 19.9226ZM49.5218 14.6097C49.5218 12.0403 47.5652 9.95 45.087 9.95C42.6522 9.95 40.6957 12.0403 40.6957 14.6097C40.6957 17.179 42.6522 19.2694 45.087 19.2694C47.5652 19.2694 49.5218 17.179 49.5218 14.6097Z" fill="white"/>
<g style="mix-blend-mode:hard-light">
<path d="M48.3044 9.7758C49.2609 10.6903 49.5652 11.9968 48.9565 12.65C48.3478 13.3468 47.087 13.129 46.1739 12.2145C45.2174 11.3 44.913 9.99355 45.5217 9.29677C46.1304 8.64355 47.3478 8.81774 48.3044 9.7758Z" fill="white"/>
</g>
<g style="mix-blend-mode:multiply" opacity="0.37">
<path d="M7.82611 24.5823C8.34785 26.9774 9.00003 29.3726 9.69568 31.7242C10.6957 34.9032 11.8261 38.0387 13.0435 41.1306C12.9131 39.5629 12.6957 37.9952 12.4348 36.471C12.1739 34.5548 11.8696 32.6387 11.6522 30.7226C11.3913 28.8065 11.2174 26.8903 11.1739 24.9306C11.1739 24.5532 11.1739 24.1758 11.1739 23.7984C10.087 24.1032 8.95655 24.4081 7.82611 24.5823Z" fill="#6C6C65"/>
</g>
<g style="mix-blend-mode:multiply" opacity="0.37">
<path d="M73.6957 30.2871C73.9565 33.8145 74.3044 37.3419 75 40.8258C75.7826 39.0403 76.3479 37.1677 76.7392 35.2516C77.5652 31.55 77.8696 27.8048 78.3479 24.0597C78.4928 22.8984 78.6522 21.7371 78.8261 20.5758C77.7826 20.4306 76.7536 20.2564 75.7392 20.0532H72.9565C73.3044 23.45 73.4783 26.8468 73.6957 30.2871Z" fill="#6C6C65"/>
</g>
<g style="mix-blend-mode:multiply" opacity="0.37">
<path d="M137.652 23.3629C137.783 26.0629 137.826 28.7629 137.913 31.4629C138 34.1629 138.087 36.8629 138.261 39.5629C138.435 41.9145 138.652 44.2661 139.087 46.6177C139.667 44.2661 140.246 41.9 140.826 39.5194C142 34.7726 143.13 30.0258 144.087 25.2355C144.319 24.0742 144.536 22.9129 144.739 21.7516C144.13 21.6645 143.522 21.5774 142.913 21.4903C141.116 21.2581 139.319 21.1129 137.522 21.0548C137.58 21.8387 137.623 22.6081 137.652 23.3629Z" fill="#6C6C65"/>
</g>
<path d="M130.739 36.8194C133.174 37.2548 135.739 37.5161 138.13 36.8629C140.217 36.2968 142.174 35.2081 144.348 34.8161C144.406 34.8161 144.464 34.8016 144.522 34.7726C142.565 34.4677 140.565 34.1194 138.609 33.8581C135.652 33.4661 132.696 33.2919 129.696 33.4661C126.13 33.6839 122.565 34.1629 119 34.5113C122.957 35.0774 126.783 36.1226 130.739 36.8194Z" fill="#828078"/>
<g style="mix-blend-mode:multiply">
<path d="M188 13.3032C186.435 8.99193 182.956 5.9 178 5.42096C174.522 5.02903 170.739 6.07419 168 8.20806C167.855 8.32419 167.71 8.44032 167.565 8.55645C167.42 8.67258 167.29 8.78871 167.174 8.90484C167.087 8.99193 167.014 9.06451 166.956 9.12258C166.565 9.47096 166 9.7758 165.913 10.3419C165.739 12.5194 165.435 14.6532 165.087 16.8306C162.261 15.9161 159.348 15.3064 156.478 14.6532C156.333 14.6242 156.188 14.5952 156.043 14.5661C153.058 13.8984 150.058 13.2887 147.043 12.7371C140.87 11.6484 134.609 10.7774 128.391 10.1242C122.043 9.42742 115.696 9.29677 109.261 9.12258C102.783 8.94838 96.3478 8.6 89.8696 8.55645C83.8261 8.46935 77.8261 8.81774 71.8261 9.20967C66 9.60161 60.1304 10.1242 54.3913 11.1258C49.6522 11.9532 45.0435 13.129 40.4348 14.4355C40.2609 14.4645 40.0869 14.5081 39.913 14.5661C38.9565 14.8274 38 15.1032 37.0435 15.3935C34.3913 16.1774 31.7826 16.9613 29.0869 17.6581C26.913 18.2242 24.7826 18.8774 22.8696 20.0097C22.6377 20.1258 22.4203 20.2564 22.2174 20.4016C22.0145 19.2113 21.8261 18.021 21.6522 16.8306C21.4783 15.6548 21.3913 14.4355 21.2609 13.2597C21.2174 12.7371 21.3043 12.171 21.2609 11.6484C21.2609 11.3871 21.2609 11.0823 21.1304 10.821C21 10.5161 20.4783 10.2113 20.2609 9.95C19.8696 9.51451 19.3478 9.20967 18.8696 8.90484C18.1739 8.4258 17.3913 8.07742 16.6087 7.85967C14.913 7.42419 13.1739 7.46774 11.5217 7.94677C10.6087 8.25161 9.69564 8.6 8.91303 9.03548C7.21738 10.0371 5.73912 11.4306 4.65216 13.0419C4.13042 13.8258 3.60869 14.6968 3.30434 15.6113C3.13043 16.0468 2.99999 16.5258 2.91303 16.9613C2.69564 17.7016 2.30434 18.4855 2.43477 19.2258C2.91303 21.7516 6.1739 35.0774 7.1739 38.5613C8.13042 42.1758 9.1739 45.7468 10.1304 49.3177C10.1594 49.55 10.2029 49.7677 10.2609 49.971C10.4348 50.6097 10.5942 51.2629 10.7391 51.9306C10.884 52.5984 11.029 53.2661 11.1739 53.9339C11.4348 55.3274 11.8261 56.6339 12.7391 57.7661C12.7826 57.8097 12.8261 57.8532 12.913 57.8097C13.3478 58.3758 13.913 58.8984 14.6522 59.2903C14.8261 59.3774 15 59.4645 15.1739 59.5516C15.2029 59.5806 15.2464 59.5952 15.3043 59.5952C15.4493 59.6532 15.5797 59.7113 15.6956 59.7694C15.7536 59.7984 15.8261 59.8274 15.913 59.8564C16 59.8855 16.1014 59.929 16.2174 59.9871C16.3043 59.9871 16.3913 60.0016 16.4783 60.0306C16.5652 60.0597 16.6667 60.1032 16.7826 60.1613C16.8696 60.1613 16.9565 60.1758 17.0435 60.2048C17.1594 60.2339 17.2609 60.2629 17.3478 60.2919C17.4348 60.2919 17.5217 60.3064 17.6087 60.3355C17.7246 60.3645 17.8406 60.379 17.9565 60.379C18.0435 60.4081 18.1304 60.4371 18.2174 60.4661C18.3043 60.4661 18.4058 60.4806 18.5217 60.5097C18.6087 60.5097 18.7101 60.5097 18.8261 60.5097C18.913 60.5387 19 60.5532 19.0869 60.5532C19.2029 60.5823 19.3043 60.5968 19.3913 60.5968C19.4783 60.5968 19.5797 60.5968 19.6956 60.5968C19.7826 60.6258 19.884 60.6403 20 60.6403C20.0869 60.6403 20.1594 60.6403 20.2174 60.6403C20.3623 60.6403 20.4927 60.6403 20.6087 60.6403C20.6667 60.6403 20.7101 60.6403 20.7391 60.6403C21.913 60.6839 23.0869 60.5968 24.1739 60.4661C27.3043 60.0742 30.3043 59.3339 33.3043 58.4193C33.971 58.1871 34.6377 57.9839 35.3043 57.8097C35.5362 57.7226 35.7681 57.65 36 57.5919C36.4348 57.4468 36.8406 57.3161 37.2174 57.2C37.4782 57.1419 37.7246 57.0694 37.9565 56.9823C38.3333 56.8661 38.7246 56.7645 39.1304 56.6774C39.3043 56.6194 39.4927 56.5613 39.6956 56.5032C40.1304 56.3581 40.5507 56.2274 40.9565 56.1113C41.1014 56.0823 41.2464 56.0532 41.3913 56.0242C41.8551 55.879 42.3043 55.7484 42.7391 55.6323C42.8551 55.6032 42.9565 55.5742 43.0435 55.5452C43.5072 55.4 43.971 55.2694 44.4348 55.1532C44.5217 55.1242 44.5942 55.1097 44.6522 55.1097C45.1449 54.9645 45.6232 54.8339 46.0869 54.7177C46.1159 54.6887 46.1594 54.6742 46.2174 54.6742C46.7101 54.5581 47.1884 54.4274 47.6522 54.2823C58.9565 51.321 64.6956 50.6242 67 50.2758C73.3913 49.3613 79.6956 48.7081 86.1304 48.1855C92.6087 47.6629 99.0869 47.3145 105.609 47.271C111.739 47.2274 117.913 47.5758 124.043 48.1855C130.174 48.7952 136.304 49.6661 142.348 50.7984C144.696 51.2339 147 51.6694 149.261 52.1484C149.377 52.1774 149.507 52.2064 149.652 52.2355C149.797 52.2645 149.942 52.2935 150.087 52.3226C150.261 52.3806 150.435 52.4242 150.609 52.4532C150.725 52.4823 150.855 52.5258 151 52.5839C151.174 52.6129 151.362 52.6564 151.565 52.7145C151.681 52.7435 151.797 52.7726 151.913 52.8016C152.116 52.8597 152.319 52.9177 152.522 52.9758C152.638 53.0048 152.754 53.0339 152.87 53.0629C153.072 53.15 153.275 53.2226 153.478 53.2806C153.594 53.3097 153.71 53.3387 153.826 53.3677C154.029 53.4258 154.246 53.4984 154.478 53.5855C154.565 53.6145 154.652 53.6435 154.739 53.6726C154.971 53.7597 155.203 53.8468 155.435 53.9339C155.522 53.9629 155.609 53.9919 155.696 54.021C156.014 54.1371 156.333 54.2532 156.652 54.3694C158.609 55.1968 160.565 56.0677 162.565 56.8081C163.261 57.0403 163.942 57.2581 164.609 57.4613C165.391 57.6645 166.159 57.7952 166.913 57.8532C166.971 57.8823 167.029 57.8968 167.087 57.8968C167.638 57.8968 168.188 57.8532 168.739 57.7661C168.797 57.7661 168.87 57.7661 168.957 57.7661C170.478 57.5484 172 57.1564 173.348 56.4161C173.464 56.3581 173.58 56.3 173.696 56.2419C173.725 56.2129 173.754 56.1984 173.783 56.1984C173.87 56.1403 173.971 56.0823 174.087 56.0242C174.116 55.9952 174.145 55.9661 174.174 55.9371C174.261 55.879 174.348 55.821 174.435 55.7629C174.493 55.7048 174.551 55.6613 174.609 55.6323C174.667 55.5742 174.739 55.5161 174.826 55.4581C174.884 55.429 174.942 55.3855 175 55.3274C175.058 55.2693 175.116 55.2113 175.174 55.1532C175.261 55.0952 175.333 55.0371 175.391 54.979C175.449 54.921 175.507 54.8629 175.565 54.8048C175.623 54.7468 175.696 54.6742 175.783 54.5871C175.812 54.5581 175.855 54.5145 175.913 54.4564C176 54.3403 176.101 54.2097 176.217 54.0645C177.609 52.3226 178.435 50.0581 179.217 48.0548C180.174 45.7468 180.913 43.3952 181.652 41.0435C183.087 36.2532 184.304 31.2452 185.348 26.3677C185.913 23.8419 186.478 21.4468 187.087 18.9645C187.522 17.2226 188.261 14.0871 188 13.3032Z" fill="#65C8D0"/>
</g>
<path d="M185.739 8.90484C184.217 4.59355 180.739 1.50161 175.783 1.02258C172.261 0.630645 168.522 1.6758 165.783 3.80968C165.406 4.1 165.058 4.40484 164.739 4.72419C164.348 5.07258 163.739 5.37742 163.696 5.94355C163.478 8.12097 163.174 10.2548 162.826 12.4323C160.044 11.5613 157.13 10.9081 154.261 10.2548C151.101 9.55806 147.942 8.91935 144.783 8.33871C138.652 7.25 132.391 6.37903 126.174 5.72581C119.783 5.02903 113.435 4.89839 107.043 4.72419C100.565 4.59355 94.087 4.20161 87.6087 4.15806C81.6087 4.11452 75.6087 4.41935 69.6087 4.81129C63.7826 5.20323 57.9131 5.72581 52.1305 6.72742C46.2609 7.77258 40.5218 9.29677 34.8261 10.9952C32.1739 11.779 29.5652 12.5629 26.8696 13.2597C24.4348 13.8694 22.087 14.6532 20 16.0032C19.7971 14.8129 19.6087 13.6226 19.4348 12.4323C19.2609 11.2565 19.1739 10.0806 19.0435 8.90484C18.9566 8.33871 19.087 7.77258 19.0435 7.25C19.0435 6.98871 19.0435 6.68387 18.9131 6.42258C18.7826 6.11774 18.2609 5.8129 18.0435 5.55161C17.6087 5.15968 17.1305 4.85484 16.6087 4.50645C15.9566 4.02742 15.1739 3.67903 14.3913 3.46129C12.6957 3.02581 10.9566 3.06935 9.2609 3.59193C8.39133 3.85322 7.47829 4.20161 6.69568 4.6371C5.00003 5.63871 3.52177 7.03226 2.43481 8.64355C1.86959 9.47097 1.39133 10.2984 1.04351 11.2129C0.913071 11.6484 0.782637 12.1274 0.652202 12.5629C0.478289 13.3032 0.0435062 14.0871 0.217419 14.8274C0.69568 17.3532 3.95655 30.679 4.91307 34.2065C5.91307 37.7774 6.95655 41.3484 7.86959 44.9194C8.27539 46.4581 8.63771 47.9968 8.95655 49.5355C9.21742 50.929 9.60872 52.2355 10.4783 53.3677C10.5652 53.4548 10.6087 53.4548 10.6957 53.4113C11.087 53.9774 11.6522 54.5 12.4348 54.8919C15.2174 56.4161 18.8261 56.4597 21.9565 56.0677C25.0435 55.6758 28.087 54.9355 31.087 54.021C52.2174 47.4887 61.6522 46.3564 64.7826 45.8774C71.1739 44.9629 77.4783 44.3097 83.8696 43.7871C90.3478 43.2645 96.8696 42.9161 103.391 42.8726C109.522 42.8726 115.696 43.1774 121.826 43.7871C127.957 44.3968 134.087 45.2677 140.13 46.4C145.044 47.3145 149.783 48.0984 154.391 49.971C157.044 51.0597 159.652 52.3226 162.391 53.0629C163.174 53.2661 163.942 53.3968 164.696 53.4548C164.725 53.4839 164.783 53.4984 164.87 53.4984C165.42 53.4984 165.971 53.4548 166.522 53.3677C166.58 53.3677 166.638 53.3677 166.696 53.3677C169.522 52.9758 172.217 51.9306 174 49.6661C175.348 47.9242 176.174 45.6597 177 43.6565C177.913 41.3484 178.696 38.9968 179.391 36.6452C180.826 31.8548 182.043 26.8468 183.13 21.9694C183.696 19.4871 184.261 17.0919 184.87 14.5661C185.261 12.8242 186 9.68871 185.739 8.90484Z" fill="#34C5FE"/>
<g style="mix-blend-mode:multiply" opacity="0.52">
<path d="M29.1305 32.3774C28.2174 24.0597 31.5652 16.3081 38.4348 11.0823C39.3044 10.4435 40.2029 9.81935 41.1305 9.20968C39.0145 9.79032 36.9131 10.3855 34.8261 10.9952C32.1739 11.779 29.5652 12.5629 26.8696 13.2597C24.4348 13.8694 22.087 14.6532 20 16.0032C19.7971 14.8129 19.6087 13.6226 19.4348 12.4323C19.2609 11.2565 19.1739 10.0806 19.0435 8.90484C18.9566 8.33871 19.087 7.77258 19.0435 7.25C19.0435 6.98871 19.0435 6.68387 18.9131 6.42258C18.7826 6.11774 18.2609 5.8129 18.0435 5.55161C17.6087 5.15968 17.1305 4.85484 16.6087 4.50645C15.9566 4.02742 15.1739 3.67903 14.3913 3.46129C12.6957 3.0258 10.9566 3.06935 9.2609 3.59193C8.39133 3.85322 7.47829 4.20161 6.69568 4.6371C5.00003 5.63871 3.52177 7.03226 2.43481 8.64355C1.86959 9.47097 1.39133 10.2984 1.04351 11.2129C0.913071 11.6484 0.782637 12.1274 0.652202 12.5629C0.478289 13.3032 0.0435062 14.0871 0.217419 14.8274C0.69568 17.3532 3.95655 30.679 4.91307 34.2065C5.91307 37.7774 6.95655 41.3484 7.86959 44.9194C8.27539 46.4581 8.63771 47.9968 8.95655 49.5355C9.21742 50.929 9.60872 52.2355 10.4783 53.3677C10.5652 53.4548 10.6087 53.4548 10.6957 53.4113C11.087 53.9774 11.6522 54.5 12.4348 54.8919C15.2174 56.4161 18.8261 56.4597 21.9566 56.0677C25.0435 55.6758 28.087 54.9355 31.087 54.021C36.6522 52.279 41.3913 50.929 45.4783 49.8839C37 47.271 30.1739 42.1323 29.1305 32.3774Z" fill="#6C6C65"/>
</g>
<g style="mix-blend-mode:multiply" opacity="0.52">
<path d="M27.1305 54.1952C25.1305 54.2823 23.9565 51.6694 25.4783 50.3629C27.8261 48.3597 27.7392 45.6161 27.3913 42.7419C26.9566 39.2581 26.0435 35.8177 25.1305 32.3774C23.6522 26.7161 22.4783 21.0113 21.1739 15.3064C20.7681 15.5097 20.3768 15.7419 20 16.0032C19.7971 14.8129 19.6087 13.6226 19.4348 12.4323C19.2609 11.2565 19.1739 10.0806 19.0435 8.90484C18.9566 8.33871 19.087 7.77258 19.0435 7.25C19.0435 6.98871 19.0435 6.68387 18.9131 6.42258C18.7826 6.11774 18.2609 5.8129 18.0435 5.55161C17.6087 5.15968 17.1305 4.85484 16.6087 4.50645C15.9566 4.02742 15.1739 3.67903 14.3913 3.46129C12.6957 3.0258 10.9566 3.06935 9.2609 3.59193C8.39133 3.85322 7.47829 4.20161 6.69568 4.6371C5.00003 5.63871 3.52177 7.03226 2.43481 8.64355C1.86959 9.47097 1.39133 10.2984 1.04351 11.2129C0.913071 11.6484 0.782637 12.1274 0.652202 12.5629C0.478289 13.3032 0.0435062 14.0871 0.217419 14.8274C0.69568 17.3532 3.95655 30.679 4.91307 34.2065C5.91307 37.7774 6.95655 41.3484 7.86959 44.9194C8.27539 46.4581 8.63771 47.9968 8.95655 49.5355C9.21742 50.929 9.60872 52.2355 10.4783 53.3677C10.5652 53.4548 10.6087 53.4548 10.6957 53.4113C11.087 53.9774 11.6522 54.5 12.4348 54.8919C15.2174 56.4161 18.8261 56.4597 21.9566 56.0677C25.0435 55.6758 28.087 54.9355 31.087 54.021C31.2609 53.9629 31.4203 53.9048 31.5652 53.8468C30.087 54.021 28.6087 54.1371 27.1305 54.1952Z" fill="#6C6C65"/>
</g>
<g style="mix-blend-mode:multiply" opacity="0.4">
<path d="M16.913 55.1097C14.6956 54.1952 12.3478 52.671 12.4782 50.1016C12.5652 47.9242 15.0435 49.2742 16.0435 49.8839C18.8695 51.5823 22.913 51.5823 24.5652 48.4032C25.8695 45.9645 25.2608 42.7855 23.0435 41C21.2174 39.4758 18.6956 39.0839 16.3478 39.5194C12.913 40.2161 9.39128 42.4371 8.04346 45.5726C8.3623 46.879 8.66665 48.2 8.9565 49.5355C9.21737 50.929 9.60868 52.2355 10.4782 53.3677C10.5652 53.4548 10.6087 53.4548 10.6956 53.4113C11.0869 53.9774 11.6522 54.5 12.4348 54.8919C15 56.2855 18.3043 56.4161 21.2174 56.1548C19.7391 56.0242 18.2608 55.7194 16.913 55.1097Z" fill="#DAA044"/>
</g>
<g style="mix-blend-mode:multiply" opacity="0.52">
<path d="M185.739 8.90484C184.217 4.59355 180.739 1.50161 175.783 1.02258C172.261 0.630645 168.522 1.6758 165.783 3.80968C165.406 4.1 165.058 4.40484 164.739 4.72419C164.348 5.07258 163.739 5.37742 163.696 5.94355C163.478 8.12097 163.174 10.2548 162.826 12.4323C160.043 11.5613 157.13 10.9081 154.261 10.2548C154.087 10.2258 153.928 10.1968 153.783 10.1677C155.957 12.4758 157.217 15.4806 157.652 18.529C158.826 26.8468 157.739 35.9484 152.043 42.6984C150.435 44.571 148.565 46.2258 146.478 47.6629C149.174 48.229 151.826 48.9258 154.391 49.971C157.043 51.0597 159.652 52.3226 162.391 53.0629C163.174 53.2661 163.942 53.3968 164.696 53.4548C164.725 53.4839 164.783 53.4984 164.87 53.4984C165.42 53.4984 165.971 53.4548 166.522 53.3677C166.58 53.3677 166.638 53.3677 166.696 53.3677C169.522 52.9758 172.217 51.9306 174 49.6661C175.348 47.9242 176.174 45.6597 177 43.6565C177.913 41.3484 178.696 38.9968 179.391 36.6452C180.826 31.8548 182.043 26.8468 183.13 21.9694C183.696 19.4871 184.261 17.0919 184.87 14.5661C185.261 12.8242 186 9.68871 185.739 8.90484Z" fill="#6C6C65"/>
</g>
<g style="mix-blend-mode:multiply" opacity="0.52">
<path d="M185.739 8.90484C184.217 4.59355 180.739 1.50161 175.783 1.02258C172.261 0.630645 168.522 1.6758 165.783 3.80968C165.493 4.04193 165.203 4.28871 164.913 4.55C165.13 6.33548 165.565 8.16452 165.609 9.99355C165.609 10.2984 165.217 10.6903 165.087 10.9516C164.797 11.5323 164.551 12.1274 164.348 12.7371C163.956 13.8694 163.652 15.0452 163.435 16.2645C162.043 23.1016 160.217 29.9387 157.913 36.5581C157 39.0839 155.739 42.5242 157.391 45.0064C158.478 46.6613 159.956 47.0968 161.826 47.4016C163.043 47.6194 164.304 47.7935 165.304 48.5339C166.435 49.3613 166.739 50.7113 165.304 51.3645C163.826 52.1048 162 52.279 160.348 52.4097C161.014 52.6419 161.696 52.8597 162.391 53.0629C163.174 53.2661 163.942 53.3968 164.696 53.4548C164.725 53.4839 164.783 53.4984 164.87 53.4984C165.42 53.4984 165.971 53.4548 166.522 53.3677C166.58 53.3677 166.638 53.3677 166.696 53.3677C169.522 52.9758 172.217 51.9306 174 49.6661C175.348 47.9242 176.174 45.6597 177 43.6565C177.913 41.3484 178.696 38.9968 179.391 36.6452C180.826 31.8548 182.043 26.8468 183.13 21.9694C183.696 19.4871 184.261 17.0919 184.87 14.5661C185.261 12.8242 186 9.68871 185.739 8.90484Z" fill="#6C6C65"/>
</g>
<g style="mix-blend-mode:multiply" opacity="0.52">
<path d="M185.739 8.90484C184.217 4.59355 180.739 1.50161 175.783 1.02258C172.261 0.630645 168.522 1.6758 165.783 3.80968C165.493 4.04193 165.203 4.28871 164.913 4.55C165.13 6.33548 165.565 8.16452 165.609 9.99355C165.609 10.2984 165.217 10.6903 165.087 10.9516C164.797 11.5323 164.551 12.1274 164.348 12.7371C163.957 13.8694 163.652 15.0452 163.435 16.2645C162.044 23.1016 160.217 29.9387 157.913 36.5581C157.884 36.5871 157.855 36.6306 157.826 36.6887C157.609 37.6903 157.348 38.6919 157.391 39.7371C157.435 41.4355 157.826 43.1774 158.87 44.4839C159.13 42.9597 161.522 41.2177 162.826 40.6081C163.044 40.521 163.304 40.6516 163.217 40.8694C163 41.5661 162.783 42.2194 162.435 42.829C163.696 42.6548 164.826 43.3952 165.217 44.5274C165.565 43.6274 165.899 42.7274 166.217 41.8274C165.957 41.7403 166 41.3484 166.304 41.3484C166.362 41.3484 166.42 41.3484 166.478 41.3484C166.536 41.3484 166.594 41.3629 166.652 41.3919C169.174 41.6968 171 44.0919 171.609 46.3565C172.087 48.2726 171.87 50.2323 171.13 52.0613C172.217 51.4516 173.174 50.6677 174 49.6661C175.348 47.9242 176.174 45.6597 177 43.6565C177.913 41.3484 178.696 38.9968 179.391 36.6452C180.826 31.8548 182.043 26.8468 183.13 21.9694C183.696 19.4871 184.261 17.0919 184.87 14.5661C185.261 12.8242 186 9.68871 185.739 8.90484Z" fill="#6C6C65"/>
</g>
<path fill-rule="evenodd" clip-rule="evenodd" d="M184.87 14.5661C184.261 17.0919 183.696 19.4871 183.13 21.9694C182.043 26.8468 180.826 31.8548 179.391 36.6452C178.696 38.9968 177.913 41.3484 177 43.6565C176.174 45.6597 175.348 47.9242 174 49.6661C172.217 51.9306 169.522 52.9758 166.696 53.3677C166.638 53.3677 166.58 53.3677 166.522 53.3677C165.971 53.4548 165.42 53.4984 164.87 53.4984C164.783 53.4984 164.725 53.4839 164.696 53.4548C163.942 53.3968 163.174 53.2661 162.391 53.0629C159.652 52.3226 157.044 51.0597 154.391 49.971C149.783 48.0984 145.044 47.3145 140.13 46.4C134.087 45.2677 127.957 44.3968 121.826 43.7871C115.696 43.1774 109.522 42.8726 103.391 42.8726C96.8696 42.9161 90.3478 43.2645 83.8696 43.7871C77.4783 44.3097 71.1739 44.9629 64.7826 45.8774C61.6522 46.3564 52.2174 47.4887 31.087 54.021C28.087 54.9355 25.0435 55.6758 21.9565 56.0677C18.8261 56.4597 15.2174 56.4161 12.4348 54.8919C11.6522 54.5 11.087 53.9774 10.6957 53.4113C10.6087 53.4548 10.5652 53.4548 10.4783 53.3677C9.60872 52.2355 9.21742 50.929 8.95655 49.5355C8.63771 47.9968 8.27539 46.4581 7.86959 44.9194C6.95655 41.3484 5.91307 37.7774 4.91307 34.2065C3.95655 30.679 0.69568 17.3532 0.217419 14.8274C0.0435062 14.0871 0.478289 13.3032 0.652202 12.5629C0.782637 12.1274 0.913071 11.6484 1.04351 11.2129C1.39133 10.2984 1.86959 9.47097 2.43481 8.64355C3.52177 7.03226 5.00003 5.63871 6.69568 4.6371C7.47829 4.20161 8.39133 3.85322 9.2609 3.59193C10.9566 3.06935 12.6957 3.02581 14.3913 3.46129C15.1739 3.67903 15.9566 4.02742 16.6087 4.50645C17.1305 4.85484 17.6087 5.15968 18.0435 5.55161C18.2609 5.8129 18.7826 6.11774 18.9131 6.42258C19.0435 6.68387 19.0435 6.98871 19.0435 7.25C19.087 7.77258 18.9566 8.33871 19.0435 8.90484C19.1739 10.0806 19.2609 11.2565 19.4348 12.4323C19.6087 13.6226 19.7971 14.8129 20 16.0032C22.087 14.6532 24.4348 13.8694 26.8696 13.2597C29.5652 12.5629 32.1739 11.779 34.8261 10.9952C40.5218 9.29677 46.2609 7.77258 52.1305 6.72742C57.9131 5.72581 63.7826 5.20323 69.6087 4.81129C75.6087 4.41935 81.6087 4.11452 87.6087 4.15806C94.087 4.20161 100.565 4.59355 107.043 4.72419C113.435 4.89839 119.783 5.02903 126.174 5.72581C132.391 6.37903 138.652 7.25 144.783 8.33871C147.942 8.91935 151.101 9.55806 154.261 10.2548C157.13 10.9081 160.044 11.5613 162.826 12.4323C163.174 10.2548 163.478 8.12097 163.696 5.94355C163.739 5.37742 164.348 5.07258 164.739 4.72419C165.058 4.40484 165.406 4.1 165.783 3.80968C168.522 1.6758 172.261 0.630645 175.783 1.02258C180.739 1.50161 184.217 4.59355 185.739 8.90484C186 9.68871 185.261 12.8242 184.87 14.5661ZM9.73916 50.0581C9.82611 48.7516 10.3913 47.3581 11.3479 46.1823C13.1305 44.0048 15.8696 42.1758 18.8696 42.1323C21.6087 42.0452 24.6522 43.5694 24.8261 46.3129C25.1305 44.7452 24.9131 43.0032 24.7392 41.5226C24.1739 37.429 23.087 33.4661 22.087 29.4597C21.1305 25.5403 20.3479 21.621 19.6087 17.6581C19.2609 15.6984 18.9565 13.7387 18.6957 11.779C18.6087 10.821 18.3479 6.94516 18.2174 6.68387C18 6.29193 16.4783 5.20322 16.0435 4.89839C13.3044 2.89516 8.91307 3.85322 6.34785 5.63871C3.13046 7.81613 1.34785 11.0823 0.69568 14.6968C2.08698 21.1855 3.78264 27.6306 5.56525 34.0323C6.52177 37.4726 7.52177 40.9129 8.43481 44.3968C8.82611 45.9645 9.21742 47.5323 9.52177 49.1C9.57974 49.4194 9.6522 49.7387 9.73916 50.0581ZM172.696 46.7484C172.913 44.8323 172.565 42.35 171.13 40.8258C170.13 39.7806 168.696 39.171 167.217 38.9097C166.913 40.2161 166.391 41.5226 166.087 42.829C165.913 43.4823 165.783 44.2226 165.478 44.8758C165.304 45.921 164.217 46.7919 163.13 46.879C162.391 47.0532 161.565 46.9226 160.87 46.5742C158.87 45.921 157.435 44.2661 157.174 42.0887C156.913 40.1726 157.261 38.3 157.783 36.471C158.304 34.5113 158.87 32.5516 159.348 30.5919C160.348 26.5855 161.13 22.4919 161.826 18.3984C162.13 16.6565 162.435 14.871 162.739 13.0855C157.348 11.4306 151.696 10.2984 146.13 9.25322C140.391 8.20806 134.609 7.38064 128.826 6.68387C123.043 6.03064 117.174 5.50806 111.304 5.46452C105.478 5.42097 99.6522 5.11613 93.8696 4.94194C87.3913 4.72419 80.9565 4.85484 74.5218 5.15968C68.087 5.50806 61.6522 5.9 55.3044 6.85806C49.0435 7.77258 42.8696 9.29677 36.8261 11.0387C33.8696 11.9097 31 12.8242 28 13.5645C25.3044 14.2613 22.4783 15.0016 20.087 16.4823C20.2319 17.2952 20.3768 18.1081 20.5218 18.921C21.3479 23.1452 22.2609 27.2823 23.3044 31.4194C24.3044 35.3387 25.3913 39.3452 25.6087 43.3952C25.7392 45.8774 25.4783 48.9694 22.8261 50.2323C22.7971 50.2323 22.7537 50.2323 22.6957 50.2323C21.9131 50.6677 20.9565 50.7984 20 50.5806C20 50.6242 19.9566 50.6677 19.8696 50.6677C16.7392 50.0581 16.1305 46.1387 15.6087 43.6565C13.3913 44.6581 11.5218 46.4871 10.6957 48.6645C10.2609 49.8839 10.087 51.321 10.7826 52.4968C11.6957 54.021 13.4348 54.7613 15.1305 55.1532C18.1739 55.85 21.2609 55.6323 24.2609 55.0226C26.1739 54.6306 28 54.0645 29.8696 53.5855C33.7826 52.5839 38.4783 50.8855 42.4348 49.8839C52.2609 47.4016 61.3913 45.7032 71.4783 44.3532C77.7826 43.5258 84.1739 43.0468 90.4783 42.6548C97 42.2629 103.522 42.1323 110 42.3064C116.391 42.5242 122.696 43.1339 129 44.0048C130.884 44.2661 132.768 44.5419 134.652 44.8323C137.913 45.3113 141.217 45.921 144.478 46.5742C147.174 47.1403 149.913 47.6629 152.478 48.5339C155 49.4048 157.391 50.5371 159.87 51.4952C161.826 52.2355 164 52.9323 166.087 52.8016C166.826 52.671 167.565 52.5403 168.261 52.3661C168.551 52.279 168.841 52.1629 169.13 52.0177C171.174 50.929 172.478 48.9694 172.696 46.7484ZM19 49.3613C20.6087 50.6242 23.1739 49.971 23.8696 48.0984C25.087 44.9194 22.087 42.8726 19.1305 42.7855C19.7392 43.7871 20.0435 44.9629 20.6522 45.9645C20.6957 46.0081 20.6522 46.0516 20.5652 46.0516C20.4783 45.9645 20.3913 45.8919 20.3044 45.8339C20.2754 45.8339 20.2464 45.8339 20.2174 45.8339C17.7826 45.2242 17.4348 48.1855 19 49.3613ZM19.9565 45.4855C19.6957 45.1806 19.4783 44.8758 19.3479 44.5274C19.087 44.0048 18.7392 43.3952 18.5652 42.829C18.2754 42.829 17.9855 42.8581 17.6957 42.9161C17.116 43.0613 16.5363 43.25 15.9566 43.4823C16.4348 44.7016 16.6522 46.0081 17.1305 47.2274C17.2464 47.5468 17.3623 47.8516 17.4783 48.1419C17.1739 46.6177 18.0435 45.05 19.9565 45.4855ZM185.261 9.38387C184.522 6.94516 183.304 5.11613 181.087 3.59193C179.391 2.45968 177.391 1.71935 175.304 1.63226C171 1.37097 167.261 3.15645 164.087 5.76935C164.304 7.59839 164.044 9.47097 163.739 11.3C163.391 13.2597 163.043 15.1758 162.696 17.1355C162.087 20.8806 161.435 24.5823 160.565 28.2839C160.13 30.171 159.667 32.0435 159.174 33.9016C158.652 35.7742 158 37.7339 157.826 39.65C157.696 40.7823 157.739 42.0452 158.13 43.1339C158.087 41.9145 158.826 40.8258 159.783 40.0419C162.391 37.9516 166.522 37.5161 169.565 38.9532C172.957 40.521 174.13 44.7016 173.13 48.0113C172.783 49.3177 172.087 50.3629 171.217 51.2339C172.391 50.5371 173.304 49.579 174 48.4032C176.348 44.4403 177.739 39.8677 179.044 35.4694C180.348 31.0274 183.348 19.0952 184.174 14.6968C184.478 12.9113 185.174 11.0387 185.261 9.38387ZM163.609 41.4355C163.435 41.8274 163.261 42.35 162.913 42.6984C163.87 42.6113 164.913 42.9597 165.348 43.7435C165.696 42.1323 165.87 40.3903 166.565 38.8226C166.362 38.8226 166.174 38.8226 166 38.8226C165.536 38.7935 165.072 38.8081 164.609 38.8661C164.261 39.7371 163.957 40.6081 163.609 41.4355ZM163.87 38.9532C162.609 39.171 161.391 39.6064 160.435 40.3468C159.217 41.3484 158.261 42.829 159.174 44.3097C159.783 45.3548 161 46.2694 162.261 46.4435C163.348 46.3564 165.261 45.6597 164.87 44.3097C164.565 43.3516 163.478 42.9597 162.478 42.9597C162.391 42.9597 162.348 42.8726 162.391 42.7855C162.391 42.7565 162.406 42.7274 162.435 42.6984C162.957 42.1758 163.087 41.2177 163.304 40.5645C163.478 40.0419 163.652 39.4758 163.87 38.9532Z" fill="#0071BC"/>
<path d="M9.52176 49.1C9.21742 47.5323 8.82611 45.9645 8.43481 44.3968C7.52177 40.9129 6.52177 37.4726 5.56524 34.0323C3.78264 27.6306 2.08698 21.1855 0.695679 14.6968C1.34785 11.0823 3.13046 7.81613 6.34785 5.63871C8.91307 3.85323 13.3044 2.89516 16.0435 4.89839C16.4783 5.20323 18 6.29194 18.2174 6.68387C18.3479 6.94516 18.6087 10.821 18.6957 11.779C18.9565 13.7387 19.2609 15.6984 19.6087 17.6581C20.3479 21.621 21.1305 25.5403 22.087 29.4597C23.087 33.4661 24.1739 37.429 24.7392 41.5226C24.9131 43.0032 25.1305 44.7452 24.8261 46.3129C24.6522 43.5694 21.6087 42.0452 18.8696 42.1323C15.8696 42.1758 13.1305 44.0048 11.3479 46.1823C10.3913 47.3581 9.82611 48.7516 9.73916 50.0581C9.6522 49.7387 9.57974 49.4194 9.52176 49.1Z" fill="#84EFE5"/>
<path d="M184.174 14.6968C183.348 19.0952 180.348 31.0274 179.043 35.4694C177.739 39.8677 176.348 44.4403 174 48.4032C173.304 49.579 172.391 50.5371 171.217 51.2339C172.087 50.3629 172.783 49.3177 173.13 48.0113C174.13 44.7016 172.957 40.521 169.565 38.9532C166.522 37.5161 162.391 37.9516 159.783 40.0419C158.826 40.8258 158.087 41.9145 158.13 43.1339C157.739 42.0452 157.696 40.7823 157.826 39.65C158 37.7339 158.652 35.7742 159.174 33.9016C159.667 32.0435 160.13 30.171 160.565 28.2839C161.435 24.5823 162.087 20.8806 162.696 17.1355C163.043 15.1758 163.391 13.2597 163.739 11.3C164.044 9.47096 164.304 7.59838 164.087 5.76935C167.261 3.15645 171 1.37096 175.304 1.63225C177.391 1.71935 179.391 2.45967 181.087 3.59193C183.304 5.11613 184.522 6.94516 185.261 9.38387C185.174 11.0387 184.478 12.9113 184.174 14.6968Z" fill="#84EFE5"/>
<g style="mix-blend-mode:multiply" opacity="0.52">
<path d="M10.9565 42.8726C8.21742 35.0339 6.73916 26.8468 5.34785 18.7032C4.6522 14.5226 4.30437 10.2548 5.39133 6.33549C2.78263 8.51291 1.30437 11.4742 0.695679 14.6968C2.08698 21.1855 3.78264 27.6306 5.56524 34.0323C6.52177 37.4726 7.52177 40.9129 8.43481 44.3968C8.82611 45.9645 9.21742 47.5323 9.52176 49.1C9.57974 49.4194 9.6522 49.7387 9.73916 50.0581C9.82611 48.7516 10.3913 47.3581 11.3479 46.1823C11.8696 45.5726 12.4348 45.0065 13.0435 44.4839C12.087 44.3968 11.3044 43.8306 10.9565 42.8726Z" fill="#6C6C65"/>
</g>
<g style="mix-blend-mode:multiply" opacity="0.52">
<path d="M24.7391 41.5226C24.1739 37.429 23.0869 33.4661 22.0869 29.4597C21.1304 25.5403 20.3478 21.621 19.6087 17.6581C19.2608 15.6984 18.9565 13.7387 18.6956 11.779C18.6087 10.821 18.3478 6.94516 18.2174 6.68387C18 6.29194 16.4782 5.20323 16.0435 4.89839C15.4782 4.4629 14.8261 4.20161 14.1739 4.02742C16.7391 7.42419 17.2608 13.2161 17.7391 16.6565C18.8695 25.3226 20.7391 34.3806 22.9565 43.2645C24 44.0048 24.7391 45.0065 24.8261 46.3129C25.1304 44.7452 24.913 43.0032 24.7391 41.5226Z" fill="#6C6C65"/>
</g>
<g style="mix-blend-mode:multiply" opacity="0.52">
<path d="M161.435 30.5484C162.348 26.0194 163.957 21.5774 164.739 17.0048C165.435 12.8242 165.913 7.38064 168.044 3.15645C166.652 3.85322 165.304 4.72419 164.087 5.76935C164.304 7.59838 164.044 9.47096 163.739 11.3C163.391 13.2597 163.043 15.1758 162.696 17.1355C162.087 20.8806 161.435 24.5823 160.565 28.2839C160.13 30.171 159.667 32.0435 159.174 33.9016C158.652 35.7742 158 37.7339 157.826 39.65C157.696 40.7823 157.739 42.0452 158.13 43.1339C158.087 42.0016 158.739 40.9564 159.609 40.1726C159.348 37.0371 160.87 33.4226 161.435 30.5484Z" fill="#6C6C65"/>
</g>
<g style="mix-blend-mode:multiply" opacity="0.52">
<path d="M181.783 4.11452C183.304 8.03387 182.957 12.8242 182.043 16.7436C180.043 25.1484 176.913 33.2919 174.957 41.7403C174.739 42.7419 174 43.2645 173.174 43.3516C173.609 44.8758 173.565 46.5306 173.13 48.0113C172.783 49.3177 172.087 50.3629 171.217 51.2339C172.391 50.5371 173.304 49.579 174 48.4032C176.348 44.4403 177.739 39.8677 179.043 35.4694C180.348 31.0274 183.348 19.0952 184.174 14.6968C184.478 12.9113 185.174 11.0387 185.261 9.38387C184.609 7.20645 183.565 5.50807 181.783 4.11452Z" fill="#6C6C65"/>
</g>
<path d="M11.6087 6.90161C10.9565 3.63548 14.9565 4.6371 14.9565 4.6371C11.4783 2.24194 5.91304 6.03065 5.91304 6.03065L5.3913 6.33548C6.34782 5.76936 8.43477 5.76935 9.13043 8.16452C9.7826 10.5597 16 42.6113 16 42.6113C17.3043 42.0887 18.8696 42.1323 18.8696 42.1323C18.8696 42.1323 12.3043 10.2113 11.6087 6.90161Z" fill="white"/>
<path d="M169.739 2.41613C173.087 1.85 174.913 2.98226 174.087 5.8129C173.304 8.6871 165.174 37.7339 165.174 37.7339L168.13 38.1258C168.13 38.1258 175.087 14 176.261 7.90323C177.478 1.85 181.783 4.11452 181.783 4.11452C176.304 -0.109677 169.739 2.41613 169.739 2.41613Z" fill="white"/>
<path d="M33.2609 11.9097C33.2609 11.9097 55.1739 3.50484 93.3478 4.6371C126.739 5.63871 137.565 6.77097 157.826 11.5177C157.826 11.5177 128.304 6.16129 91.7391 5.76936C55.1739 5.37742 33.2609 11.9097 33.2609 11.9097Z" fill="white"/>
<path d="M63.608 25.576L64.088 17.68H72.44V20.392H66.632L66.416 23.992C66.976 23.848 67.576 23.776 68.216 23.776C69.8 23.776 71.04 24.192 71.936 25.024C72.832 25.84 73.28 27.048 73.28 28.648V29.296C73.28 30.192 73.096 31.016 72.728 31.768C72.36 32.52 71.768 33.12 70.952 33.568C70.152 34.016 69.088 34.24 67.76 34.24C67.024 34.24 66.256 34.152 65.456 33.976C64.672 33.8 63.808 33.504 62.864 33.088L63.752 30.616C64.6 30.952 65.312 31.2 65.888 31.36C66.48 31.504 67.072 31.576 67.664 31.576C68.56 31.576 69.232 31.392 69.68 31.024C70.144 30.656 70.376 30.08 70.376 29.296V28.648C70.376 27.944 70.168 27.384 69.752 26.968C69.352 26.552 68.704 26.344 67.808 26.344C67.408 26.344 66.992 26.4 66.56 26.512C66.128 26.608 65.664 26.752 65.168 26.944L63.608 25.576ZM76.0533 25.576L76.5333 17.68H84.8853V20.392H79.0773L78.8613 23.992C79.4213 23.848 80.0213 23.776 80.6613 23.776C82.2453 23.776 83.4853 24.192 84.3813 25.024C85.2773 25.84 85.7253 27.048 85.7253 28.648V29.296C85.7253 30.192 85.5413 31.016 85.1733 31.768C84.8053 32.52 84.2133 33.12 83.3973 33.568C82.5973 34.016 81.5333 34.24 80.2053 34.24C79.4693 34.24 78.7013 34.152 77.9013 33.976C77.1173 33.8 76.2533 33.504 75.3093 33.088L76.1973 30.616C77.0453 30.952 77.7573 31.2 78.3333 31.36C78.9253 31.504 79.5173 31.576 80.1093 31.576C81.0053 31.576 81.6773 31.392 82.1253 31.024C82.5893 30.656 82.8213 30.08 82.8213 29.296V28.648C82.8213 27.944 82.6133 27.384 82.1973 26.968C81.7973 26.552 81.1493 26.344 80.2533 26.344C79.8533 26.344 79.4373 26.4 79.0053 26.512C78.5733 26.608 78.1093 26.752 77.6133 26.944L76.0533 25.576ZM99.9706 24.112V27.544C99.9706 29.624 99.4826 31.264 98.5066 32.464C97.5306 33.648 96.0986 34.24 94.2106 34.24C92.3226 34.24 90.8906 33.648 89.9146 32.464C88.9386 31.264 88.4506 29.624 88.4506 27.544V24.112C88.4506 22.032 88.9386 20.4 89.9146 19.216C90.8906 18.032 92.3226 17.44 94.2106 17.44C96.0986 17.44 97.5306 18.032 98.5066 19.216C99.4826 20.4 99.9706 22.032 99.9706 24.112ZM97.0666 24.112C97.0666 21.44 96.1146 20.104 94.2106 20.104C93.2346 20.104 92.5146 20.44 92.0506 21.112C91.5866 21.784 91.3546 22.784 91.3546 24.112V27.544C91.3546 28.872 91.5866 29.88 92.0506 30.568C92.5146 31.24 93.2346 31.576 94.2106 31.576C96.1146 31.576 97.0666 30.232 97.0666 27.544V24.112ZM103.795 34V17.68H109.171C110.883 17.68 112.163 18.112 113.011 18.976C113.875 19.84 114.307 20.992 114.307 22.432V23.704C114.307 25.144 113.875 26.304 113.011 27.184C112.163 28.048 110.883 28.48 109.171 28.48H106.675V34H103.795ZM109.171 20.44H106.675V25.72H109.171C109.875 25.72 110.411 25.544 110.779 25.192C111.163 24.84 111.355 24.344 111.355 23.704V22.432C111.355 21.808 111.163 21.32 110.779 20.968C110.411 20.616 109.875 20.44 109.171 20.44ZM124.536 33.592C124.12 33.784 123.64 33.936 123.096 34.048C122.552 34.176 122 34.24 121.44 34.24C120.512 34.24 119.768 34.048 119.208 33.664C118.648 33.28 118.24 32.744 117.984 32.056C117.744 31.368 117.624 30.584 117.624 29.704V24.232H115.656V21.832H117.624V18.664H120.384V21.832H124.176V24.232H120.384V29.704C120.384 30.44 120.52 30.952 120.792 31.24C121.08 31.512 121.488 31.648 122.016 31.648C122.272 31.648 122.544 31.624 122.832 31.576C123.136 31.512 123.472 31.408 123.84 31.264L124.536 33.592ZM130.163 31.84C130.755 31.84 131.243 31.744 131.627 31.552C132.011 31.344 132.203 31.04 132.203 30.64C132.203 30.288 132.075 30.016 131.819 29.824C131.579 29.616 131.139 29.432 130.499 29.272L129.131 28.912C128.075 28.64 127.291 28.184 126.779 27.544C126.283 26.904 126.035 26.144 126.035 25.264C126.035 24.224 126.395 23.352 127.115 22.648C127.835 21.944 128.947 21.592 130.451 21.592C131.059 21.592 131.699 21.664 132.371 21.808C133.043 21.952 133.747 22.184 134.483 22.504L133.691 24.856C133.019 24.536 132.411 24.312 131.867 24.184C131.323 24.056 130.843 23.992 130.427 23.992C129.291 23.992 128.723 24.376 128.723 25.144C128.723 25.448 128.819 25.688 129.011 25.864C129.219 26.04 129.595 26.2 130.139 26.344L131.507 26.704C132.675 27.008 133.523 27.472 134.051 28.096C134.595 28.72 134.867 29.504 134.867 30.448C134.867 31.568 134.483 32.48 133.715 33.184C132.963 33.888 131.771 34.24 130.139 34.24C128.747 34.24 127.283 33.92 125.747 33.28L126.491 31C127.243 31.304 127.923 31.52 128.531 31.648C129.139 31.776 129.683 31.84 130.163 31.84Z" fill="white"/>
<defs>
<radialGradient id="paint0_radial_581_43" cx="0" cy="0" r="1" gradientUnits="userSpaceOnUse" gradientTransform="translate(679.606 333.081) rotate(4.23988) scale(141.491 148.941)">
<stop stop-color="#008586"/>
<stop offset="0.78" stop-color="#A7DBD6"/>
</radialGradient>
</defs>
</svg>
