<svg width="78" height="96" viewBox="0 0 78 96" fill="none" xmlns="http://www.w3.org/2000/svg">
<path d="M59.8803 17.8961L60.3219 16.5773L65.3054 0.876806C65.3054 0.876806 67.9548 -0.316429 70.0996 5.42995C72.2444 11.2077 77.8588 35.7005 76.881 37.8357C75.8717 40.0024 45.6236 92.0024 43.5419 92.756C41.4287 93.5411 13.8616 96.3043 3.38995 94.8913L59.8803 17.8961Z" fill="#0090A7"/>
<path fill-rule="evenodd" clip-rule="evenodd" d="M11.3384 95.9275C8.21578 95.9275 5.44015 95.8019 3.32689 95.5193C3.1061 95.4879 2.91685 95.3623 2.82223 95.1425C2.72761 94.9541 2.75915 94.7029 2.88531 94.5145L59.3125 17.6135L64.7061 0.688404C64.7692 0.531399 64.8953 0.405795 65.0531 0.311592C65.1477 0.280191 65.9677 -0.0652197 67.0717 0.405795C68.5226 0.971012 69.7212 2.60386 70.6989 5.21014C72.4652 10.0145 78.6473 35.5121 77.4487 38.1184C76.9441 39.2174 69.1219 52.7826 61.1735 66.128C45.3083 92.7874 44.2359 93.1643 43.7627 93.3527C41.9333 94.0121 23.8918 95.9275 11.3384 95.9275ZM4.557 94.3889C15.7541 95.5193 41.271 92.8188 43.2896 92.1908C43.7312 91.8454 46.2229 88.7995 60.3219 65.0604C68.1441 51.9348 75.8086 38.6522 76.3133 37.5845C77.1018 35.7005 71.8344 11.8985 69.5004 5.64976C68.491 2.88647 67.3871 1.91304 66.6301 1.56763C66.2832 1.41063 65.9993 1.41063 65.81 1.41063L60.4796 18.0845C60.4585 18.1473 60.427 18.2101 60.385 18.2729L4.557 94.3889Z" fill="#007DB8"/>
<g style="mix-blend-mode:multiply">
<path d="M47.4846 78.657C45.7498 77.087 44.1412 75.4227 42.5326 73.7584C40.8609 72 39.2208 70.2415 37.4545 68.6087C35.8459 67.1328 34.1427 65.7512 32.2502 64.6522C32.2712 64.6522 32.2817 64.6626 32.2817 64.6836C32.5551 65.4581 32.8179 66.2327 33.0703 67.0072C33.4487 68.1167 33.8272 69.2158 34.2057 70.3043C34.6683 71.6232 35.1309 72.942 35.5936 74.2609C36.0982 75.7053 36.6134 77.1393 37.1391 78.5628C37.6858 80.07 38.2325 81.5564 38.7792 83.0217C39.3259 84.4662 39.8832 85.8897 40.4509 87.2923C40.9556 88.5692 41.4918 89.8357 42.0595 91.0918C42.3118 91.7198 42.5852 92.3269 42.8796 92.913C43.195 92.8502 43.4158 92.7979 43.5419 92.756C44.1412 92.5362 47.0746 88.0773 50.9541 81.7971C49.7976 80.7504 48.6411 79.7037 47.4846 78.657Z" fill="#489FD8"/>
</g>
<g style="mix-blend-mode:screen">
<path d="M76.9125 35.6377C75.9663 34.6329 75.0201 33.6594 74.1054 32.6232C72.1814 30.4565 70.2889 28.1014 69.3111 25.3382C68.8064 23.8937 68.6172 22.3237 68.4279 20.785C68.2702 19.1522 68.1756 17.4879 68.081 15.8551C67.9548 12.6836 67.8602 9.48068 67.2925 6.37198C66.9455 4.42512 66.3778 2.57246 65.5892 0.814011C65.4 0.845412 65.3054 0.876813 65.3054 0.876813L60.3219 16.5773L59.8803 17.8961L3.38995 94.8913C9.44587 95.7077 21.1792 95.1111 30.4523 94.3575C30.8624 93.6667 37.1391 88.3285 37.8645 88.4541C38.7792 88.6111 39.6308 89.1135 40.3563 89.6473C41.2394 90.3068 42.0279 91.029 42.7534 91.8454C43.0057 92.1385 43.2581 92.442 43.5104 92.756C43.5104 92.756 43.5209 92.756 43.5419 92.756C43.6681 92.7246 43.9204 92.4734 44.2358 92.0338C42.5011 88.8309 40.2932 85.785 40.1039 82.0483C40.0409 80.6981 40.3247 79.442 40.7032 78.1546C41.1763 76.5217 41.8072 74.9203 42.4695 73.3816C43.8889 70.1473 45.5606 67.07 47.2638 63.9927C48.9986 60.8213 50.7333 57.6184 52.4996 54.4783C54.4131 51.1079 56.3477 47.748 58.3032 44.3985C59.0287 43.1739 59.7857 41.9179 60.448 40.6618C60.9842 39.657 61.4889 38.6836 62.0251 37.7101C63.0975 35.8261 64.3591 33.6908 66.3147 32.6232C68.3649 31.4614 70.6989 32.4348 72.5598 33.5338C73.7269 34.2246 74.8308 35.0725 75.8086 35.9831C76.2291 36.3599 76.6181 36.7472 76.9756 37.1449C76.9966 36.7681 76.9756 36.2657 76.9125 35.6377Z" fill="#489FD8"/>
</g>
<path d="M32.6602 17.6763L4.43082 65.0918L1.05591 88.6111C1.05591 88.6111 0.362 95.0797 3.38996 94.8913C6.44946 94.7343 29.3484 93.2271 33.8588 88.9251C38.3692 84.6546 62.6875 33.785 62.6875 33.785C62.6875 33.785 65.8416 28.1014 66.3147 23.8623C66.7563 19.6546 68.1441 0.437194 65.3054 0.876808C62.4667 1.34782 32.6602 17.6763 32.6602 17.6763Z" fill="#65B4C5"/>
<path fill-rule="evenodd" clip-rule="evenodd" d="M3.29532 95.5193C2.63295 95.5193 2.03367 95.2681 1.59209 94.7971C-0.0165125 93.1328 0.393523 89.0193 0.456606 88.5483L3.79997 64.9976C3.821 64.9348 3.85254 64.8615 3.8946 64.7778L32.0924 17.3623C32.1555 17.2576 32.2396 17.1739 32.3448 17.1111C35.4043 15.4469 62.3405 0.719806 65.2107 0.280192C65.5892 0.21739 65.9677 0.342994 66.2831 0.625602C68.9957 3.20048 66.9455 23.7367 66.9139 23.9565C66.4724 28.1642 63.476 33.6594 63.2552 34.0676C62.1512 36.3913 38.8107 85.0942 34.3003 89.3961C32.2817 91.2802 26.8566 92.8502 18.1828 94.0749C10.8337 95.1111 3.73689 95.5193 3.45302 95.5193C3.38994 95.5193 3.33737 95.5193 3.29532 95.5193ZM5.03008 65.3116L1.68671 88.7053C1.59209 89.7729 1.49747 92.8816 2.50678 93.9493C2.72757 94.2005 3.01144 94.2947 3.3584 94.2633C12.1584 93.7923 29.7584 91.9396 33.4172 88.4855C36.9183 85.157 53.7297 51.087 62.1197 33.5024C62.1197 33.5024 62.1197 33.4919 62.1197 33.471C62.1512 33.4082 65.2107 27.8502 65.6838 23.7995C65.8731 21.9783 66.3147 16.5145 66.4093 11.3333C66.5355 2.60386 65.5261 1.59903 65.4 1.50483C63.3182 1.88164 45.0243 11.6159 33.1018 18.1473L5.03008 65.3116Z" fill="#3C9AC8"/>
<g style="mix-blend-mode:multiply">
<path d="M32.471 24.7729L8.56274 64.9348L5.72404 84.843C5.72404 84.843 5.12475 90.3382 7.71113 90.1812C10.2975 90.0242 29.6638 88.7681 33.5118 85.1256C37.3283 81.5145 57.9247 38.4324 57.9247 38.4324C57.9247 38.4324 60.5742 33.5966 60.9842 30.0169C61.3627 26.4372 62.5298 10.1715 60.1326 10.5483C57.7355 10.9251 32.471 24.7729 32.471 24.7729Z" fill="#489FD8"/>
</g>
<g style="mix-blend-mode:multiply">
<path d="M34.9312 41.9493L19.6021 67.6981L17.8043 80.4783C17.8043 80.4783 17.3943 83.9952 19.0659 83.901C20.7061 83.8068 33.1649 82.9903 35.5935 80.6667C38.0538 78.343 51.2695 50.6787 51.2695 50.6787C51.2695 50.6787 52.9728 47.6014 53.2251 45.3092C53.4774 43.0169 54.2344 32.5918 52.6889 32.8116C51.1434 33.0628 34.9312 41.9493 34.9312 41.9493Z" fill="#489FD8"/>
</g>
<g style="mix-blend-mode:screen">
<path d="M6.22868 64.8092C6.22868 64.8092 16.3534 62.3913 18.4667 63.6159C20.6115 64.872 31.7771 84.9372 31.7771 84.9372C31.7771 84.9372 18.2459 66.599 16.385 67.4155C14.524 68.2319 5.0932 88.7995 5.0932 88.7995C5.0932 88.7995 14.3663 66.442 12.6631 66.0024C10.9283 65.5628 6.22868 64.8092 6.22868 64.8092Z" fill="#489FD8"/>
</g>
<g style="mix-blend-mode:screen">
<path d="M35.215 19.4662C35.215 19.4662 50.1656 15.9807 54.6129 16.9855C59.0286 17.9589 63.2867 26.0604 63.2867 26.0604C63.2867 26.0604 56.6315 19.1208 53.919 18.587C51.2064 18.0217 35.215 19.4662 35.215 19.4662Z" fill="#489FD8"/>
</g>
<g style="mix-blend-mode:screen">
<path d="M23.8287 66.0966C22.6617 64.0869 22.7878 61.6063 24.1126 59.7536C30.957 50.0821 51.6165 21.2246 53.162 22.5121C54.4552 23.6111 43.1635 52.4058 36.5398 68.8913C34.7104 73.4758 28.3391 73.9154 25.8789 69.6449L23.8287 66.0966Z" fill="#489FD8"/>
</g>
</svg>
