<svg width="276" height="101" viewBox="0 0 276 101" fill="none" xmlns="http://www.w3.org/2000/svg">
<path d="M272.9 88C272.8 88.9 272.6 89.7 272.2 90.4C270 94 266.7 97 262.5 99.5C261.6 100 260.5 100.3 259.5 100.3C255.7 100.3 251.9 100.2 248.1 100.2C234.4 100.1 220.6 100.4 206.9 99.9C206.767 99.9 206.667 99.9 206.6 99.9C206.533 99.8333 206.467 99.7667 206.4 99.7C206 99.2 205.5 98.8 205.1 98.3C204.9 98 203.9 96.3 204 96C203.5 97.3 202.9 98.6 202.4 99.8C202.333 99.8667 202.267 99.9333 202.2 100C202.2 100.067 202.167 100.1 202.1 100.1C199.6 100.3 197.3 100.1 194.8 100.1C192.333 100.1 189.833 100.1 187.3 100.1C182.167 100.1 177.067 100.067 172 100C158 99.8 144 99.5 130 99.6C107.733 99.7333 85.4667 99.8667 63.2 100C61.9 100 60.5 100.2 59.2 100C57.5 99.8 56 98.6 54.2 98.9C51.3 99.4 49.2 100.1 46.1 100.1C42.8333 100.1 39.5667 100.133 36.3 100.2C29.7 100.2 23.1333 100.233 16.6 100.3C15.5 100.3 14.5 100 13.5 99.5C9.30001 97 6.10001 94 3.90001 90.4C3.40001 89.7 3.20001 88.9 3.10001 88C2.56667 80.5333 2.06667 73.0667 1.60001 65.6C1.30001 58.5 1.50001 51.3 0.500008 44.3C0.400008 43.4 0.200009 42.6 0.200009 41.8C0.300009 39.6 1.60001 37.6 3.40001 36.5C2.50001 36.9 1.60001 37 0.700009 36.9C-0.299991 36.8 0.100008 18.6 0.100008 17C0.100008 15.7 0.500007 14.5 1.30001 13.5C4.70001 9.39999 8.60001 5.59999 13.1 2.09999C14.1 1.29999 15.4 0.899994 16.7 0.899994C34.2333 1.09999 51.7667 1.29999 69.3 1.49999C73.7 1.59999 78.1 1.79999 82.6 2.09999C82.9 2.09999 83.3 2.19999 83.6 2.29999C84.8 2.89999 85.2 4.99999 86.2 5.89999C85.8667 4.56666 85.6667 3.23333 85.6 1.89999C89 0.999994 93.4 1.79999 96.9 1.79999C101.033 1.86666 105.133 1.93333 109.2 1.99999C122 2.13333 134.833 2.16666 147.7 2.09999C154.233 2.09999 160.767 2.06666 167.3 1.99999C170.633 1.93333 173.933 1.89999 177.2 1.89999C180.2 1.79999 182.1 2.29999 185 3.09999C185.1 3.19999 185.3 3.19999 185.5 3.19999C185.6 3.19999 185.8 2.99999 185.9 2.89999C187.9 0.899994 191.4 1.69999 194.2 1.69999C197.6 1.63333 201 1.56666 204.4 1.49999C222.7 1.29999 241 1.19999 259.4 0.899994C260.7 0.899994 262 1.29999 263 2.09999C267.4 5.59999 271.4 9.39999 274.7 13.5C275.5 14.5 276 15.7 275.9 17C275.9 21.8 275.6 26.4 275.2 31.2C275.2 31.5 275.2 31.7 275 31.9C274.8 32.3 274.4 32.4 274.1 32.6C272.2 34.1 275.8 36.8 275.4 38.7C275.3 39.2 275 39.7 274.8 40.2C274.1 41.8 275.1 43.4 275.2 45C275.4 47 275.1 49.2 275 51.1C274.8 55.2333 274.6 59.3333 274.4 63.4C273.933 71.6 273.433 79.8 272.9 88Z" fill="#4BC98A"/>
<path d="M272.9 87.2C272.8 88 272.6 88.8 272.2 89.5C270 93.1 266.7 96.1 262.5 98.6C261.6 99.1 260.5 99.4 259.5 99.4C255.7 99.4 251.9 99.4 248.1 99.3C234.4 99.3 220.6 99.6 206.9 99.1C206.767 99.1 206.667 99.0667 206.6 99C206.533 98.9333 206.467 98.8667 206.4 98.8C206 98.3 205.5 97.9 205.1 97.4C204.9 97.2 203.9 95.4 204 95.1C203.5 96.4 202.9 97.7 202.4 98.9C202.333 99.0333 202.267 99.1 202.2 99.1C202.2 99.1667 202.167 99.2 202.1 99.2C199.6 99.4 197.3 99.2 194.8 99.2C192.333 99.2667 189.833 99.2667 187.3 99.2C182.167 99.2 177.067 99.1667 172 99.1C158 98.9 144 98.6 130 98.7C107.733 98.8333 85.4667 98.9667 63.2 99.1C61.9 99.1 60.5 99.3 59.2 99.1C57.5 98.9 56 97.7 54.2 98C51.3 98.5 49.2 99.2 46.1 99.2C42.8333 99.2667 39.5667 99.3 36.3 99.3C29.7 99.3667 23.1333 99.4 16.6 99.4C15.5 99.4 14.5 99.1 13.5 98.6C9.30001 96.1 6.10001 93.1 3.90001 89.5C3.40001 88.8 3.20001 88 3.10001 87.2C2.56667 79.6667 2.06667 72.1667 1.60001 64.7C1.30001 57.6 1.50001 50.4 0.500008 43.4C0.400008 42.5 0.200009 41.7 0.200009 40.9C0.300009 38.7 1.60001 36.7 3.40001 35.6C2.50001 36 1.60001 36.2 0.700009 36C-0.299991 35.9 0.100008 17.7 0.100008 16.1C0.100008 14.8 0.500007 13.6 1.30001 12.6C4.70001 8.5 8.60001 4.7 13.1 1.2C14.1 0.400001 15.4 0 16.7 0C34.2333 0.2 51.7667 0.399998 69.3 0.599998C73.7 0.699998 78.1 0.900001 82.6 1.2C82.9 1.3 83.3 1.3 83.6 1.4C84.8 2 85.2 4.1 86.2 5C85.8667 3.66667 85.6667 2.33333 85.6 1C89 0.1 93.4 0.9 96.9 1C101.033 1 105.133 1.03333 109.2 1.1C122 1.23333 134.833 1.26667 147.7 1.2C154.233 1.2 160.767 1.16667 167.3 1.1C170.633 1.03333 173.933 1 177.2 1C180.2 0.9 182.1 1.4 185 2.3C185.1 2.3 185.3 2.4 185.5 2.3C185.6 2.3 185.8 2.2 185.9 2C187.9 0 191.4 0.799999 194.2 0.799999C197.6 0.733333 201 0.700001 204.4 0.700001C222.7 0.400001 241 0.3 259.4 0C260.7 0 262 0.400001 263 1.2C267.4 4.7 271.4 8.5 274.7 12.6C275.5 13.6 276 14.8 275.9 16.1C275.9 20.9 275.6 25.5 275.2 30.3C275.2 30.6 275.2 30.8 275 31C274.8 31.4 274.4 31.5 274.1 31.7C272.2 33.3 275.8 35.9 275.4 37.8C275.3 38.3 275 38.8 274.8 39.3C274.1 40.9 275.1 42.6 275.2 44.2C275.4 46.1 275.1 48.3 275 50.3C274.8 54.3667 274.6 58.4333 274.4 62.5C273.933 70.7 273.433 78.9333 272.9 87.2Z" fill="url(#paint0_linear_550_41)"/>
<path d="M270.1 20.4C270.1 20.5333 270.1 20.7 270.1 20.9C270.1 21.9667 270.067 23.0333 270 24.1C270 24.5667 270 25 270 25.4C270 27.6 269.5 29.3 268.8 31C268.5 31.8 268.1 32.6 267.7 33.5C267.633 33.6333 267.567 33.7333 267.5 33.8C267.4 34.1 267.3 34.4 267.3 34.7C267.3 34.9 267.4 35.2 267.5 35.4C268.4 37.3 269.5 39 269.5 41.1C269.6 43.2 269.4 45.3 269.3 47.3C269.167 51.3667 269 55.4667 268.8 59.6C268.733 59.7333 268.7 59.9 268.7 60.1C268.7 60.9667 268.667 61.8333 268.6 62.7C268.467 64.7667 268.333 66.8667 268.2 69C268.133 70.0667 268.1 71.1333 268.1 72.2C268.033 72.6 268 72.9667 268 73.3C268 73.6334 267.967 73.9333 267.9 74.2C267.833 76.2 267.733 78.1667 267.6 80.1C267.5 81.6 267.9 85.4 267.1 86.6C265.5 89.3 263 91.5 259.6 93.6C259.533 93.6 259.467 93.6 259.4 93.6L237 93.5L217.1 93.4H212.9C210.2 93.3 207.4 93.7 204.8 93.4C204.6 92.4 204.6 91.3 204.7 90.2C204.8 89.4 205 88.7 205.2 88C205 88.5 204.7 89.3 204.3 90.1C203.7 91.5 202.9 92.9 202.3 93.3C202.1 93.4 201.9 93.3 201.6 93.3C195.4 93.2334 189.167 93.1667 182.9 93.1C169.833 92.9667 156.767 92.9 143.7 92.9C139.1 92.9 134.533 92.9 130 92.9C126.467 92.9667 122.967 93 119.5 93C115.833 93 112.167 93.0333 108.5 93.1C101.7 93.1 94.9 93.1333 88.1 93.2C81.8333 93.2667 75.5333 93.3 69.2 93.3C65.1 93.3 61 93.5 57 92.9C56.6667 92.8333 56.3667 92.7667 56.1 92.7C55 92.4 53.9 92 52.8 91.7C52.2 91.5667 51.6333 91.5333 51.1 91.6C49.8 91.7 48.6 92.7 47.6 93.4C46.6 94.1 43.4 93.5 42.1 93.5C40.1 93.5 38.0667 93.5 36 93.5C32.6 93.5 29.2 93.5333 25.8 93.6C22.7 93.6 19.6 93.6 16.5 93.6C13 91.5 10.5 89.3 8.89999 86.6C8.09999 85.3 8.49999 81.6 8.39999 80.1C8.33333 79.2333 8.26666 78.3333 8.2 77.4C8.13333 76.8 8.09999 76.1667 8.09999 75.5C8.03333 74.7 7.96666 73.9 7.89999 73.1C7.89999 72.5 7.86666 71.9 7.79999 71.3C7.53333 67.2334 7.29999 63.1667 7.09999 59.1C7.03333 57.4333 6.96666 55.7667 6.89999 54.1C6.89999 53.3667 6.86666 52.6 6.79999 51.8C6.73333 49.5333 6.63333 47.2667 6.49999 45C6.49999 43 5.79999 40.1 6.29999 38.2C6.49999 37.3 7.09999 36.4 7.79999 35.5C8.06666 35.1 8.36666 34.7 8.7 34.3C8.96666 34.0333 9.23333 33.7333 9.49999 33.4C9.69999 33.1333 9.89999 32.9 10.1 32.7C9.76666 32.9 9.39999 33.1 8.99999 33.3C8.73333 33.5 8.43333 33.6667 8.09999 33.8C7.43333 34.1333 6.76666 34.4333 6.09999 34.7C6.29999 34.6 6.39999 33.5 6.29999 32.2C6.29999 29.9 5.99999 26.8 5.99999 26.3C5.93333 22.9667 5.89999 19.6 5.89999 16.2C8.79999 12.6 12.4 9.10001 16.7 5.70001L37 6.00001H40.8L62.8 6.30001L69.2 6.40001L83.9 6.60001C84.7 7.60001 85.7 8.40001 86.7 9.20001C86.9 9.33335 87.0667 9.50001 87.2 9.70001C87.2 9.60001 87.2 9.50001 87.2 9.40001C86.9333 8.46668 86.6667 7.53334 86.4 6.60001L109.1 6.90001C113.7 6.90001 118.3 7.00001 123.1 7.00001C126.833 7.00001 130.7 7.00001 134.7 7.00001H134.9C143.167 7.00001 151.4 6.96668 159.6 6.90001H159.9C163.367 6.90001 166.8 6.86668 170.2 6.80001C170.267 6.80001 170.3 6.80001 170.3 6.80001C170.967 6.80001 171.633 6.80001 172.3 6.80001C173.6 6.80001 175.3 6.60001 176.8 6.60001C177.333 6.60001 177.833 6.63335 178.3 6.70001C179.8 7.10001 181.2 8.50001 182.8 7.70001C186.9 5.70001 192.5 6.60001 197.1 6.50001L204.4 6.40001C210.533 6.33335 216.667 6.26668 222.8 6.20001C234.8 6.10001 247.2 6.00001 259.5 5.80001C263.6 9.10001 267.2 12.6 270.2 16.2C270.6 16.7 270.1 19.6 270.1 20.4Z" fill="url(#paint1_radial_550_41)"/>
<path style="mix-blend-mode:screen" opacity="0.54" d="M182.9 93.1C169.833 92.9667 156.767 92.9 143.7 92.9C139.1 92.9 134.533 92.9 130 92.9C126.467 92.9667 122.967 93 119.5 93C115.833 93 112.167 93.0333 108.5 93.1L62.8 6.29999L69.2 6.39999L83.9 6.59999C84.7 7.59999 85.7 8.39999 86.7 9.19999C86.9 9.33332 87.0666 9.49999 87.2 9.69999C87.2 9.59999 87.2 9.49999 87.2 9.39999C86.9333 8.46666 86.6667 7.53332 86.4 6.59999L109.1 6.89999C113.7 6.89999 118.3 6.99999 123.1 6.99999C126.833 6.99999 130.7 6.99999 134.7 6.99999H134.9C143.167 6.99999 151.4 6.96666 159.6 6.89999H159.9L182.9 93.1Z" fill="url(#paint2_linear_550_41)"/>
<path d="M9.99999 34C7.29999 37.6 7.39999 42.4 7.49999 46.8C7.63332 53.5333 7.79999 60.2667 7.99999 67C7.99999 68.5 7.99999 69.9 7.79999 71.3C7.53332 67.2333 7.29999 63.1667 7.09999 59.1C6.89999 54.4333 6.69999 49.7333 6.49999 45C6.49999 43 5.79999 40.1 6.29999 38.2C6.59999 36.9 7.69999 35.6 8.69999 34.3C9.09999 34.6 9.59999 34.6 9.99999 34Z" fill="#DEFCFF"/>
<path d="M86.7 9.20001C81.1 7.60001 75.2 7.50001 69.3 7.40001C56.6333 7.20001 44 7.00001 31.4 6.80001C27.7 6.80001 24.1 6.80001 20.3 6.50001C19.1 6.40001 17.7 6.30001 16.5 7.00001C14.9 7.90001 14.3 9.90001 13 11.2C11.5 12.7 9.49999 13.6 8.19999 15.3C7.69999 16 7.19999 16.6 6.99999 17.4C6.79999 18.1 6.79999 18.8 6.79999 19.5C6.99999 22.7 6.99999 25.9 6.89999 29.2C6.89999 30.4 6.89999 31.4 7.29999 32.5C7.39999 32.8 7.69999 33.3 8.09999 33.8C7.43332 34.1333 6.76666 34.4333 6.09999 34.7C6.69999 34.4 5.99999 27.1 5.99999 26.3C5.93332 22.9667 5.86665 19.6 5.79999 16.2C8.79999 12.6 12.4 9.10001 16.7 5.70001L69.2 6.40001L83.9 6.60001C84.7 7.60001 85.7 8.40001 86.7 9.20001Z" fill="#DEFCFF"/>
<path d="M270.1 20.4C270.1 22.0667 270.067 23.7333 270 25.4C269.9 28.8 268.9 30.8 267.5 33.8C267.4 34.1 267.3 34.4 267.3 34.7C267.3 35 267.4 35.2 267.5 35.4C268.4 37.3 269.5 39 269.6 41.1C269.6 43.1 269.4 45.3 269.3 47.3C269.167 51.5667 268.967 55.8333 268.7 60.1C268.5 64.1 268.3 68.1333 268.1 72.2C267.9 64.1 267.9 56.1 268.1 48C268.2 44.3 268.7 38.7 265.2 36.3C265.4 33.5 268.1 31.5 268.9 28.8C269.2 27.7 269.2 26.6 269.2 25.5C269.133 23.1667 268.967 20.8333 268.7 18.5C268.6 17.8 268.5 17.1 268.2 16.5C267.8 15.7 267.1 15.1 266.5 14.5C265.167 13.3667 263.833 12.2 262.5 11C261.2 9.79999 259.8 8.59999 258.1 8.09999C256.9 7.79999 255.7 7.79999 254.5 7.79999C232.6 7.79999 210.5 7.69999 188.6 7.89999C187.2 7.89999 185.8 8.39999 184.6 9.19999C184 9.59999 183.5 10.2 182.8 10.3C181.7 10.6 180.7 9.79999 179.6 9.49999C178.9 9.29999 178.2 9.19999 177.5 9.19999C176.967 9.13332 176.433 9.06666 175.9 8.99999C162.1 7.69999 147.7 8.49999 133.8 8.29999L89.2 7.59999C88.6 7.59999 87.9 7.59999 87.4 7.99999C87 8.39999 87 9.29999 87.5 9.49999C87.3667 9.43332 87.2667 9.39999 87.2 9.39999C86.9333 8.46666 86.6667 7.53332 86.4 6.59999L109.1 6.89999C117.3 6.99999 125.6 6.99999 134.7 6.99999C143.033 6.99999 151.333 6.96666 159.6 6.89999C163.8 6.89999 168 6.86665 172.2 6.79999C174.1 6.79999 176.5 6.39999 178.3 6.69999C179.8 7.09999 181.2 8.49999 182.8 7.69999C186.9 5.69999 192.5 6.59999 197.1 6.49999L204.4 6.39999C210.533 6.33332 216.667 6.26666 222.8 6.19999C234.8 6.09999 247.2 5.99999 259.5 5.79999C263.6 9.09999 267.2 12.6 270.2 16.2C270.6 16.7 270.1 19.6 270.1 20.4Z" fill="#DEFCFF"/>
<path d="M263.4 77.7C263 77.3 262.567 76.9333 262.1 76.6C260.4 75.2 258.3 74.3 256.1 73.9C256 73.8 255.8 73.8 255.7 73.8C255.2 73.8 254.8 74 254.4 74.3C252.6 75.7 251.1 77.7 250 79.7C249.7 80.2 249.5 80.6 249.9 81.1C250.2 81.5 250.7 81.8 251.2 82.1C252.267 82.7667 253.367 83.3333 254.5 83.8C255 84 255.6 83.7 256 83.5C257.1 83 258 81.7 258.7 80.8C258.7 80.7 258.8 80.6 258.8 80.5C258.8 80.4 258.7 80.3 258.6 80.2C258.4 80 258.2 79.8 258 79.6C257.933 79.5333 257.867 79.4667 257.8 79.4C257.7 79.4 257.6 79.5 257.5 79.6C256.7 80.4 255.867 81.2333 255 82.1C254.6 81.7 254.1 81.5 253.6 81.2C253.2 81 252.7 80.7 252.3 80.4C252.1 80.2 252 80 252 79.7C252.1 79.5 252.3 79.2 252.4 79C252.9 78.1 253.5 77.3 254.1 76.5C254.5 75.9 255 75.4 255.5 74.8C257.2 75.3 258.9 76 260.4 77.1C260.4 77.2 261 77.6 261.1 77.7C261.367 77.9 261.6 78.1333 261.8 78.4C262.1 78.6 262.4 78.9 262.6 79.2C262.7 79.3 263 79.7 263 79.9C263 80.1 262.5 80.7 262.3 80.9C261.967 81.3 261.6 81.7 261.2 82.1C260.467 82.9 259.733 83.6667 259 84.4C258.667 84.6667 258.333 84.9667 258 85.3C257.4 86 256.7 86.7 256 87.3C255.1 87.9 254.3 88.1 253.3 88.1C252.167 88.1 251.033 88.1 249.9 88.1C245.5 88.1 241.067 88.1 236.6 88.1C232.2 88.0333 227.767 88 223.3 88C218.9 88 214.467 88 210 88C194.467 88 178.933 88.0333 163.4 88.1C132.6 88.1 101.8 88.2 70.9 88.2C67.6333 88.2667 64.3667 88.2667 61.1 88.2C53.3 88.2 45.6 88.2 37.9 88.2C34.0333 88.2 30.1667 88.2333 26.3 88.3C25.3667 88.3 24.4 88.3333 23.4 88.4C22.6 88.4 21.7 88.5 20.9 88.5C20.2 88.4 19.4 87.9 18.8 87.5C18.1333 87.1 17.5 86.6333 16.9 86.1C16.4333 85.7 16 85.2667 15.6 84.8C15.5333 84.6667 15.4333 84.5333 15.3 84.4C14.9 83.9 15.1 82 15.1 81.4C14.9667 79.5333 14.8333 77.6667 14.7 75.8C14.3667 70.8667 14.0333 65.9333 13.7 61C13.3 55.1 13.1 49.2 12.8 43.3C12.6667 40.2333 12.5 37.2 12.3 34.2C12.2 32.5 12.8 28.3 11.6 26.9C11.3 26.5 10.5 26.4 10.3 26.9C10.6 37.5 11.2 48.3 11.8 58.9C12.2 65.8 12.2 72.9 13.2 79.7C13.4 81.1 13.6 82.5333 13.8 84C13.9 85.1 14.6 85.9 15.4 86.7C16.2 87.6 17.2 88.2 18.2 88.8C18.9 89.3 19.6 89.3 20.5 89.3C21.4333 89.3 22.4 89.3333 23.4 89.4C25.3333 89.4 27.2667 89.4 29.2 89.4C33 89.4 36.8333 89.4 40.7 89.4C48.4 89.4 56.1 89.3 63.8 89.3C79.2667 89.2333 94.7667 89.2 110.3 89.2C141.2 89.2 172 89.1 202.9 89C220.4 89 237.9 88.7 255.4 88.7C256.1 88.7 256.9 87.9 257.4 87.5C258.067 87.0333 258.667 86.5 259.2 85.9C260.067 85.0333 260.867 84.1333 261.6 83.2C262.4 82.2 263.2 81.4 263.9 80.5C264 80.4 264 80.3 263.9 80.3C263.967 80.3 264 80.2667 264 80.2C264.3 79.9 264.5 79.5 264.4 79.1C264.2 78.5 263.8 78.1 263.4 77.7Z" fill="#DEFCFF"/>
<path d="M263 14.8C262.4 13.9 261.5 13.3 260.8 12.7C260.2 12.2 259.4 12.2 258.5 12.2C257.567 12.2 256.633 12.2 255.7 12.2C253.767 12.1333 251.833 12.1 249.9 12.1C246.033 12.1 242.167 12.1 238.3 12.1C230.6 12.1 217.8 12.2 210.2 12.2C194.667 12.2667 179.133 12.3 163.6 12.3C132.7 12.3 101.9 12.4 71 12.5C53.5 12.5 36 12.8 18.5 12.8C17.8 12.8 17 13.6 16.5 14C15.8333 14.4667 15.2333 15 14.7 15.6C13.8333 16.4667 13.0333 17.3667 12.3 18.3C11.5 19.3 10.7 20.1 10 21C9.90001 21.1 9.90001 21.2 10 21.2C9.93335 21.2 9.90001 21.2333 9.90001 21.3C9.60001 21.6 9.40001 22 9.50001 22.4C9.70001 23 10.2 23.4 10.5 23.8C10.9 24.2 11.3333 24.5667 11.8 24.9C13.6 26.3 15.6 27.2 17.8 27.6C17.9 27.7 18.1 27.7 18.2 27.7C18.7 27.7 19.1 27.5 19.5 27.2C21.3 25.8 22.8 23.8 23.9 21.8C24.2 21.3 24.4 20.9 24 20.4C23.7 19.9 23.2 19.7 22.7 19.4C21.7 18.7333 20.6 18.1667 19.4 17.7C19 17.5 18.3 17.8 17.9 18C16.8 18.5 15.9 19.8 15.2 20.7C15.2 20.8 15.1 20.9 15.1 21C15.1 21.1 15.2 21.2 15.3 21.3C15.5 21.5 15.7333 21.7 16 21.9C16 21.9667 16.0333 22 16.1 22C16.2 22.1 16.3 22 16.4 21.9C17.2 21.1 18.0333 20.2667 18.9 19.4C19.4 19.7 19.8 20 20.3 20.3C20.7 20.5 21.2 20.8 21.6 21.1C21.8 21.3 22 21.5 21.9 21.8C21.9 22 21.7 22.3 21.5 22.5C21.0333 23.3667 20.4667 24.2 19.8 25C19.4 25.6 18.9 26.1 18.4 26.7C16.7 26.2 15 25.5 13.5 24.4C13.5 24.3 12.9 23.9 12.8 23.8C12.5333 23.6 12.3 23.3667 12.1 23.1C11.8 22.9 11.6 22.6 11.4 22.3C11.3 22.2 10.9 21.8 11 21.6C11 21.4 11.4 20.8 11.6 20.6C11.9333 20.2 12.3 19.8 12.7 19.4C13.4333 18.6 14.2 17.8333 15 17.1C15.2667 16.8333 15.5667 16.5333 15.9 16.2C16.6 15.5 17.2 14.8 17.9 14.2C18.8 13.6 19.6 13.4 20.6 13.4C21.7333 13.3333 22.8667 13.3333 24 13.4C28.4 13.4 32.8333 13.4 37.3 13.4C41.7667 13.4667 46.2 13.5 50.6 13.5C55 13.5 59.4333 13.5 63.9 13.5C79.4333 13.5 94.9667 13.4667 110.5 13.4C141.3 13.4 172.2 13.3 203 13.2C206.267 13.2 209.533 13.2333 212.8 13.3C220.6 13.3 233.1 13.3 240.9 13.3C244.767 13.3 248.633 13.2667 252.5 13.2C253.433 13.2 254.4 13.1667 255.4 13.1C256.2 13.1 257.1 13 257.9 13C258.6 13.1 259.3 13.7 259.8 14C260.4 14.4 260.933 14.8667 261.4 15.4C261.733 15.8 262.033 16.2333 262.3 16.7C262.367 16.8333 262.433 16.9667 262.5 17.1C262.5 23.7 262.2 28.4 262.3 34C262.3 37.4 262.4 40.7 262.5 44.1C262.5 47.2 262.3 50.2 262.4 53.3C262.4 56.3667 262.333 59.4667 262.2 62.6C262.1 65.4 261.6 68.1 261.4 70.9C261.3 72.1 261 73.4 261.3 74.5C261.4 74.7 262 74.4 262.1 74.3C263.2 71.6 263.2 68.1 263.4 65.2C263.5 61.7 263.5 58.1 263.6 54.6C263.6 54.2667 263.6 53.9667 263.6 53.7C263.6 47.5667 263.633 41.4333 263.7 35.3C263.7 29.4 263.5 23.4 264 17.5C264.1 16.4 263.6 15.6 263 14.8Z" fill="#DEFCFF"/>
<path d="M263.2 76.9C262.8 76.5 262.4 76.1333 262 75.8C260.2 74.4 258.1 73.5 255.9 73.1C255.8 73 255.6 73 255.5 73C255.1 73 254.6 73.2 254.3 73.5C252.4 74.9 250.9 76.9 249.8 78.9C249.6 79.4 249.3 79.8 249.7 80.3C250.1 80.8 250.5 81 251 81.3C252.067 81.9667 253.167 82.5333 254.3 83C254.8 83.2 255.4 82.9 255.9 82.7C256.9 82.2 257.9 80.9 258.5 80C258.6 79.9 258.6 79.8 258.6 79.7C258.6 79.6 258.5 79.5 258.5 79.4C258.233 79.2 258 79 257.8 78.8C257.733 78.7333 257.667 78.7 257.6 78.7C257.5 78.6 257.4 78.7 257.4 78.8C256.533 79.6 255.667 80.4333 254.8 81.3C254.4 81 253.9 80.7 253.5 80.4C253 80.2 252.5 79.9 252.2 79.6C252 79.4 251.8 79.2 251.9 78.9C251.9 78.7 252.1 78.4 252.2 78.2C252.733 77.3333 253.3 76.5 253.9 75.7C254.4 75.1 254.8 74.6 255.3 74C257.1 74.5 258.8 75.2 260.2 76.3C260.2 76.4 260.9 76.8 261 76.9C261.2 77.1 261.433 77.3333 261.7 77.6C261.9 77.8 262.2 78.1 262.4 78.4C262.5 78.5 262.8 78.9 262.8 79.1C262.8 79.3 262.3 79.9 262.1 80.1C261.767 80.5 261.433 80.9 261.1 81.3C260.367 82.1 259.6 82.8667 258.8 83.6C258.467 83.8667 258.167 84.1667 257.9 84.5C257.2 85.2 256.6 85.9 255.8 86.5C255 87.1 254.1 87.3 253.1 87.3C252.033 87.3667 250.933 87.3667 249.8 87.3C245.333 87.3 240.9 87.3 236.5 87.3C232.033 87.2333 227.567 87.2 223.1 87.2C218.7 87.2 214.3 87.2 209.9 87.2C194.367 87.2 178.833 87.2333 163.3 87.3C132.4 87.3 101.6 87.4 70.8 87.5C67.4667 87.5 64.1667 87.5 60.9 87.5C53.2 87.4 45.5 87.4 37.7 87.4C33.8333 87.4 29.9667 87.4333 26.1 87.5C25.1667 87.5 24.2 87.5333 23.2 87.6C22.4 87.6 21.6 87.7 20.8 87.7C20.1 87.6 19.3 87.1 18.7 86.7C17.9667 86.3 17.3 85.8333 16.7 85.3C16.2333 84.9 15.8333 84.4667 15.5 84C15.3667 83.8667 15.2667 83.7333 15.2 83.6C14.8 83.1 15 81.2 14.9 80.6C14.7667 78.7333 14.6333 76.8667 14.5 75C14.1667 70.0667 13.8333 65.1333 13.5 60.2C13.2 54.3 12.9 48.4 12.6 42.5C12.4667 39.4333 12.3333 36.4 12.2 33.4C12.1 31.7 12.6 27.5 11.5 26.1C11.1 25.7 10.3 25.6 10.1 26.1C10.5 36.7 11 47.5 11.7 58.1C12.1 65 12.1 72.1 13 78.9C13.2 80.3 13.4 81.7333 13.6 83.2C13.8 84.3 14.5 85.1 15.2 85.9C16.1 86.8 17.1 87.4 18 88C18.7 88.5 19.5 88.5 20.3 88.5C21.3 88.5 22.2667 88.5333 23.2 88.6C25.1333 88.6 27.0667 88.6 29 88.6C32.8667 88.6 36.7333 88.6 40.6 88.6C48.2 88.6 55.9 88.5 63.6 88.5C79.1333 88.4333 94.6667 88.4 110.2 88.4C141 88.4 171.9 88.3 202.7 88.2C220.2 88.2 237.7 87.9 255.2 87.9C255.9 87.9 256.7 87.1 257.2 86.7C257.867 86.2333 258.5 85.7 259.1 85.1C259.967 84.2333 260.767 83.3333 261.5 82.4C262.2 81.4 263 80.6 263.8 79.7C263.9 79.6 263.8 79.5 263.8 79.5C263.8 79.5 263.8 79.4667 263.8 79.4C264.1 79.1 264.3 78.7 264.2 78.3C264.1 77.8 263.6 77.3 263.2 76.9Z" fill="#36829E"/>
<path d="M262.9 14C262.2 13.1 261.4 12.6 260.6 11.9C260 11.4 259.2 11.4 258.4 11.4C257.4 11.4 256.433 11.4 255.5 11.4C253.567 11.3333 251.633 11.3 249.7 11.3C245.833 11.3 241.967 11.3 238.1 11.3C230.5 11.3 217.7 11.4 210 11.4C194.467 11.4667 178.933 11.5 163.4 11.5C132.6 11.5 101.7 11.6 70.9 11.7C53.3 11.7 35.9 12 18.3 12C17.7 12 16.9 12.8 16.4 13.2C15.7333 13.6667 15.1 14.2 14.5 14.8C13.6333 15.6667 12.8333 16.5667 12.1 17.5C11.4 18.5 10.6 19.3 9.80001 20.2C9.70001 20.3 9.80001 20.4 9.80001 20.4C9.80001 20.4 9.80001 20.4333 9.80001 20.5C9.50001 20.8 9.30001 21.2 9.40001 21.6C9.50001 22.2 10 22.6 10.4 23C10.8 23.4 11.2 23.7667 11.6 24.1C13.4 25.5 15.5 26.4 17.7 26.8C17.8 26.9 18 26.9 18.1 26.9C18.5 26.9 19 26.7 19.3 26.4C21.1 25 22.7 23 23.8 21C24 20.5 24.3 20.1 23.9 19.6C23.5 19.2 23.1 18.9 22.6 18.6C21.5333 17.9333 20.4333 17.3667 19.3 16.9C18.8 16.7 18.2 17 17.7 17.2C16.7 17.7 15.7 19 15.1 19.9C15 20 14.9 20.1 14.9 20.2C14.9 20.3 15 20.4 15.1 20.5C15.3667 20.7 15.6 20.9 15.8 21.1C15.8667 21.1667 15.9333 21.2333 16 21.3C16.1 21.3 16.2 21.2 16.2 21.1C17.0667 20.3 17.9 19.4667 18.7 18.6C19.2 19 19.7 19.2 20.1 19.5C20.6 19.7 21.1 20 21.4 20.3C21.6 20.5 21.8 20.7 21.7 21C21.7 21.2 21.5 21.5 21.4 21.7C20.8 22.6 20.3 23.4 19.7 24.2C19.2 24.8 18.8 25.3 18.3 25.9C16.5 25.4 14.8 24.7 13.4 23.6C13.4 23.5 12.7 23.1 12.6 23C12.4 22.8 12.1667 22.5667 11.9 22.3C11.7 22.1 11.4 21.8 11.2 21.6C11.1 21.4 10.8 21 10.8 20.8C10.8 20.6 11.3 20 11.4 19.8C11.8 19.4 12.1667 19 12.5 18.6C13.2333 17.8 14 17.0333 14.8 16.3C15.1333 16.0333 15.4333 15.7333 15.7 15.4C16.4 14.7 17 14 17.8 13.4C18.6 12.8 19.5 12.6 20.5 12.6C21.5667 12.6 22.6667 12.6 23.8 12.6C28.2667 12.6 32.7 12.6 37.1 12.6C41.5667 12.6667 46.0333 12.7 50.5 12.7C54.9 12.7 59.3 12.7 63.7 12.7C79.2333 12.7 94.7667 12.6667 110.3 12.6C141.1 12.6 172 12.5 202.8 12.5C206.133 12.4333 209.433 12.4333 212.7 12.5C220.4 12.5 233 12.5 240.7 12.5C244.567 12.5 248.433 12.4667 252.3 12.4C253.3 12.4 254.267 12.3667 255.2 12.3C256 12.3 257 12.2 257.7 12.2C258.4 12.3 259.1 12.9 259.6 13.2C260.2 13.6 260.767 14.0667 261.3 14.6C261.633 15 261.933 15.4333 262.2 15.9C262.267 16.0333 262.333 16.1667 262.4 16.3C262.3 22.9 262.1 27.6 262.2 33.2C262.2 36.6 262.3 39.9 262.3 43.3C262.4 46.4 262.2 49.4 262.2 52.5C262.2 55.5667 262.133 58.6667 262 61.8C261.9 64.6 261.5 67.3 261.2 70.1C261.1 71.3 260.9 72.6 261.2 73.7C261.2 73.9 261.9 73.6 261.9 73.5C263 70.8 263.1 67.3 263.2 64.4C263.4 60.9 263.4 57.4 263.4 53.8C263.4 53.4667 263.4 53.1667 263.4 52.9C263.467 46.7667 263.5 40.6667 263.5 34.6C263.6 28.6 263.3 22.6 263.8 16.7C264 15.6 263.5 14.8 262.9 14Z" fill="#36829E"/>
<path d="M248.3 28C251.9 27.4 254.8 31.4 252.7 34.7C248.2 41.8 241.6 29.5 248 28.1C248.067 28.1 248.167 28.0667 248.3 28Z" fill="url(#paint3_radial_550_41)"/>
<path d="M251.3 18.2C253.8 17.8 255.6 20.4 254.3 22.5C251.3 27.2 247 19.2 251.2 18.2C251.2 18.2 251.233 18.2 251.3 18.2Z" fill="url(#paint4_radial_550_41)"/>
<path d="M33.9 73C37.7 74.7 38 80.1 34.1 81.9C25.6 85.9 26.7 70.5 33.6 72.9C33.6667 72.9667 33.7667 73 33.9 73Z" fill="url(#paint5_radial_550_41)"/>
<path d="M220.4 18.5C222.3 18.2 223.7 20.2 222.6 21.9C220.4 25.5 217.1 19.3 220.3 18.6C220.3 18.6 220.333 18.5667 220.4 18.5Z" fill="url(#paint6_radial_550_41)"/>
<path d="M237.4 77.3C239.2 76.9 240.8 78.7 239.9 80.4C238 84.2 234.1 78.4 237.2 77.4C237.267 77.3333 237.333 77.3 237.4 77.3Z" fill="url(#paint7_radial_550_41)"/>
<path d="M20.2 57.8C21.4 56.6 23.8 58.2 23.3 60.1C23 61.3 22.2 62.1 21 61.7C19.5 61.2 19.3 60 19.7 58.7C19.8333 58.3 20 58 20.2 57.8Z" fill="url(#paint8_radial_550_41)"/>
<path d="M64.6 74.8C65.5 73.6 67.8 73.5 68.2 75.6C68.5 77.5 66.1 78.7 64.8 77C64.2 76.2 64.2 75.4 64.6 74.8Z" fill="url(#paint9_radial_550_41)"/>
<path d="M39.6 20.2C40.3 19.5 41.8 19.7 41.8 21.1C41.8 22.5 40 22.9 39.4 21.7C39.1 21 39.2 20.5 39.6 20.2Z" fill="url(#paint10_radial_550_41)"/>
<path d="M21.6 75.7C22.1 75 23.5 74.9 23.8 76.2C24 77.4 22.5 78.1 21.7 77.1C21.3 76.6 21.4 76.1 21.6 75.7Z" fill="url(#paint11_radial_550_41)"/>
<path d="M254.1 42.3C254.7 41.5 256.3 41.6 256.5 43C256.6 44.4 254.8 45 254.1 43.8C253.7 43.2 253.8 42.6 254.1 42.3Z" fill="url(#paint12_radial_550_41)"/>
<path d="M184.2 76.1C182.6 78.5 184.5 81.7 187.4 81.3C193.7 80.4 187.3 72 184.3 75.9C184.233 75.9667 184.2 76.0333 184.2 76.1Z" fill="url(#paint13_radial_550_41)"/>
<path d="M33.4 20.1C37.8 18.3 37.5 25.5 34 25.9C33.4 26 32.8 25.7 32.4 25.3C30.7 23.8 31.2 21 33.4 20.1Z" fill="url(#paint14_radial_550_41)"/>
<path d="M205.5 74C204.9 73.8 204.1 74.3 204.5 75.1C204.8 75.8 205.8 75.6 205.9 74.8C205.9 74.4 205.7 74.1 205.5 74Z" fill="url(#paint15_radial_550_41)"/>
<path d="M179 75C177.6 75.5 177.4 77.4 178.7 78.1C181.5 79.7 181.5 74.3 179.1 75C179.033 75 179 75 179 75Z" fill="url(#paint16_radial_550_41)"/>
<defs>
<linearGradient id="paint0_linear_550_41" x1="-16590.1" y1="3065.3" x2="-16022.8" y2="53439.5" gradientUnits="userSpaceOnUse">
<stop stop-color="#2AA7C9"/>
<stop offset="0.49" stop-color="#1D6A9E"/>
<stop offset="1" stop-color="#18BA68"/>
</linearGradient>
<radialGradient id="paint1_radial_550_41" cx="0" cy="0" r="1" gradientUnits="userSpaceOnUse" gradientTransform="translate(9550.18 17028.2) scale(113635 37829.9)">
<stop stop-color="#74F2EC"/>
<stop offset="1" stop-color="#1496C2"/>
</radialGradient>
<linearGradient id="paint2_linear_550_41" x1="8348.34" y1="14781.5" x2="26606.3" y2="31204.7" gradientUnits="userSpaceOnUse">
<stop stop-color="#59F0B9"/>
<stop offset="1"/>
</linearGradient>
<radialGradient id="paint3_radial_550_41" cx="0" cy="0" r="1" gradientUnits="userSpaceOnUse" gradientTransform="translate(1999.4 -570.483) rotate(-32.3914) scale(55.5737 61.6801)">
<stop stop-color="#91F2F2"/>
<stop offset="1" stop-color="#14A1C4"/>
</radialGradient>
<radialGradient id="paint4_radial_550_41" cx="0" cy="0" r="1" gradientUnits="userSpaceOnUse" gradientTransform="translate(1397.26 -423.639) rotate(-32.388) scale(23.9902 26.3755)">
<stop stop-color="#91F2F2"/>
<stop offset="1" stop-color="#14A1C4"/>
</radialGradient>
<radialGradient id="paint5_radial_550_41" cx="0" cy="0" r="1" gradientUnits="userSpaceOnUse" gradientTransform="translate(370.344 897.502) scale(67.6232 76.0951)">
<stop stop-color="#91F2F2"/>
<stop offset="1" stop-color="#14A1C4"/>
</radialGradient>
<radialGradient id="paint6_radial_550_41" cx="0" cy="0" r="1" gradientUnits="userSpaceOnUse" gradientTransform="translate(1007.43 -261.644) rotate(-32.3939) scale(13.9423 15.7751)">
<stop stop-color="#91F2F2"/>
<stop offset="1" stop-color="#14A1C4"/>
</radialGradient>
<radialGradient id="paint7_radial_550_41" cx="0" cy="0" r="1" gradientUnits="userSpaceOnUse" gradientTransform="translate(1163.76 -149.111) rotate(-37.7312) scale(14.238 15.3343)">
<stop stop-color="#91F2F2"/>
<stop offset="1" stop-color="#14A1C4"/>
</radialGradient>
<radialGradient id="paint8_radial_550_41" cx="0" cy="0" r="1" gradientUnits="userSpaceOnUse" gradientTransform="translate(132.304 345.054) scale(11.98 13.76)">
<stop stop-color="#91F2F2"/>
<stop offset="1" stop-color="#14A1C4"/>
</radialGradient>
<radialGradient id="paint9_radial_550_41" cx="0" cy="0" r="1" gradientUnits="userSpaceOnUse" gradientTransform="translate(303.032 394.706) scale(11.5065 11.3944)">
<stop stop-color="#91F2F2"/>
<stop offset="1" stop-color="#14A1C4"/>
</radialGradient>
<radialGradient id="paint10_radial_550_41" cx="0" cy="0" r="1" gradientUnits="userSpaceOnUse" gradientTransform="translate(126.489 147.478) rotate(11.4008) scale(5.0923 5.14832)">
<stop stop-color="#91F2F2"/>
<stop offset="1" stop-color="#14A1C4"/>
</radialGradient>
<radialGradient id="paint11_radial_550_41" cx="0" cy="0" r="1" gradientUnits="userSpaceOnUse" gradientTransform="translate(90.3274 274.243) scale(4.32685 4.31277)">
<stop stop-color="#91F2F2"/>
<stop offset="1" stop-color="#14A1C4"/>
</radialGradient>
<radialGradient id="paint12_radial_550_41" cx="0" cy="0" r="1" gradientUnits="userSpaceOnUse" gradientTransform="translate(784.619 247.061) rotate(5.33029) scale(5.39901 5.35482)">
<stop stop-color="#91F2F2"/>
<stop offset="1" stop-color="#14A1C4"/>
</radialGradient>
<radialGradient id="paint13_radial_550_41" cx="0" cy="0" r="1" gradientUnits="userSpaceOnUse" gradientTransform="translate(-997.194 176.746) rotate(146.69) scale(33.7728 33.7782)">
<stop stop-color="#91F2F2"/>
<stop offset="1" stop-color="#14A1C4"/>
</radialGradient>
<radialGradient id="paint14_radial_550_41" cx="0" cy="0" r="1" gradientUnits="userSpaceOnUse" gradientTransform="translate(199.922 312.451) rotate(11.4043) scale(24.512 28.3561)">
<stop stop-color="#91F2F2"/>
<stop offset="1" stop-color="#14A1C4"/>
</radialGradient>
<radialGradient id="paint15_radial_550_41" cx="0" cy="0" r="1" gradientUnits="userSpaceOnUse" gradientTransform="translate(-78.1264 110.783) rotate(146.706) scale(1.75502 1.82998)">
<stop stop-color="#91F2F2"/>
<stop offset="1" stop-color="#14A1C4"/>
</radialGradient>
<radialGradient id="paint16_radial_550_41" cx="0" cy="0" r="1" gradientUnits="userSpaceOnUse" gradientTransform="translate(-312.768 -251.497) rotate(-175.583) scale(8.04971 9.21249)">
<stop stop-color="#91F2F2"/>
<stop offset="1" stop-color="#14A1C4"/>
</radialGradient>
</defs>
</svg>
