<svg width="102" height="27" viewBox="0 0 102 27" fill="none" xmlns="http://www.w3.org/2000/svg">
<path d="M5.36299 1.52063C6.46202 0.541205 7.88277 0 9.35489 0L96 0C99.3137 0 102 2.68629 102 6V18.0102C102 19.7214 101.269 21.3511 99.9919 22.4896L96.6372 25.4793C95.5381 26.4588 94.1174 27 92.6452 27H6.09398C2.79522 27 0.115154 24.337 0.0940939 21.0383L0.0173192 9.01278C0.00630958 7.28829 0.73784 5.64246 2.0253 4.49511L5.36299 1.52063Z" fill="#A6ABAD"/>
<path d="M9.35449 0.5H96C99.0376 0.500004 101.5 2.96244 101.5 6V18.0098C101.5 19.5783 100.83 21.0726 99.6592 22.1162L96.3047 25.1064C95.2973 26.0042 93.9948 26.4999 92.6455 26.5H6.09375C3.07 26.4999 0.613076 24.0589 0.59375 21.0352L0.517578 9.00977C0.507486 7.42899 1.17823 5.9199 2.3584 4.86816L5.69531 1.89355C6.70266 0.995835 8.00519 0.500098 9.35449 0.5Z" stroke="white" stroke-opacity="0.4"/>
</svg>
