<svg width="183" height="181" viewBox="0 0 183 181" fill="none" xmlns="http://www.w3.org/2000/svg">
<path fill-rule="evenodd" clip-rule="evenodd" d="M171.381 134.086C147.818 177.608 92.9706 193.446 48.9063 169.489C4.70875 145.665 -11.9319 91.0971 11.6313 47.5755C35.3275 4.05395 90.175 -11.7842 134.239 12.0396C178.304 35.9964 194.944 90.5647 171.381 134.086ZM129.713 14.7014C89.6425 -6.99281 39.5875 7.91366 17.8881 47.9748C-3.81125 88.036 10.9656 138.079 51.0362 159.773C91.1069 181.468 141.295 166.694 162.994 126.633C184.694 86.5719 169.784 36.3957 129.713 14.7014Z" fill="url(#paint0_linear_572_42)"/>
<path d="M105.218 155.248C96.565 154.583 88.1781 153.119 80.0575 150.457C77.2619 153.784 74.3331 156.978 71.1381 159.906C81.1225 162.435 91.5062 163.5 101.624 162.835C102.822 160.306 104.02 157.777 105.218 155.248Z" fill="white"/>
<path d="M24.6775 60.8849C11.365 86.4388 14.9594 118.647 35.0612 139.41C39.8537 144.335 45.445 148.594 51.5688 151.921C55.8288 149.259 59.9556 146.331 64.0825 143.669C59.6894 141.14 55.2963 138.212 50.9031 134.619C41.185 126.766 34.2625 117.982 29.7363 106.27C24.8106 93.4928 22.2813 74.3273 24.9438 61.018C24.9438 61.018 24.8106 60.7518 24.6775 60.8849Z" fill="white"/>
<g style="mix-blend-mode:screen" opacity="0.4">
<path d="M127.983 22.2878C159.533 39.4568 171.781 77.7878 155.406 108.133C138.899 138.478 100.026 149.126 68.4756 132.09C36.925 114.921 24.6775 76.5899 41.185 46.2446C57.5594 15.8993 96.4319 5.2518 127.983 22.2878Z" fill="#B4F4FA"/>
</g>
<g style="mix-blend-mode:multiply" opacity="0.58">
<path d="M99.0944 23.3525C123.19 36.3957 131.311 68.205 117.199 94.2914C102.955 120.378 71.9369 130.892 47.8413 117.849C23.7456 104.806 15.625 72.9964 29.7362 46.9101C43.9806 20.8237 74.9987 10.3093 99.0944 23.3525Z" fill="#A6D5E8"/>
</g>
<path d="M151.546 57.8237C154.741 71.5324 150.081 84.4424 141.162 86.5719C132.109 88.5683 122.258 79.1187 118.93 65.4101C115.735 51.7014 120.394 38.7914 129.447 36.6619C138.366 34.6655 148.351 43.982 151.546 57.8237Z" fill="#B4F4FA"/>
<path d="M141.295 94.4245C145.954 96.9532 147.153 103.874 143.824 109.996C140.629 115.986 134.106 118.781 129.447 116.252C124.788 113.723 123.723 106.802 126.918 100.813C130.246 94.8237 136.636 91.8957 141.295 94.4245Z" fill="#B4F4FA"/>
<defs>
<linearGradient id="paint0_linear_572_42" x1="-31522.9" y1="789.518" x2="36113.2" y2="789.518" gradientUnits="userSpaceOnUse">
<stop stop-color="white"/>
<stop offset="0.245192" stop-color="#87E5FF"/>
</linearGradient>
</defs>
</svg>
