<svg width="83" height="86" viewBox="0 0 83 86" fill="none" xmlns="http://www.w3.org/2000/svg">
<path fill-rule="evenodd" clip-rule="evenodd" d="M82.5633 43.3966C82.5633 45.522 82.4513 47.6474 82.1526 49.7729C82.0033 50.8542 81.9286 52.122 81.5552 53.1288C81.2565 53.9491 80.6218 54.583 80.0617 55.2915C80.0244 55.3661 79.9497 55.4407 79.9497 55.5152C79.9123 55.6271 79.9497 55.739 79.9497 55.8508C80.4724 58.3118 79.0536 61.0339 78.0081 63.1593C76.8133 65.5457 75.4318 67.783 73.8263 69.8712C70.6153 74.0474 66.6575 77.6271 62.1396 80.2746C50.8263 86.9864 36.526 87.5085 24.802 81.7661C22.5244 81.7661 19.7614 77.8135 18.3799 76.4339C18.0438 76.0983 17.7451 75.7627 17.3344 75.5762C17.0357 75.4644 16.6997 75.3898 16.401 75.3152C12.9659 74.4949 10.3523 70.244 8.4854 67.4847C6.28247 64.2779 4.5276 60.7729 3.25812 57.1186C1.98864 53.5017 1.16721 49.6983 0.90585 45.8576C0.681824 42.539 0.27111 37.8034 1.91397 34.8203C2.13799 34.4101 2.36202 33.9627 2.51137 33.5152C2.92208 32.1356 2.54871 30.8305 3.0341 29.4135C3.50704 27.9717 4.06711 26.5672 4.71429 25.2C8.33604 17.444 14.2727 10.9932 21.5162 6.74235C23.6445 5.51184 25.7354 4.46777 28.237 4.6915C28.5731 4.6915 28.9091 4.76608 29.2078 4.65421C29.6558 4.54235 29.9545 4.20676 30.2906 3.90845C32.8296 1.5593 36.862 1.41015 40.1477 1.26099C43.6575 1.07455 47.2419 1.33557 50.6769 2.08133C57.5844 3.49828 64.1185 6.77964 69.2338 11.6644C77.7094 19.7186 82.414 31.5017 82.5633 43.3966ZM13.414 38.2135C11.3231 51.1152 18.3799 64.8746 30.1786 70.6915C33.8003 72.444 37.9075 73.4135 42.052 73.4135C46.9805 73.4135 51.7971 72.1085 55.9416 69.6474C56.5016 69.3118 57.0244 68.8644 57.5844 68.5661C58.1445 68.2678 58.9286 68.1932 59.5633 68.0441C59.9367 67.9695 60.3474 67.8576 60.7208 67.6712C61.0195 67.522 61.3182 67.261 61.5422 66.9627C62.1023 66.2542 62.2516 65.2847 62.6623 64.4644C63.0357 63.7559 63.5211 63.1593 64.0065 62.4881C65.164 60.9966 66.1721 59.3932 66.9935 57.7152C68.711 54.322 69.7938 50.5932 70.1299 46.7525C70.2046 46.2305 70.2046 45.6712 70.2419 45.1118C70.2917 44.5898 70.3041 44.0553 70.2792 43.5085C70.2419 38.9966 68.7857 34.8203 68.2256 30.383C68.151 29.6746 68.039 28.8915 67.5536 28.2949C66.8815 27.4373 65.5 27.1762 65.0519 26.1322C64.9026 25.8339 64.9026 25.4983 64.7906 25.2C64.5666 24.4915 63.5584 23.6712 63.1104 23.1118C62.3885 22.2418 61.6169 21.409 60.7955 20.6135C56.0162 16.0644 49.4075 13.5288 42.276 13.5288C37.086 13.5288 32.0455 14.8712 27.677 17.4068C24.6153 19.1966 21.8896 21.5457 19.6494 24.3051C17.5584 26.8779 16.4383 30.6068 13.974 32.8068C13.862 32.8813 13.75 32.9932 13.7127 33.1051C13.6753 33.2169 13.6753 33.3288 13.6753 33.4407C13.638 34.6339 13.6753 35.7898 13.5633 36.983C13.5384 37.4056 13.4886 37.8158 13.414 38.2135Z" fill="#4BC98A"/>
<path fill-rule="evenodd" clip-rule="evenodd" d="M82.5633 42.7627C82.5633 44.8881 82.4513 47.0135 82.1526 49.1017C82.0033 50.183 81.9286 51.4508 81.5552 52.4576C81.2565 53.2407 80.6218 53.8746 80.0617 54.583C80.0244 54.6576 79.9497 54.7322 79.9497 54.8068C79.9123 54.9186 79.9497 55.0305 79.9497 55.1423C80.4724 57.5661 79.0536 60.2881 78.0081 62.4135C76.8133 64.7627 75.4318 67 73.8263 69.0881C70.6153 73.2271 66.6575 76.7695 62.1396 79.4169C50.8263 86.0915 36.526 86.6135 24.802 80.8712C22.5244 80.8712 19.7614 76.9559 18.3799 75.5762C18.0438 75.2779 17.7451 74.9424 17.3344 74.7559C17.0357 74.6068 16.6997 74.5695 16.401 74.4949C12.9659 73.6746 10.3523 69.461 8.4854 66.7017C6.28247 63.4949 4.5276 60.0271 3.25812 56.3729C1.98864 52.7932 1.16721 49.0271 0.90585 45.2237C0.681824 41.9051 0.27111 37.2068 1.91397 34.2237C2.13799 33.8135 2.36202 33.4034 2.51137 32.9186C2.92208 31.539 2.54871 30.2712 3.0341 28.8542C3.50704 27.4373 4.06711 26.0327 4.71429 24.6407C8.33604 16.9593 14.2727 10.5457 21.5162 6.33218C23.6445 5.10167 25.7354 4.0576 28.237 4.28133C28.5731 4.28133 28.9091 4.35591 29.2078 4.24404C29.6558 4.13218 29.9545 3.79658 30.2906 3.49828C32.8296 1.18641 36.862 1.03726 40.1477 0.85082C43.6575 0.701668 47.2419 0.962684 50.6769 1.67116C57.5844 3.08811 64.1185 6.36947 69.2338 11.2169C77.7094 19.2339 82.414 30.9423 82.5633 42.7627ZM13.414 37.6169C11.3231 50.4068 18.3799 64.1288 30.1786 69.8712C33.8003 71.6237 37.9075 72.5932 42.052 72.5932C46.9805 72.5932 51.7971 71.2881 55.9416 68.8644C56.5016 68.5288 57.0244 68.0813 57.5844 67.783C58.1445 67.4847 58.9286 67.4101 59.5633 67.261C59.9367 67.1864 60.3474 67.0746 60.7208 66.8881C61.0195 66.739 61.3182 66.4779 61.5422 66.1796C62.1023 65.4712 62.2516 64.5017 62.6623 63.7186C63.0357 62.9729 63.5211 62.3762 64.0065 61.7423C65.164 60.2508 66.1721 58.6847 66.9935 57.0068C68.711 53.6135 69.7938 49.8847 70.1299 46.1186C70.2046 45.5593 70.2046 45.0373 70.2419 44.4779C70.2917 43.9559 70.3041 43.4214 70.2792 42.8746C70.2419 38.3627 68.7857 34.2237 68.2256 29.8237C68.151 29.1152 68.039 28.3322 67.5536 27.7729C66.8815 26.8779 65.5 26.6169 65.0519 25.6101C64.9026 25.3118 64.9026 24.9762 64.7906 24.6407C64.5666 23.9695 63.5584 23.1491 63.1104 22.5898C62.3885 21.7197 61.6169 20.8994 60.7955 20.1288C56.0162 15.5796 49.4075 13.0813 42.276 13.0813C37.086 13.0813 32.0455 14.3864 27.677 16.922C24.6153 18.7118 21.8896 21.061 19.6494 23.783C17.5584 26.3559 16.4383 30.0474 13.974 32.2101C13.862 32.322 13.75 32.3966 13.7127 32.5457C13.6753 32.6203 13.6753 32.7322 13.6753 32.844C13.638 34.0373 13.6753 35.2305 13.5633 36.3864C13.5384 36.7842 13.4886 37.1943 13.414 37.6169Z" fill="url(#paint0_linear_739_49)"/>
<path d="M74.1997 45.7084C73.901 52.5322 72.7062 59.5423 69.0471 65.322C65.276 71.2508 59.0779 75.3898 52.3198 77.3288C45.5617 79.2305 38.3182 79.0068 31.5227 77.3288C28.7597 76.6203 25.9967 75.7254 23.5698 74.2339C19.0519 71.4373 14.8701 66.4779 12.3685 61.8542C11.211 59.6915 11.9578 57.939 11.5097 55.739C10.987 52.8678 9.56817 50.2949 9.23213 47.3118C8.85876 44.0678 9.08278 40.7118 9.97889 37.5423C10.1282 36.9457 10.4269 36.2745 11.0243 36.1254C11.5844 35.9762 12.1445 36.3491 12.5925 36.7593C12.8912 37.0327 13.165 37.3186 13.4139 37.6169C11.323 50.4068 18.3799 64.1288 30.1786 69.8712C33.8003 71.6237 37.9075 72.5932 42.0519 72.5932C46.9805 72.5932 51.7971 71.2881 55.9416 68.8644C56.651 68.4169 57.3977 67.6712 58.0698 67.2983C58.7419 66.9627 59.3766 67.0745 60.086 66.8135C61.2808 66.3661 62.3263 63.7932 63.1477 62.7864C64.5666 61.1084 65.7614 59.3186 66.7695 57.4169C68.8977 53.4271 70.0552 48.9898 70.2419 44.4779C71.1753 43.0983 71.9967 41.6068 72.7062 40.0779C74.1997 41.4203 74.2743 43.6949 74.1997 45.7084Z" fill="url(#paint1_linear_739_49)"/>
<path fill-rule="evenodd" clip-rule="evenodd" d="M79.987 47.1254C79.763 48.7661 79.3896 50.4068 78.7176 51.9729C78.5682 52.3458 78.4189 52.7187 78.0828 52.9797C77.8215 53.1661 77.4854 53.278 77.1867 53.3526C75.4692 53.8746 73.789 54.2848 72.0715 54.6576C74.0628 54.6079 76.0666 54.5706 78.0828 54.5458C78.1575 54.5458 78.2322 54.5458 78.3068 54.5831C78.4562 54.6949 78.3815 54.9187 78.3068 55.0305C77.2987 57.0814 76.888 59.1695 75.9172 61.1831C74.7971 63.3831 73.4903 65.4712 71.9968 67.4102C71.0509 68.678 70.0179 69.8836 68.8978 71.0271C66.5455 73.4136 63.8945 75.5017 60.9822 77.1797C56.8004 79.678 52.0958 81.2814 47.2046 81.9153C45.5617 82.139 43.8442 82.2509 42.1267 82.2509C36.526 82.2509 30.9254 80.9831 25.9594 78.5593C24.8767 78.0373 23.4205 77.5153 22.5617 76.6949C21.7776 75.9865 22.0763 74.9797 21.2176 74.2712C20.9189 74.0102 20.5455 73.8237 20.2094 73.6746C18.9649 73.1028 17.7327 72.5435 16.513 71.9966C16.401 71.9593 16.289 71.922 16.2143 71.8475C16.065 71.6983 16.065 71.4373 15.9903 71.2136C15.7289 70.3932 15.0195 70.3559 14.4221 69.9458C13.8994 69.5729 13.526 69.0509 13.1153 68.5661C13.0406 68.4915 12.9784 68.417 12.9286 68.3424C11.9205 67.1492 10.987 65.9187 10.1283 64.6136C10.0536 64.4644 9.94159 64.3153 9.82958 64.1661C7.96269 61.2203 6.46919 58.0881 5.34906 54.8068C4.0049 50.7051 3.29549 46.417 3.33282 42.1288V41.0102C3.33282 39.2576 3.37016 37.3932 3.81821 35.7526C4.3036 33.8881 5.79711 32.5085 5.90912 30.4204C5.94646 29.6373 5.87178 28.7797 6.2825 28.1458C6.43185 27.9593 6.61854 27.7729 6.76789 27.5865C7.21594 26.8407 6.99191 25.7966 7.29062 24.9763C7.55198 24.1187 8.18672 23.261 8.63477 22.478C9.4562 21.1107 10.3523 19.7808 11.3231 18.4881C11.7462 17.9413 12.1694 17.4192 12.5926 16.922C15.5049 13.4915 18.9773 10.5831 22.8231 8.34577C24.0552 7.6373 25.3247 6.96611 26.6315 6.40679C27.1543 6.18306 27.4903 5.92204 28.0504 5.88475C28.7224 5.84747 29.3572 6.3695 30.0666 6.07119C30.776 5.77289 31.112 4.95255 31.8215 4.57967C32.7176 4.09492 34.0617 4.02035 35.0698 3.83391C37.4968 3.38645 39.9237 3.16272 42.3507 3.16272C46.2711 3.16272 50.0796 3.72204 53.664 4.8034C58.9286 6.40679 63.6705 9.16611 67.6283 12.8949C75.5065 20.3153 80.0617 31.1661 80.1737 42.6509C80.2111 44.1797 80.1737 45.6339 79.987 47.1254ZM72.8182 42.7254C72.7809 40.1153 72.4822 37.4678 71.8848 34.9322C71.5861 33.7017 71.2874 32.3966 70.802 31.2034C70.5406 30.5695 69.8312 29.7119 70.1299 29.0034C70.2046 28.8915 70.2793 28.7424 70.2419 28.5932C70.2419 28.4814 70.1299 28.4068 70.0552 28.2949C69.4952 27.5492 70.1672 26.3559 69.6818 25.5356C69.4205 25.1254 68.9351 24.9017 68.5244 24.678C66.0974 23.3356 64.6039 20.1288 62.5877 18.2271C60.5341 16.2881 58.1818 14.6848 55.6429 13.4542C51.6478 11.5153 47.0926 10.5085 42.3507 10.5085C36.75 10.5085 31.2614 11.9627 26.5195 14.6848C23.9805 16.1763 22.039 17.1458 19.052 17.5559C17.5211 17.7797 15.953 17.9661 14.4221 18.078C16.737 17.9288 19.052 17.9661 21.3669 18.2644C20.1348 18.2644 17.7825 21.8441 17.1104 22.7017C16.4383 23.5593 15.8036 24.4542 15.2435 25.3865C14.6088 26.4305 14.1234 27.5119 13.75 28.6678C13.7127 28.817 13.638 28.9661 13.5633 29.078C13.414 29.2271 13.1526 29.3017 12.9659 29.3763C12.0698 29.7119 11.3231 30.7187 11.7338 31.6136C11.8085 31.8373 11.9578 32.061 12.0325 32.2848C12.1445 32.6204 12.0698 32.9559 11.9952 33.2915C11.8085 34.1492 11.5098 34.9322 11.3231 35.7898C10.9248 37.7537 10.7132 39.7175 10.6883 41.6814C10.6137 49.1017 13.19 56.4848 17.7078 62.4136C18.7533 63.8305 19.9107 65.0983 21.1429 66.2915C23.4952 68.5661 26.2208 70.5051 29.1705 71.9593C33.1283 73.8983 37.6088 74.9051 42.1267 74.9051C42.5 74.9051 42.8734 74.8927 43.2468 74.8678C48.25 74.7187 53.0666 73.339 57.2857 70.878C59.414 69.5729 61.0942 67.8576 63.4465 66.9254C63.5709 66.8757 63.6954 66.8384 63.8198 66.8136C64.9026 66.3661 66.0228 65.9187 67.1055 65.4712C66.0228 65.6949 64.94 65.9187 63.8572 66.1424C63.7825 66.1672 63.6954 66.1921 63.5958 66.217C63.8945 65.3593 64.94 64.6509 65.4627 63.9424C65.9356 63.3209 66.3837 62.687 66.8069 62.0407C66.9313 61.8915 67.0433 61.7424 67.1429 61.5932C68.375 59.7661 69.4578 57.8271 70.3166 55.7763C71.7354 52.3458 72.5569 48.6542 72.7809 44.9254C72.8058 44.1797 72.8182 43.4463 72.8182 42.7254Z" fill="url(#paint2_linear_739_49)"/>
<path d="M12.5179 59.1695C13.7874 59.6915 13.8994 61.4813 12.5926 62.0779C9.82959 63.383 10.203 58.3491 12.4432 59.1322C12.4681 59.157 12.493 59.1695 12.5179 59.1695Z" fill="url(#paint3_radial_739_49)"/>
<path d="M76.2533 34.3356C78.1202 35.1187 78.2695 37.8034 76.3653 38.6983C72.1462 40.6746 72.7062 33.0678 76.1039 34.261C76.1537 34.2859 76.2035 34.3107 76.2533 34.3356Z" fill="url(#paint4_radial_739_49)"/>
<path d="M24.6526 10.9186C25.7727 11.4034 25.8847 12.9695 24.7272 13.5288C22.2256 14.6847 22.5617 10.1356 24.5779 10.8813C24.6028 10.8813 24.6277 10.8938 24.6526 10.9186Z" fill="url(#paint5_radial_739_49)"/>
<path d="M63.1104 70.5796C64.1559 71.0271 64.2679 72.5186 63.1851 73.0034C60.8702 74.122 61.1689 69.8712 63.0358 70.5423C63.0606 70.5423 63.0855 70.5548 63.1104 70.5796Z" fill="url(#paint6_radial_739_49)"/>
<path d="M75.3571 29.1525C76.0292 29.4135 76.0666 30.383 75.3945 30.7186C73.8636 31.4271 74.0877 28.6678 75.2825 29.1152C75.3074 29.1152 75.3322 29.1277 75.3571 29.1525Z" fill="url(#paint7_radial_739_49)"/>
<path d="M27.2289 9.1661C27.6769 9.35254 27.7143 9.98644 27.2662 10.2102C26.2581 10.6576 26.4075 8.86779 27.1916 9.12881C27.2164 9.12881 27.2289 9.14124 27.2289 9.1661Z" fill="url(#paint8_radial_739_49)"/>
<path d="M6.95454 47.1627C7.70129 47.461 7.73863 48.5051 6.99188 48.8407C5.38636 49.6237 5.61038 46.6779 6.9172 47.1254C6.9172 47.1503 6.92965 47.1627 6.95454 47.1627Z" fill="url(#paint9_radial_739_49)"/>
<path d="M79.987 47.1254C80.0243 45.4475 80.0617 43.6949 80.0617 41.9797C80.0243 39.9661 79.3896 37.9898 78.9042 36.0136C78.3068 33.6644 77.8961 31.3525 77.0746 29.0407C76.2906 26.9898 75.4691 24.8644 74.6104 22.8508C73.1542 19.3458 70.2045 16.5864 67.7776 13.7525C63.4464 8.79322 57.0617 6.77966 50.9383 4.87797C45.935 3.34916 41.3425 3.75932 36.3019 4.28136C34.8831 4.43051 32.7922 4.28136 31.6347 5.25085C31.0373 5.77289 31.0373 6.40678 30.2159 6.63051C29.6932 6.77966 29.0584 6.59322 28.5357 6.55594C25.9594 6.55594 23.5698 8.49492 21.6282 9.91187C19.2013 11.739 16.961 13.7898 14.7581 15.8407C13.2272 17.2576 11.8831 18.8237 10.8003 20.6136C10.2776 21.3966 9.90419 22.2915 9.30679 23C8.67205 23.7831 7.85062 24.3797 7.73861 25.461C7.70127 26.2068 7.99997 27.0271 7.70127 27.7356C7.58926 27.9593 7.40257 28.1458 7.29056 28.3695C6.87984 29.0407 6.8425 29.8237 6.73049 30.6068C6.43179 32.5085 5.46101 33.7763 4.71426 35.4915C4.00484 37.0576 3.59413 39.0339 3.3701 40.7492C3.34521 40.8486 3.33276 40.9356 3.33276 41.0102C3.33276 39.2576 3.3701 37.3932 3.81815 35.7525C4.30354 33.8881 5.79705 32.4712 5.90906 30.4203C5.9464 29.6373 5.83439 28.7797 6.28244 28.1458C6.43179 27.9593 6.61848 27.7729 6.76783 27.5864C7.21588 26.8407 6.99186 25.7966 7.29056 24.9763C7.55192 24.1186 8.18666 23.261 8.63471 22.478C9.80463 20.5141 11.1239 18.6621 12.5925 16.922C15.5048 13.4915 18.9772 10.5831 22.823 8.34577C24.0552 7.63729 25.3246 6.9661 26.6315 6.40678C27.1542 6.18305 27.4902 5.92204 28.0503 5.88475C28.7224 5.84746 29.3571 6.36949 30.0665 6.07119C30.7759 5.77288 31.112 4.95255 31.8214 4.57966C32.7175 4.09492 34.0617 4.02034 35.0698 3.8339C37.4967 3.38644 39.9237 3.12543 42.3506 3.12543C52.0211 3.12543 60.9821 6.59322 67.6282 12.8949C75.5065 20.3153 80.0617 31.1661 80.1737 42.6509C80.211 44.1797 80.1737 45.6712 79.987 47.1254Z" fill="#B4F4FA"/>
<path d="M63.4464 66.9254C63.5708 66.8757 63.6953 66.8384 63.8197 66.8135C61.6915 67.8576 60.2353 70.2813 58.1444 71.5118C56.0909 72.7051 53.6266 73.4135 51.4236 74.2712C48.81 75.3525 46.4204 75.7627 43.6201 75.5017C41.2305 75.2779 38.8782 75.3152 36.4886 74.9051C34.659 74.6068 32.4188 74.5322 30.6639 73.7864C29.1331 73.0779 27.9383 71.9966 26.5941 71.0271C25.6607 70.3932 24.6152 69.9085 23.6818 69.2373C21.7402 67.7457 20.1347 66.0305 18.3798 64.3898C18.3425 64.7627 18.3051 65.1729 18.1184 65.5085C17.5957 64.5762 17.7824 63.4576 17.1477 62.5627C16.737 61.9661 16.1769 61.5932 15.8035 60.9966C15.4301 60.3627 15.0941 59.6542 14.7581 58.983C13.0405 55.5525 11.8457 52.122 11.099 48.3559C10.7256 46.6034 9.90417 43.3593 10.6883 41.6813C10.5762 54.0983 17.8571 66.4034 29.1704 71.9593C33.1282 73.8983 37.6087 74.9051 42.1266 74.9051C47.5032 74.9051 52.7305 73.4881 57.2483 70.8407C59.4512 69.5729 61.0941 67.8576 63.4464 66.9254Z" fill="#B4F4FA"/>
<path d="M71.9221 53.3525C71.0634 56.783 69.3458 59.6915 67.1056 62.3763C66.2095 63.4576 65.3134 64.5017 64.4173 65.5458C64.2679 65.7695 64.0439 65.9559 63.8572 66.1424C63.7825 66.1672 63.6954 66.1921 63.5958 66.2169C63.8945 65.3593 64.9026 64.6508 65.4627 63.9051C66.0352 63.1593 66.5953 62.3887 67.1429 61.5932C68.375 59.7661 69.4578 57.8271 70.3166 55.7763C71.7354 52.3458 72.5569 48.6542 72.7809 44.9254C72.8556 45.5717 72.9053 46.2181 72.9302 46.8644C73.0049 49.1017 72.4449 51.2271 71.9221 53.3525Z" fill="#B4F4FA"/>
<g clip-path="url(#paint10_diamond_739_49_clip_path)" data-figma-skip-parse="true"><g transform="matrix(9.80746 5.91157 -7.37125 12.187 16306.6 15334.8)"><rect x="0" y="0" width="1910.47" height="333.466" fill="url(#paint10_diamond_739_49)" opacity="1" shape-rendering="crispEdges"/><rect x="0" y="0" width="1910.47" height="333.466" transform="scale(1 -1)" fill="url(#paint10_diamond_739_49)" opacity="1" shape-rendering="crispEdges"/><rect x="0" y="0" width="1910.47" height="333.466" transform="scale(-1 1)" fill="url(#paint10_diamond_739_49)" opacity="1" shape-rendering="crispEdges"/><rect x="0" y="0" width="1910.47" height="333.466" transform="scale(-1)" fill="url(#paint10_diamond_739_49)" opacity="1" shape-rendering="crispEdges"/></g></g><path fill-rule="evenodd" clip-rule="evenodd" d="M56.9344 14.198C52.974 12.2766 48.4584 11.279 43.7578 11.279C38.2058 11.279 32.7649 12.72 28.0643 15.4173C25.5474 16.8953 23.6227 17.8559 20.6617 18.2624C19.1442 18.4841 17.5896 18.6688 16.0721 18.7797C18.3669 18.6319 20.6617 18.6688 22.9565 18.9644C21.7351 18.9644 19.4032 22.5115 18.737 23.3614C18.0708 24.2112 17.4416 25.098 16.8864 26.0217L13 19.1861C13.4195 18.6442 13.839 18.1269 14.2584 17.6342C17.1455 14.2349 20.5877 11.3529 24.4 9.13593C25.6214 8.4339 26.8799 7.76881 28.1753 7.21458C28.6935 6.99288 29.0266 6.73424 29.5818 6.69729C30.2481 6.66034 30.8773 7.17763 31.5805 6.88203C32.2838 6.58644 32.6169 5.77356 33.3201 5.40407C34.2084 4.92373 35.5409 4.84983 36.5403 4.66508C38.9461 4.22169 41.3519 4 43.7578 4C47.6442 4 51.4195 4.55424 54.9727 5.62576L56.9344 14.198ZM70.037 71.2475C67.7422 73.6122 65.0773 75.6814 62.2273 77.3441C58.0818 79.8197 53.4182 81.3715 48.5695 82.0366L44.6461 75.0532C49.5688 74.9054 54.3435 73.5383 58.526 71.0627C60.6727 69.8064 62.3383 68.1068 64.6701 67.183C64.7935 67.1338 64.9045 67.0845 65.0032 67.0352C66.1136 66.6288 67.187 66.1854 68.2974 65.742C67.224 65.9637 66.1506 66.1854 65.0773 66.4071C65.0032 66.4317 64.9169 66.4441 64.8182 66.4441C65.1143 65.6312 66.1136 64.9291 66.6688 64.1902C67.113 63.599 67.5571 62.9832 68.0013 62.3427L70.037 71.2475Z" data-figma-gradient-fill="{&#34;type&#34;:&#34;GRADIENT_DIAMOND&#34;,&#34;stops&#34;:[{&#34;color&#34;:{&#34;r&#34;:0.12201814353466034,&#34;g&#34;:0.86989182233810425,&#34;b&#34;:0.27159273624420166,&#34;a&#34;:1.0},&#34;position&#34;:1.0},{&#34;color&#34;:{&#34;r&#34;:0.031698513776063919,&#34;g&#34;:0.91832554340362549,&#34;b&#34;:0.031698513776063919,&#34;a&#34;:1.0},&#34;position&#34;:1.0}],&#34;stopsVar&#34;:[{&#34;color&#34;:{&#34;r&#34;:0.12201814353466034,&#34;g&#34;:0.86989182233810425,&#34;b&#34;:0.27159273624420166,&#34;a&#34;:1.0},&#34;position&#34;:1.0},{&#34;color&#34;:{&#34;r&#34;:0.031698513776063919,&#34;g&#34;:0.91832554340362549,&#34;b&#34;:0.031698513776063919,&#34;a&#34;:1.0},&#34;position&#34;:1.0}],&#34;transform&#34;:{&#34;m00&#34;:19614.91406250,&#34;m01&#34;:-14742.50488281250,&#34;m02&#34;:13870.39160156250,&#34;m10&#34;:11823.13769531250,&#34;m11&#34;:24373.9531250,&#34;m12&#34;:-2763.7829589843750},&#34;opacity&#34;:1.0,&#34;blendMode&#34;:&#34;COLOR&#34;,&#34;visible&#34;:true}" style="mix-blend-mode:color"/>
<defs>
<clipPath id="paint10_diamond_739_49_clip_path"><path fill-rule="evenodd" clip-rule="evenodd" d="M56.9344 14.198C52.974 12.2766 48.4584 11.279 43.7578 11.279C38.2058 11.279 32.7649 12.72 28.0643 15.4173C25.5474 16.8953 23.6227 17.8559 20.6617 18.2624C19.1442 18.4841 17.5896 18.6688 16.0721 18.7797C18.3669 18.6319 20.6617 18.6688 22.9565 18.9644C21.7351 18.9644 19.4032 22.5115 18.737 23.3614C18.0708 24.2112 17.4416 25.098 16.8864 26.0217L13 19.1861C13.4195 18.6442 13.839 18.1269 14.2584 17.6342C17.1455 14.2349 20.5877 11.3529 24.4 9.13593C25.6214 8.4339 26.8799 7.76881 28.1753 7.21458C28.6935 6.99288 29.0266 6.73424 29.5818 6.69729C30.2481 6.66034 30.8773 7.17763 31.5805 6.88203C32.2838 6.58644 32.6169 5.77356 33.3201 5.40407C34.2084 4.92373 35.5409 4.84983 36.5403 4.66508C38.9461 4.22169 41.3519 4 43.7578 4C47.6442 4 51.4195 4.55424 54.9727 5.62576L56.9344 14.198ZM70.037 71.2475C67.7422 73.6122 65.0773 75.6814 62.2273 77.3441C58.0818 79.8197 53.4182 81.3715 48.5695 82.0366L44.6461 75.0532C49.5688 74.9054 54.3435 73.5383 58.526 71.0627C60.6727 69.8064 62.3383 68.1068 64.6701 67.183C64.7935 67.1338 64.9045 67.0845 65.0032 67.0352C66.1136 66.6288 67.187 66.1854 68.2974 65.742C67.224 65.9637 66.1506 66.1854 65.0773 66.4071C65.0032 66.4317 64.9169 66.4441 64.8182 66.4441C65.1143 65.6312 66.1136 64.9291 66.6688 64.1902C67.113 63.599 67.5571 62.9832 68.0013 62.3427L70.037 71.2475Z" style="mix-blend-mode:color"/></clipPath><linearGradient id="paint0_linear_739_49" x1="-2915.44" y1="4455.37" x2="-2915.44" y2="27741.8" gradientUnits="userSpaceOnUse">
<stop stop-color="#40B8E3"/>
<stop offset="0.64" stop-color="#304891"/>
<stop offset="1" stop-color="#15AD8C"/>
</linearGradient>
<linearGradient id="paint1_linear_739_49" x1="16601" y1="-5550.56" x2="16601" y2="-20843.5" gradientUnits="userSpaceOnUse">
<stop stop-color="#2696C9"/>
<stop offset="0.99" stop-color="#213980"/>
</linearGradient>
<linearGradient id="paint2_linear_739_49" x1="-4793.45" y1="6928.3" x2="-4967.67" y2="35937" gradientUnits="userSpaceOnUse">
<stop stop-color="#4EBDE6"/>
<stop offset="1" stop-color="#085A8A"/>
</linearGradient>
<radialGradient id="paint3_radial_739_49" cx="0" cy="0" r="1" gradientUnits="userSpaceOnUse" gradientTransform="translate(183.694 524.578) scale(19.3172 21.7595)">
<stop stop-color="#62CEF5"/>
<stop offset="1" stop-color="#237FCF"/>
</radialGradient>
<radialGradient id="paint4_radial_739_49" cx="0" cy="0" r="1" gradientUnits="userSpaceOnUse" gradientTransform="translate(965.315 482.689) scale(43.7927 49.2991)">
<stop stop-color="#62CEF5"/>
<stop offset="1" stop-color="#237FCF"/>
</radialGradient>
<radialGradient id="paint5_radial_739_49" cx="0" cy="0" r="1" gradientUnits="userSpaceOnUse" gradientTransform="translate(252.542 138.422) scale(15.5785 17.577)">
<stop stop-color="#62CEF5"/>
<stop offset="1" stop-color="#237FCF"/>
</radialGradient>
<radialGradient id="paint6_radial_739_49" cx="0" cy="0" r="1" gradientUnits="userSpaceOnUse" gradientTransform="translate(491.475 523.676) scale(13.4812 15.2538)">
<stop stop-color="#62CEF5"/>
<stop offset="1" stop-color="#237FCF"/>
</radialGradient>
<radialGradient id="paint7_radial_739_49" cx="0" cy="0" r="1" gradientUnits="userSpaceOnUse" gradientTransform="translate(398.647 172.104) scale(5.66914 6.41362)">
<stop stop-color="#62CEF5"/>
<stop offset="1" stop-color="#237FCF"/>
</radialGradient>
<radialGradient id="paint8_radial_739_49" cx="0" cy="0" r="1" gradientUnits="userSpaceOnUse" gradientTransform="translate(126.962 56.0355) scale(2.47255 2.83831)">
<stop stop-color="#62CEF5"/>
<stop offset="1" stop-color="#237FCF"/>
</radialGradient>
<radialGradient id="paint9_radial_739_49" cx="0" cy="0" r="1" gradientUnits="userSpaceOnUse" gradientTransform="translate(87.7234 270.745) scale(6.50547 7.37322)">
<stop stop-color="#62CEF5"/>
<stop offset="1" stop-color="#237FCF"/>
</radialGradient>
<linearGradient id="paint10_diamond_739_49" x1="0" y1="0" x2="500" y2="500" gradientUnits="userSpaceOnUse">
<stop offset="1" stop-color="#1FDE45"/>
<stop offset="1" stop-color="#08EA08"/>
</linearGradient>
</defs>
</svg>
