<svg width="82" height="77" viewBox="0 0 82 77" fill="none" xmlns="http://www.w3.org/2000/svg">
<path d="M81.1685 38.7913C81.1685 18.1522 65.1309 1.42972 45.3477 1.42972C44.3943 1.42972 34.8262 1.56595 34.8262 1.56595V3.0645C20.1506 7.73044 9.49286 21.9667 9.49286 38.7913C9.49286 55.7522 20.3549 70.0906 35.2348 74.6203L35.2688 76.0507C35.2688 76.0507 46.7778 76.1189 47.4929 76.0507H47.561C66.3226 74.8587 81.1685 58.6471 81.1685 38.7913Z" fill="#F1B81A"/>
<path fill-rule="evenodd" clip-rule="evenodd" d="M43.9176 76.7319C40.4104 76.7319 35.5753 76.6978 35.2688 76.6978C34.8943 76.6978 34.6219 76.4254 34.6219 76.0848V75.0971C27.3692 72.7812 20.8997 68.0471 16.2688 61.7464C11.4337 55.1051 8.84589 47.1355 8.84589 38.7913C8.84589 30.4812 11.3656 22.6138 16.1326 16.0065C20.6613 9.7058 27.0627 4.97174 34.1792 2.58768V1.56594C34.1792 1.22536 34.4516 0.952898 34.7921 0.952898C35.2007 0.91884 44.3943 0.782608 45.3477 0.782608C65.4373 0.782608 81.8154 17.8116 81.8154 38.7913C81.8154 58.7833 66.7993 75.4377 47.6631 76.6978C47.6177 76.6978 47.5836 76.6978 47.5609 76.6978H47.5269C47.2204 76.6978 45.7563 76.7319 43.9176 76.7319ZM35.8817 75.4377C39.4229 75.4377 46.914 75.4717 47.4588 75.4377C47.4588 75.4377 47.4701 75.4377 47.4928 75.4377C47.4928 75.4377 47.5042 75.4377 47.5269 75.4377C66.0502 74.2457 80.5556 58.1362 80.5556 38.7913C80.5556 18.5268 64.7563 2.04275 45.3477 2.04275C44.5645 2.04275 37.5842 2.14493 35.4391 2.17898V3.03043C35.4391 3.33696 35.2688 3.57536 34.9964 3.64348C27.948 5.8913 21.6147 10.5572 17.1541 16.7217C12.5574 23.1246 10.1057 30.7536 10.1057 38.7913C10.1057 46.8971 12.5914 54.5601 17.2903 60.9971C21.8531 67.2297 28.2885 71.8616 35.4391 74.0413C35.7115 74.1094 35.8817 74.3478 35.8817 74.6203V75.4377Z" fill="#C0892A"/>
<path d="M24.2706 8.54782C23.635 9.02463 23.0107 9.52415 22.3978 10.0464H68.2634C67.6505 9.52415 67.0263 9.02463 66.3907 8.54782H24.2706Z" fill="#BD8034"/>
<path d="M17.9713 14.6442H72.69C72.2587 14.122 71.8273 13.6111 71.396 13.1116H19.2993C18.8453 13.6111 18.4026 14.122 17.9713 14.6442Z" fill="#BD8034"/>
<path d="M12.4893 23.7717H78.1721C77.945 23.2722 77.718 22.7727 77.491 22.2732H13.1703C12.9433 22.7727 12.7163 23.2722 12.4893 23.7717Z" fill="#BD8034"/>
<path d="M9.52686 37.4971H81.1684C81.1457 36.9976 81.1117 36.4981 81.0663 35.9986H9.59496C9.54956 36.4981 9.52686 36.9976 9.52686 37.4971Z" fill="#BD8034"/>
<path d="M58.3889 3.98405H32.3065C31.1942 4.41546 30.1046 4.91497 29.0377 5.48261H61.6237C60.5795 4.91497 59.5012 4.41546 58.3889 3.98405Z" fill="#BD8034"/>
<path d="M14.8047 19.208H75.8567C75.5616 18.6858 75.2551 18.1749 74.9373 17.6754H15.7581C15.4176 18.1749 15.0998 18.6858 14.8047 19.208Z" fill="#BD8034"/>
<path d="M10.9229 28.3355H79.7724C79.6135 27.836 79.4546 27.3365 79.2957 26.837H11.3656C11.2067 27.3365 11.0591 27.836 10.9229 28.3355Z" fill="#BD8034"/>
<path d="M10.276 46.6587H80.3853C80.4761 46.1365 80.5669 45.6256 80.6577 45.1261H10.0036C10.0944 45.6483 10.1852 46.1592 10.276 46.6587Z" fill="#BD8034"/>
<path d="M9.62901 42.0609H81.0322C81.0776 41.5613 81.1117 41.0618 81.1344 40.5623H9.52686C9.54956 41.0618 9.58361 41.5613 9.62901 42.0609Z" fill="#BD8034"/>
<path d="M11.5358 51.2225H79.1255C79.3071 50.7229 79.466 50.2121 79.6021 49.6898H11.0591C11.1953 50.2121 11.3542 50.7229 11.5358 51.2225Z" fill="#BD8034"/>
<path d="M16.0645 60.35H74.5967C74.9373 59.8732 75.2551 59.3737 75.5502 58.8515H15.1111C15.4289 59.3737 15.7467 59.8732 16.0645 60.35Z" fill="#BD8034"/>
<path d="M24.9516 69.5116H65.7097C66.3907 69.0348 67.049 68.5239 67.6846 67.979H23.0107C23.6463 68.5239 24.2933 69.0348 24.9516 69.5116Z" fill="#BD8034"/>
<path d="M9.93549 32.9333H80.7258C80.6577 32.4111 80.5783 31.9002 80.4875 31.4007H10.1738C10.083 31.9002 10.0036 32.4111 9.93549 32.9333Z" fill="#BD8034"/>
<path d="M13.4086 55.7862H77.2527C77.5024 55.2867 77.7407 54.7872 77.9677 54.2877H12.7276C12.9319 54.7872 13.1589 55.2867 13.4086 55.7862Z" fill="#BD8034"/>
<path d="M19.742 64.9478H70.9194C71.3734 64.4483 71.8274 63.9374 72.2814 63.4152H18.414C18.8453 63.9374 19.288 64.4483 19.742 64.9478Z" fill="#BD8034"/>
<path d="M33.6004 74.0754H57.0609C58.2867 73.644 59.4785 73.1444 60.6362 72.5768H30.0251C31.1828 73.1444 32.3745 73.644 33.6004 74.0754Z" fill="#BD8034"/>
<path fill-rule="evenodd" clip-rule="evenodd" d="M37.2778 76.1529C17.4606 76.1529 1.45697 59.4304 1.45697 38.7913C1.45697 18.1181 17.4606 1.42972 37.2778 1.42972C57.095 1.42972 73.1326 18.1181 73.1326 38.7913C73.1326 59.4304 57.095 76.1529 37.2778 76.1529Z" fill="#F1B81A"/>
<path fill-rule="evenodd" clip-rule="evenodd" d="M37.2778 76.7659C17.1201 76.7659 0.810059 59.771 0.810059 38.7913C0.810059 17.7775 17.1201 0.782608 37.2778 0.782608C57.4696 0.782608 73.7455 17.7775 73.7455 38.7913C73.7455 59.771 57.4696 76.7659 37.2778 76.7659ZM72.4857 38.7913C72.4857 18.4587 56.7545 2.04275 37.2778 2.04275C17.8011 2.04275 2.06992 18.4587 2.06992 38.7913C2.06992 59.0899 17.8011 75.5058 37.2778 75.5058C56.7545 75.5058 72.4857 59.0899 72.4857 38.7913Z" fill="#C0892A"/>
<path d="M47.629 4.83551L3.94263 43.7297C4.24908 45.9435 4.79388 48.0551 5.47488 50.0986L53.4175 7.42392C51.5788 6.36812 49.638 5.51667 47.629 4.83551Z" fill="#FFF8A3"/>
<path d="M66.1864 20.1616L15.5538 65.2543C19.8781 69.0348 25.1219 71.7254 30.9104 72.8833L71.0215 37.1565C70.8172 30.958 69.0807 25.1341 66.1864 20.1616Z" fill="#FFF8A3"/>
</svg>
