<svg width="46" height="44" viewBox="0 0 46 44" fill="none" xmlns="http://www.w3.org/2000/svg">
<path d="M35.225 27.4C35.075 27.5463 35.825 29.9597 35.9 30.1791C36.05 30.8373 36.275 31.5686 36.35 32.2269C36.5 33.0313 37.4 35.006 36.275 35.4448C36.575 35.6642 37.175 36.103 37.25 36.3955C37.625 37.3463 37.625 38.5895 37.775 39.6134C37.925 40.4179 38.45 42.8313 37.625 43.4164C36.05 44.5134 23.15 35.1522 23.15 35.1522C22.4 35.6885 21.625 36.2492 20.825 36.8343C20.15 37.2731 19.55 37.7851 18.8 37.8582C17.975 37.9313 18.275 37.7119 17.825 38.297C16.625 40.0522 14.3 41.1492 12.5 42.1C11.825 42.4657 9.5 44.0015 8.675 43.4164C7.1 42.3194 11.075 27.4 11.075 27.4C11.075 27.4 0.0500039 18.9164 0.650004 16.7955C1.325 14.6746 15.575 14.3089 15.575 14.3089C15.725 14.3089 16.325 12.7 16.4 12.5537C16.925 11.603 17.3 10.1403 18.5 9.77462C18.05 9.92089 19.1 7.14178 19.175 7.06865C19.675 6.04477 20.225 5.02089 20.825 3.99701C21.125 3.48507 22.25 0.779099 23.15 0.779099C23.525 0.779099 23.975 1.65671 24.2 1.87611C24.8 2.75373 25.325 3.70447 25.85 4.65522C26.45 5.77661 27.05 6.92238 27.65 8.09253C27.95 8.67761 28.325 9.26268 28.55 9.84776C28.625 10.0672 28.7 10.2866 28.625 10.506C28.625 10.7985 28.325 11.0179 28.4 11.3104C29 11.6761 29.675 12.1881 29.975 12.7731C30.05 12.9194 30.575 14.3089 30.725 14.3089C30.725 14.3089 44.975 14.6746 45.65 16.7955C46.25 18.9164 35.225 27.4 35.225 27.4Z" fill="#4BC98A"/>
<path d="M35.075 26.8149C34.925 26.9612 35.675 29.3015 35.75 29.5209C35.9 30.2522 36.125 30.9104 36.275 31.6418C36.35 32.4463 37.325 34.3478 36.2 34.8597C36.425 35.006 37.025 35.4448 37.1 35.7373C37.475 36.7612 37.55 37.9313 37.625 38.9552C37.775 39.7597 38.3 42.1731 37.475 42.7582C35.9 43.9284 23 34.494 23 34.494C22.25 35.0791 21.475 35.6398 20.675 36.1761C20 36.6881 19.475 37.1269 18.65 37.2731C17.825 37.3463 18.125 37.0537 17.675 37.7119C16.55 39.394 14.225 40.491 12.425 41.5149C11.675 41.8806 9.42501 43.4164 8.52501 42.7582C7.02501 41.6612 11 26.8149 11 26.8149C11 26.8149 -0.0999916 18.3313 0.500008 16.1373C1.17501 14.0164 15.425 13.6507 15.425 13.6507C15.575 13.6507 16.25 12.0418 16.325 11.8955C16.775 10.9448 17.225 9.55523 18.35 9.18955C17.9 9.33582 19.025 6.55672 19.025 6.41045C19.575 5.38657 20.125 4.38707 20.675 3.41194C20.975 2.82687 22.175 0.194031 23 0.194031C23.45 0.194031 23.9 0.998508 24.05 1.29105C24.65 2.16866 25.175 3.04627 25.7 3.99702C26.35 5.16717 26.975 6.33731 27.575 7.50746C27.8 8.0194 28.175 8.60448 28.4 9.18955C28.475 9.48209 28.55 9.62836 28.55 9.9209C28.475 10.2134 28.175 10.4328 28.25 10.7254C28.925 11.0179 29.525 11.5299 29.9 12.1881C29.9 12.3343 30.425 13.6507 30.575 13.6507C30.575 13.6507 44.9 14.0164 45.5 16.1373C46.175 18.3313 35.075 26.8149 35.075 26.8149Z" fill="url(#paint0_linear_575_43)"/>
<path d="M42.875 17.3806C42.725 17.5756 42.575 17.7706 42.425 17.9657C41.6 18.8433 40.7 19.7209 39.8 20.5254C39.2 21.0373 38.6 21.4761 37.925 21.9149C37.475 22.2075 37.175 22.7925 36.725 23.1582C35.825 23.9383 34.9 24.694 33.95 25.4254L32.975 26.1567V26.303L33.275 27.2537C33.675 28.7164 34.05 30.2035 34.4 31.7149C34.55 32.3731 34.925 33.2507 34.85 33.909C34.85 34.0552 34.8 34.2015 34.7 34.3478C34.55 34.6403 34.325 35.006 34.4 35.2985C34.4 35.396 34.45 35.4692 34.55 35.5179C34.7 35.6642 34.925 35.8105 35.075 35.9567C35.375 36.3224 35.375 36.6149 35.525 37.1269C35.675 38.0045 35.8 38.9065 35.9 39.8328C35.9 39.9304 35.875 40.0279 35.825 40.1254C35.75 40.2716 35.45 40.4179 35.225 40.2716C34.775 40.0279 34.275 39.7353 33.725 39.394C31.025 37.8582 27.275 35.3716 24.125 33.1045L23 32.3L21.875 33.1045C21.475 33.397 21.05 33.7139 20.6 34.0552C20.15 34.3478 19.675 34.6647 19.175 35.006C18.725 35.2985 18.275 35.6642 17.825 35.9567C17.525 36.103 17.15 36.103 16.85 36.3224C16.4 36.5418 16.025 37.1269 15.575 37.4194C14.975 37.8095 14.375 38.1751 13.775 38.5164C12.8 39.1746 11.825 39.7597 10.85 40.2716C10.625 40.3448 10.475 40.3448 10.325 40.2716C10.175 40.1985 10.1 39.9791 10.1 39.8328C10.475 36.9075 11.6 31.7149 12.725 27.2537L13.025 26.2299L13.1 26.1567L12.125 25.4254C11.375 24.8403 10.65 24.2552 9.95 23.6702C9.65 23.4507 9.35 23.2313 9.125 22.9388C9.05 22.7925 8.9 22.2075 8.825 22.1343C8.6 22.1343 8.3 22.1343 8.15 22.0612C7.775 21.8418 8 21.8418 7.775 21.6224C7.475 21.2567 7.1 21.1836 6.725 20.9642C6.275 20.5985 5.75 20.0866 5.375 19.6478C4.7 19.0627 4.025 18.4045 3.425 17.7463C3.325 17.6488 3.225 17.5269 3.125 17.3806C2.9 17.1612 3.05 16.7224 3.35 16.6493C5.45 16.1373 9.275 15.7716 13.1 15.5522C13.9 15.5035 14.7 15.4791 15.5 15.4791L16.7 15.406L17.15 14.3821C17.45 13.797 17.675 13.0657 17.975 12.4806C18.275 11.7493 18.8 11.2373 19.175 10.5791C19.325 10.6766 19.45 10.7254 19.55 10.7254C19.85 10.8716 20.15 10.9448 20.45 11.0179C20.15 10.8716 19.925 10.6522 19.7 10.4328C19.55 10.2866 19.425 10.1647 19.325 10.0672C20.075 9.11642 20.6 7.50746 21.2 6.41045C21.65 5.48408 22.125 4.58209 22.625 3.70448C22.775 3.41194 23.225 3.41194 23.45 3.70448C24.1 4.92339 24.75 6.14229 25.4 7.3612C25.775 8.09254 26.3 8.82388 26.525 9.62836C26.675 9.9209 26.6 10.2134 26.525 10.506C26.525 10.701 26.525 10.8716 26.525 11.0179C26.575 11.0667 26.6 11.1154 26.6 11.1642C26.75 11.5299 27.5 11.6761 27.725 12.0418C28.25 12.7 28.55 13.6507 28.925 14.3821L29.375 15.406L30.5 15.4791C35 15.6254 40.1 16.0642 42.65 16.6493C42.95 16.7224 43.1 17.1612 42.875 17.3806Z" fill="#808480"/>
<path d="M16.25 30.4716C17.9 31.1299 18.05 33.4702 16.325 34.2746C12.575 35.9567 13.1 29.3746 16.1 30.3985C16.15 30.3985 16.2 30.4229 16.25 30.4716Z" fill="url(#paint1_radial_575_43)"/>
<path d="M11.3 19.1358C11.75 19.2821 11.825 19.9403 11.375 20.1597C10.325 20.5985 10.475 18.8433 11.3 19.1358Z" fill="url(#paint2_radial_575_43)"/>
<path d="M32.9 20.4522C33.95 20.9642 34.025 22.4269 32.975 22.8657C30.575 23.9627 30.95 19.794 32.825 20.4522C32.825 20.4522 32.85 20.4522 32.9 20.4522Z" fill="url(#paint3_radial_575_43)"/>
<path d="M23.525 9.18955C24.275 9.92089 23.75 11.091 22.775 11.1642C20.45 11.1642 22.25 7.94627 23.525 9.11642C23.525 9.16517 23.525 9.18955 23.525 9.18955Z" fill="url(#paint4_radial_575_43)"/>
<path d="M28.475 31.1298C29.075 31.3492 29.075 32.1537 28.475 32.4463C27.2 33.0313 27.35 30.691 28.4 31.0567C28.45 31.1055 28.475 31.1298 28.475 31.1298Z" fill="url(#paint5_radial_575_43)"/>
<path d="M16.55 22.0612C17.375 22.4269 17.45 23.5239 16.625 23.8896C14.825 24.7672 15.05 21.5493 16.55 22.0612Z" fill="url(#paint6_radial_575_43)"/>
<path d="M32.15 17.6731C32.525 17.8194 32.525 18.3313 32.15 18.4776C31.325 18.9164 31.4 17.3806 32.075 17.6C32.125 17.6 32.15 17.6244 32.15 17.6731Z" fill="url(#paint7_radial_575_43)"/>
<path d="M36.95 18.5507C37.175 18.6239 37.175 18.9896 36.95 19.1358C36.425 19.3552 36.5 18.4045 36.875 18.5507C36.925 18.5507 36.95 18.5507 36.95 18.5507Z" fill="url(#paint8_radial_575_43)"/>
<path d="M25.7 14.3821C25.925 14.6746 25.775 15.1866 25.325 15.1866C24.425 15.1866 25.175 13.9433 25.625 14.3821C25.625 14.3821 25.65 14.3821 25.7 14.3821Z" fill="url(#paint9_radial_575_43)"/>
<path d="M15.5 25.0597C15.725 25.206 15.8 25.5716 15.5 25.7179C14.825 26.0105 14.9 24.9134 15.425 25.0597C15.425 25.0597 15.45 25.0597 15.5 25.0597Z" fill="url(#paint10_radial_575_43)"/>
<path d="M32.6 35.9567C32.9 36.0298 32.9 36.4687 32.6 36.6149C32 36.9075 32.075 35.7373 32.6 35.8836C32.6 35.9323 32.6 35.9567 32.6 35.9567Z" fill="url(#paint11_radial_575_43)"/>
<path style="mix-blend-mode:screen" opacity="0.14" d="M33.725 39.394C31.025 37.8582 27.275 35.3716 24.125 33.1045L23 32.3L21.875 33.1045C21.475 33.397 21.05 33.7139 20.6 34.0552L13.1 15.5522C13.9 15.5035 14.7 15.4791 15.5 15.4791L16.7 15.406L17.15 14.3821C17.45 13.797 17.675 13.0657 17.975 12.4806C18.275 11.7493 18.8 11.2373 19.175 10.5791C19.325 10.6766 19.45 10.7254 19.55 10.7254C19.85 10.8716 20.15 10.9448 20.45 11.0179C20.15 10.8716 19.925 10.6522 19.7 10.4328C19.55 10.2866 19.425 10.1647 19.325 10.0672C20.075 9.11642 20.6 7.50746 21.2 6.41045C21.65 5.48408 22.125 4.58209 22.625 3.70448C22.775 3.41194 23.225 3.41194 23.45 3.70448C24.1 4.92339 24.75 6.14229 25.4 7.3612C25.775 8.09254 26.3 8.82388 26.525 9.62836C26.675 9.9209 26.6 10.2134 26.525 10.506C26.525 10.701 26.525 10.8716 26.525 11.0179C26.575 11.0667 26.6 11.1154 26.6 11.1642C26.75 11.5299 27.5 11.6761 27.725 12.0418C28.25 12.7 28.55 13.6507 28.925 14.3821L29.375 15.406L30.5 15.4791L33.725 39.394Z" fill="url(#paint12_linear_575_43)"/>
<path d="M19.175 10.5791C19.325 10.6766 19.45 10.7254 19.55 10.7254C19.35 11.1642 19.15 11.5786 18.95 11.9687C18.425 13.2119 17.6 14.6015 17.3 15.8448C16.025 15.9179 14.75 16.2104 13.475 16.2836C11.45 16.4298 9.5 16.6493 7.55 16.7955C6.725 16.9418 5.75 16.8687 4.925 17.0149C4.25 17.0881 3.275 17.1612 3.425 17.7463C3.325 17.6488 3.225 17.5269 3.125 17.3806C2.9 17.1612 3.05 16.7224 3.35 16.6493C5.9 16.0642 11.075 15.6254 15.5 15.4791L16.7 15.406L17.15 14.3821C17.45 13.797 17.675 13.0657 17.975 12.4806C18.275 11.7492 18.8 11.2373 19.175 10.5791Z" fill="#B4F4FA"/>
<path d="M26.525 10.506C26.45 9.9209 26.15 9.26269 25.775 8.75075C25.4 8.16567 25.1 7.50747 24.725 6.84926C24.35 6.11791 23.825 5.09403 23.225 4.58209C22.85 4.28955 22.325 5.38657 22.175 5.60597C21.65 6.62985 21.275 7.72687 20.675 8.67761C20.375 9.26269 20.05 9.84776 19.7 10.4328C19.55 10.2866 19.425 10.1647 19.325 10.0672C20.075 9.11642 20.6 7.50746 21.2 6.41045C21.65 5.48408 22.125 4.58209 22.625 3.70448C22.775 3.41194 23.225 3.41194 23.45 3.70448C24.1 4.92339 24.75 6.14229 25.4 7.3612C25.775 8.09254 26.3 8.82388 26.525 9.62836C26.675 9.9209 26.6 10.2134 26.525 10.506Z" fill="#B4F4FA"/>
<path d="M42.875 17.3806C42.725 17.5756 42.575 17.7706 42.425 17.9657C42.95 16.8687 41.75 16.8687 40.85 16.7955C38.375 16.4299 35.9 16.1373 33.35 16.0642C32.375 15.991 31.4 15.8448 30.425 15.8448C30.05 15.8448 29.3 16.0642 29.075 15.991C28.7 15.7716 28.55 15.0403 28.4 14.7478C28.1 13.9433 27.575 12.9925 27.05 12.2612C26.675 11.7493 26.45 11.603 26.525 11.091C26.525 11.0423 26.525 11.0179 26.525 11.0179C26.575 11.0667 26.6 11.1154 26.6 11.1642C26.75 11.5299 27.5 11.6761 27.725 12.0418C28.25 12.7 28.55 13.6507 28.925 14.3821L29.375 15.406L30.5 15.4791C35 15.6254 40.1 16.0642 42.65 16.6493C42.95 16.7224 43.1 17.1612 42.875 17.3806Z" fill="#B4F4FA"/>
<path d="M13.25 26.2298C13.325 26.3761 12.725 28.4239 12.65 28.7164C12.5 29.594 12.35 30.4473 12.2 31.2761C11.975 32.7388 11.825 34.2015 11 35.4448C11 34.9328 11.15 34.3478 11.225 33.8358C11.6 31.6418 12.2 29.4478 12.725 27.2537L13.025 26.2298C13.1 26.2298 13.175 26.1567 13.25 26.2298Z" fill="#B4F4FA"/>
<path d="M34.7 34.3478C34.7 33.6895 34.325 33.0313 34.175 32.3C34.1 31.7149 34.025 31.1298 33.875 30.6179C33.575 29.7403 33.5 28.8627 33.275 27.9851C33.125 27.5463 32.675 26.7418 32.975 26.303L33.275 27.2537C33.675 28.7164 34.05 30.2035 34.4 31.7149C34.55 32.3731 34.925 33.2507 34.85 33.9089C34.85 34.0552 34.8 34.2015 34.7 34.3478Z" fill="#B4F4FA"/>
<defs>
<linearGradient id="paint0_linear_575_43" x1="-123.557" y1="310.784" x2="-118.223" y2="3509.85" gradientUnits="userSpaceOnUse">
<stop stop-color="#40B8E3"/>
<stop offset="0.64" stop-color="#304891"/>
<stop offset="1" stop-color="#15AD8C"/>
</linearGradient>
<radialGradient id="paint1_radial_575_43" cx="0" cy="0" r="1" gradientUnits="userSpaceOnUse" gradientTransform="translate(94.2902 178.089) scale(17.3114 19.0404)">
<stop stop-color="#62CEF5"/>
<stop offset="1" stop-color="#237FCF"/>
</radialGradient>
<radialGradient id="paint2_radial_575_43" cx="0" cy="0" r="1" gradientUnits="userSpaceOnUse" gradientTransform="translate(28.5582 45.2312) scale(1.24667 1.34773)">
<stop stop-color="#62CEF5"/>
<stop offset="1" stop-color="#237FCF"/>
</radialGradient>
<radialGradient id="paint3_radial_575_43" cx="0" cy="0" r="1" gradientUnits="userSpaceOnUse" gradientTransform="translate(131.979 85.8153) scale(6.86299 7.53816)">
<stop stop-color="#62CEF5"/>
<stop offset="1" stop-color="#237FCF"/>
</radialGradient>
<radialGradient id="paint4_radial_575_43" cx="0" cy="0" r="1" gradientUnits="userSpaceOnUse" gradientTransform="translate(68.7959 59.942) rotate(23.3824) scale(5.45259 5.67847)">
<stop stop-color="#62CEF5"/>
<stop offset="1" stop-color="#237FCF"/>
</radialGradient>
<radialGradient id="paint5_radial_575_43" cx="0" cy="0" r="1" gradientUnits="userSpaceOnUse" gradientTransform="translate(77.7252 84.1598) scale(2.13593 2.39259)">
<stop stop-color="#62CEF5"/>
<stop offset="1" stop-color="#237FCF"/>
</radialGradient>
<radialGradient id="paint6_radial_575_43" cx="0" cy="0" r="1" gradientUnits="userSpaceOnUse" gradientTransform="translate(57.6537 75.2184) scale(3.98762 4.37024)">
<stop stop-color="#62CEF5"/>
<stop offset="1" stop-color="#237FCF"/>
</radialGradient>
<radialGradient id="paint7_radial_575_43" cx="0" cy="0" r="1" gradientUnits="userSpaceOnUse" gradientTransform="translate(68.0468 38.2962) scale(0.895351 0.994135)">
<stop stop-color="#62CEF5"/>
<stop offset="1" stop-color="#237FCF"/>
</radialGradient>
<radialGradient id="paint8_radial_575_43" cx="0" cy="0" r="1" gradientUnits="userSpaceOnUse" gradientTransform="translate(63.1272 32.3631) scale(0.352893 0.411134)">
<stop stop-color="#62CEF5"/>
<stop offset="1" stop-color="#237FCF"/>
</radialGradient>
<radialGradient id="paint9_radial_575_43" cx="0" cy="0" r="1" gradientUnits="userSpaceOnUse" gradientTransform="translate(44.4495 40.8204) rotate(23.3964) scale(0.880408 0.885088)">
<stop stop-color="#62CEF5"/>
<stop offset="1" stop-color="#237FCF"/>
</radialGradient>
<radialGradient id="paint10_radial_575_43" cx="0" cy="0" r="1" gradientUnits="userSpaceOnUse" gradientTransform="translate(29.9506 46.4792) scale(0.527735 0.555594)">
<stop stop-color="#62CEF5"/>
<stop offset="1" stop-color="#237FCF"/>
</radialGradient>
<radialGradient id="paint11_radial_575_43" cx="0" cy="0" r="1" gradientUnits="userSpaceOnUse" gradientTransform="translate(60.2888 65.6658) scale(0.498454 0.609231)">
<stop stop-color="#62CEF5"/>
<stop offset="1" stop-color="#237FCF"/>
</radialGradient>
<linearGradient id="paint12_linear_575_43" x1="732.424" y1="1326.82" x2="1849.34" y2="2787.09" gradientUnits="userSpaceOnUse">
<stop stop-color="#C7F0E1"/>
<stop offset="1"/>
</linearGradient>
</defs>
</svg>
