<svg width="49" height="47" viewBox="0 0 49 47" fill="none" xmlns="http://www.w3.org/2000/svg">
<path d="M37.4042 28.8C37.2458 28.9582 38.0375 31.5687 38.1167 31.806C38.275 32.5179 38.5125 33.309 38.5917 34.0209C38.75 34.891 39.7 37.0269 38.5125 37.5015C38.8292 37.7388 39.4625 38.2134 39.5417 38.5298C39.9375 39.5582 39.9375 40.903 40.0958 42.0104C40.2542 42.8806 40.8083 45.491 39.9375 46.1239C38.275 47.3104 24.6583 37.1851 24.6583 37.1851C23.8667 37.7652 23.0486 38.3716 22.2042 39.0045C21.4917 39.4791 20.8583 40.0328 20.0667 40.1119C19.1958 40.191 19.5125 39.9537 19.0375 40.5866C17.7708 42.4851 15.3167 43.6716 13.4167 44.7C12.7042 45.0955 10.25 46.7567 9.37917 46.1239C7.71667 44.9373 11.9125 28.8 11.9125 28.8C11.9125 28.8 0.275 19.6239 0.908334 17.3298C1.62083 15.0358 16.6625 14.6403 16.6625 14.6403C16.8208 14.6403 17.4542 12.9 17.5333 12.7418C18.0875 11.7134 18.4833 10.1313 19.75 9.73582C19.275 9.89403 20.3833 6.88806 20.4625 6.80895C20.9903 5.70149 21.5708 4.59403 22.2042 3.48656C22.5208 2.93283 23.7083 0.00596619 24.6583 0.00596619C25.0542 0.00596619 25.5292 0.95522 25.7667 1.19253C26.4 2.14179 26.9542 3.17015 27.5083 4.1985C28.1417 5.41144 28.775 6.65074 29.4083 7.91641C29.725 8.54925 30.1208 9.18209 30.3583 9.81492C30.4375 10.0522 30.5167 10.2895 30.4375 10.5269C30.4375 10.8433 30.1208 11.0806 30.2 11.397C30.8333 11.7925 31.5458 12.3463 31.8625 12.9791C31.9417 13.1373 32.4958 14.6403 32.6542 14.6403C32.6542 14.6403 47.6958 15.0358 48.4083 17.3298C49.0417 19.6239 37.4042 28.8 37.4042 28.8Z" fill="#4BC98A"/>
<path d="M45.4792 17.9627C45.3208 18.1736 45.1625 18.3846 45.0042 18.5955C44.1333 19.5448 43.1833 20.494 42.2333 21.3642C41.6 21.9179 40.9667 22.3925 40.2542 22.8672C39.7792 23.1836 39.4625 23.8164 38.9875 24.2119C38.0375 25.0557 37.0611 25.8731 36.0583 26.6642L35.0292 27.4552V27.6134L35.3458 28.6418C35.7681 30.2239 36.1639 31.8323 36.5333 33.4672C36.6917 34.1791 37.0875 35.1284 37.0083 35.8403C37.0083 35.9985 36.9556 36.1567 36.85 36.3149C36.6917 36.6313 36.4542 37.0269 36.5333 37.3433C36.5333 37.4488 36.5861 37.5279 36.6917 37.5806C36.85 37.7388 37.0875 37.897 37.2458 38.0552C37.5625 38.4507 37.5625 38.7672 37.7208 39.3209C37.8792 40.2701 38.0111 41.2458 38.1167 42.2478C38.1167 42.3532 38.0903 42.4587 38.0375 42.5642C37.9583 42.7224 37.6417 42.8806 37.4042 42.7224C36.9292 42.4587 36.4014 42.1423 35.8208 41.7731C32.9708 40.1119 29.0125 37.4224 25.6875 34.9701L24.5 34.1L23.3125 34.9701C22.8903 35.2866 22.4417 35.6293 21.9667 35.9985C21.4917 36.3149 20.9903 36.6577 20.4625 37.0269C19.9875 37.3433 19.5125 37.7388 19.0375 38.0552C18.7208 38.2134 18.325 38.2134 18.0083 38.4507C17.5333 38.6881 17.1375 39.3209 16.6625 39.6373C16.0292 40.0592 15.3958 40.4547 14.7625 40.8239C13.7333 41.5358 12.7042 42.1687 11.675 42.7224C11.4375 42.8015 11.2792 42.8015 11.1208 42.7224C10.9625 42.6433 10.8833 42.406 10.8833 42.2478C11.2792 39.0836 12.4667 33.4672 13.6542 28.6418L13.9708 27.5343L14.05 27.4552L13.0208 26.6642C12.2292 26.0313 11.4639 25.3985 10.725 24.7657C10.4083 24.5284 10.0917 24.291 9.85417 23.9746C9.775 23.8164 9.61667 23.1836 9.5375 23.1045C9.3 23.1045 8.98333 23.1045 8.825 23.0254C8.42917 22.7881 8.66667 22.7881 8.42917 22.5507C8.1125 22.1552 7.71667 22.0761 7.32083 21.8388C6.84583 21.4433 6.29167 20.8895 5.89583 20.4149C5.18333 19.7821 4.47083 19.0701 3.8375 18.3582C3.73194 18.2527 3.62639 18.1209 3.52083 17.9627C3.28333 17.7254 3.44167 17.2507 3.75833 17.1716C5.975 16.6179 10.0125 16.2224 14.05 15.9851C14.8944 15.9323 15.7389 15.906 16.5833 15.906L17.85 15.8269L18.325 14.7194C18.6417 14.0866 18.8792 13.2955 19.1958 12.6627C19.5125 11.8716 20.0667 11.3179 20.4625 10.606C20.6208 10.7114 20.7528 10.7642 20.8583 10.7642C21.175 10.9224 21.4917 11.0015 21.8083 11.0806C21.4917 10.9224 21.2542 10.6851 21.0167 10.4478C20.8583 10.2895 20.7264 10.1577 20.6208 10.0522C21.4125 9.02388 21.9667 7.28358 22.6 6.09701C23.075 5.09502 23.5764 4.1194 24.1042 3.17014C24.2625 2.85373 24.7375 2.85373 24.975 3.17014C25.6611 4.48855 26.3472 5.80696 27.0333 7.12537C27.4292 7.91641 27.9833 8.70746 28.2208 9.57761C28.3792 9.89402 28.3 10.2104 28.2208 10.5269C28.2208 10.7378 28.2208 10.9224 28.2208 11.0806C28.2736 11.1333 28.3 11.1861 28.3 11.2388C28.4583 11.6343 29.25 11.7925 29.4875 12.1881C30.0417 12.9 30.3583 13.9284 30.7542 14.7194L31.2292 15.8269L32.4167 15.906C37.1667 16.0642 42.55 16.5388 45.2417 17.1716C45.5583 17.2507 45.7167 17.7254 45.4792 17.9627Z" fill="#08EA08"/>
<path d="M17.375 32.1224C19.1167 32.8343 19.275 35.3657 17.4542 36.2358C13.4958 38.0552 14.05 30.9358 17.2167 32.0433C17.2694 32.0433 17.3222 32.0697 17.375 32.1224Z" fill="url(#paint0_radial_575_44)"/>
<path d="M12.15 19.8612C12.625 20.0194 12.7042 20.7313 12.2292 20.9686C11.1208 21.4433 11.2792 19.5448 12.15 19.8612Z" fill="url(#paint1_radial_575_44)"/>
<path d="M34.95 21.2851C36.0583 21.8388 36.1375 23.4209 35.0292 23.8955C32.4958 25.0821 32.8917 20.5731 34.8708 21.2851C34.8708 21.2851 34.8972 21.2851 34.95 21.2851Z" fill="url(#paint2_radial_575_44)"/>
<path d="M25.0542 9.10298C25.8458 9.89403 25.2917 11.1597 24.2625 11.2388C21.8083 11.2388 23.7083 7.75821 25.0542 9.02388C25.0542 9.07662 25.0542 9.10298 25.0542 9.10298Z" fill="url(#paint3_radial_575_44)"/>
<path d="M30.2792 32.8343C30.9125 33.0716 30.9125 33.9418 30.2792 34.2582C28.9333 34.891 29.0917 32.3597 30.2 32.7552C30.2528 32.808 30.2792 32.8343 30.2792 32.8343Z" fill="url(#paint4_radial_575_44)"/>
<path d="M17.6917 23.0254C18.5625 23.4209 18.6417 24.6075 17.7708 25.003C15.8708 25.9522 16.1083 22.4716 17.6917 23.0254Z" fill="url(#paint5_radial_575_44)"/>
<path d="M34.1583 18.2791C34.5542 18.4373 34.5542 18.991 34.1583 19.1493C33.2875 19.6239 33.3667 17.9627 34.0792 18.2C34.1319 18.2 34.1583 18.2264 34.1583 18.2791Z" fill="url(#paint6_radial_575_44)"/>
<path d="M39.225 19.2284C39.4625 19.3075 39.4625 19.703 39.225 19.8612C38.6708 20.0985 38.75 19.0702 39.1458 19.2284C39.1986 19.2284 39.225 19.2284 39.225 19.2284Z" fill="url(#paint7_radial_575_44)"/>
<path d="M27.35 14.7194C27.5875 15.0358 27.4292 15.5896 26.9542 15.5896C26.0042 15.5896 26.7958 14.2448 27.2708 14.7194C27.2708 14.7194 27.2972 14.7194 27.35 14.7194Z" fill="url(#paint8_radial_575_44)"/>
<path d="M16.5833 26.2687C16.8208 26.4269 16.9 26.8224 16.5833 26.9806C15.8708 27.297 15.95 26.1105 16.5042 26.2687C16.5042 26.2687 16.5306 26.2687 16.5833 26.2687Z" fill="url(#paint9_radial_575_44)"/>
<path d="M34.6333 38.0552C34.95 38.1343 34.95 38.609 34.6333 38.7672C34 39.0836 34.0792 37.8179 34.6333 37.9761C34.6333 38.0289 34.6333 38.0552 34.6333 38.0552Z" fill="url(#paint10_radial_575_44)"/>
<path style="mix-blend-mode:screen" opacity="0.58" d="M35.8208 41.7731C32.9708 40.1119 29.0125 37.4224 25.6875 34.9701L24.5 34.1L23.3125 34.9701C22.8903 35.2866 22.4417 35.6293 21.9667 35.9985L14.05 15.9851C14.8944 15.9323 15.7389 15.906 16.5833 15.906L17.85 15.8269L18.325 14.7194C18.6417 14.0866 18.8792 13.2955 19.1958 12.6627C19.5125 11.8716 20.0667 11.3179 20.4625 10.606C20.6208 10.7114 20.7528 10.7642 20.8583 10.7642C21.175 10.9224 21.4917 11.0015 21.8083 11.0806C21.4917 10.9224 21.2542 10.6851 21.0167 10.4478C20.8583 10.2895 20.7264 10.1577 20.6208 10.0522C21.4125 9.02388 21.9667 7.28358 22.6 6.09701C23.075 5.09502 23.5764 4.1194 24.1042 3.17014C24.2625 2.85373 24.7375 2.85373 24.975 3.17014C25.6611 4.48855 26.3472 5.80696 27.0333 7.12537C27.4292 7.91641 27.9833 8.70746 28.2208 9.57761C28.3792 9.89402 28.3 10.2104 28.2208 10.5269C28.2208 10.7378 28.2208 10.9224 28.2208 11.0806C28.2736 11.1333 28.3 11.1861 28.3 11.2388C28.4583 11.6343 29.25 11.7925 29.4875 12.1881C30.0417 12.9 30.3583 13.9284 30.7542 14.7194L31.2292 15.8269L32.4167 15.906L35.8208 41.7731Z" fill="url(#paint11_linear_575_44)"/>
<path d="M20.4625 10.606C20.6208 10.7114 20.7528 10.7642 20.8583 10.7642C20.6472 11.2388 20.4361 11.6871 20.225 12.109C19.6708 13.4537 18.8 14.9567 18.4833 16.3015C17.1375 16.3806 15.7917 16.697 14.4458 16.7761C12.3083 16.9343 10.25 17.1716 8.19167 17.3299C7.32083 17.4881 6.29167 17.409 5.42083 17.5672C4.70833 17.6463 3.67917 17.7254 3.8375 18.3582C3.73194 18.2527 3.62639 18.1209 3.52083 17.9627C3.28333 17.7254 3.44167 17.2507 3.75833 17.1716C6.45 16.5388 11.9125 16.0642 16.5833 15.906L17.85 15.8269L18.325 14.7194C18.6417 14.0866 18.8792 13.2955 19.1958 12.6627C19.5125 11.8716 20.0667 11.3179 20.4625 10.606Z" fill="#B4F4FA"/>
<path d="M28.2208 10.5269C28.1417 9.89403 27.825 9.18208 27.4292 8.62835C27.0333 7.99552 26.7167 7.28358 26.3208 6.57164C25.925 5.78059 25.3708 4.67313 24.7375 4.1194C24.3417 3.80298 23.7875 4.98955 23.6292 5.22686C23.075 6.33432 22.6792 7.52089 22.0458 8.54925C21.7292 9.18209 21.3861 9.81492 21.0167 10.4478C20.8583 10.2895 20.7264 10.1577 20.6208 10.0522C21.4125 9.02388 21.9667 7.28358 22.6 6.09701C23.075 5.09502 23.5764 4.1194 24.1042 3.17014C24.2625 2.85373 24.7375 2.85373 24.975 3.17014C25.6611 4.48855 26.3472 5.80696 27.0333 7.12537C27.4292 7.91641 27.9833 8.70746 28.2208 9.57761C28.3792 9.89402 28.3 10.2104 28.2208 10.5269Z" fill="#B4F4FA"/>
<path d="M45.4792 17.9627C45.3208 18.1736 45.1625 18.3846 45.0042 18.5955C45.5583 17.409 44.2917 17.409 43.3417 17.3299C40.7292 16.9343 38.1167 16.6179 35.425 16.5388C34.3958 16.4597 33.3667 16.3015 32.3375 16.3015C31.9417 16.3015 31.15 16.5388 30.9125 16.4597C30.5167 16.2224 30.3583 15.4313 30.2 15.1149C29.8833 14.2448 29.3292 13.2164 28.775 12.4254C28.3792 11.8716 28.1417 11.7134 28.2208 11.1597C28.2208 11.107 28.2208 11.0806 28.2208 11.0806C28.2736 11.1333 28.3 11.1861 28.3 11.2388C28.4583 11.6343 29.25 11.7925 29.4875 12.1881C30.0417 12.9 30.3583 13.9284 30.7542 14.7194L31.2292 15.8269L32.4167 15.906C37.1667 16.0642 42.55 16.5388 45.2417 17.1716C45.5583 17.2507 45.7167 17.7254 45.4792 17.9627Z" fill="#B4F4FA"/>
<path d="M14.2083 27.5343C14.2875 27.6925 13.6542 29.9075 13.575 30.2239C13.4167 31.1731 13.2583 32.096 13.1 32.9925C12.8625 34.5746 12.7042 36.1567 11.8333 37.5015C11.8333 36.9478 11.9917 36.3149 12.0708 35.7612C12.4667 33.3881 13.1 31.0149 13.6542 28.6418L13.9708 27.5343C14.05 27.5343 14.1292 27.4552 14.2083 27.5343Z" fill="#B4F4FA"/>
<path d="M36.85 36.3149C36.85 35.603 36.4542 34.891 36.2958 34.1C36.2167 33.4672 36.1375 32.8343 35.9792 32.2806C35.6625 31.3313 35.5833 30.3821 35.3458 29.4328C35.1875 28.9582 34.7125 28.0881 35.0292 27.6134L35.3458 28.6418C35.7681 30.2239 36.1639 31.8323 36.5333 33.4672C36.6917 34.1791 37.0875 35.1284 37.0083 35.8403C37.0083 35.9985 36.9556 36.1567 36.85 36.3149Z" fill="#B4F4FA"/>
<defs>
<radialGradient id="paint0_radial_575_44" cx="0" cy="0" r="1" gradientUnits="userSpaceOnUse" gradientTransform="translate(99.7508 191.79) scale(18.2731 20.5948)">
<stop stop-color="#62CEF5"/>
<stop offset="1" stop-color="#237FCF"/>
</radialGradient>
<radialGradient id="paint1_radial_575_44" cx="0" cy="0" r="1" gradientUnits="userSpaceOnUse" gradientTransform="translate(30.367 48.0868) scale(1.31593 1.45774)">
<stop stop-color="#62CEF5"/>
<stop offset="1" stop-color="#237FCF"/>
</radialGradient>
<radialGradient id="paint2_radial_575_44" cx="0" cy="0" r="1" gradientUnits="userSpaceOnUse" gradientTransform="translate(139.533 91.9839) scale(7.24427 8.15353)">
<stop stop-color="#62CEF5"/>
<stop offset="1" stop-color="#237FCF"/>
</radialGradient>
<radialGradient id="paint3_radial_575_44" cx="0" cy="0" r="1" gradientUnits="userSpaceOnUse" gradientTransform="translate(72.8402 63.9984) rotate(23.896) scale(5.77814 6.11797)">
<stop stop-color="#62CEF5"/>
<stop offset="1" stop-color="#237FCF"/>
</radialGradient>
<radialGradient id="paint4_radial_575_44" cx="0" cy="0" r="1" gradientUnits="userSpaceOnUse" gradientTransform="translate(82.2655 90.1932) scale(2.2546 2.5879)">
<stop stop-color="#62CEF5"/>
<stop offset="1" stop-color="#237FCF"/>
</radialGradient>
<radialGradient id="paint5_radial_575_44" cx="0" cy="0" r="1" gradientUnits="userSpaceOnUse" gradientTransform="translate(61.0789 80.522) scale(4.20916 4.72699)">
<stop stop-color="#62CEF5"/>
<stop offset="1" stop-color="#237FCF"/>
</radialGradient>
<radialGradient id="paint6_radial_575_44" cx="0" cy="0" r="1" gradientUnits="userSpaceOnUse" gradientTransform="translate(72.0494 40.5856) scale(0.945093 1.07529)">
<stop stop-color="#62CEF5"/>
<stop offset="1" stop-color="#237FCF"/>
</radialGradient>
<radialGradient id="paint7_radial_575_44" cx="0" cy="0" r="1" gradientUnits="userSpaceOnUse" gradientTransform="translate(66.8564 34.1682) scale(0.372499 0.444696)">
<stop stop-color="#62CEF5"/>
<stop offset="1" stop-color="#237FCF"/>
</radialGradient>
<radialGradient id="paint8_radial_575_44" cx="0" cy="0" r="1" gradientUnits="userSpaceOnUse" gradientTransform="translate(47.1411 43.316) rotate(23.9102) scale(0.932977 0.953587)">
<stop stop-color="#62CEF5"/>
<stop offset="1" stop-color="#237FCF"/>
</radialGradient>
<radialGradient id="paint9_radial_575_44" cx="0" cy="0" r="1" gradientUnits="userSpaceOnUse" gradientTransform="translate(31.8368 49.4366) scale(0.557053 0.600948)">
<stop stop-color="#62CEF5"/>
<stop offset="1" stop-color="#237FCF"/>
</radialGradient>
<radialGradient id="paint10_radial_575_44" cx="0" cy="0" r="1" gradientUnits="userSpaceOnUse" gradientTransform="translate(63.8604 70.1895) scale(0.526146 0.658965)">
<stop stop-color="#62CEF5"/>
<stop offset="1" stop-color="#237FCF"/>
</radialGradient>
<linearGradient id="paint11_linear_575_44" x1="773.337" y1="1434.3" x2="1988.84" y2="2985.14" gradientUnits="userSpaceOnUse">
<stop stop-color="#C7F0E1"/>
<stop offset="1"/>
</linearGradient>
</defs>
</svg>
