<svg width="43" height="44" viewBox="0 0 43 44" fill="none" xmlns="http://www.w3.org/2000/svg">
<path fill-rule="evenodd" clip-rule="evenodd" d="M42.9026 21.6692C42.9026 22.7705 42.8442 23.8719 42.6883 24.9732C42.6104 25.5336 42.5714 26.1905 42.3766 26.7122C42.2208 27.1373 41.8896 27.4658 41.5974 27.8329C41.5779 27.8715 41.539 27.9102 41.539 27.9488C41.5195 28.0068 41.539 28.0647 41.539 28.1227C41.8117 29.398 41.0714 30.8085 40.526 31.9098C39.9026 33.1464 39.1818 34.3058 38.3442 35.3878C36.6688 37.5519 34.6039 39.4068 32.2468 40.7786C26.3442 44.2566 18.8831 44.5271 12.7662 41.5515C11.5779 41.5515 10.1364 39.5034 9.41558 38.7885C9.24026 38.6146 9.08441 38.4407 8.87013 38.3441C8.71428 38.2861 8.53896 38.2475 8.38312 38.2088C6.59091 37.7837 5.22727 35.581 4.25325 34.1512C3.1039 32.4895 2.18831 30.6732 1.52597 28.7797C0.863636 26.9054 0.435064 24.9346 0.2987 22.9444C0.181817 21.2247 -0.0324684 18.7708 0.824674 17.2251C0.941558 17.0125 1.05844 16.7807 1.13636 16.5488C1.35065 15.8339 1.15584 15.1576 1.40909 14.4234C1.65584 13.6763 1.94805 12.9485 2.28571 12.24C4.17532 8.22102 7.27273 4.87831 11.0519 2.67559C12.1623 2.03797 13.2532 1.49695 14.5584 1.61288C14.7338 1.61288 14.9091 1.65153 15.0649 1.59356C15.2987 1.53559 15.4545 1.3617 15.6299 1.20712C16.9545 -0.010169 19.0584 -0.0874569 20.7727 -0.164745C22.6039 -0.261355 24.474 -0.126101 26.2662 0.26034C29.8701 0.994577 33.2792 2.69492 35.9481 5.2261C40.3701 9.39966 42.8247 15.5054 42.9026 21.6692ZM6.82467 18.9834C5.73377 25.6688 9.41558 32.7986 15.5714 35.8129C17.461 36.721 19.6039 37.2234 21.7662 37.2234C24.3377 37.2234 26.8506 36.5471 29.013 35.2719C29.3052 35.098 29.5779 34.8661 29.8701 34.7115C30.1623 34.5569 30.5714 34.5183 30.9026 34.441C31.0974 34.4024 31.3117 34.3444 31.5065 34.2478C31.6623 34.1705 31.8182 34.0353 31.9351 33.8807C32.2273 33.5136 32.3052 33.0112 32.5195 32.5861C32.7143 32.219 32.9675 31.9098 33.2208 31.562C33.8247 30.7892 34.3506 29.9583 34.7792 29.0888C35.6753 27.3305 36.2403 25.3983 36.4156 23.4081C36.4545 23.1376 36.4545 22.8478 36.474 22.558C36.5 22.2875 36.5065 22.0105 36.4935 21.7271C36.474 19.3892 35.7143 17.2251 35.4221 14.9258C35.3831 14.5586 35.3247 14.1529 35.0714 13.8437C34.7208 13.3993 34 13.2641 33.7662 12.7231C33.6883 12.5685 33.6883 12.3946 33.6299 12.24C33.513 11.8729 32.987 11.4478 32.7532 11.158C32.3766 10.7071 31.974 10.2756 31.5455 9.86339C29.0519 7.5061 25.6039 6.1922 21.8831 6.1922C19.1753 6.1922 16.5455 6.8878 14.2662 8.2017C12.6688 9.12915 11.2468 10.3464 10.0779 11.7763C8.98701 13.1095 8.4026 15.0417 7.11688 16.1817C7.05844 16.2203 7 16.2783 6.98052 16.3363C6.96104 16.3942 6.96104 16.4522 6.96104 16.5102C6.94156 17.1285 6.96104 17.7275 6.9026 18.3458C6.88961 18.5647 6.86364 18.7773 6.82467 18.9834Z" fill="#4BC98A"/>
<path fill-rule="evenodd" clip-rule="evenodd" d="M42.9026 21.3407C42.9026 22.442 42.8442 23.5434 42.6883 24.6254C42.6104 25.1858 42.5714 25.8427 42.3766 26.3644C42.2208 26.7702 41.8896 27.0986 41.5974 27.4658C41.5779 27.5044 41.539 27.543 41.539 27.5817C41.5195 27.6397 41.539 27.6976 41.539 27.7556C41.8117 29.0115 41.0714 30.422 40.526 31.5234C39.9026 32.7407 39.1818 33.9 38.3442 34.982C36.6688 37.1268 34.6039 38.9624 32.2468 40.3342C26.3442 43.7929 18.8831 44.0634 12.7662 41.0878C11.5779 41.0878 10.1364 39.059 9.41558 38.3441C9.24026 38.1895 9.08441 38.0156 8.87013 37.919C8.71428 37.8417 8.53896 37.8224 8.38312 37.7837C6.59091 37.3586 5.22727 35.1753 4.25325 33.7454C3.1039 32.0837 2.18831 30.2868 1.52597 28.3932C0.863636 26.5383 0.435064 24.5868 0.2987 22.6159C0.181817 20.8963 -0.0324684 18.4617 0.824674 16.9159C0.941558 16.7034 1.05844 16.4908 1.13636 16.2397C1.35065 15.5247 1.15584 14.8678 1.40909 14.1336C1.65584 13.3993 1.94805 12.6715 2.28571 11.9502C4.17532 7.96983 7.27273 4.64644 11.0519 2.46305C12.1623 1.82542 13.2532 1.2844 14.5584 1.40034C14.7338 1.40034 14.9091 1.43898 15.0649 1.38101C15.2987 1.32305 15.4545 1.14915 15.6299 0.994574C16.9545 -0.203392 19.0584 -0.28068 20.7727 -0.377291C22.6039 -0.454579 24.474 -0.319325 26.2662 0.047794C29.8701 0.782031 33.2792 2.48237 35.9481 4.99424C40.3701 9.14847 42.8247 15.2156 42.9026 21.3407ZM6.82467 18.6742C5.73377 25.3017 9.41558 32.4122 15.5714 35.3878C17.461 36.2959 19.6039 36.7983 21.7662 36.7983C24.3377 36.7983 26.8506 36.122 29.013 34.8661C29.3052 34.6922 29.5779 34.4603 29.8701 34.3058C30.1623 34.1512 30.5714 34.1125 30.9026 34.0353C31.0974 33.9966 31.3117 33.9386 31.5065 33.842C31.6623 33.7647 31.8182 33.6295 31.9351 33.4749C32.2273 33.1078 32.3052 32.6054 32.5195 32.1997C32.7143 31.8132 32.9675 31.5041 33.2208 31.1756C33.8247 30.4027 34.3506 29.5912 34.7792 28.7217C35.6753 26.9634 36.2403 25.0312 36.4156 23.0797C36.4545 22.7898 36.4545 22.5193 36.474 22.2295C36.5 21.959 36.5065 21.682 36.4935 21.3986C36.474 19.0607 35.7143 16.9159 35.4221 14.6359C35.3831 14.2688 35.3247 13.863 35.0714 13.5732C34.7208 13.1095 34 12.9742 33.7662 12.4525C33.6883 12.298 33.6883 12.1241 33.6299 11.9502C33.513 11.6024 32.987 11.1773 32.7532 10.8875C32.3766 10.4366 31.974 10.0115 31.5455 9.6122C29.0519 7.25491 25.6039 5.96034 21.8831 5.96034C19.1753 5.96034 16.5455 6.63661 14.2662 7.95051C12.6688 8.87796 11.2468 10.0953 10.0779 11.5058C8.98701 12.839 8.4026 14.7519 7.11688 15.8725C7.05844 15.9305 7 15.9692 6.98052 16.0464C6.96104 16.0851 6.96104 16.143 6.96104 16.201C6.94156 16.8193 6.96104 17.4376 6.9026 18.0366C6.88961 18.2427 6.86364 18.4553 6.82467 18.6742Z" fill="url(#paint0_linear_663_41)"/>
<path d="M38.539 22.8671C38.3831 26.403 37.7597 30.0356 35.8507 33.0305C33.8831 36.1027 30.6494 38.2475 27.1234 39.2522C23.5974 40.2376 19.8182 40.1217 16.2727 39.2522C14.8312 38.8851 13.3896 38.4214 12.1234 37.6485C9.76624 36.1993 7.58442 33.6295 6.27923 31.2336C5.67533 30.1129 6.06494 29.2047 5.83117 28.0647C5.55845 26.5769 4.81819 25.2437 4.64286 23.698C4.44806 22.0169 4.56494 20.278 5.03247 18.6356C5.1104 18.3264 5.26624 17.9786 5.57793 17.9014C5.87014 17.8241 6.16234 18.0173 6.39611 18.2298C6.55195 18.3715 6.69481 18.5197 6.82468 18.6742C5.73377 25.3017 9.41559 32.4122 15.5714 35.3878C17.461 36.2959 19.6039 36.7983 21.7662 36.7983C24.3377 36.7983 26.8507 36.122 29.013 34.8661C29.3831 34.6342 29.7727 34.2478 30.1234 34.0546C30.474 33.8807 30.8052 33.9386 31.1753 33.8034C31.7987 33.5715 32.3442 32.2383 32.7727 31.7166C33.513 30.8471 34.1364 29.9197 34.6623 28.9342C35.7727 26.8668 36.3766 24.5675 36.474 22.2295C36.961 21.5146 37.3896 20.7417 37.7597 19.9495C38.539 20.6451 38.5779 21.8237 38.539 22.8671Z" fill="url(#paint1_linear_663_41)"/>
<path fill-rule="evenodd" clip-rule="evenodd" d="M41.5584 23.6014C41.4416 24.4515 41.2468 25.3017 40.8961 26.1132C40.8182 26.3064 40.7403 26.4997 40.5649 26.6349C40.4286 26.7315 40.2533 26.7895 40.0974 26.8281C39.2013 27.0986 38.3247 27.3112 37.4286 27.5044C38.4675 27.4786 39.513 27.4593 40.5649 27.4464C40.6039 27.4464 40.6429 27.4464 40.6818 27.4658C40.7597 27.5237 40.7208 27.6397 40.6818 27.6976C40.1558 28.7603 39.9416 29.8424 39.4351 30.8858C38.8507 32.0258 38.1688 33.1078 37.3896 34.1125C36.8961 34.7695 36.3571 35.3942 35.7727 35.9868C34.5455 37.2234 33.1623 38.3054 31.6429 39.1749C29.461 40.4695 27.0065 41.3003 24.4546 41.6288C23.5974 41.7447 22.7013 41.8027 21.8052 41.8027C18.8831 41.8027 15.961 41.1458 13.3701 39.8898C12.8052 39.6193 12.0455 39.3488 11.5974 38.9237C11.1883 38.5566 11.3442 38.0349 10.8961 37.6678C10.7403 37.5325 10.5455 37.4359 10.3701 37.3586C9.72079 37.0624 9.07793 36.7725 8.44156 36.4892C8.38312 36.4698 8.32468 36.4505 8.28572 36.4119C8.2078 36.3346 8.2078 36.1993 8.16884 36.0834C8.03247 35.6583 7.66234 35.639 7.35066 35.4264C7.07793 35.2332 6.88312 34.9627 6.66884 34.7115C6.62988 34.6729 6.59741 34.6342 6.57143 34.5956C6.04546 33.9773 5.55845 33.3397 5.1104 32.6634C5.07143 32.5861 5.01299 32.5088 4.95455 32.4315C3.98053 30.9051 3.2013 29.282 2.61689 27.5817C1.91559 25.4563 1.54546 23.2342 1.56494 21.0122V20.4325C1.56494 19.5244 1.58442 18.5583 1.81819 17.7081C2.07143 16.742 2.85065 16.0271 2.9091 14.9451C2.92858 14.5393 2.88962 14.0949 3.1039 13.7664C3.18182 13.6698 3.27923 13.5732 3.35715 13.4766C3.59091 13.0902 3.47403 12.5492 3.62988 12.1241C3.76624 11.6797 4.09741 11.2353 4.33117 10.8295C4.75975 10.121 5.22728 9.43187 5.73377 8.76204C5.95455 8.47865 6.17533 8.20814 6.39611 7.95051C7.91559 6.17288 9.72728 4.66576 11.7338 3.50644C12.3766 3.13932 13.039 2.79153 13.7208 2.5017C13.9935 2.38576 14.1688 2.25051 14.461 2.23119C14.8117 2.21187 15.1429 2.48237 15.513 2.3278C15.8831 2.17322 16.0584 1.74814 16.4286 1.55492C16.8961 1.30373 17.5974 1.26509 18.1234 1.16848C19.3896 0.936611 20.6558 0.820679 21.9221 0.820679C23.9675 0.820679 25.9545 1.11051 27.8247 1.67085C30.5714 2.5017 33.0455 3.93153 35.1104 5.86373C39.2208 9.70881 41.5974 15.3315 41.6558 21.2827C41.6753 22.0749 41.6558 22.8285 41.5584 23.6014ZM37.8182 21.3214C37.7987 19.9688 37.6429 18.597 37.3312 17.2831C37.1753 16.6454 37.0195 15.9692 36.7662 15.3508C36.6299 15.0224 36.2597 14.578 36.4156 14.2108C36.4546 14.1529 36.4935 14.0756 36.474 13.9983C36.474 13.9403 36.4156 13.9017 36.3766 13.8437C36.0844 13.4573 36.4351 12.839 36.1818 12.4139C36.0455 12.2014 35.7922 12.0854 35.5779 11.9695C34.3117 11.2739 33.5325 9.6122 32.4805 8.62678C31.4091 7.62203 30.1818 6.79119 28.8571 6.15356C26.7727 5.14882 24.3961 4.62712 21.9221 4.62712C19 4.62712 16.1364 5.38068 13.6623 6.79119C12.3377 7.56407 11.3247 8.06644 9.76624 8.27898C8.96754 8.39492 8.14936 8.49153 7.35066 8.54949C8.55845 8.47221 9.76624 8.49153 10.974 8.6461C10.3312 8.6461 9.1039 10.501 8.75325 10.9454C8.4026 11.3898 8.07143 11.8536 7.77923 12.3366C7.44806 12.8776 7.19481 13.438 7.00001 14.0369C6.98053 14.1142 6.94156 14.1915 6.9026 14.2495C6.82468 14.3268 6.68832 14.3654 6.59092 14.4041C6.12338 14.578 5.73377 15.0997 5.94806 15.5634C5.98702 15.6793 6.06494 15.7953 6.1039 15.9112C6.16234 16.0851 6.12338 16.259 6.08442 16.4329C5.98702 16.8773 5.83117 17.2831 5.73377 17.7275C5.52598 18.7451 5.41559 19.7627 5.4026 20.7803C5.36364 24.6254 6.7078 28.4512 9.06494 31.5234C9.61039 32.2576 10.2143 32.9146 10.8571 33.5329C12.0844 34.7115 13.5065 35.7163 15.0455 36.4698C17.1104 37.4746 19.4481 37.9963 21.8052 37.9963C22 37.9963 22.1948 37.9898 22.3896 37.977C25 37.8997 27.513 37.1847 29.7143 35.9095C30.8247 35.2332 31.7013 34.3444 32.9286 33.8614C32.9935 33.8356 33.0584 33.8163 33.1234 33.8034C33.6883 33.5715 34.2727 33.3397 34.8377 33.1078C34.2727 33.2237 33.7078 33.3397 33.1429 33.4556C33.1039 33.4685 33.0584 33.4814 33.0065 33.4942C33.1623 33.0498 33.7078 32.6827 33.9805 32.3156C34.2273 31.9936 34.461 31.6651 34.6818 31.3302C34.7468 31.2529 34.8052 31.1756 34.8571 31.0983C35.5 30.1515 36.0649 29.1468 36.513 28.0841C37.2533 26.3064 37.6818 24.3936 37.7987 22.4614C37.8117 22.0749 37.8182 21.6949 37.8182 21.3214Z" fill="url(#paint2_linear_663_41)"/>
<path d="M6.35713 35.8424C7.01947 36.1129 7.07791 37.0403 6.39609 37.3495C4.95454 38.0257 5.14934 35.4173 6.31817 35.823C6.33116 35.8359 6.34414 35.8424 6.35713 35.8424Z" fill="url(#paint3_radial_663_41)"/>
<path d="M39.6104 16.9739C40.5844 17.3796 40.6624 18.7708 39.6688 19.2346C37.4675 20.2586 37.7598 16.3169 39.5325 16.9352C39.5585 16.9481 39.5844 16.961 39.6104 16.9739Z" fill="url(#paint4_radial_663_41)"/>
<path d="M12.6883 10.8397C13.2727 11.0909 13.3312 11.9024 12.7273 12.1922C11.4221 12.7912 11.5974 10.4339 12.6494 10.8204C12.6623 10.8204 12.6753 10.8268 12.6883 10.8397Z" fill="url(#paint5_radial_663_41)"/>
<path d="M32.7533 35.7549C33.2987 35.9868 33.3572 36.7597 32.7922 37.0108C31.5844 37.5905 31.7403 35.3878 32.7143 35.7356C32.7273 35.7356 32.7403 35.742 32.7533 35.7549Z" fill="url(#paint6_radial_663_41)"/>
<path d="M39.1429 14.2881C39.4935 14.4234 39.513 14.9258 39.1623 15.0997C38.3636 15.4668 38.4805 14.037 39.1039 14.2688C39.1169 14.2688 39.1299 14.2753 39.1429 14.2881Z" fill="url(#paint7_radial_663_41)"/>
<path d="M14.0325 9.93155C14.2662 10.0282 14.2857 10.3566 14.052 10.4726C13.526 10.7044 13.6039 9.77698 14.013 9.91223C14.026 9.91223 14.0325 9.91867 14.0325 9.93155Z" fill="url(#paint8_radial_663_41)"/>
<path d="M3.45455 29.6207C3.84416 29.7752 3.86364 30.3162 3.47403 30.4901C2.63637 30.8959 2.75325 29.3695 3.43507 29.6013C3.43507 29.6142 3.44156 29.6207 3.45455 29.6207Z" fill="url(#paint9_radial_663_41)"/>
<path style="mix-blend-mode:screen" fill-rule="evenodd" clip-rule="evenodd" d="M28.8571 6.15356C26.7727 5.14881 24.3961 4.62712 21.9221 4.62712C19 4.62712 16.1364 5.38068 13.6623 6.79119C12.3377 7.56407 11.3247 8.06644 9.76623 8.27898C8.96753 8.39492 8.14935 8.49153 7.35065 8.54949C8.55844 8.4722 9.76623 8.49153 10.974 8.6461C10.3312 8.6461 9.10389 10.501 8.75325 10.9454C8.4026 11.3898 8.07143 11.8536 7.77922 12.3366L5.73376 8.76203C5.95454 8.47864 6.17532 8.20814 6.3961 7.95051C7.91558 6.17288 9.72727 4.66576 11.7338 3.50644C12.3766 3.13932 13.039 2.79153 13.7208 2.5017C13.9935 2.38576 14.1688 2.25051 14.461 2.23119C14.8117 2.21186 15.1429 2.48237 15.513 2.3278C15.8831 2.17322 16.0584 1.74814 16.4286 1.55492C16.8961 1.30373 17.5974 1.26509 18.1234 1.16848C19.3896 0.936611 20.6558 0.820679 21.9221 0.820679C23.9675 0.820679 25.9545 1.11051 27.8247 1.67085L28.8571 6.15356ZM35.7532 35.9868C34.5455 37.2234 33.1429 38.3054 31.6429 39.1749C29.461 40.4695 27.0065 41.281 24.4545 41.6288L22.3896 37.9769C24.9805 37.8997 27.4935 37.1847 29.6948 35.8902C30.8247 35.2332 31.7013 34.3444 32.9286 33.8614C32.9935 33.8356 33.0519 33.8098 33.1039 33.7841C33.6883 33.5715 34.2532 33.3397 34.8377 33.1078C34.2727 33.2237 33.7078 33.3397 33.1429 33.4556C33.1039 33.4685 33.0584 33.4749 33.0065 33.4749C33.1623 33.0498 33.6883 32.6827 33.9805 32.2963C34.2143 31.9871 34.4481 31.6651 34.6818 31.3302L35.7532 35.9868Z" fill="url(#paint10_linear_663_41)"/>
<path d="M41.5584 23.6013C41.5779 22.7318 41.5974 21.8237 41.5974 20.9349C41.5779 19.8915 41.2468 18.8674 40.9935 17.8434C40.6818 16.6261 40.4675 15.4281 40.039 14.2301C39.6299 13.1674 39.2013 12.0661 38.7533 11.0227C37.9935 9.20641 36.4546 7.77658 35.1883 6.30811C32.9286 3.73828 29.5974 2.69489 26.4026 1.70947C23.7922 0.917263 21.3961 1.1298 18.7662 1.40031C18.026 1.4776 16.9351 1.40031 16.3312 1.90269C16.0195 2.1732 16.0195 2.50167 15.5909 2.6176C15.3182 2.69489 14.987 2.59828 14.7143 2.57896C13.3701 2.57896 12.1234 3.5837 11.1104 4.31794C9.84416 5.26472 8.67533 6.32743 7.52598 7.39014C6.72728 8.12438 6.02598 8.93591 5.46105 9.86336C5.18832 10.2691 4.99351 10.7329 4.68182 11.1C4.35066 11.5057 3.92209 11.8149 3.86364 12.3752C3.84416 12.7617 4.00001 13.1868 3.84416 13.5539C3.78572 13.6698 3.68832 13.7664 3.62988 13.8823C3.41559 14.2301 3.39611 14.6359 3.33767 15.0417C3.18183 16.0271 2.67533 16.684 2.28572 17.5729C1.91559 18.3844 1.70131 19.4085 1.58442 20.2973C1.57144 20.3488 1.56494 20.3939 1.56494 20.4325C1.56494 19.5244 1.58442 18.5583 1.81819 17.7081C2.07144 16.742 2.85066 16.0078 2.9091 14.9451C2.92858 14.5393 2.87014 14.0949 3.1039 13.7664C3.18182 13.6698 3.27923 13.5732 3.35715 13.4766C3.59092 13.0901 3.47403 12.5491 3.62988 12.124C3.76624 11.6796 4.09741 11.2352 4.33118 10.8295C4.94157 9.81184 5.62988 8.85218 6.39611 7.95048C7.91559 6.17285 9.72728 4.66574 11.7338 3.50642C12.3766 3.1393 13.039 2.7915 13.7208 2.50167C13.9935 2.38574 14.1688 2.25048 14.461 2.23116C14.8117 2.21184 15.1429 2.48235 15.513 2.32777C15.8831 2.17319 16.0584 1.74811 16.4286 1.55489C16.8961 1.3037 17.5974 1.26506 18.1234 1.16845C19.3896 0.936584 20.6559 0.801331 21.9221 0.801331C26.9675 0.801331 31.6429 2.59828 35.1104 5.8637C39.2208 9.70879 41.5974 15.3315 41.6558 21.2827C41.6753 22.0749 41.6558 22.8478 41.5584 23.6013Z" fill="#B4F4FA"/>
<path d="M32.9286 33.8614C32.9935 33.8356 33.0584 33.8163 33.1234 33.8034C32.013 34.3444 31.2532 35.6003 30.1623 36.238C29.0909 36.8563 27.8052 37.2234 26.6558 37.6678C25.2922 38.2281 24.0454 38.4407 22.5844 38.3054C21.3376 38.1895 20.1104 38.2088 18.8636 37.9963C17.9091 37.8417 16.7402 37.803 15.8247 37.4166C15.026 37.0495 14.4026 36.4891 13.7013 35.9868C13.2143 35.6583 12.6688 35.4071 12.1818 35.0593C11.1688 34.2864 10.3312 33.3976 9.41557 32.5475C9.39609 32.7407 9.37661 32.9532 9.2792 33.1271C9.00648 32.6441 9.10388 32.0644 8.77271 31.6007C8.55843 31.2915 8.26622 31.0983 8.07141 30.7891C7.87661 30.4607 7.70128 30.0936 7.52596 29.7458C6.62985 27.9681 6.00648 26.1905 5.61687 24.239C5.42206 23.3308 4.99349 21.6498 5.40258 20.7803C5.34414 27.2146 9.14284 33.5908 15.0454 36.4698C17.1104 37.4746 19.448 37.9963 21.8052 37.9963C24.6104 37.9963 27.3376 37.262 29.6948 35.8902C30.8441 35.2332 31.7013 34.3444 32.9286 33.8614Z" fill="#B4F4FA"/>
<path d="M37.3507 26.8281C36.9026 28.6058 36.0065 30.1129 34.8377 31.5041C34.3701 32.0644 33.9026 32.6054 33.4351 33.1465C33.3571 33.2624 33.2403 33.359 33.1429 33.4556C33.1039 33.4685 33.0584 33.4814 33.0065 33.4942C33.1623 33.0498 33.6883 32.6827 33.9805 32.2963C34.2792 31.9098 34.5714 31.5105 34.8571 31.0983C35.5 30.1515 36.0649 29.1468 36.513 28.0841C37.2533 26.3064 37.6818 24.3936 37.7987 22.4614C37.8377 22.7963 37.8636 23.1312 37.8766 23.4661C37.9156 24.6254 37.6234 25.7268 37.3507 26.8281Z" fill="#B4F4FA"/>
<defs>
<linearGradient id="paint0_linear_663_41" x1="-1521.27" y1="2307.87" x2="-1521.27" y2="14374.5" gradientUnits="userSpaceOnUse">
<stop stop-color="#40B8E3"/>
<stop offset="0.64" stop-color="#304891"/>
<stop offset="1" stop-color="#15AD8C"/>
</linearGradient>
<linearGradient id="paint1_linear_663_41" x1="8661.21" y1="-2877.02" x2="8661.21" y2="-10801.5" gradientUnits="userSpaceOnUse">
<stop stop-color="#2696C9"/>
<stop offset="0.99" stop-color="#213980"/>
</linearGradient>
<linearGradient id="paint2_linear_663_41" x1="-2501.1" y1="3589.3" x2="-2590.77" y2="18621.1" gradientUnits="userSpaceOnUse">
<stop stop-color="#4EBDE6"/>
<stop offset="1" stop-color="#085A8A"/>
</linearGradient>
<radialGradient id="paint3_radial_663_41" cx="0" cy="0" r="1" gradientUnits="userSpaceOnUse" gradientTransform="translate(95.6665 277.008) scale(10.0785 11.2754)">
<stop stop-color="#62CEF5"/>
<stop offset="1" stop-color="#237FCF"/>
</radialGradient>
<radialGradient id="paint4_radial_663_41" cx="0" cy="0" r="1" gradientUnits="userSpaceOnUse" gradientTransform="translate(503.469 249.303) scale(22.8484 25.5459)">
<stop stop-color="#62CEF5"/>
<stop offset="1" stop-color="#237FCF"/>
</radialGradient>
<radialGradient id="paint5_radial_663_41" cx="0" cy="0" r="1" gradientUnits="userSpaceOnUse" gradientTransform="translate(131.587 76.9094) scale(8.1279 9.10809)">
<stop stop-color="#62CEF5"/>
<stop offset="1" stop-color="#237FCF"/>
</radialGradient>
<radialGradient id="paint6_radial_663_41" cx="0" cy="0" r="1" gradientUnits="userSpaceOnUse" gradientTransform="translate(256.248 270.541) scale(7.03368 7.90426)">
<stop stop-color="#62CEF5"/>
<stop offset="1" stop-color="#237FCF"/>
</radialGradient>
<radialGradient id="paint7_radial_663_41" cx="0" cy="0" r="1" gradientUnits="userSpaceOnUse" gradientTransform="translate(207.816 88.3629) scale(2.95781 3.32342)">
<stop stop-color="#62CEF5"/>
<stop offset="1" stop-color="#237FCF"/>
</radialGradient>
<radialGradient id="paint8_radial_663_41" cx="0" cy="0" r="1" gradientUnits="userSpaceOnUse" gradientTransform="translate(66.0671 34.2184) scale(1.29003 1.47076)">
<stop stop-color="#62CEF5"/>
<stop offset="1" stop-color="#237FCF"/>
</radialGradient>
<radialGradient id="paint9_radial_663_41" cx="0" cy="0" r="1" gradientUnits="userSpaceOnUse" gradientTransform="translate(45.5948 145.477) scale(3.39416 3.82067)">
<stop stop-color="#62CEF5"/>
<stop offset="1" stop-color="#237FCF"/>
</radialGradient>
<linearGradient id="paint10_linear_663_41" x1="3419.49" y1="4926.45" x2="13697.9" y2="11183.5" gradientUnits="userSpaceOnUse">
<stop stop-color="#C7F0E1"/>
<stop offset="1"/>
</linearGradient>
</defs>
</svg>
