<svg width="218" height="67" viewBox="0 0 218 67" fill="none" xmlns="http://www.w3.org/2000/svg">
<path d="M211.588 45.9999C209.403 50.3999 206.839 53.8332 203.894 56.2999C191.023 56.3665 178.128 56.4665 165.21 56.5999C154.429 56.7332 143.647 56.8332 132.866 56.8999C132.154 56.8999 131.441 56.9999 130.729 56.8999C130.159 56.7999 129.731 56.3999 129.161 56.2999C128.52 56.0999 128.164 56.6999 127.594 56.8999C127.167 56.9999 126.739 56.8999 126.241 56.8999C125.101 56.9665 123.937 56.9999 122.75 56.9999C120.47 56.9999 118.214 56.9999 115.982 56.9999C113.132 56.9999 110.306 56.9999 107.504 56.9999C106.079 56.9999 104.678 56.9999 103.301 56.9999C102.09 56.9999 100.807 56.5999 99.6673 56.8999C99.3824 56.8999 99.1686 56.9999 98.8837 56.9999C98.67 56.8999 98.5275 56.7999 98.3137 56.6999C97.9338 56.4332 97.5538 56.1999 97.1739 55.9999C96.7464 55.6999 96.2477 55.3999 95.8203 55.2999C95.3216 55.2999 94.8941 55.5999 94.4667 55.7999C93.683 56.1999 92.7569 56.8999 91.902 56.9999C91.2608 57.0999 90.4059 56.8999 89.7647 56.8999C87.8649 56.8999 85.9889 56.8999 84.1366 56.8999C80.4795 56.8332 76.8224 56.7999 73.1654 56.7999C61.8617 56.6665 50.558 56.5665 39.2543 56.4999L16.9556 56.2999C14.0109 53.8332 11.4462 50.3999 9.26145 45.9999C8.834 38.1999 8.62027 30.8999 8.834 23.9999C10.7575 19.1999 13.251 15.3999 16.5281 12.8999C17.1693 12.1999 19.0216 12.8999 19.3778 12.8999C21.9425 12.8999 24.5072 12.9999 27.1431 12.9999C31.5601 12.9999 36.5471 11.9999 40.8216 13.9999C41.0353 14.0999 41.249 14.1999 41.4628 14.1999C41.6052 14.0999 41.819 13.9999 41.9615 13.8999C44.8824 11.7999 49.1569 12.8999 52.3628 12.8999C70.6007 12.7999 88.9098 12.2999 107.148 12.3999C118.333 12.3999 129.518 12.4999 140.703 12.5999C145.785 12.6665 150.866 12.7332 155.948 12.7999C158.513 12.7999 161.078 12.7999 163.643 12.7999C164.925 12.8999 166.207 12.7999 167.561 12.7999C168.059 12.7999 168.843 12.6999 169.413 12.9999C169.841 13.1999 169.841 13.6999 170.268 13.9999C170.553 14.2999 170.98 13.9999 171.265 13.6999C171.764 13.2999 172.049 12.8999 172.69 12.8999C173.783 12.8999 174.851 12.8999 175.896 12.8999C177.986 12.9665 180.099 12.9999 182.237 12.9999C186.416 12.9999 190.596 12.9999 194.775 12.9999C197.126 12.9999 199.477 12.9999 201.828 12.9999C202.327 12.9999 203.894 12.4999 204.322 12.8999C207.599 15.3999 210.092 19.1999 211.944 23.9999C212.514 25.2999 212.087 28.7999 212.087 30.2999C212.087 32.4999 212.087 33.7999 211.375 35.5999C211.09 36.5999 211.873 38.6999 211.873 39.8999C211.873 41.1999 212.087 44.8999 211.588 45.9999Z" fill="#4BC98A"/>
<path d="M211.588 44.7997C209.403 49.1997 206.839 52.633 203.894 55.0997C191.023 55.1663 178.128 55.2663 165.21 55.3997C154.429 55.533 143.647 55.633 132.866 55.6997C132.154 55.6997 131.441 55.7997 130.729 55.6997C130.159 55.5997 129.731 55.1997 129.161 55.0997C128.52 54.8997 128.164 55.3997 127.594 55.6997C127.167 55.7997 126.739 55.6997 126.241 55.6997C125.101 55.7663 123.937 55.7997 122.75 55.7997C120.47 55.7997 118.214 55.7997 115.982 55.7997C113.132 55.7997 110.306 55.7997 107.504 55.7997C106.079 55.7997 104.678 55.7997 103.301 55.7997C102.09 55.7997 100.807 55.3997 99.6673 55.6997C99.3824 55.6997 99.1686 55.7997 98.8837 55.7997C98.67 55.6997 98.5275 55.5997 98.3137 55.4997C97.9338 55.233 97.5538 54.9663 97.1739 54.6997C96.7464 54.4997 96.2477 54.1997 95.8203 54.0997C95.3216 54.0997 94.8941 54.2997 94.4667 54.5997C93.683 54.9997 92.7569 55.6997 91.902 55.7997C91.2608 55.8997 90.4059 55.6997 89.7647 55.6997C87.8649 55.6997 85.9889 55.6997 84.1366 55.6997C80.4795 55.633 76.8224 55.5997 73.1654 55.5997C61.8617 55.4663 50.558 55.3663 39.2543 55.2997L16.9556 55.0997C14.0109 52.633 11.4462 49.1997 9.26145 44.7997C8.834 36.9997 8.62027 29.6997 8.834 22.7997C10.7575 17.9997 13.251 14.1997 16.5281 11.6997C17.1693 10.9997 19.0216 11.6997 19.3778 11.6997C21.9425 11.6997 24.5072 11.7997 27.1431 11.7997C31.5601 11.7997 36.5471 10.7997 40.8216 12.7997C41.0353 12.8997 41.249 12.9997 41.4628 12.9997C41.6052 12.8997 41.819 12.7997 41.9615 12.6997C44.8824 10.5997 49.1569 11.6997 52.3628 11.6997C70.6007 11.5997 88.9098 11.0997 107.148 11.1997C118.333 11.1997 129.518 11.2997 140.703 11.3997C145.785 11.4663 150.866 11.533 155.948 11.5997C158.513 11.5997 161.078 11.5997 163.643 11.5997C164.925 11.6997 166.207 11.5997 167.561 11.5997C168.059 11.5997 168.843 11.4997 169.413 11.7997C169.841 11.9997 169.841 12.4997 170.268 12.7997C170.553 13.0997 170.98 12.7997 171.265 12.4997C171.764 12.0997 172.049 11.6997 172.69 11.6997C173.783 11.6997 174.851 11.6997 175.896 11.6997C177.986 11.7663 180.099 11.7997 182.237 11.7997C186.416 11.7997 190.596 11.7997 194.775 11.7997C197.126 11.7997 199.477 11.7997 201.828 11.7997C202.327 11.7997 203.894 11.2997 204.322 11.6997C207.599 14.1997 210.092 17.9997 211.944 22.7997C212.514 24.0997 212.087 27.5997 212.087 29.0997C212.087 31.2997 212.087 32.5997 211.375 34.3997C211.09 35.3997 211.873 37.4997 211.873 38.6997C211.873 39.9997 212.087 43.6997 211.588 44.7997Z" fill="url(#paint0_linear_1108_7693)"/>
<path d="M208.667 39.2996C208.667 40.0996 208.881 42.4996 208.525 43.1996C206.863 46.2663 205.01 48.7329 202.968 50.5996L165.21 50.9996L153.312 51.0996C149.133 51.0996 144.953 51.1329 140.774 51.1996C138.684 51.1996 136.594 51.2329 134.505 51.2996C133.507 51.2996 132.439 51.3996 131.37 51.2996C130.444 51.0996 129.874 50.5996 129.019 49.9996C128.805 49.8996 128.592 49.6996 128.307 49.7996C127.95 49.7996 127.737 50.2996 127.523 50.6996C126.882 51.9996 124.531 51.2996 123.533 51.2996C121.919 51.2996 120.304 51.3329 118.689 51.3996C116.979 51.3996 115.269 51.3996 113.559 51.3996C112.04 51.3996 110.496 51.3996 108.929 51.3996C107.409 51.3996 105.865 51.3996 104.298 51.3996C102.944 51.3996 102.018 50.9996 100.665 50.4996C99.6673 50.1996 98.5275 50.9996 97.6726 50.1996C97.3164 49.8996 97.1026 49.3996 96.7464 49.1996C96.3902 49.0996 96.1052 49.2996 95.749 49.4996C94.4667 50.2996 92.9706 51.0996 91.617 51.2996C88.9098 51.5996 86.1314 51.2996 83.4954 51.1996C81.3107 51.1996 79.1022 51.1996 76.8699 51.1996C72.9754 51.1329 69.0571 51.0996 65.115 51.0996C57.8959 51.0329 50.653 50.9663 43.3863 50.8996C37.402 50.8329 31.3939 50.7663 25.3621 50.6996C23.5098 50.6996 21.6813 50.6996 19.8765 50.6996C19.449 50.6996 18.2379 50.9996 17.8817 50.5996C15.8157 48.7996 13.9634 46.2996 12.3249 43.1996C12.2774 42.5329 12.2536 41.8996 12.2536 41.2996C12.2536 41.2329 12.2536 41.1663 12.2536 41.0996C12.2061 40.8329 12.1824 40.5663 12.1824 40.2996C11.8974 34.4996 11.8262 29.0996 11.9686 24.0996C13.4647 20.4996 15.3882 17.7996 17.7392 15.7996C17.953 15.7996 18.2379 15.8996 18.3804 15.8996C18.7366 15.9996 18.9503 16.0996 19.3066 16.0996C20.3039 16.0996 21.2776 16.1329 22.2275 16.1996C23.8423 16.1996 25.4571 16.2329 27.0719 16.2996C29.5416 16.2329 32.0351 16.1996 34.5523 16.1996C35.8347 16.1996 37.117 16.1996 38.3994 16.1996C39.5392 16.2996 40.4654 16.9996 41.534 17.4996C41.7477 17.4996 41.9615 17.5996 42.1752 17.4996C42.3177 17.3996 42.3889 17.2996 42.4601 17.1996C43.6 15.5996 45.5948 16.1996 47.0196 16.1996C48.8244 16.1329 50.6055 16.0996 52.3628 16.0996C55.0699 16.0996 57.7771 16.0663 60.4843 15.9996C64.8063 15.9996 69.1283 15.9663 73.4503 15.8996C83.8516 15.6996 94.6092 15.5996 105.224 15.5996H107.148C120.256 15.5996 133.65 15.7996 146.616 15.8996C150.558 15.9663 154.476 15.9996 158.371 15.9996C160.318 16.0663 162.289 16.0996 164.284 16.0996C165.922 16.0996 167.703 15.6996 169.413 15.8996C169.318 17.4329 169.223 18.9329 169.128 20.3996C169.366 19.8663 169.627 19.3329 169.912 18.7996C170.268 17.9996 170.482 17.3996 170.695 16.5996C170.767 16.4996 170.767 16.2996 170.909 16.2996C170.957 16.2329 171.028 16.1996 171.123 16.1996C174.899 16.0996 178.746 16.1996 182.522 16.1996C186.369 16.2663 190.239 16.2996 194.134 16.2996H196.485C198.29 16.2996 200.095 16.2663 201.899 16.1996C202.256 16.1996 202.683 16.0996 203.039 16.0996C203.68 16.0996 204.322 16.7996 204.749 17.3996C205.319 17.9996 205.818 18.5996 206.245 19.2996C206.768 19.9663 207.242 20.6996 207.67 21.4996C207.86 21.8996 208.05 22.2996 208.24 22.6996C208.382 22.9996 208.881 23.6996 208.881 24.0996C208.929 26.1663 208.929 28.2329 208.881 30.2996C208.881 31.1996 209.024 32.3996 208.739 33.1996C208.382 33.8996 207.812 34.1996 208.026 35.2996C208.097 35.5996 208.24 35.8996 208.311 36.1996C208.406 36.3996 208.477 36.5996 208.525 36.7996C208.81 37.5996 208.739 38.1996 208.667 39.2996Z" fill="url(#paint1_linear_1108_7693)"/>
<path d="M202.968 40.4003C204.393 41.2003 204.535 44.1003 203.039 45.0003C199.833 47.1003 200.261 39.0003 202.825 40.3003C202.873 40.3003 202.92 40.3337 202.968 40.4003Z" fill="url(#paint2_radial_1108_7693)"/>
<path d="M157.373 21.7001C159.51 21.2001 161.22 24.5001 160.009 27.2001C157.373 33.1001 153.455 23.0001 157.159 21.8001C157.254 21.8001 157.326 21.7668 157.373 21.7001Z" fill="url(#paint3_radial_1108_7693)"/>
<path d="M19.0216 26.3C17.4542 25.9 16.2431 28.3 17.098 30.2C19.0216 34.5 21.8 27.2 19.0928 26.3C19.0928 26.3 19.0691 26.3 19.0216 26.3Z" fill="url(#paint4_radial_1108_7693)"/>
<path d="M110.14 39.2005C112.277 38.7005 113.987 41.9005 112.776 44.6005C110.211 50.5005 106.293 40.4005 109.997 39.2005C110.045 39.2005 110.092 39.2005 110.14 39.2005Z" fill="url(#paint5_radial_1108_7693)"/>
<path d="M117.193 42.2003C118.048 42.0003 118.689 43.3003 118.261 44.3003C117.193 46.7003 115.625 42.7003 117.122 42.2003C117.122 42.2003 117.145 42.2003 117.193 42.2003Z" fill="url(#paint6_radial_1108_7693)"/>
<path d="M66.4686 25C67.3235 24.8 68.0359 26.1 67.5372 27.2C66.4686 29.5 64.9725 25.5 66.3974 25.1C66.4449 25.0334 66.4686 25 66.4686 25Z" fill="url(#paint7_radial_1108_7693)"/>
<path d="M22.4412 25.2999C23.0824 25.1999 23.5811 26.1999 23.2248 26.9999C22.4412 28.7999 21.2301 25.6999 22.3699 25.3999C22.3699 25.3332 22.3937 25.2999 22.4412 25.2999Z" fill="url(#paint8_radial_1108_7693)"/>
<path d="M40.7503 43.3997C42.0327 43.0997 43.0301 44.9997 42.3177 46.6997C40.7503 50.1997 38.3993 44.1997 40.6078 43.3997C40.6553 43.3997 40.7028 43.3997 40.7503 43.3997Z" fill="url(#paint9_radial_1108_7693)"/>
<path style="mix-blend-mode:screen" opacity="0.29" d="M113.559 51.3996C112.04 51.3996 110.496 51.3996 108.929 51.3996C107.409 51.3996 105.865 51.3996 104.298 51.3996C102.944 51.3996 102.018 50.9996 100.665 50.4996C99.6673 50.1996 98.5275 50.9996 97.6726 50.1996C97.3163 49.8996 97.1026 49.3996 96.7464 49.1996C96.3902 49.0996 96.1052 49.2996 95.749 49.4996C94.4667 50.2996 92.9706 51.0996 91.617 51.2996C88.9098 51.5996 86.1314 51.2996 83.4954 51.1996C81.3107 51.1996 79.1022 51.1996 76.8699 51.1996L60.4843 15.9996C64.8063 15.9996 69.1283 15.9663 73.4503 15.8996C83.8516 15.6996 94.6091 15.5996 105.224 15.5996H107.005L113.559 51.3996Z" fill="url(#paint10_linear_1108_7693)"/>
<path d="M208.739 33.1996C208.382 33.8996 207.812 34.1996 208.026 35.2996C208.097 35.5996 208.24 35.8996 208.311 36.1996C208.406 36.3996 208.477 36.5996 208.525 36.7996C208.026 35.8996 207.599 34.8996 207.812 33.8996C207.955 33.4996 208.097 33.1996 208.169 32.8996C208.382 32.1996 208.382 31.3996 208.382 30.5996C208.382 26.1996 207.456 22.7996 205.319 19.5996C203.395 16.5996 201.044 17.1996 198.408 17.1996C195.511 17.1996 192.59 17.1996 189.646 17.1996C183.851 17.1329 178.033 17.0996 172.192 17.0996C171.693 17.0996 171.123 16.5996 170.838 17.2996C170.268 18.8329 169.698 20.3663 169.128 21.8996C168.986 20.6996 168.914 17.9996 167.917 17.5996C167.347 17.3996 166.706 17.8996 166.065 17.7996C165.495 17.5996 164.925 17.3996 164.355 17.1996C163.144 16.8996 161.861 17.2996 160.65 17.3996C157.896 17.5329 155.141 17.5996 152.386 17.5996C150.629 17.5996 148.848 17.5663 147.043 17.4996C145.428 17.4329 143.79 17.3663 142.127 17.2996C133.935 17.0996 125.742 16.3996 117.549 16.6996C109.285 16.9996 101.021 17.2996 92.6856 17.1996C76.5137 16.9996 60.4131 17.1996 44.2412 17.1996C43.4575 17.1996 42.9588 18.4996 42.1752 18.5996C41.9615 18.6996 41.7477 18.5996 41.534 18.4996C40.8928 18.2996 40.3229 17.7996 39.6817 17.7996C33.4124 17.7329 27.1432 17.6329 20.8739 17.4996C19.734 17.4996 18.7366 17.3996 17.8817 18.2996C16.7893 19.3663 15.7682 20.5329 14.8183 21.7996C12.4673 24.7996 12.5386 28.3996 12.4673 32.5996C12.3961 35.1996 12.4673 37.7996 12.1824 40.2996C11.8974 34.4996 11.8262 29.0996 11.9686 23.9996C13.4647 20.4996 15.3882 17.7996 17.7392 15.7996C17.953 15.7996 18.2379 15.8996 18.3804 15.8996C18.7366 15.9996 18.9503 16.0996 19.3066 16.0996C20.3039 16.0996 21.2776 16.1329 22.2275 16.1996C23.8423 16.1996 25.4571 16.1996 27.0719 16.1996C29.5416 16.1996 32.0351 16.1996 34.5523 16.1996C35.8347 16.1996 37.117 16.1996 38.3994 16.1996C39.5392 16.1996 40.4654 16.9996 41.534 17.4996C41.7477 17.4996 41.9615 17.5996 42.1752 17.4996C42.3177 17.3996 42.3889 17.2996 42.4601 17.1996C43.6 15.5996 45.5948 16.1996 47.0196 16.1996C48.8244 16.1329 50.6055 16.0996 52.3628 16.0996C59.3919 16.0329 66.4211 15.9663 73.4503 15.8996C83.8516 15.6996 94.6092 15.5996 105.224 15.5996H107.148C120.256 15.5996 133.65 15.7996 146.616 15.8996C150.558 15.9663 154.476 15.9996 158.371 15.9996C160.318 16.0663 162.289 16.0996 164.284 16.0996C165.922 16.0996 167.703 15.6996 169.413 15.8996C169.318 17.4329 169.223 18.9329 169.128 20.3996C169.366 19.8663 169.627 19.3329 169.912 18.7996C170.268 17.9996 170.482 17.3996 170.695 16.5996C170.767 16.4996 170.838 16.2996 170.909 16.2996C170.957 16.2329 171.028 16.1996 171.123 16.1996C174.899 16.0996 178.746 16.1996 182.522 16.1996C186.369 16.1996 190.239 16.1996 194.134 16.1996H196.485C198.29 16.2663 200.095 16.2663 201.899 16.1996C202.256 16.1996 202.683 16.0996 203.039 16.0996C203.68 16.0996 204.322 16.7996 204.749 17.3996C205.319 17.9996 205.818 18.5996 206.245 19.2996C206.768 19.9663 207.242 20.6996 207.67 21.4996C207.86 21.8996 208.05 22.2996 208.24 22.6996C208.382 22.9996 208.81 23.6996 208.881 23.9996C208.929 26.1329 208.929 28.2329 208.881 30.2996C208.881 31.1996 209.024 32.3996 208.739 33.1996Z" fill="#B4F4FA"/>
<path d="M53.664 39.24V42H44.256V25.68H47.136V39.24H53.664ZM65.3001 41.304C64.4681 41.64 63.6841 41.88 62.9481 42.024C62.2121 42.168 61.5161 42.24 60.8601 42.24C59.0521 42.24 57.6841 41.728 56.7561 40.704C55.8281 39.68 55.3641 38.32 55.3641 36.624V35.184C55.3641 34.048 55.5721 33.064 55.9881 32.232C56.4041 31.4 56.9961 30.752 57.7641 30.288C58.5321 29.824 59.4361 29.592 60.4761 29.592C61.3241 29.592 62.1161 29.768 62.8521 30.12C63.6041 30.456 64.2121 30.992 64.6761 31.728C65.1561 32.448 65.3961 33.376 65.3961 34.512C65.3961 34.848 65.3721 35.208 65.3241 35.592C65.2761 35.96 65.1961 36.352 65.0841 36.768H58.0281C58.0601 37.76 58.3081 38.504 58.7721 39C59.2361 39.496 59.9801 39.744 61.0041 39.744C61.5481 39.744 62.1081 39.68 62.6841 39.552C63.2761 39.424 63.8841 39.232 64.5081 38.976L65.3001 41.304ZM60.4761 31.92C59.7401 31.92 59.1641 32.16 58.7481 32.64C58.3481 33.104 58.1161 33.776 58.0521 34.656H62.6601C62.6761 34.576 62.6841 34.504 62.6841 34.44C62.6841 34.36 62.6841 34.288 62.6841 34.224C62.6841 33.456 62.4681 32.88 62.0361 32.496C61.6041 32.112 61.0841 31.92 60.4761 31.92ZM77.7917 42.12C76.9757 42.12 76.3197 41.952 75.8237 41.616C75.3437 41.28 74.9917 40.864 74.7677 40.368C74.0797 41.008 73.4157 41.48 72.7757 41.784C72.1357 42.088 71.4477 42.24 70.7117 42.24C69.6397 42.24 68.8477 41.896 68.3357 41.208C67.8397 40.52 67.5917 39.648 67.5917 38.592C67.5917 37.888 67.7197 37.272 67.9757 36.744C68.2477 36.2 68.6877 35.776 69.2957 35.472C69.9037 35.168 70.7357 35.016 71.7917 35.016C72.2077 35.016 72.6397 35.048 73.0877 35.112C73.5357 35.16 73.9837 35.224 74.4317 35.304V33.888C74.4317 33.216 74.2477 32.76 73.8797 32.52C73.5117 32.264 73.0157 32.136 72.3917 32.136C71.9117 32.136 71.3837 32.2 70.8077 32.328C70.2477 32.456 69.6397 32.656 68.9837 32.928L68.1917 30.576C69.8077 29.92 71.2717 29.592 72.5837 29.592C73.7677 29.592 74.6797 29.792 75.3197 30.192C75.9757 30.592 76.4317 31.12 76.6877 31.776C76.9437 32.432 77.0717 33.136 77.0717 33.888V38.568C77.0717 38.808 77.1357 39.04 77.2637 39.264C77.4077 39.472 77.6797 39.576 78.0797 39.576H78.3437V42.12H77.7917ZM70.2557 38.544C70.2557 38.976 70.3517 39.32 70.5437 39.576C70.7357 39.816 71.0157 39.936 71.3837 39.936C71.7517 39.936 72.1677 39.84 72.6317 39.648C73.0957 39.456 73.6957 39.008 74.4317 38.304V37.272C73.5997 37.128 72.7837 37.056 71.9837 37.056C71.3597 37.056 70.9117 37.184 70.6397 37.44C70.3837 37.696 70.2557 38.064 70.2557 38.544ZM87.8678 42V40.344C87.1318 41.08 86.4918 41.584 85.9478 41.856C85.4198 42.112 84.8678 42.24 84.2918 42.24C82.9798 42.24 81.9558 41.744 81.2198 40.752C80.4998 39.76 80.1398 38.368 80.1398 36.576V35.28C80.1398 33.536 80.5798 32.152 81.4598 31.128C82.3398 30.104 83.6118 29.592 85.2758 29.592C85.6918 29.592 86.0998 29.632 86.4998 29.712C86.9158 29.792 87.3238 29.904 87.7238 30.048V24.24H90.4838V42H87.8678ZM82.9718 36.576C82.9718 37.648 83.1478 38.432 83.4998 38.928C83.8678 39.424 84.3798 39.672 85.0358 39.672C85.4038 39.672 85.7958 39.568 86.2118 39.36C86.6278 39.136 87.1318 38.72 87.7238 38.112V32.544C86.9398 32.224 86.2198 32.064 85.5638 32.064C84.6358 32.064 83.9718 32.352 83.5718 32.928C83.1718 33.504 82.9718 34.288 82.9718 35.28V36.576ZM103.527 41.304C102.695 41.64 101.911 41.88 101.175 42.024C100.439 42.168 99.7426 42.24 99.0866 42.24C97.2786 42.24 95.9106 41.728 94.9826 40.704C94.0546 39.68 93.5906 38.32 93.5906 36.624V35.184C93.5906 34.048 93.7986 33.064 94.2146 32.232C94.6306 31.4 95.2226 30.752 95.9906 30.288C96.7586 29.824 97.6626 29.592 98.7026 29.592C99.5506 29.592 100.343 29.768 101.079 30.12C101.831 30.456 102.439 30.992 102.903 31.728C103.383 32.448 103.623 33.376 103.623 34.512C103.623 34.848 103.599 35.208 103.551 35.592C103.503 35.96 103.423 36.352 103.311 36.768H96.2546C96.2866 37.76 96.5346 38.504 96.9986 39C97.4626 39.496 98.2066 39.744 99.2306 39.744C99.7746 39.744 100.335 39.68 100.911 39.552C101.503 39.424 102.111 39.232 102.735 38.976L103.527 41.304ZM98.7026 31.92C97.9666 31.92 97.3906 32.16 96.9746 32.64C96.5746 33.104 96.3426 33.776 96.2786 34.656H100.887C100.903 34.576 100.911 34.504 100.911 34.44C100.911 34.36 100.911 34.288 100.911 34.224C100.911 33.456 100.695 32.88 100.263 32.496C99.8306 32.112 99.3106 31.92 98.7026 31.92ZM113.666 32.352C112.914 32.352 112.194 32.472 111.506 32.712C110.834 32.936 110.186 33.304 109.562 33.816V42H106.802V29.832H109.418V31.704C110.234 30.936 110.962 30.392 111.602 30.072C112.242 29.752 112.93 29.592 113.666 29.592V32.352ZM126.332 36.552C126.332 38.296 125.9 39.68 125.036 40.704C124.172 41.728 122.908 42.24 121.243 42.24C119.516 42.24 117.764 41.76 115.988 40.8V24.24H118.748V31.44C119.484 30.704 120.116 30.216 120.644 29.976C121.172 29.72 121.716 29.592 122.276 29.592C123.556 29.592 124.548 30.088 125.252 31.08C125.972 32.072 126.332 33.464 126.332 35.256V36.552ZM121.532 32.16C121.148 32.16 120.74 32.272 120.308 32.496C119.892 32.72 119.372 33.16 118.748 33.816V39.264C119.18 39.44 119.572 39.568 119.924 39.648C120.292 39.728 120.652 39.768 121.004 39.768C121.9 39.768 122.54 39.48 122.924 38.904C123.308 38.328 123.5 37.544 123.5 36.552V35.256C123.5 34.184 123.324 33.4 122.972 32.904C122.636 32.408 122.156 32.16 121.532 32.16ZM139.473 35.184V36.624C139.473 38.32 139.009 39.68 138.081 40.704C137.153 41.728 135.841 42.24 134.145 42.24C132.449 42.24 131.137 41.728 130.209 40.704C129.281 39.68 128.817 38.32 128.817 36.624V35.184C128.817 33.488 129.273 32.136 130.185 31.128C131.113 30.104 132.433 29.592 134.145 29.592C135.857 29.592 137.169 30.104 138.081 31.128C139.009 32.136 139.473 33.488 139.473 35.184ZM136.641 35.184C136.641 34.208 136.425 33.448 135.993 32.904C135.561 32.344 134.945 32.064 134.145 32.064C133.345 32.064 132.729 32.344 132.297 32.904C131.865 33.448 131.649 34.208 131.649 35.184V36.624C131.649 37.6 131.865 38.368 132.297 38.928C132.729 39.488 133.345 39.768 134.145 39.768C134.945 39.768 135.561 39.488 135.993 38.928C136.425 38.368 136.641 37.6 136.641 36.624V35.184ZM151.784 42.12C150.968 42.12 150.312 41.952 149.816 41.616C149.336 41.28 148.984 40.864 148.76 40.368C148.072 41.008 147.408 41.48 146.768 41.784C146.128 42.088 145.44 42.24 144.704 42.24C143.632 42.24 142.84 41.896 142.328 41.208C141.832 40.52 141.584 39.648 141.584 38.592C141.584 37.888 141.712 37.272 141.968 36.744C142.24 36.2 142.68 35.776 143.288 35.472C143.896 35.168 144.728 35.016 145.784 35.016C146.2 35.016 146.632 35.048 147.08 35.112C147.528 35.16 147.976 35.224 148.424 35.304V33.888C148.424 33.216 148.24 32.76 147.872 32.52C147.504 32.264 147.008 32.136 146.384 32.136C145.904 32.136 145.376 32.2 144.8 32.328C144.24 32.456 143.632 32.656 142.976 32.928L142.184 30.576C143.8 29.92 145.264 29.592 146.576 29.592C147.76 29.592 148.672 29.792 149.312 30.192C149.968 30.592 150.424 31.12 150.68 31.776C150.936 32.432 151.064 33.136 151.064 33.888V38.568C151.064 38.808 151.128 39.04 151.256 39.264C151.4 39.472 151.672 39.576 152.072 39.576H152.336V42.12H151.784ZM144.248 38.544C144.248 38.976 144.344 39.32 144.536 39.576C144.728 39.816 145.008 39.936 145.376 39.936C145.744 39.936 146.16 39.84 146.624 39.648C147.088 39.456 147.688 39.008 148.424 38.304V37.272C147.592 37.128 146.776 37.056 145.976 37.056C145.352 37.056 144.904 37.184 144.632 37.44C144.376 37.696 144.248 38.064 144.248 38.544ZM161.596 32.352C160.844 32.352 160.124 32.472 159.436 32.712C158.764 32.936 158.116 33.304 157.492 33.816V42H154.732V29.832H157.348V31.704C158.164 30.936 158.892 30.392 159.532 30.072C160.172 29.752 160.86 29.592 161.596 29.592V32.352ZM171.141 42V40.344C170.405 41.08 169.765 41.584 169.221 41.856C168.693 42.112 168.141 42.24 167.565 42.24C166.253 42.24 165.229 41.744 164.493 40.752C163.773 39.76 163.413 38.368 163.413 36.576V35.28C163.413 33.536 163.853 32.152 164.733 31.128C165.613 30.104 166.885 29.592 168.549 29.592C168.965 29.592 169.373 29.632 169.773 29.712C170.189 29.792 170.597 29.904 170.997 30.048V24.24H173.757V42H171.141ZM166.245 36.576C166.245 37.648 166.421 38.432 166.773 38.928C167.141 39.424 167.653 39.672 168.309 39.672C168.677 39.672 169.069 39.568 169.485 39.36C169.901 39.136 170.405 38.72 170.997 38.112V32.544C170.213 32.224 169.493 32.064 168.837 32.064C167.909 32.064 167.245 32.352 166.845 32.928C166.445 33.504 166.245 34.288 166.245 35.28V36.576Z" fill="white"/>
<defs>
<linearGradient id="paint0_linear_1108_7693" x1="-2779.14" y1="702.894" x2="-2779.14" y2="16921.5" gradientUnits="userSpaceOnUse">
<stop stop-color="#40B8E3"/>
<stop offset="0.64" stop-color="#304891"/>
<stop offset="1" stop-color="#15AD8C"/>
</linearGradient>
<linearGradient id="paint1_linear_1108_7693" x1="-8684.67" y1="1723.02" x2="-8684.67" y2="30149" gradientUnits="userSpaceOnUse">
<stop stop-color="#4EBDE6"/>
<stop offset="1" stop-color="#085A8A"/>
</linearGradient>
<radialGradient id="paint2_radial_1108_7693" cx="0" cy="0" r="1" gradientUnits="userSpaceOnUse" gradientTransform="translate(1006.83 205.423) scale(13.3577 20.8087)">
<stop stop-color="#62CEF5"/>
<stop offset="1" stop-color="#237FCF"/>
</radialGradient>
<radialGradient id="paint3_radial_1108_7693" cx="0" cy="0" r="1" gradientTransform="matrix(22.5774 -20.4982 16.114 34.9696 942.691 -539.004)" gradientUnits="userSpaceOnUse">
<stop stop-color="#62CEF5"/>
<stop offset="1" stop-color="#237FCF"/>
</radialGradient>
<radialGradient id="paint4_radial_1108_7693" cx="0" cy="0" r="1" gradientTransform="matrix(-11.6763 -10.5362 8.30986 -18.1445 1.63915 -111.656)" gradientUnits="userSpaceOnUse">
<stop stop-color="#62CEF5"/>
<stop offset="1" stop-color="#237FCF"/>
</radialGradient>
<radialGradient id="paint5_radial_1108_7693" cx="0" cy="0" r="1" gradientTransform="matrix(22.2487 -20.1997 15.8989 34.5028 710.382 -236.015)" gradientUnits="userSpaceOnUse">
<stop stop-color="#62CEF5"/>
<stop offset="1" stop-color="#237FCF"/>
</radialGradient>
<radialGradient id="paint6_radial_1108_7693" cx="0" cy="0" r="1" gradientTransform="matrix(3.55627 -3.22875 2.49618 5.41706 373.263 -75.0938)" gradientUnits="userSpaceOnUse">
<stop stop-color="#62CEF5"/>
<stop offset="1" stop-color="#237FCF"/>
</radialGradient>
<radialGradient id="paint7_radial_1108_7693" cx="0" cy="0" r="1" gradientTransform="matrix(3.55161 -3.22452 2.53757 5.5069 212.373 -38.0633)" gradientUnits="userSpaceOnUse">
<stop stop-color="#62CEF5"/>
<stop offset="1" stop-color="#237FCF"/>
</radialGradient>
<radialGradient id="paint8_radial_1108_7693" cx="0" cy="0" r="1" gradientTransform="matrix(2.0938 -1.90207 1.51877 3.29407 71.6205 34.9436)" gradientUnits="userSpaceOnUse">
<stop stop-color="#62CEF5"/>
<stop offset="1" stop-color="#237FCF"/>
</radialGradient>
<radialGradient id="paint9_radial_1108_7693" cx="0" cy="0" r="1" gradientTransform="matrix(8.07053 -7.32964 5.77026 12.5183 210.627 67.5439)" gradientUnits="userSpaceOnUse">
<stop stop-color="#62CEF5"/>
<stop offset="1" stop-color="#237FCF"/>
</radialGradient>
<linearGradient id="paint10_linear_1108_7693" x1="3427.8" y1="7394.71" x2="8372.35" y2="11569.1" gradientUnits="userSpaceOnUse">
<stop stop-color="#C7F0E1"/>
<stop offset="1"/>
</linearGradient>
</defs>
</svg>
