<svg width="213" height="185" viewBox="0 0 213 185" fill="none" xmlns="http://www.w3.org/2000/svg">
<path fill-rule="evenodd" clip-rule="evenodd" d="M182.381 137.086C158.818 180.608 103.971 196.446 59.9063 172.489C15.7087 148.665 -0.931876 94.0971 22.6313 50.5755C46.3275 7.05395 101.175 -8.78417 145.239 15.0396C189.304 38.9964 205.944 93.5647 182.381 137.086ZM140.713 17.7014C100.643 -3.99281 50.5875 10.9137 28.8881 50.9748C7.18875 91.036 21.9656 141.079 62.0362 162.773C102.107 184.468 152.295 169.694 173.994 129.633C195.694 89.5719 180.784 39.3957 140.713 17.7014Z" fill="url(#paint0_linear_51_300)"/>
<path d="M116.218 158.248C107.565 157.583 99.1781 156.119 91.0575 153.457C88.2619 156.784 85.3331 159.978 82.1381 162.906C92.1225 165.435 102.506 166.5 112.624 165.835C113.822 163.306 115.02 160.777 116.218 158.248Z" fill="white"/>
<path d="M35.6775 63.8849C22.365 89.4388 25.9594 121.647 46.0612 142.41C50.8537 147.335 56.445 151.594 62.5688 154.921C66.8288 152.259 70.9556 149.331 75.0825 146.669C70.6894 144.14 66.2963 141.212 61.9031 137.619C52.185 129.766 45.2625 120.982 40.7363 109.27C35.8106 96.4928 33.2813 77.3273 35.9438 64.018C35.9438 64.018 35.8106 63.7518 35.6775 63.8849Z" fill="white"/>
<g style="mix-blend-mode:screen" opacity="0.4">
<path d="M138.983 25.2878C170.533 42.4568 182.781 80.7878 166.406 111.133C149.899 141.478 111.026 152.126 79.4756 135.09C47.925 117.921 35.6775 79.5899 52.185 49.2446C68.5594 18.8993 107.432 8.2518 138.983 25.2878Z" fill="#B4F4FA"/>
</g>
<g style="mix-blend-mode:multiply" opacity="0.58">
<path d="M110.094 26.3525C134.19 39.3957 142.311 71.205 128.199 97.2914C113.955 123.378 82.9369 133.892 58.8413 120.849C34.7456 107.806 26.625 75.9964 40.7362 49.9101C54.9806 23.8237 85.9987 13.3093 110.094 26.3525Z" fill="#A6D5E8"/>
</g>
<path d="M162.546 60.8237C165.741 74.5324 161.081 87.4424 152.162 89.5719C143.109 91.5683 133.258 82.1187 129.93 68.4101C126.735 54.7014 131.394 41.7914 140.447 39.6619C149.366 37.6655 159.351 46.982 162.546 60.8237Z" fill="#B4F4FA"/>
<path d="M152.295 97.4245C156.954 99.9532 158.153 106.874 154.824 112.996C151.629 118.986 145.106 121.781 140.447 119.252C135.788 116.723 134.723 109.802 137.918 103.813C141.246 97.8237 147.636 94.8957 152.295 97.4245Z" fill="#B4F4FA"/>
<path d="M86.145 144.477C83.5914 143.546 79.9636 141.653 77.4696 139.974C76.9013 139.594 76.3908 139.226 75.9663 138.881C75.0063 138.103 74.4739 137.451 74.669 137.086C74.6699 137.089 74.6746 137.083 74.683 137.067C74.6902 137.059 74.6995 137.046 74.7109 137.029C74.7496 136.978 74.818 136.879 74.9157 136.746C74.9292 136.725 74.9453 136.702 74.9639 136.677C74.9981 136.627 75.0374 136.572 75.0818 136.513C75.1067 136.476 75.1342 136.436 75.1642 136.394C75.1735 136.382 75.1818 136.371 75.189 136.362C75.2061 136.337 75.2263 136.307 75.2466 136.276C75.2961 136.212 75.3411 136.149 75.3924 136.074C75.4329 136.012 75.4825 135.948 75.5293 135.875C75.5788 135.811 75.6238 135.748 75.672 135.679C75.7848 135.52 75.904 135.349 76.0294 135.167C76.0966 135.074 76.1655 134.976 76.236 134.873C76.2545 134.852 76.2671 134.829 76.2855 134.808C76.326 134.747 76.3711 134.684 76.4161 134.621C76.5052 134.492 76.5979 134.359 76.6942 134.221C76.7284 134.172 76.7658 134.116 76.8045 134.065C77.1543 133.56 77.5368 133.001 77.9518 132.402C78.0405 132.272 78.1292 132.141 78.2224 132.01C78.3065 131.881 78.3952 131.75 78.4884 131.619C78.5428 131.538 78.6004 131.452 78.6594 131.37C78.7176 131.28 78.7773 131.19 78.8385 131.099C78.9318 130.962 79.0252 130.826 79.1185 130.689C79.1621 130.622 79.2117 130.557 79.2553 130.49C79.425 130.237 79.6023 129.976 79.7783 129.711C79.8665 129.579 79.9558 129.445 80.0461 129.309C80.1364 129.174 80.2282 129.037 80.3215 128.901C80.3443 128.868 80.3652 128.833 80.384 128.798C80.5209 128.599 80.6568 128.397 80.7918 128.192C80.8179 128.148 80.8459 128.105 80.876 128.063C80.9849 127.902 81.0929 127.738 81.2 127.571C81.2789 127.451 81.3588 127.33 81.4399 127.207C81.6319 126.919 81.8225 126.627 82.0118 126.33C82.0195 126.322 82.0258 126.311 82.0321 126.299C82.3111 125.869 82.5932 125.434 82.8754 124.999L82.8772 124.989C83.1688 124.536 83.4604 124.083 83.7492 123.621C83.796 123.548 83.8439 123.472 83.8928 123.395C83.9417 123.318 83.9891 123.241 84.0349 123.165C84.1191 123.036 84.2019 122.902 84.2815 122.775C86.2788 119.574 88.1959 116.303 89.5749 113.501C89.9084 112.828 90.1995 112.178 90.4482 111.551C90.5198 111.375 90.5868 111.201 90.6493 111.027C90.7053 110.876 90.7597 110.724 90.8126 110.574C90.8309 110.525 90.8476 110.478 90.8629 110.43C90.8793 110.376 90.8977 110.323 90.918 110.271C90.9802 110.075 91.0402 109.882 91.0982 109.694C91.2421 109.204 91.3628 108.729 91.4601 108.269C91.4874 108.147 91.5115 108.032 91.5297 107.913C91.5779 107.681 91.6158 107.448 91.6504 107.221C91.729 106.65 91.7742 106.099 91.7859 105.569C91.7908 105.465 91.7922 105.361 91.7901 105.257C91.7903 105.181 91.7899 105.104 91.7891 105.026C91.7879 105 91.7866 104.974 91.7853 104.948C91.7872 104.846 91.7841 104.743 91.776 104.64C91.7712 104.543 91.7651 104.442 91.759 104.34C91.7529 104.238 91.7436 104.143 91.7329 104.042C91.7228 103.944 91.7115 103.847 91.6993 103.752C91.6748 103.557 91.6473 103.369 91.6152 103.181C91.5981 103.081 91.5795 102.982 91.5593 102.883C91.5307 102.734 91.4994 102.587 91.4657 102.443C91.4523 102.388 91.4389 102.333 91.4255 102.278C91.4112 102.22 91.3959 102.164 91.3795 102.109C91.3615 102.039 91.3425 101.971 91.3225 101.905C91.3061 101.851 91.2897 101.797 91.2733 101.742C91.2587 101.694 91.2442 101.646 91.2296 101.598C91.1886 101.463 91.1446 101.328 91.0976 101.195C91.0846 101.162 91.073 101.13 91.063 101.097C91.0518 101.07 91.0421 101.044 91.0339 101.017C91.0209 100.984 91.0079 100.952 90.9948 100.92C90.9718 100.855 90.9477 100.791 90.9225 100.73C90.9189 100.718 90.9137 100.706 90.9071 100.695C90.8968 100.672 90.8876 100.647 90.8794 100.62C90.8745 100.615 90.8707 100.608 90.868 100.599C90.8262 100.493 90.7814 100.389 90.7335 100.285C90.7223 100.259 90.7116 100.234 90.7013 100.211C90.6901 100.185 90.6793 100.16 90.669 100.137C90.6493 100.093 90.6301 100.052 90.6113 100.011C90.5917 99.968 90.572 99.9247 90.5523 99.8814C90.5108 99.7986 90.4694 99.7159 90.4279 99.6332C90.4128 99.6049 90.3992 99.5762 90.3871 99.547C90.3719 99.5188 90.3568 99.4905 90.3417 99.4622C90.3398 99.4562 90.337 99.4521 90.3331 99.4501C90.3237 99.4299 90.3123 99.4087 90.299 99.3864C90.2803 99.3461 90.26 99.3063 90.2382 99.2669C90.2164 99.2275 90.1946 99.1881 90.1729 99.1487C90.1719 99.1457 90.1715 99.1442 90.1715 99.1442C90.1582 99.1219 90.1459 99.0977 90.1347 99.0716C90.1166 99.0442 90.1 99.0164 90.0848 98.9881C90.0697 98.9598 90.0531 98.932 90.0349 98.9047C90.0132 98.8653 89.9914 98.8259 89.9696 98.7865C89.9251 98.7047 89.8781 98.6253 89.8285 98.5483C89.8028 98.5068 89.7782 98.4634 89.7546 98.4179C89.725 98.3744 89.6964 98.3288 89.6689 98.2813C89.664 98.2762 89.6592 98.2711 89.6544 98.266C89.6411 98.2437 89.6282 98.223 89.6158 98.2037C89.591 98.1652 89.5678 98.1263 89.546 98.0869C89.5212 98.0484 89.4964 98.0099 89.4716 97.9715C89.4486 97.939 89.4272 97.9061 89.4072 97.8727C89.3852 97.8432 89.3642 97.8118 89.3442 97.7784C89.2792 97.6831 89.2147 97.5893 89.1506 97.497C89.1307 97.4637 89.1092 97.4307 89.0862 97.3983C89.0633 97.3658 89.0403 97.3333 89.0173 97.3009C88.9771 97.2441 88.9365 97.1857 88.8954 97.1259C88.8848 97.1127 88.8743 97.0995 88.8637 97.0862C88.8513 97.067 88.8393 97.0493 88.8279 97.033C88.8106 97.0087 88.7934 96.9843 88.7762 96.96C88.7043 96.8635 88.6324 96.767 88.5605 96.6705C88.5327 96.6329 88.5049 96.5953 88.4771 96.5578C88.4493 96.5202 88.4215 96.4826 88.3937 96.4451C88.2489 96.2491 88.1021 96.057 87.9532 95.8688C87.8822 95.7754 87.8092 95.6808 87.7343 95.5853C87.7295 95.5801 87.7246 95.575 87.7198 95.5699C87.6162 95.4338 87.5115 95.2996 87.4058 95.1673C87.2952 95.03 87.1862 94.8922 87.0786 94.7539C86.8787 94.5057 86.6841 94.259 86.495 94.0141C86.4421 93.948 86.3912 93.8829 86.3423 93.8189C86.2933 93.7548 86.2439 93.6893 86.1941 93.6223C86.1575 93.5775 86.1225 93.5323 86.089 93.4866C86.0678 93.4601 86.0482 93.4332 86.03 93.4059C85.9974 93.3632 85.9643 93.319 85.9308 93.2733C85.8982 93.2306 85.8651 93.1864 85.8315 93.1407C85.8019 93.0971 85.7703 93.0525 85.7368 93.0068C85.6736 92.9175 85.6109 92.8297 85.5487 92.7435C85.4722 92.6319 85.3973 92.5199 85.3238 92.4075C85.3008 92.375 85.2789 92.3406 85.2581 92.3042C85.2064 92.2312 85.1572 92.1557 85.1107 92.0778C84.9864 91.8789 84.868 91.6832 84.7497 91.4874C82.5331 87.8272 80.9304 83.9812 81.0229 77.4984C81.1572 68.5983 85.1528 59.855 87.4991 55.4789C88.478 53.6502 89.1642 52.5802 89.1642 52.5802C100.087 34.3442 121.627 26.7502 138.257 35.6559C154.886 44.5571 160.516 66.6913 151.394 85.895L151.399 85.8936C151.399 85.8936 145.569 99.3361 135.178 106.487C129.835 110.159 125.741 110.96 121.471 111.144C121.241 111.154 121.01 111.163 120.779 111.171C120.669 111.175 120.556 111.176 120.44 111.175C120.395 111.175 120.35 111.176 120.308 111.175C120.308 111.175 120.306 111.176 120.303 111.177C120.283 111.176 120.262 111.176 120.239 111.177C120.196 111.176 120.153 111.176 120.111 111.176C120.101 111.176 120.089 111.176 120.076 111.176C120.056 111.176 120.037 111.175 120.017 111.175C119.997 111.174 119.977 111.174 119.957 111.173C119.917 111.172 119.877 111.171 119.838 111.17C119.596 111.164 119.353 111.154 119.109 111.139C119.026 111.135 118.944 111.13 118.863 111.125C118.78 111.121 118.696 111.115 118.612 111.107C118.404 111.095 118.194 111.079 117.982 111.061C117.921 111.057 117.862 111.052 117.805 111.046C117.674 111.037 117.542 111.025 117.41 111.013C117.077 110.986 116.743 110.958 116.405 110.933C116.227 110.918 116.047 110.905 115.866 110.894C115.745 110.884 115.625 110.877 115.505 110.87C115.384 110.864 115.264 110.858 115.144 110.851C115.13 110.849 115.115 110.847 115.098 110.845C115.055 110.845 115.012 110.844 114.968 110.84C114.951 110.839 114.937 110.838 114.924 110.839C114.894 110.838 114.864 110.837 114.834 110.837C114.807 110.835 114.781 110.833 114.754 110.831C114.747 110.83 114.74 110.829 114.733 110.828C114.667 110.828 114.601 110.827 114.535 110.824C114.495 110.823 114.454 110.822 114.411 110.822C114.357 110.818 114.304 110.816 114.251 110.816C114.119 110.813 113.987 110.812 113.856 110.812C113.635 110.81 113.414 110.812 113.192 110.816C113.166 110.818 113.139 110.819 113.11 110.821C112.911 110.826 112.711 110.834 112.511 110.845C112.463 110.85 112.415 110.853 112.366 110.854C112.363 110.855 112.359 110.857 112.352 110.859C112.32 110.859 112.286 110.861 112.251 110.865C112.225 110.866 112.199 110.867 112.173 110.868C112.145 110.874 112.117 110.877 112.088 110.88C112.062 110.881 112.035 110.883 112.006 110.885C111.997 110.887 111.989 110.888 111.982 110.887C111.979 110.888 111.976 110.889 111.973 110.89C111.957 110.891 111.941 110.893 111.925 110.894C111.906 110.897 111.886 110.898 111.867 110.897C111.709 110.915 111.552 110.933 111.392 110.957C111.357 110.961 111.322 110.965 111.287 110.969C111.253 110.976 111.219 110.982 111.184 110.986C111.071 111.003 110.958 111.021 110.845 111.039C110.842 111.04 110.839 111.041 110.836 111.042C110.776 111.05 110.715 111.06 110.653 111.072C110.591 111.085 110.528 111.097 110.463 111.11C110.274 111.148 110.083 111.191 109.891 111.239C109.827 111.255 109.763 111.273 109.7 111.292C109.648 111.304 109.596 111.318 109.545 111.334C109.512 111.344 109.479 111.354 109.446 111.364C109.439 111.363 109.433 111.365 109.428 111.369C109.385 111.379 109.343 111.39 109.304 111.402C109.235 111.423 109.168 111.445 109.103 111.468C109.1 111.469 109.097 111.47 109.094 111.471C109.072 111.477 109.053 111.483 109.035 111.488C109.005 111.497 108.975 111.508 108.946 111.52C108.919 111.528 108.892 111.537 108.865 111.545C108.836 111.557 108.807 111.567 108.78 111.575C108.754 111.586 108.727 111.596 108.7 111.604C108.677 111.615 108.654 111.623 108.63 111.631C108.627 111.632 108.624 111.632 108.621 111.633C108.615 111.635 108.61 111.637 108.607 111.637C108.581 111.649 108.554 111.658 108.527 111.667C108.504 111.677 108.479 111.688 108.453 111.699C108.45 111.7 108.447 111.701 108.444 111.702C108.388 111.722 108.332 111.744 108.277 111.767C108.268 111.77 108.259 111.774 108.251 111.78C108.248 111.781 108.245 111.782 108.242 111.782C108.21 111.796 108.179 111.808 108.15 111.82C108.13 111.83 108.109 111.837 108.088 111.844C108.065 111.854 108.043 111.864 108.023 111.873C107.924 111.916 107.826 111.961 107.728 112.007C107.705 112.017 107.682 112.027 107.659 112.038C107.61 112.062 107.563 112.085 107.517 112.105C107.495 112.119 107.47 112.131 107.444 112.142C107.339 112.197 107.234 112.252 107.129 112.307C106.988 112.382 106.846 112.461 106.703 112.544C106.67 112.564 106.635 112.584 106.599 112.605C106.552 112.636 106.505 112.665 106.458 112.692C106.411 112.723 106.364 112.753 106.318 112.784C106.312 112.786 106.307 112.787 106.304 112.788C106.293 112.794 106.282 112.803 106.272 112.812C106.214 112.846 106.156 112.884 106.099 112.924C106.096 112.925 106.093 112.927 106.091 112.931C106.072 112.943 106.054 112.955 106.038 112.967C105.948 113.029 105.854 113.092 105.764 113.153C105.717 113.191 105.667 113.227 105.615 113.262C105.615 113.262 105.614 113.263 105.611 113.264C105.519 113.331 105.428 113.399 105.338 113.47C105.338 113.47 105.337 113.472 105.335 113.475C105.287 113.513 105.241 113.55 105.196 113.586C105.172 113.604 105.149 113.62 105.127 113.637C105.122 113.642 105.117 113.646 105.112 113.651C105.086 113.672 105.059 113.694 105.033 113.715C104.983 113.756 104.934 113.797 104.888 113.837C104.838 113.879 104.789 113.92 104.742 113.96C104.706 113.991 104.669 114.022 104.632 114.053C104.589 114.095 104.543 114.137 104.493 114.179C104.473 114.198 104.45 114.22 104.424 114.244C104.401 114.264 104.377 114.284 104.354 114.305C104.314 114.346 104.272 114.387 104.228 114.426C104.197 114.455 104.167 114.484 104.136 114.513C104.116 114.533 104.097 114.551 104.079 114.57C104.036 114.612 103.993 114.654 103.949 114.693C103.922 114.724 103.894 114.754 103.863 114.783C103.851 114.797 103.838 114.809 103.825 114.819C103.818 114.828 103.809 114.837 103.799 114.847C103.714 114.935 103.626 115.026 103.536 115.119C103.529 115.127 103.523 115.136 103.519 115.144C103.511 115.149 103.502 115.157 103.491 115.167C103.395 115.271 103.299 115.378 103.204 115.485C102.966 115.754 102.729 116.04 102.492 116.341C102.492 116.341 102.49 116.342 102.487 116.343C102.485 116.347 102.482 116.351 102.477 116.356C102.448 116.391 102.419 116.427 102.392 116.465C102.314 116.568 102.235 116.67 102.155 116.774C102.12 116.823 102.084 116.872 102.046 116.92C101.902 117.118 101.759 117.321 101.614 117.528C101.232 118.088 100.851 118.686 100.477 119.336C98.9688 121.941 97.3683 125.199 95.8663 128.507C95.7879 128.682 95.7079 128.857 95.6264 129.033C95.5357 129.238 95.4449 129.443 95.3528 129.643C95.2265 129.931 95.0996 130.217 94.9723 130.502C94.9181 130.627 94.8635 130.75 94.8084 130.872C94.7383 131.031 94.6687 131.192 94.5995 131.354C94.4647 131.658 94.3325 131.959 94.2029 132.258C94.0196 132.678 93.8422 133.101 93.6621 133.515C93.5804 133.717 93.4973 133.915 93.4097 134.114C93.4016 134.136 93.3936 134.158 93.381 134.182C93.3169 134.339 93.2509 134.495 93.1829 134.651C92.9656 135.17 92.7545 135.677 92.5498 136.173C92.4752 136.35 92.4022 136.526 92.3306 136.702C92.2594 136.868 92.19 137.035 92.1227 137.204C92.0844 137.294 92.048 137.386 92.0136 137.478C91.9636 137.595 91.9141 137.714 91.865 137.834C91.8138 137.957 91.7671 138.08 91.7146 138.199C91.6044 138.476 91.4955 138.745 91.3877 139.008C91.306 139.21 91.2319 139.405 91.152 139.597C90.8876 140.253 90.6451 140.868 90.4252 141.428C90.3978 141.5 90.3704 141.572 90.3417 141.64C90.2528 141.868 90.1687 142.084 90.0894 142.288C90.0687 142.334 90.0494 142.384 90.0333 142.428C89.4502 143.92 89.1163 144.82 89.1163 144.82C88.8803 145.261 87.7179 145.051 86.145 144.477Z" fill="#DF2626"/>
<path d="M85.25 144.955C80.5829 143.52 73.6146 139.056 74.669 137.086C74.6699 137.089 74.6746 137.083 74.683 137.067C74.6902 137.059 74.6995 137.046 74.7109 137.029C74.7496 136.978 74.818 136.879 74.9157 136.746C74.9292 136.725 74.9453 136.702 74.9639 136.677C74.9981 136.627 75.0374 136.572 75.0818 136.513C75.1067 136.476 75.1342 136.436 75.1642 136.394C75.1735 136.382 75.1818 136.371 75.189 136.362C75.2061 136.337 75.2263 136.307 75.2466 136.276C75.2961 136.212 75.3411 136.149 75.3924 136.074C75.4329 136.012 75.4825 135.948 75.5306 135.879C75.5743 135.812 75.6238 135.748 75.672 135.679C75.7848 135.52 75.904 135.349 76.0294 135.167C76.0966 135.074 76.1655 134.976 76.236 134.873C76.2545 134.852 76.2671 134.829 76.281 134.81C76.326 134.747 76.3711 134.684 76.4161 134.621C76.5052 134.492 76.5979 134.359 76.6942 134.221C76.7285 134.172 76.7658 134.116 76.8045 134.065C77.1543 133.56 77.5368 133.001 77.9519 132.402C78.0405 132.272 78.1292 132.141 78.2224 132.01C78.3065 131.881 78.3952 131.75 78.4884 131.619C78.5428 131.538 78.6004 131.452 78.6594 131.37C78.7176 131.28 78.7773 131.19 78.8385 131.099C78.9318 130.962 79.0252 130.826 79.1185 130.689C79.1621 130.622 79.2072 130.559 79.2553 130.49C79.425 130.236 79.6023 129.976 79.7783 129.711C79.8665 129.579 79.9558 129.445 80.0461 129.309C80.1364 129.174 80.2282 129.037 80.3215 128.901C80.3443 128.868 80.3652 128.833 80.384 128.798C80.5209 128.599 80.6568 128.397 80.7918 128.192C80.8179 128.148 80.846 128.105 80.876 128.063C80.9849 127.902 81.0929 127.738 81.2 127.571C81.2789 127.451 81.3589 127.33 81.4399 127.207C81.6319 126.919 81.8225 126.627 82.0118 126.33C82.0195 126.322 82.0258 126.311 82.0321 126.299C82.3111 125.869 82.5946 125.439 82.8754 124.999L82.8772 124.989C83.1688 124.536 83.4604 124.083 83.7492 123.621C83.796 123.548 83.8439 123.472 83.8928 123.395C83.9033 123.376 83.9157 123.357 83.9301 123.339C83.9661 123.279 84.0021 123.219 84.035 123.165C84.1191 123.036 84.2019 122.902 84.2815 122.775C86.2788 119.574 88.196 116.303 89.5749 113.501C89.9084 112.828 90.1996 112.178 90.4483 111.551C90.5198 111.375 90.5873 111.202 90.6507 111.032C90.7057 110.877 90.7597 110.724 90.8126 110.574C90.8309 110.525 90.8476 110.478 90.8629 110.43C90.8793 110.376 90.8977 110.323 90.918 110.271C90.9802 110.075 91.0403 109.882 91.0982 109.694C91.2422 109.204 91.3628 108.729 91.4601 108.269C91.4874 108.147 91.5115 108.032 91.5297 107.913C91.574 107.679 91.6143 107.449 91.6504 107.221C91.731 106.651 91.7761 106.1 91.786 105.569C91.7889 105.464 91.7873 105.361 91.7902 105.257C91.7903 105.181 91.7899 105.104 91.7891 105.026C91.7879 105 91.7866 104.974 91.7853 104.948C91.7842 104.846 91.7811 104.744 91.776 104.64C91.7718 104.54 91.7662 104.44 91.759 104.34C91.7518 104.24 91.7431 104.141 91.733 104.042C91.7228 103.944 91.7115 103.847 91.6993 103.752C91.6748 103.557 91.6473 103.369 91.6152 103.181C91.5981 103.081 91.5795 102.982 91.5594 102.883C91.5307 102.734 91.4994 102.587 91.4657 102.443C91.4067 102.205 91.3425 101.971 91.2733 101.742C91.2587 101.694 91.2442 101.646 91.2296 101.598C91.1886 101.463 91.1446 101.328 91.0976 101.194C91.0967 101.191 91.0943 101.189 91.0904 101.187C91.06 101.097 91.0282 101.009 90.9948 100.92C90.9179 100.72 90.8368 100.523 90.7517 100.329C90.7257 100.264 90.6981 100.2 90.669 100.137C90.6493 100.093 90.6301 100.052 90.6114 100.011C90.5917 99.968 90.572 99.9247 90.5523 99.8813C90.5109 99.7986 90.4694 99.7159 90.4279 99.6332C90.3839 99.5529 90.3444 99.4712 90.299 99.3864C90.2585 99.3067 90.2164 99.2275 90.1729 99.1487C90.172 99.1457 90.1715 99.1442 90.1715 99.1442C90.1649 99.1331 90.1582 99.1219 90.1515 99.1108C90.1137 99.0401 90.0749 98.9714 90.035 98.9047C90.0132 98.8653 89.9914 98.8259 89.9696 98.7865C89.9251 98.7047 89.8781 98.6253 89.8285 98.5483C89.8028 98.5068 89.7767 98.4638 89.7501 98.4193C89.7235 98.3748 89.6964 98.3288 89.6689 98.2813C89.6641 98.2762 89.6592 98.2711 89.6544 98.266C89.6411 98.2437 89.6282 98.223 89.6158 98.2037C89.591 98.1652 89.5663 98.1267 89.5415 98.0883C89.5197 98.0489 89.4954 98.0119 89.4685 97.9773C89.4476 97.9409 89.4272 97.9061 89.4072 97.8727C89.3852 97.8432 89.3642 97.8118 89.3442 97.7784C89.2792 97.6831 89.2147 97.5893 89.1506 97.497C89.1307 97.4637 89.1092 97.4307 89.0863 97.3983C89.0633 97.3658 89.0403 97.3333 89.0173 97.3009C88.9772 97.244 88.9365 97.1857 88.8954 97.1259C88.8848 97.1127 88.8743 97.0994 88.8637 97.0862C88.8513 97.067 88.8394 97.0492 88.8279 97.033C88.8106 97.0087 88.7934 96.9843 88.7762 96.96C88.7043 96.8635 88.6324 96.767 88.5605 96.6705C88.5327 96.6329 88.5049 96.5953 88.4771 96.5578C88.4493 96.5202 88.4215 96.4826 88.3937 96.445C88.2489 96.2491 88.1021 96.057 87.9532 95.8688C87.8822 95.7754 87.8092 95.6808 87.7343 95.5852C87.7295 95.5801 87.7247 95.575 87.7198 95.5699C87.6162 95.4338 87.5115 95.2996 87.4058 95.1673C87.2952 95.03 87.1862 94.8922 87.0786 94.7539C86.8787 94.5056 86.6841 94.259 86.495 94.0141C86.4421 93.9479 86.3912 93.8829 86.3423 93.8189C86.2933 93.7548 86.2439 93.6893 86.1941 93.6223C86.1575 93.5775 86.1225 93.5322 86.089 93.4866C86.0678 93.4601 86.0482 93.4332 86.03 93.4058C85.9974 93.3632 85.9643 93.319 85.9308 93.2733C85.8982 93.2306 85.8651 93.1864 85.8315 93.1407C85.8019 93.0971 85.7703 93.0525 85.7368 93.0068C85.6736 92.9175 85.6109 92.8297 85.5487 92.7435C85.4722 92.6319 85.3973 92.5199 85.3238 92.4075C85.3008 92.375 85.2789 92.3406 85.2581 92.3042C85.2064 92.2312 85.1573 92.1557 85.1107 92.0778C84.9864 91.8789 84.8681 91.6832 84.7497 91.4874L97.527 98.327L121.471 111.144C121.241 111.154 121.01 111.163 120.779 111.171C120.669 111.175 120.556 111.176 120.44 111.175C120.395 111.175 120.35 111.176 120.308 111.175C120.308 111.175 120.306 111.176 120.303 111.177C120.283 111.176 120.262 111.176 120.239 111.177C120.196 111.176 120.153 111.176 120.111 111.176C120.101 111.176 120.089 111.176 120.076 111.176C120.056 111.176 120.037 111.175 120.017 111.175C119.997 111.174 119.977 111.174 119.957 111.173C119.917 111.172 119.878 111.171 119.838 111.17C119.596 111.164 119.353 111.154 119.109 111.139C119.026 111.135 118.944 111.13 118.863 111.125C118.78 111.121 118.696 111.115 118.612 111.107C118.404 111.095 118.194 111.079 117.982 111.061C117.921 111.057 117.862 111.052 117.805 111.046C117.674 111.037 117.542 111.025 117.41 111.013C117.077 110.986 116.743 110.958 116.405 110.933C116.227 110.918 116.047 110.905 115.866 110.894C115.745 110.884 115.625 110.877 115.505 110.87C115.384 110.864 115.264 110.858 115.144 110.851C115.13 110.849 115.115 110.848 115.099 110.85C115.056 110.847 115.012 110.844 114.968 110.84C114.951 110.839 114.937 110.838 114.924 110.839C114.894 110.838 114.864 110.837 114.834 110.837C114.807 110.835 114.781 110.833 114.754 110.831C114.747 110.83 114.74 110.829 114.733 110.828C114.667 110.828 114.601 110.827 114.535 110.824C114.495 110.823 114.454 110.822 114.411 110.822C114.357 110.818 114.304 110.816 114.251 110.816C114.119 110.813 113.987 110.812 113.856 110.812C113.635 110.81 113.414 110.812 113.192 110.816C113.166 110.818 113.139 110.819 113.11 110.821C112.911 110.826 112.71 110.834 112.507 110.846C112.462 110.85 112.415 110.853 112.366 110.854C112.363 110.855 112.359 110.857 112.353 110.859C112.32 110.859 112.286 110.861 112.251 110.865C112.199 110.867 112.145 110.872 112.088 110.88C112.062 110.881 112.035 110.883 112.006 110.885C111.997 110.887 111.989 110.888 111.982 110.887C111.963 110.889 111.944 110.892 111.925 110.894C111.906 110.897 111.886 110.898 111.867 110.897C111.709 110.915 111.552 110.933 111.392 110.957C111.357 110.961 111.322 110.965 111.287 110.969C111.253 110.976 111.219 110.982 111.184 110.986C111.071 111.003 110.958 111.021 110.845 111.039C110.842 111.04 110.839 111.041 110.836 111.042C110.776 111.05 110.715 111.06 110.653 111.072C110.591 111.085 110.528 111.097 110.463 111.11C110.274 111.148 110.083 111.191 109.891 111.239C109.827 111.255 109.763 111.273 109.7 111.292C109.648 111.304 109.596 111.318 109.545 111.334C109.512 111.344 109.479 111.354 109.446 111.364C109.439 111.363 109.433 111.365 109.428 111.369C109.385 111.379 109.343 111.39 109.304 111.402C109.235 111.423 109.168 111.445 109.103 111.468C109.1 111.469 109.097 111.47 109.094 111.471C109.072 111.477 109.053 111.483 109.035 111.488C109.005 111.497 108.975 111.508 108.946 111.52C108.919 111.528 108.892 111.537 108.865 111.545C108.836 111.557 108.807 111.567 108.78 111.575C108.754 111.586 108.727 111.596 108.7 111.604C108.677 111.615 108.654 111.623 108.63 111.631C108.627 111.632 108.624 111.632 108.621 111.633C108.615 111.635 108.61 111.637 108.607 111.637C108.557 111.656 108.505 111.676 108.453 111.699C108.45 111.7 108.447 111.701 108.444 111.702C108.388 111.722 108.332 111.744 108.277 111.767C108.268 111.77 108.259 111.774 108.251 111.78C108.248 111.781 108.245 111.782 108.242 111.782C108.21 111.796 108.179 111.808 108.15 111.82C108.13 111.83 108.109 111.837 108.088 111.844C108.065 111.854 108.043 111.864 108.023 111.873C107.924 111.916 107.826 111.961 107.728 112.007C107.705 112.017 107.682 112.027 107.659 112.038C107.61 112.062 107.563 112.085 107.517 112.105C107.495 112.119 107.47 112.131 107.444 112.142C107.339 112.197 107.234 112.252 107.129 112.307C106.988 112.382 106.846 112.461 106.703 112.544C106.67 112.564 106.636 112.586 106.6 112.61C106.553 112.637 106.505 112.665 106.458 112.692C106.411 112.723 106.364 112.753 106.318 112.784C106.312 112.786 106.307 112.787 106.304 112.788C106.293 112.794 106.282 112.803 106.272 112.812C106.236 112.833 106.2 112.856 106.164 112.879C106.121 112.909 106.079 112.938 106.038 112.967C105.948 113.029 105.854 113.092 105.764 113.153C105.717 113.191 105.667 113.227 105.615 113.262C105.615 113.262 105.614 113.263 105.611 113.264C105.519 113.331 105.428 113.399 105.338 113.47C105.338 113.47 105.337 113.472 105.335 113.475C105.287 113.513 105.241 113.55 105.196 113.586C105.172 113.604 105.149 113.62 105.127 113.637C105.122 113.642 105.117 113.646 105.112 113.651C105.086 113.672 105.059 113.694 105.033 113.715C104.983 113.756 104.934 113.797 104.888 113.837C104.838 113.879 104.789 113.92 104.742 113.96C104.706 113.991 104.67 114.023 104.634 114.057C104.59 114.097 104.543 114.137 104.493 114.179C104.473 114.198 104.45 114.22 104.424 114.244C104.401 114.264 104.377 114.284 104.354 114.305C104.314 114.346 104.272 114.387 104.228 114.426C104.198 114.455 104.167 114.484 104.136 114.513C104.116 114.533 104.097 114.551 104.079 114.57C104.036 114.612 103.993 114.654 103.949 114.693C103.93 114.715 103.91 114.736 103.889 114.756C103.879 114.765 103.87 114.774 103.863 114.783C103.851 114.797 103.838 114.809 103.825 114.819C103.818 114.828 103.809 114.837 103.799 114.847C103.714 114.935 103.626 115.026 103.536 115.119C103.529 115.127 103.523 115.136 103.519 115.144C103.511 115.149 103.502 115.157 103.491 115.167C103.395 115.271 103.299 115.378 103.204 115.485C102.966 115.754 102.729 116.04 102.492 116.341C102.492 116.341 102.49 116.342 102.487 116.343C102.485 116.347 102.482 116.351 102.477 116.356C102.448 116.391 102.419 116.427 102.392 116.465C102.314 116.568 102.235 116.67 102.155 116.774C102.12 116.823 102.084 116.872 102.046 116.92C101.902 117.118 101.759 117.321 101.614 117.528C101.232 118.088 100.851 118.686 100.477 119.336C98.9688 121.941 97.3683 125.199 95.8663 128.507C95.7879 128.682 95.7079 128.857 95.6264 129.033C95.5357 129.238 95.4449 129.443 95.3528 129.643C95.2265 129.931 95.0996 130.217 94.9723 130.502C94.9181 130.627 94.8635 130.75 94.8084 130.872C94.7383 131.031 94.6687 131.192 94.5995 131.354C94.4648 131.658 94.3325 131.959 94.2029 132.258C94.0196 132.678 93.8422 133.101 93.6621 133.515C93.5804 133.717 93.4973 133.915 93.4097 134.114C93.4017 134.136 93.3936 134.158 93.381 134.182C93.3169 134.339 93.2509 134.495 93.1829 134.651C92.9656 135.17 92.7545 135.677 92.5498 136.173C92.4752 136.35 92.4022 136.526 92.3306 136.702C92.2594 136.868 92.1901 137.035 92.1227 137.204C92.0844 137.294 92.048 137.386 92.0136 137.478C91.9636 137.595 91.9141 137.714 91.865 137.834C91.8138 137.957 91.7671 138.08 91.7146 138.199C91.6044 138.476 91.4955 138.745 91.3877 139.008C91.306 139.21 91.2319 139.405 91.152 139.597C90.8876 140.253 90.6452 140.868 90.4252 141.428C90.3978 141.5 90.3704 141.572 90.3417 141.64C90.2528 141.868 90.1687 142.084 90.0894 142.288C90.0688 142.334 90.0495 142.384 90.0333 142.428C89.4502 143.92 89.1163 144.82 89.1163 144.82C88.6851 145.625 87.1581 145.546 85.25 144.955Z" fill="#F7B763"/>
<path d="M85.25 144.955C85.5465 144.861 85.8506 144.709 86.145 144.477C86.351 144.312 86.5506 144.108 86.7397 143.854C87.7226 142.527 91.0995 134.035 94.7913 126.876C96.2092 124.121 99.1018 118.88 101.795 114.054C104.492 109.227 106.989 104.81 107.605 103.722L109.987 104.997L108.621 111.633C108.615 111.635 108.61 111.637 108.607 111.637C108.557 111.656 108.505 111.676 108.453 111.699C108.45 111.7 108.447 111.701 108.444 111.702C108.388 111.722 108.332 111.744 108.277 111.767C108.268 111.77 108.259 111.774 108.251 111.78C108.248 111.781 108.245 111.782 108.242 111.782C108.21 111.796 108.179 111.808 108.15 111.82C108.13 111.83 108.109 111.837 108.088 111.844C108.065 111.854 108.043 111.864 108.023 111.873C107.924 111.916 107.826 111.961 107.728 112.007C107.705 112.017 107.682 112.027 107.659 112.038C107.61 112.062 107.563 112.085 107.517 112.105C107.495 112.119 107.47 112.131 107.444 112.142C107.339 112.197 107.234 112.252 107.129 112.307C106.988 112.382 106.846 112.461 106.703 112.544C106.67 112.564 106.636 112.586 106.6 112.61C106.553 112.637 106.505 112.665 106.458 112.692C106.411 112.723 106.364 112.753 106.318 112.784C106.312 112.786 106.307 112.787 106.304 112.788C106.293 112.794 106.282 112.803 106.272 112.812C106.236 112.833 106.2 112.856 106.164 112.879C106.121 112.909 106.079 112.938 106.038 112.967C105.948 113.029 105.854 113.092 105.764 113.153C105.717 113.191 105.667 113.227 105.615 113.262C105.615 113.262 105.614 113.263 105.611 113.264C105.519 113.331 105.428 113.399 105.338 113.47C105.338 113.47 105.337 113.472 105.335 113.475C105.287 113.513 105.241 113.55 105.196 113.586C105.172 113.604 105.149 113.62 105.127 113.637C105.122 113.642 105.117 113.646 105.112 113.651C105.086 113.672 105.059 113.694 105.033 113.715C104.983 113.756 104.934 113.797 104.888 113.837C104.838 113.879 104.789 113.92 104.742 113.96C104.706 113.991 104.67 114.023 104.634 114.057C104.59 114.097 104.543 114.137 104.493 114.179C104.473 114.198 104.45 114.22 104.424 114.244C104.401 114.264 104.377 114.284 104.354 114.305C104.314 114.346 104.272 114.387 104.228 114.426C104.198 114.455 104.167 114.484 104.136 114.513C104.116 114.533 104.097 114.551 104.079 114.57C104.036 114.612 103.993 114.654 103.949 114.693C103.93 114.715 103.91 114.736 103.889 114.756C103.879 114.765 103.87 114.774 103.863 114.783C103.851 114.797 103.838 114.809 103.825 114.819C103.818 114.828 103.809 114.837 103.799 114.847C103.714 114.935 103.626 115.026 103.536 115.119C103.529 115.127 103.523 115.136 103.519 115.144C103.511 115.149 103.502 115.157 103.491 115.167C103.395 115.271 103.299 115.378 103.204 115.485C102.966 115.754 102.729 116.04 102.492 116.341C102.492 116.341 102.49 116.342 102.487 116.343C102.485 116.347 102.482 116.351 102.477 116.356C102.448 116.391 102.419 116.427 102.392 116.465C102.314 116.568 102.235 116.67 102.155 116.774C102.12 116.823 102.085 116.874 102.048 116.924C101.903 117.119 101.759 117.321 101.614 117.528C101.232 118.088 100.853 118.69 100.477 119.336C98.9688 121.941 97.3683 125.199 95.8663 128.507C95.7879 128.682 95.7079 128.857 95.6264 129.033C95.5357 129.238 95.4449 129.443 95.3528 129.643C95.2265 129.931 95.0996 130.217 94.9723 130.502C94.9181 130.627 94.8635 130.75 94.8084 130.872C94.7383 131.031 94.6687 131.192 94.5995 131.354C94.4648 131.658 94.3325 131.959 94.2029 132.258C94.0196 132.678 93.8422 133.101 93.6621 133.515C93.5804 133.717 93.4973 133.915 93.4097 134.114C93.4017 134.136 93.3936 134.158 93.381 134.182C93.3169 134.339 93.2509 134.495 93.1829 134.651C92.9656 135.17 92.7545 135.677 92.5498 136.173C92.4752 136.35 92.4022 136.526 92.3306 136.702C92.2594 136.868 92.1901 137.035 92.1227 137.204C92.0844 137.294 92.048 137.386 92.0136 137.478C91.9636 137.595 91.9141 137.714 91.865 137.834C91.8138 137.957 91.7671 138.08 91.7146 138.199C91.6044 138.476 91.4955 138.745 91.3877 139.008C91.306 139.21 91.2319 139.405 91.152 139.597C90.8876 140.253 90.6452 140.868 90.4252 141.428C90.3978 141.5 90.3704 141.572 90.3417 141.64C90.2528 141.868 90.1687 142.084 90.0894 142.288C90.0688 142.334 90.0495 142.384 90.0333 142.428C89.4502 143.92 89.1163 144.82 89.1163 144.82C88.6851 145.625 87.1581 145.546 85.25 144.955Z" fill="#D38B3D"/>
<path d="M101.608 117.54L101.614 117.528L103.209 114.558L108.693 104.304L121.471 111.144C121.241 111.154 121.01 111.163 120.779 111.171C120.669 111.175 120.556 111.176 120.44 111.175C120.395 111.175 120.35 111.176 120.308 111.175C120.308 111.175 120.306 111.176 120.303 111.177C120.24 111.176 120.176 111.176 120.111 111.176C120.081 111.175 120.049 111.175 120.017 111.175C119.997 111.174 119.977 111.174 119.957 111.173C119.68 111.168 119.397 111.157 119.109 111.139C119.026 111.135 118.944 111.13 118.863 111.125C118.78 111.121 118.696 111.115 118.612 111.107C118.404 111.095 118.194 111.079 117.982 111.061C117.921 111.057 117.862 111.052 117.805 111.046C117.346 111.012 116.88 110.971 116.405 110.933C116.227 110.918 116.047 110.905 115.866 110.894C115.745 110.884 115.625 110.877 115.505 110.87C115.384 110.864 115.264 110.858 115.144 110.851C115.084 110.847 115.025 110.843 114.968 110.84C114.951 110.839 114.937 110.838 114.924 110.839C114.867 110.837 114.81 110.834 114.754 110.831C114.747 110.83 114.74 110.831 114.734 110.832C114.668 110.829 114.601 110.827 114.535 110.824C114.495 110.823 114.454 110.822 114.411 110.822C114.33 110.817 114.249 110.815 114.168 110.817C114.065 110.812 113.961 110.81 113.856 110.812C113.609 110.808 113.36 110.811 113.11 110.821C112.911 110.826 112.711 110.834 112.511 110.845C112.463 110.85 112.415 110.854 112.367 110.859C112.363 110.857 112.359 110.857 112.353 110.859C112.292 110.864 112.232 110.869 112.175 110.873C112.117 110.877 112.06 110.881 112.006 110.885C111.997 110.887 111.989 110.888 111.982 110.887C111.979 110.888 111.976 110.889 111.973 110.89C111.938 110.894 111.902 110.896 111.867 110.897C111.673 110.92 111.48 110.944 111.287 110.969C111.139 110.991 110.992 111.014 110.845 111.039C110.842 111.04 110.839 111.041 110.836 111.042C110.776 111.05 110.715 111.06 110.653 111.072C110.591 111.085 110.528 111.097 110.463 111.11C110.274 111.148 110.083 111.191 109.891 111.239C109.827 111.255 109.763 111.273 109.7 111.292C109.648 111.304 109.596 111.318 109.545 111.334C109.512 111.344 109.479 111.354 109.446 111.364C109.439 111.363 109.433 111.365 109.428 111.369C109.385 111.379 109.343 111.39 109.304 111.402C109.235 111.423 109.168 111.445 109.103 111.468C109.1 111.469 109.097 111.47 109.094 111.471C109.072 111.477 109.053 111.483 109.035 111.488C109.005 111.497 108.977 111.508 108.95 111.519C108.92 111.528 108.892 111.537 108.865 111.545C108.781 111.573 108.7 111.603 108.621 111.633C108.588 111.646 108.558 111.659 108.528 111.671C108.437 111.705 108.345 111.742 108.251 111.78C108.248 111.781 108.245 111.782 108.242 111.782C108.21 111.796 108.179 111.808 108.15 111.82C108.13 111.83 108.109 111.837 108.088 111.844C107.946 111.907 107.803 111.971 107.659 112.038C107.611 112.062 107.563 112.085 107.517 112.105C107.389 112.171 107.259 112.238 107.129 112.307C106.988 112.382 106.846 112.461 106.703 112.544C106.67 112.564 106.636 112.586 106.6 112.61C106.553 112.637 106.505 112.665 106.458 112.692C106.408 112.724 106.357 112.755 106.304 112.788C106.293 112.794 106.282 112.803 106.272 112.812C106.236 112.833 106.2 112.856 106.164 112.879C106.143 112.896 106.121 112.911 106.099 112.924C106.096 112.925 106.094 112.927 106.091 112.931C105.932 113.035 105.774 113.146 105.615 113.262C105.615 113.262 105.614 113.263 105.611 113.264C105.519 113.331 105.428 113.399 105.338 113.47C105.338 113.47 105.337 113.472 105.335 113.475C105.266 113.529 105.197 113.583 105.127 113.637C105.122 113.642 105.117 113.646 105.112 113.651C105.086 113.672 105.059 113.694 105.033 113.715C104.983 113.756 104.934 113.797 104.888 113.837C104.756 113.946 104.625 114.06 104.493 114.179C104.473 114.198 104.45 114.22 104.424 114.244C104.36 114.303 104.295 114.364 104.228 114.426C104.198 114.455 104.167 114.484 104.136 114.513C104.055 114.594 103.973 114.674 103.889 114.756C103.879 114.765 103.87 114.774 103.863 114.783C103.851 114.797 103.838 114.809 103.825 114.819C103.73 114.917 103.633 115.017 103.536 115.119C103.529 115.127 103.523 115.136 103.519 115.144C103.414 115.254 103.309 115.368 103.204 115.485C102.966 115.754 102.729 116.038 102.491 116.337C102.492 116.34 102.492 116.341 102.492 116.341C102.492 116.341 102.49 116.342 102.487 116.343C102.485 116.347 102.483 116.351 102.481 116.354C102.449 116.39 102.419 116.427 102.392 116.465C102.314 116.568 102.235 116.67 102.155 116.774C102.12 116.823 102.085 116.874 102.048 116.924C101.901 117.123 101.754 117.328 101.608 117.54Z" fill="#E8A452"/>
<path d="M90.442 111.563C90.5126 111.384 90.5822 111.207 90.6507 111.032C90.7057 110.877 90.7597 110.724 90.8126 110.574C90.8309 110.525 90.8476 110.478 90.8629 110.43C90.8823 110.375 90.9007 110.322 90.9181 110.271C90.93 110.234 90.9409 110.2 90.9508 110.167C90.9499 110.164 90.9509 110.162 90.9539 110.161C91.005 110.005 91.0531 109.849 91.0982 109.694C91.975 106.763 91.9483 104.347 91.4255 102.278C91.4112 102.22 91.3959 102.164 91.3795 102.109C91.2877 101.763 91.1822 101.425 91.063 101.097C91.0518 101.07 91.0406 101.044 91.0294 101.018C90.9963 100.92 90.9607 100.824 90.9226 100.73C90.9189 100.718 90.9138 100.706 90.9071 100.695C90.8998 100.671 90.8906 100.646 90.8794 100.62C90.8745 100.615 90.8708 100.608 90.868 100.599C90.8504 100.552 90.8314 100.505 90.8108 100.458C90.7911 100.415 90.7714 100.372 90.7517 100.329C90.7472 100.313 90.7411 100.299 90.7335 100.285C90.7223 100.259 90.7116 100.234 90.7013 100.211C90.6713 100.144 90.6413 100.078 90.6114 100.011C90.5917 99.968 90.572 99.9247 90.5523 99.8813C90.4987 99.7695 90.4437 99.658 90.3871 99.547C90.3719 99.5188 90.3568 99.4905 90.3417 99.4622C90.3399 99.4562 90.337 99.4521 90.3331 99.45C90.301 99.3875 90.2694 99.3264 90.2382 99.2669C90.2155 99.2245 90.1933 99.1836 90.1715 99.1442C90.1649 99.1331 90.1582 99.1219 90.1515 99.1108C90.144 99.0967 90.1384 99.0836 90.1347 99.0715C90.1166 99.0442 90.1 99.0164 90.0848 98.9881C90.0479 98.9204 90.0095 98.8532 89.9696 98.7865C89.9251 98.7047 89.8781 98.6253 89.8285 98.5483C89.8028 98.5068 89.7767 98.4638 89.7501 98.4193C89.7235 98.3748 89.6964 98.3288 89.6689 98.2813C89.6641 98.2762 89.6592 98.2711 89.6544 98.266C89.6193 98.2043 89.5817 98.1451 89.5415 98.0883C89.4967 98.0164 89.452 97.9445 89.4072 97.8727C89.3852 97.8432 89.3642 97.8118 89.3442 97.7784C89.2593 97.6497 89.1733 97.523 89.0863 97.3983C89.0222 97.306 88.9586 97.2152 88.8954 97.1259C88.8724 97.0934 88.8499 97.0625 88.8279 97.033C88.8107 97.0087 88.7934 96.9843 88.7762 96.96C88.7043 96.8635 88.6324 96.767 88.5605 96.6705C88.5327 96.6329 88.5049 96.5953 88.4771 96.5578C88.4493 96.5202 88.4215 96.4826 88.3937 96.445C88.2489 96.2491 88.1021 96.057 87.9532 95.8688C87.8822 95.7754 87.8092 95.6808 87.7343 95.5852C87.7295 95.5801 87.7247 95.575 87.7198 95.5699C87.6162 95.4338 87.5115 95.2996 87.4058 95.1673C87.2952 95.03 87.1862 94.8922 87.0786 94.7539C86.8787 94.5056 86.6841 94.259 86.495 94.0141C86.4421 93.9479 86.3912 93.8829 86.3423 93.8189C86.2934 93.7548 86.2439 93.6893 86.1941 93.6223C86.1575 93.5775 86.1225 93.5322 86.089 93.4866C86.0678 93.4601 86.0482 93.4332 86.03 93.4058C85.9974 93.3632 85.9643 93.319 85.9308 93.2733C85.8982 93.2306 85.8651 93.1864 85.8315 93.1407C85.8019 93.0971 85.7703 93.0525 85.7368 93.0068C85.6736 92.9175 85.6109 92.8297 85.5487 92.7435C85.4722 92.6319 85.3973 92.5199 85.3238 92.4075C85.3008 92.375 85.2789 92.3406 85.2581 92.3042C85.2064 92.2312 85.1573 92.1557 85.1107 92.0778C84.9864 91.8789 84.8681 91.6832 84.7497 91.4874L97.527 98.327L91.3705 109.828L90.4483 111.551L90.442 111.563Z" fill="#E8A452"/>
<path d="M77.4072 140.5C77.4072 140.5 75.0114 138.185 75.3242 137.346C75.6325 136.509 83.3434 125.178 85.8575 120.933C88.4532 116.55 94.4226 105.179 94.4226 105.179C94.4226 105.179 93.3758 108.054 91.5899 112.181C89.8854 116.122 79.5463 134.56 78.6397 136.205C77.5932 138.103 77.4072 140.5 77.4072 140.5Z" fill="#FFCE94"/>
<path d="M146.819 43.0077C144.679 40.8714 141.917 39.1206 139.154 37.6412C122.525 28.74 100.98 36.3354 90.0622 54.5701C90.0622 54.5701 89.37 55.6369 88.3912 57.4656C86.6488 60.7277 83.4247 66.6802 81.8224 72.7331C82.3268 68.8159 83.5601 65.565 84.8907 62.196C85.8817 59.7724 86.9061 57.7033 87.7276 56.1686C88.7064 54.3399 89.394 53.2744 89.394 53.2744C100.315 35.0338 121.857 27.4444 138.49 36.3442C138.49 36.3442 143.931 39.117 146.819 43.0077Z" fill="#F75757"/>
<path opacity="0.25" d="M109.852 76.6314C103.817 75.4475 100.18 69.0637 101.462 62.541C102.74 56.0196 108.449 51.828 114.483 53.012C120.514 54.1974 124.905 60.2395 123.627 66.7609C122.349 73.2824 115.886 77.8154 109.852 76.6314Z" fill="#0C0C0C"/>
<path d="M117.342 73.9501C117.129 74.0476 116.913 74.1376 116.695 74.22C111.11 76.3934 104.792 73.9797 102.335 68.6135C101.335 66.4328 101.122 64.0876 101.578 61.8803C101.712 61.2335 101.903 60.5943 102.151 59.9821C102.783 58.3914 103.785 56.9303 105.095 55.7405C105.382 55.4829 105.68 55.2381 105.991 55.006C106.192 54.8565 106.401 54.7146 106.61 54.5772C107.077 54.2783 107.571 54.0056 108.094 53.7636C113.832 51.1349 120.547 53.5269 123.101 59.1002C123.567 60.1173 123.861 61.1713 123.999 62.2284C124.254 64.2108 123.949 66.2149 123.166 68.0237C122.86 68.7373 122.48 69.419 122.033 70.057C121.062 71.4398 119.763 72.636 118.192 73.5157C117.917 73.6712 117.634 73.816 117.342 73.9501Z" fill="#F9BC26"/>
<path opacity="0.3" d="M123.889 62.3357C123.722 61.4747 123.454 60.6243 123.075 59.7932C120.418 53.9948 113.412 51.4738 107.444 54.2065C107.296 54.271 107.131 54.3455 107.131 54.3455C107.249 54.2458 107.607 54.0439 107.983 53.8709C113.721 51.2422 120.441 53.6329 122.991 59.2076C123.461 60.2232 123.755 61.2772 123.889 62.3357Z" fill="white"/>
<path d="M117.342 73.9501C116.993 74.1085 116.64 74.2498 116.283 74.3742C110.803 76.2745 104.731 73.8452 102.335 68.6135C101.274 66.2983 101.099 63.799 101.668 61.4785C102.198 59.3076 103.384 57.2981 105.095 55.7405C105.563 55.3179 106.066 54.929 106.61 54.5772C107.979 56.8681 109.66 58.9558 111.561 60.6618C116.405 65.0098 120.236 66.9545 123.166 68.0237C122.86 68.7373 122.48 69.4189 122.033 70.057C120.889 71.6842 119.298 73.0527 117.342 73.9501Z" fill="url(#paint1_linear_51_300)"/>
<path opacity="0.35" d="M117.342 73.9501C117.129 74.0476 116.913 74.1376 116.695 74.22C111.11 76.3935 104.792 73.9797 102.335 68.6135C101.335 66.4328 101.122 64.0876 101.578 61.8803C101.712 61.2335 101.903 60.5943 102.151 59.9821C109.217 69.7972 117.474 73.2302 118.192 73.5157C117.917 73.6712 117.634 73.816 117.342 73.9501Z" fill="url(#paint2_linear_51_300)"/>
<path opacity="0.3" d="M117.515 59.6728C116.549 60.1129 115.412 59.6933 114.972 58.7277C114.527 57.7635 114.951 56.625 115.917 56.1849C116.877 55.7417 118.015 56.1658 118.46 57.13C118.898 58.0911 118.476 59.234 117.515 59.6728Z" fill="white"/>
<defs>
<linearGradient id="paint0_linear_51_300" x1="-31511.9" y1="792.518" x2="36124.2" y2="792.518" gradientUnits="userSpaceOnUse">
<stop stop-color="white"/>
<stop offset="0.245192" stop-color="#87E5FF"/>
</linearGradient>
<linearGradient id="paint1_linear_51_300" x1="41036.6" y1="10835.3" x2="47773.1" y2="3016.23" gradientUnits="userSpaceOnUse">
<stop stop-color="#AA7704"/>
<stop offset="1" stop-color="#F9BC26"/>
</linearGradient>
<linearGradient id="paint2_linear_51_300" x1="45667.5" y1="18716.4" x2="48932.7" y2="14455.8" gradientUnits="userSpaceOnUse">
<stop stop-color="white"/>
<stop offset="1" stop-color="white"/>
</linearGradient>
</defs>
</svg>
