<svg width="286" height="47" viewBox="0 0 286 47" fill="none" xmlns="http://www.w3.org/2000/svg">
<path d="M285 35C281.933 39.4 278.333 42.8333 274.2 45.3C256.133 45.3667 238.033 45.4667 219.9 45.6C204.767 45.7333 189.633 45.8333 174.5 45.9C173.5 45.9 172.5 46 171.5 45.9C170.7 45.8 170.1 45.4 169.3 45.3C168.4 45.1 167.9 45.7 167.1 45.9C166.5 46 165.9 45.9 165.2 45.9C163.6 45.9667 161.967 46 160.3 46C157.1 46 153.933 46 150.8 46C146.8 46 142.833 46 138.9 46C136.9 46 134.933 46 133 46C131.3 46 129.5 45.6 127.9 45.9C127.5 45.9 127.2 46 126.8 46C126.5 45.9 126.3 45.8 126 45.7C125.467 45.4333 124.933 45.2 124.4 45C123.8 44.7 123.1 44.4 122.5 44.3C121.8 44.3 121.2 44.6 120.6 44.8C119.5 45.2 118.2 45.9 117 46C116.1 46.1 114.9 45.9 114 45.9C111.333 45.9 108.7 45.9 106.1 45.9C100.967 45.8333 95.8334 45.8 90.7 45.8C74.8334 45.6667 58.9667 45.5667 43.1 45.5L11.8 45.3C7.66671 42.8333 4.06671 39.4 1.00004 35C0.40004 27.2 0.10004 19.9 0.40004 13C3.10004 8.19999 6.60004 4.39999 11.2 1.89999C12.1 1.19999 14.7 1.89999 15.2 1.89999C18.8 1.89999 22.4 1.99999 26.1 1.99999C32.3 1.99999 39.3 0.99999 45.3 2.99999C45.6 3.09999 45.9 3.19999 46.2 3.19999C46.4 3.09999 46.7 2.99999 46.9 2.89999C51 0.79999 57 1.89999 61.5 1.89999C87.1 1.79999 112.8 1.29999 138.4 1.39999C154.1 1.39999 169.8 1.49999 185.5 1.59999C192.633 1.66666 199.767 1.73332 206.9 1.79999C210.5 1.79999 214.1 1.79999 217.7 1.79999C219.5 1.89999 221.3 1.79999 223.2 1.79999C223.9 1.79999 225 1.69999 225.8 1.99999C226.4 2.19999 226.4 2.69999 227 2.99999C227.4 3.29999 228 2.99999 228.4 2.69999C229.1 2.29999 229.5 1.89999 230.4 1.89999C231.933 1.89999 233.433 1.89999 234.9 1.89999C237.833 1.96666 240.8 1.99999 243.8 1.99999C249.667 1.99999 255.533 1.99999 261.4 1.99999C264.7 1.99999 268 1.99999 271.3 1.99999C272 1.99999 274.2 1.49999 274.8 1.89999C279.4 4.39999 282.9 8.19999 285.5 13C286.3 14.3 285.7 17.8 285.7 19.3C285.7 21.5 285.7 22.8 284.7 24.6C284.3 25.6 285.4 27.7 285.4 28.9C285.4 30.2 285.7 33.9 285 35Z" fill="#4BC98A"/>
<path d="M285 33.8C281.933 38.2 278.333 41.6333 274.2 44.1C256.133 44.1666 238.033 44.2666 219.9 44.4C204.767 44.5333 189.633 44.6333 174.5 44.7C173.5 44.7 172.5 44.8 171.5 44.7C170.7 44.6 170.1 44.2 169.3 44.1C168.4 43.9 167.9 44.4 167.1 44.7C166.5 44.8 165.9 44.7 165.2 44.7C163.6 44.7666 161.967 44.8 160.3 44.8C157.1 44.8 153.933 44.8 150.8 44.8C146.8 44.8 142.833 44.8 138.9 44.8C136.9 44.8 134.933 44.8 133 44.8C131.3 44.8 129.5 44.4 127.9 44.7C127.5 44.7 127.2 44.8 126.8 44.8C126.5 44.7 126.3 44.6 126 44.5C125.467 44.2333 124.933 43.9666 124.4 43.7C123.8 43.5 123.1 43.2 122.5 43.1C121.8 43.1 121.2 43.3 120.6 43.6C119.5 44 118.2 44.7 117 44.8C116.1 44.9 114.9 44.7 114 44.7C111.333 44.7 108.7 44.7 106.1 44.7C100.967 44.6333 95.8334 44.6 90.7 44.6C74.8334 44.4666 58.9667 44.3666 43.1 44.3L11.8 44.1C7.66671 41.6333 4.06671 38.2 1.00004 33.8C0.40004 26 0.10004 18.7 0.40004 11.8C3.10004 6.99998 6.60004 3.19998 11.2 0.699978C12.1 -2.23517e-05 14.7 0.699978 15.2 0.699978C18.8 0.699978 22.4 0.799978 26.1 0.799978C32.3 0.799978 39.3 -0.200022 45.3 1.79998C45.6 1.89998 45.9 1.99998 46.2 1.99998C46.4 1.89998 46.7 1.79998 46.9 1.69998C51 -0.400022 57 0.699978 61.5 0.699978C87.1 0.599978 112.8 0.0999776 138.4 0.199978C154.1 0.199978 169.8 0.299977 185.5 0.399977C192.633 0.466644 199.767 0.533312 206.9 0.599978C210.5 0.599978 214.1 0.599978 217.7 0.599978C219.5 0.699978 221.3 0.599978 223.2 0.599978C223.9 0.599978 225 0.499978 225.8 0.799978C226.4 0.999978 226.4 1.49998 227 1.79998C227.4 2.09998 228 1.79998 228.4 1.49998C229.1 1.09998 229.5 0.699978 230.4 0.699978C231.933 0.699978 233.433 0.699978 234.9 0.699978C237.833 0.766644 240.8 0.799978 243.8 0.799978C249.667 0.799978 255.533 0.799978 261.4 0.799978C264.7 0.799978 268 0.799978 271.3 0.799978C272 0.799978 274.2 0.299978 274.8 0.699978C279.4 3.19998 282.9 6.99998 285.5 11.8C286.3 13.1 285.7 16.6 285.7 18.1C285.7 20.3 285.7 21.6 284.7 23.4C284.3 24.4 285.4 26.5 285.4 27.7C285.4 29 285.7 32.7 285 33.8Z" fill="url(#paint0_linear_724_49)"/>
<path d="M280.9 28.3C280.9 29.1 281.2 31.5 280.7 32.2C278.367 35.2666 275.767 37.7333 272.9 39.6L219.9 40L203.2 40.1C197.333 40.1 191.467 40.1333 185.6 40.2C182.667 40.2 179.733 40.2333 176.8 40.3C175.4 40.3 173.9 40.4 172.4 40.3C171.1 40.1 170.3 39.6 169.1 39C168.8 38.9 168.5 38.7 168.1 38.8C167.6 38.8 167.3 39.3 167 39.7C166.1 41 162.8 40.3 161.4 40.3C159.133 40.3 156.867 40.3333 154.6 40.4C152.2 40.4 149.8 40.4 147.4 40.4C145.267 40.4 143.1 40.4 140.9 40.4C138.767 40.4 136.6 40.4 134.4 40.4C132.5 40.4 131.2 40 129.3 39.5C127.9 39.2 126.3 40 125.1 39.2C124.6 38.9 124.3 38.4 123.8 38.2C123.3 38.1 122.9 38.3 122.4 38.5C120.6 39.3 118.5 40.1 116.6 40.3C112.8 40.6 108.9 40.3 105.2 40.2C102.133 40.2 99.0333 40.2 95.9 40.2C90.4333 40.1333 84.9333 40.1 79.4 40.1C69.2666 40.0333 59.1 39.9666 48.9 39.9C40.5 39.8333 32.0666 39.7666 23.6 39.7C21 39.7 18.4333 39.7 15.9 39.7C15.3 39.7 13.6 40 13.1 39.6C10.2 37.8 7.59995 35.3 5.29995 32.2C5.23328 31.5333 5.19995 30.9 5.19995 30.3C5.19995 30.2333 5.19995 30.1666 5.19995 30.1C5.13329 29.8333 5.09995 29.5666 5.09995 29.3C4.69995 23.5 4.59995 18.1 4.79995 13.1C6.89995 9.49998 9.59995 6.79998 12.9 4.79998C13.2 4.79998 13.6 4.89997 13.8 4.89997C14.3 4.99997 14.6 5.09998 15.1 5.09998C16.5 5.09998 17.8666 5.13331 19.2 5.19998C21.4666 5.19998 23.7333 5.23331 26 5.29997C29.4666 5.23331 32.9666 5.19998 36.5 5.19998C38.3 5.19998 40.1 5.19998 41.9 5.19998C43.5 5.29998 44.7999 5.99998 46.2999 6.49998C46.5999 6.49998 46.9 6.59998 47.2 6.49998C47.4 6.39998 47.5 6.29998 47.5999 6.19998C49.1999 4.59998 52 5.19998 54 5.19998C56.5333 5.13331 59.0333 5.09998 61.5 5.09998C65.2999 5.09998 69.1 5.06664 72.9 4.99998C78.9666 4.99998 85.0333 4.96664 91.1 4.89997C105.7 4.69997 120.8 4.59998 135.7 4.59998H138.4C156.8 4.59998 175.6 4.79997 193.8 4.89997C199.333 4.96664 204.833 4.99998 210.3 4.99998C213.033 5.06664 215.8 5.09998 218.6 5.09998C220.9 5.09998 223.4 4.69997 225.8 4.89997C225.667 6.43331 225.533 7.93331 225.4 9.39997C225.733 8.86664 226.1 8.33331 226.5 7.79997C227 6.99997 227.3 6.39998 227.6 5.59998C227.7 5.49998 227.7 5.29997 227.9 5.29997C227.967 5.23331 228.067 5.19998 228.2 5.19998C233.5 5.09998 238.9 5.19998 244.2 5.19998C249.6 5.26664 255.033 5.29997 260.5 5.29997H263.8C266.333 5.29997 268.867 5.26664 271.4 5.19998C271.9 5.19998 272.5 5.09998 273 5.09998C273.9 5.09998 274.8 5.79997 275.4 6.39997C276.2 6.99997 276.9 7.59997 277.5 8.29997C278.233 8.96664 278.9 9.69998 279.5 10.5C279.767 10.9 280.033 11.3 280.3 11.7C280.5 12 281.2 12.7 281.2 13.1C281.267 15.1666 281.267 17.2333 281.2 19.3C281.2 20.2 281.4 21.4 281 22.2C280.5 22.9 279.7 23.2 280 24.3C280.1 24.6 280.3 24.9 280.4 25.2C280.533 25.4 280.633 25.6 280.7 25.8C281.1 26.6 281 27.2 280.9 28.3Z" fill="url(#paint1_linear_724_49)"/>
<path d="M272.9 29.4C274.9 30.2 275.1 33.1 273 34C268.5 36.1 269.1 28 272.7 29.3C272.767 29.3 272.833 29.3333 272.9 29.4Z" fill="url(#paint2_radial_724_49)"/>
<path d="M208.9 10.7C211.9 10.2 214.3 13.5 212.6 16.2C208.9 22.1 203.4 12 208.6 10.8C208.733 10.8 208.833 10.7667 208.9 10.7Z" fill="url(#paint3_radial_724_49)"/>
<path d="M14.7 15.3C12.5 14.9 10.8 17.3 12 19.2C14.7 23.5 18.6 16.2 14.8 15.3C14.8 15.3 14.7667 15.3 14.7 15.3Z" fill="url(#paint4_radial_724_49)"/>
<path d="M142.6 28.2C145.6 27.7 148 30.9 146.3 33.6C142.7 39.5 137.2 29.4 142.4 28.2C142.467 28.2 142.533 28.2 142.6 28.2Z" fill="url(#paint5_radial_724_49)"/>
<path d="M152.5 31.2C153.7 31 154.6 32.3 154 33.3C152.5 35.7 150.3 31.7 152.4 31.2C152.4 31.2 152.433 31.2 152.5 31.2Z" fill="url(#paint6_radial_724_49)"/>
<path d="M81.3 14C82.5 13.8 83.5 15.1 82.8 16.2C81.3 18.5 79.2 14.5 81.2 14.1C81.2667 14.0334 81.3 14 81.3 14Z" fill="url(#paint7_radial_724_49)"/>
<path d="M19.5 14.3C20.4 14.2 21.1 15.2 20.6 16C19.5 17.8 17.8 14.7 19.4 14.4C19.4 14.3333 19.4333 14.3 19.5 14.3Z" fill="url(#paint8_radial_724_49)"/>
<path d="M45.2 32.4C47 32.1 48.4 34 47.4 35.7C45.2 39.2 41.9 33.2 45 32.4C45.0667 32.4 45.1333 32.4 45.2 32.4Z" fill="url(#paint9_radial_724_49)"/>
<path style="mix-blend-mode:screen" opacity="0.29" d="M147.4 40.4C145.267 40.4 143.1 40.4 140.9 40.4C138.767 40.4 136.6 40.4 134.4 40.4C132.5 40.4 131.2 40 129.3 39.5C127.9 39.2 126.3 40 125.1 39.2C124.6 38.9 124.3 38.4 123.8 38.2C123.3 38.1 122.9 38.3 122.4 38.5C120.6 39.3 118.5 40.1 116.6 40.3C112.8 40.6 108.9 40.3 105.2 40.2C102.133 40.2 99.0334 40.2 95.9 40.2L72.9 4.99998C78.9667 4.99998 85.0334 4.96664 91.1 4.89997C105.7 4.69997 120.8 4.59998 135.7 4.59998H138.2L147.4 40.4Z" fill="url(#paint10_linear_724_49)"/>
<path d="M281 22.2C280.5 22.9 279.7 23.2 280 24.3C280.1 24.6 280.3 24.9 280.4 25.2C280.533 25.4 280.633 25.6 280.7 25.8C280 24.9 279.4 23.9 279.7 22.9C279.9 22.5 280.1 22.2 280.2 21.9C280.5 21.2 280.5 20.4 280.5 19.6C280.5 15.2 279.2 11.8 276.2 8.59998C273.5 5.59998 270.2 6.19998 266.5 6.19998C262.433 6.19998 258.333 6.19998 254.2 6.19998C246.067 6.13331 237.9 6.09998 229.7 6.09998C229 6.09998 228.2 5.59997 227.8 6.29997C227 7.83331 226.2 9.36664 225.4 10.9C225.2 9.69998 225.1 6.99998 223.7 6.59998C222.9 6.39998 222 6.89997 221.1 6.79997C220.3 6.59997 219.5 6.39998 218.7 6.19998C217 5.89998 215.2 6.29997 213.5 6.39997C209.633 6.53331 205.767 6.59998 201.9 6.59998C199.433 6.59998 196.933 6.56664 194.4 6.49998C192.133 6.43331 189.833 6.36664 187.5 6.29997C176 6.09997 164.5 5.39998 153 5.69998C141.4 5.99998 129.8 6.29998 118.1 6.19998C95.4 5.99998 72.7999 6.19998 50.0999 6.19998C49 6.19998 48.2999 7.49998 47.2 7.59998C46.9 7.69998 46.5999 7.59998 46.2999 7.49998C45.3999 7.29998 44.6 6.79997 43.7 6.79997C34.9 6.73331 26.1 6.63331 17.3 6.49998C15.7 6.49998 14.3 6.39997 13.1 7.29997C11.5666 8.36664 10.1333 9.53331 8.79995 10.8C5.49995 13.8 5.59995 17.4 5.49995 21.6C5.39995 24.2 5.49995 26.8 5.09995 29.3C4.69995 23.5 4.59995 18.1 4.79995 13C6.89995 9.49998 9.59995 6.79998 12.9 4.79998C13.2 4.79998 13.6 4.89997 13.8 4.89997C14.3 4.99997 14.6 5.09998 15.1 5.09998C16.5 5.09998 17.8666 5.13331 19.2 5.19998C21.4666 5.19998 23.7333 5.19998 26 5.19998C29.4666 5.19998 32.9666 5.19998 36.5 5.19998C38.3 5.19998 40.1 5.19998 41.9 5.19998C43.5 5.19998 44.7999 5.99998 46.2999 6.49998C46.5999 6.49998 46.9 6.59998 47.2 6.49998C47.4 6.39998 47.5 6.29998 47.5999 6.19998C49.1999 4.59998 52 5.19998 54 5.19998C56.5333 5.13331 59.0333 5.09998 61.5 5.09998C71.3666 5.03331 81.2333 4.96664 91.1 4.89997C105.7 4.69997 120.8 4.59998 135.7 4.59998H138.4C156.8 4.59998 175.6 4.79997 193.8 4.89997C199.333 4.96664 204.833 4.99998 210.3 4.99998C213.033 5.06664 215.8 5.09998 218.6 5.09998C220.9 5.09998 223.4 4.69997 225.8 4.89997C225.667 6.43331 225.533 7.93331 225.4 9.39997C225.733 8.86664 226.1 8.33331 226.5 7.79997C227 6.99997 227.3 6.39998 227.6 5.59998C227.7 5.49998 227.8 5.29997 227.9 5.29997C227.967 5.23331 228.067 5.19998 228.2 5.19998C233.5 5.09998 238.9 5.19998 244.2 5.19998C249.6 5.19998 255.033 5.19998 260.5 5.19998H263.8C266.333 5.26664 268.867 5.26664 271.4 5.19998C271.9 5.19998 272.5 5.09998 273 5.09998C273.9 5.09998 274.8 5.79997 275.4 6.39997C276.2 6.99997 276.9 7.59997 277.5 8.29997C278.233 8.96664 278.9 9.69998 279.5 10.5C279.767 10.9 280.033 11.3 280.3 11.7C280.5 12 281.1 12.7 281.2 13C281.267 15.1333 281.267 17.2333 281.2 19.3C281.2 20.2 281.4 21.4 281 22.2Z" fill="#B4F4FA"/>
<defs>
<linearGradient id="paint0_linear_724_49" x1="-3913" y1="691.895" x2="-3913" y2="16910.5" gradientUnits="userSpaceOnUse">
<stop stop-color="#40B8E3"/>
<stop offset="0.64" stop-color="#304891"/>
<stop offset="1" stop-color="#15AD8C"/>
</linearGradient>
<linearGradient id="paint1_linear_724_49" x1="-12202.4" y1="1712.02" x2="-12202.4" y2="30138" gradientUnits="userSpaceOnUse">
<stop stop-color="#4EBDE6"/>
<stop offset="1" stop-color="#085A8A"/>
</linearGradient>
<radialGradient id="paint2_radial_724_49" cx="0" cy="0" r="1" gradientUnits="userSpaceOnUse" gradientTransform="translate(1401.26 194.423) scale(18.7498 20.8087)">
<stop stop-color="#62CEF5"/>
<stop offset="1" stop-color="#237FCF"/>
</radialGradient>
<radialGradient id="paint3_radial_724_49" cx="0" cy="0" r="1" gradientUnits="userSpaceOnUse" gradientTransform="translate(1311.23 -550.004) rotate(-32.8952) scale(37.7427 41.6471)">
<stop stop-color="#62CEF5"/>
<stop offset="1" stop-color="#237FCF"/>
</radialGradient>
<radialGradient id="paint4_radial_724_49" cx="0" cy="0" r="1" gradientUnits="userSpaceOnUse" gradientTransform="translate(-9.69915 -122.656) rotate(-147.265) scale(19.4842 21.5703)">
<stop stop-color="#62CEF5"/>
<stop offset="1" stop-color="#237FCF"/>
</radialGradient>
<radialGradient id="paint5_radial_724_49" cx="0" cy="0" r="1" gradientUnits="userSpaceOnUse" gradientTransform="translate(985.142 -247.015) rotate(-32.8952) scale(37.1932 41.0911)">
<stop stop-color="#62CEF5"/>
<stop offset="1" stop-color="#237FCF"/>
</radialGradient>
<radialGradient id="paint6_radial_724_49" cx="0" cy="0" r="1" gradientUnits="userSpaceOnUse" gradientTransform="translate(511.938 -86.0941) rotate(-32.8951) scale(5.94501 6.45145)">
<stop stop-color="#62CEF5"/>
<stop offset="1" stop-color="#237FCF"/>
</radialGradient>
<radialGradient id="paint7_radial_724_49" cx="0" cy="0" r="1" gradientUnits="userSpaceOnUse" gradientTransform="translate(286.102 -49.0633) rotate(-32.8951) scale(5.93723 6.55844)">
<stop stop-color="#62CEF5"/>
<stop offset="1" stop-color="#237FCF"/>
</radialGradient>
<radialGradient id="paint8_radial_724_49" cx="0" cy="0" r="1" gradientUnits="userSpaceOnUse" gradientTransform="translate(88.5315 23.9437) rotate(-32.9102) scale(3.5008 3.92373)">
<stop stop-color="#62CEF5"/>
<stop offset="1" stop-color="#237FCF"/>
</radialGradient>
<radialGradient id="paint9_radial_724_49" cx="0" cy="0" r="1" gradientUnits="userSpaceOnUse" gradientTransform="translate(283.651 56.5442) rotate(-32.9036) scale(13.4928 14.91)">
<stop stop-color="#62CEF5"/>
<stop offset="1" stop-color="#237FCF"/>
</radialGradient>
<linearGradient id="paint10_linear_724_49" x1="4799.5" y1="7383.71" x2="9743.7" y2="13242.7" gradientUnits="userSpaceOnUse">
<stop stop-color="#C7F0E1"/>
<stop offset="1"/>
</linearGradient>
</defs>
</svg>
