<svg width="126" height="126" viewBox="0 0 126 126" fill="none" xmlns="http://www.w3.org/2000/svg">
<path d="M38.145 121.477C35.5914 120.546 31.9636 118.653 29.4696 116.974C28.9013 116.594 28.3908 116.226 27.9663 115.881C27.0063 115.103 26.4739 114.451 26.669 114.086C26.6699 114.089 26.6746 114.083 26.683 114.067C26.6902 114.059 26.6995 114.046 26.7109 114.029C26.7496 113.978 26.818 113.879 26.9157 113.746C26.9292 113.725 26.9453 113.702 26.9639 113.677C26.9981 113.627 27.0374 113.572 27.0818 113.513C27.1067 113.476 27.1342 113.436 27.1642 113.394C27.1735 113.382 27.1818 113.371 27.189 113.362C27.2061 113.337 27.2263 113.307 27.2466 113.276C27.2961 113.212 27.3411 113.149 27.3924 113.074C27.4329 113.012 27.4825 112.948 27.5293 112.875C27.5788 112.811 27.6238 112.748 27.672 112.679C27.7848 112.52 27.904 112.349 28.0294 112.167C28.0966 112.074 28.1655 111.976 28.236 111.873C28.2545 111.852 28.2671 111.829 28.2855 111.808C28.326 111.747 28.3711 111.684 28.4161 111.621C28.5052 111.492 28.5979 111.359 28.6942 111.221C28.7284 111.172 28.7658 111.116 28.8045 111.065C29.1543 110.56 29.5368 110.001 29.9518 109.402C30.0405 109.272 30.1292 109.141 30.2224 109.01C30.3065 108.881 30.3952 108.75 30.4884 108.619C30.5428 108.538 30.6004 108.452 30.6594 108.37C30.7176 108.28 30.7773 108.19 30.8385 108.099C30.9318 107.962 31.0252 107.826 31.1185 107.689C31.1621 107.622 31.2117 107.557 31.2553 107.49C31.425 107.237 31.6023 106.976 31.7783 106.711C31.8665 106.579 31.9558 106.445 32.0461 106.309C32.1364 106.174 32.2282 106.037 32.3215 105.901C32.3443 105.868 32.3652 105.833 32.384 105.798C32.5209 105.599 32.6568 105.397 32.7918 105.192C32.8179 105.148 32.8459 105.105 32.876 105.063C32.9849 104.902 33.0929 104.738 33.2 104.571C33.2789 104.451 33.3588 104.33 33.4399 104.207C33.6319 103.919 33.8225 103.627 34.0118 103.33C34.0195 103.322 34.0258 103.311 34.0321 103.299C34.3111 102.869 34.5932 102.434 34.8754 101.999L34.8772 101.989C35.1688 101.536 35.4604 101.083 35.7492 100.621C35.796 100.548 35.8439 100.472 35.8928 100.395C35.9417 100.318 35.9891 100.241 36.0349 100.165C36.1191 100.036 36.2019 99.9024 36.2815 99.7748C38.2788 96.5736 40.1959 93.303 41.5749 90.5007C41.9084 89.8282 42.1995 89.1784 42.4482 88.5512C42.5198 88.3752 42.5868 88.2005 42.6493 88.0272C42.7053 87.8756 42.7597 87.7244 42.8126 87.5737C42.8309 87.5255 42.8476 87.4777 42.8629 87.4304C42.8793 87.3762 42.8977 87.323 42.918 87.2708C42.9802 87.0746 43.0402 86.8823 43.0982 86.694C43.2421 86.2037 43.3628 85.7286 43.4601 85.2688C43.4874 85.1472 43.5115 85.0316 43.5297 84.9127C43.5779 84.6813 43.6158 84.4481 43.6504 84.2208C43.729 83.6501 43.7742 83.0994 43.7859 82.5686C43.7908 82.4653 43.7922 82.3614 43.7901 82.2569C43.7903 82.1813 43.7899 82.1042 43.7891 82.0256C43.7879 81.9997 43.7866 81.9738 43.7853 81.9479C43.7872 81.8455 43.7841 81.743 43.776 81.6403C43.7712 81.5432 43.7651 81.4416 43.759 81.34C43.7529 81.2384 43.7436 81.1426 43.7329 81.0424C43.7228 80.9436 43.7115 80.8468 43.6993 80.752C43.6748 80.5574 43.6473 80.3686 43.6152 80.1812C43.5981 80.0813 43.5795 79.9818 43.5593 79.8828C43.5307 79.7338 43.4994 79.5872 43.4657 79.443C43.4523 79.388 43.4389 79.3329 43.4255 79.2778C43.4112 79.2197 43.3959 79.1636 43.3795 79.1094C43.3615 79.0393 43.3425 78.9711 43.3225 78.9049C43.3061 78.8508 43.2897 78.7966 43.2733 78.7425C43.2587 78.6943 43.2442 78.6462 43.2296 78.598C43.1886 78.4626 43.1446 78.3281 43.0976 78.1945C43.0846 78.1623 43.073 78.1297 43.063 78.0966C43.0518 78.0704 43.0421 78.0438 43.0339 78.0167C43.0209 77.9845 43.0079 77.9523 42.9948 77.9201C42.9718 77.8548 42.9477 77.7915 42.9225 77.7301C42.9189 77.7181 42.9137 77.7065 42.9071 77.6954C42.8968 77.6722 42.8876 77.6471 42.8794 77.62C42.8745 77.6149 42.8707 77.6078 42.868 77.5988C42.8262 77.4932 42.7814 77.3885 42.7335 77.2847C42.7223 77.2586 42.7116 77.2339 42.7013 77.2107C42.6901 77.1846 42.6793 77.1599 42.669 77.1367C42.6493 77.0934 42.6301 77.0516 42.6113 77.0113C42.5917 76.968 42.572 76.9247 42.5523 76.8814C42.5108 76.7986 42.4694 76.7159 42.4279 76.6332C42.4128 76.6049 42.3992 76.5762 42.3871 76.547C42.3719 76.5188 42.3568 76.4905 42.3417 76.4622C42.3398 76.4562 42.337 76.4521 42.3331 76.4501C42.3237 76.4299 42.3123 76.4087 42.299 76.3864C42.2803 76.3461 42.26 76.3063 42.2382 76.2669C42.2164 76.2275 42.1946 76.1881 42.1729 76.1487C42.1719 76.1457 42.1715 76.1442 42.1715 76.1442C42.1582 76.1219 42.1459 76.0977 42.1347 76.0716C42.1166 76.0442 42.1 76.0164 42.0848 75.9881C42.0697 75.9598 42.0531 75.932 42.0349 75.9047C42.0132 75.8653 41.9914 75.8259 41.9696 75.7865C41.9251 75.7047 41.8781 75.6253 41.8285 75.5483C41.8028 75.5068 41.7782 75.4634 41.7546 75.4179C41.725 75.3744 41.6964 75.3288 41.6689 75.2813C41.664 75.2762 41.6592 75.2711 41.6544 75.266C41.6411 75.2437 41.6282 75.223 41.6158 75.2037C41.591 75.1652 41.5678 75.1263 41.546 75.0869C41.5212 75.0484 41.4964 75.0099 41.4716 74.9715C41.4486 74.939 41.4272 74.9061 41.4072 74.8727C41.3852 74.8432 41.3642 74.8118 41.3442 74.7784C41.2792 74.6831 41.2147 74.5893 41.1506 74.497C41.1307 74.4637 41.1092 74.4307 41.0862 74.3983C41.0633 74.3658 41.0403 74.3333 41.0173 74.3009C40.9771 74.2441 40.9365 74.1857 40.8954 74.1259C40.8848 74.1127 40.8743 74.0995 40.8637 74.0862C40.8513 74.067 40.8393 74.0493 40.8279 74.033C40.8106 74.0087 40.7934 73.9843 40.7762 73.96C40.7043 73.8635 40.6324 73.767 40.5605 73.6705C40.5327 73.6329 40.5049 73.5953 40.4771 73.5578C40.4493 73.5202 40.4215 73.4826 40.3937 73.4451C40.2489 73.2491 40.1021 73.057 39.9532 72.8688C39.8822 72.7754 39.8092 72.6808 39.7343 72.5853C39.7295 72.5801 39.7246 72.575 39.7198 72.5699C39.6162 72.4338 39.5115 72.2996 39.4058 72.1673C39.2952 72.03 39.1862 71.8922 39.0786 71.7539C38.8787 71.5057 38.6841 71.259 38.495 71.0141C38.4421 70.948 38.3912 70.8829 38.3423 70.8189C38.2933 70.7548 38.2439 70.6893 38.1941 70.6223C38.1575 70.5775 38.1225 70.5323 38.089 70.4866C38.0678 70.4601 38.0482 70.4332 38.03 70.4059C37.9974 70.3632 37.9643 70.319 37.9308 70.2733C37.8982 70.2306 37.8651 70.1864 37.8315 70.1407C37.8019 70.0971 37.7703 70.0525 37.7368 70.0068C37.6736 69.9175 37.6109 69.8297 37.5487 69.7435C37.4722 69.6319 37.3973 69.5199 37.3238 69.4075C37.3008 69.375 37.2789 69.3406 37.2581 69.3042C37.2064 69.2312 37.1572 69.1557 37.1107 69.0778C36.9864 68.8789 36.868 68.6832 36.7497 68.4874C34.5331 64.8272 32.9304 60.9812 33.0229 54.4984C33.1572 45.5983 37.1528 36.855 39.4991 32.4789C40.478 30.6502 41.1642 29.5802 41.1642 29.5802C52.0869 11.3442 73.6268 3.75018 90.257 12.6559C106.886 21.5571 112.516 43.6913 103.394 62.895L103.399 62.8936C103.399 62.8936 97.5686 76.3361 87.1782 83.4871C81.8349 87.1591 77.7411 87.9597 73.4706 88.1437C73.2406 88.1542 73.0101 88.1632 72.7791 88.1707C72.6686 88.1746 72.5557 88.1759 72.4403 88.1747C72.3946 88.1754 72.3503 88.1757 72.3075 88.1755C72.3075 88.1755 72.306 88.1759 72.303 88.1768C72.2831 88.1763 72.2618 88.1762 72.2389 88.1765C72.1961 88.1763 72.1534 88.1762 72.1106 88.176C72.1007 88.1757 72.0892 88.1759 72.0763 88.1765C72.0564 88.1759 72.0365 88.1754 72.0166 88.1748C71.9968 88.1743 71.9769 88.1737 71.957 88.1732C71.9173 88.1721 71.8775 88.171 71.8377 88.1699C71.5962 88.1641 71.3533 88.1539 71.109 88.1391C71.0256 88.1348 70.9437 88.13 70.8633 88.1248C70.7799 88.1205 70.696 88.1147 70.6116 88.1074C70.4041 88.0946 70.1942 88.0793 69.9818 88.0615C69.9213 88.0568 69.8622 88.0517 69.8047 88.0461C69.6737 88.0365 69.5422 88.0254 69.4103 88.0128C69.0768 87.9856 68.7434 87.9584 68.4055 87.9326C68.2269 87.9177 68.0472 87.9047 67.8665 87.8937C67.7454 87.8844 67.6248 87.8765 67.5046 87.8702C67.3844 87.8639 67.2642 87.8575 67.1441 87.8512C67.1302 87.8488 67.1149 87.8469 67.098 87.8455C67.0552 87.8453 67.012 87.8436 66.9683 87.8404C66.9515 87.8389 66.9366 87.8385 66.9236 87.8391C66.8938 87.8383 66.864 87.8375 66.8342 87.8366C66.8074 87.8349 66.7806 87.8331 66.7537 87.8314C66.7468 87.8302 66.7399 87.829 66.733 87.8278C66.6673 87.828 66.6012 87.8266 66.5346 87.8238C66.4949 87.8227 66.4536 87.822 66.4109 87.8219C66.3573 87.8184 66.3041 87.8164 66.2514 87.8159C66.1192 87.8132 65.9874 87.8121 65.8561 87.8124C65.6354 87.8102 65.4141 87.8115 65.1921 87.8163C65.1662 87.8175 65.1388 87.8193 65.1099 87.8214C64.9109 87.8258 64.7112 87.8337 64.511 87.8451C64.4631 87.8497 64.4148 87.8528 64.366 87.8544C64.363 87.8554 64.3585 87.8567 64.3525 87.8585C64.3197 87.8586 64.2858 87.8607 64.2509 87.8647C64.225 87.8659 64.1991 87.8672 64.1732 87.8685C64.1452 87.8737 64.1167 87.8773 64.0878 87.8795C64.0619 87.8808 64.0345 87.8825 64.0056 87.8847C63.9966 87.8874 63.9886 87.8882 63.9817 87.887C63.9787 87.8879 63.9757 87.8888 63.9727 87.8897C63.9567 87.8913 63.9408 87.8928 63.9248 87.8944C63.9058 87.8968 63.8864 87.8978 63.8665 87.8972C63.7094 87.9152 63.5522 87.9332 63.3919 87.9571C63.357 87.9611 63.3221 87.9651 63.2872 87.9691C63.2532 87.9761 63.2187 87.9816 63.1838 87.9856C63.0709 88.0034 62.958 88.0211 62.8451 88.0389C62.8421 88.0398 62.8391 88.0407 62.8361 88.0416C62.7762 88.0499 62.7152 88.0601 62.6532 88.0723C62.5912 88.0845 62.5277 88.0972 62.4627 88.1103C62.2737 88.1478 62.083 88.1907 61.8907 88.2391C61.8266 88.2552 61.7629 88.2728 61.6997 88.292C61.6477 88.3044 61.5961 88.3184 61.5449 88.3339C61.5118 88.3439 61.4787 88.3539 61.4456 88.364C61.4387 88.3628 61.4326 88.3646 61.4275 88.3694C61.3845 88.3792 61.3434 88.39 61.3043 88.4018C61.2351 88.4227 61.1678 88.4447 61.1025 88.4678C61.0995 88.4687 61.0965 88.4696 61.0935 88.4705C61.0725 88.4769 61.0529 88.4828 61.0348 88.4883C61.0047 88.4974 60.9751 88.508 60.9459 88.5201C60.9188 88.5283 60.8918 88.5365 60.8647 88.5447C60.8355 88.5568 60.8074 88.567 60.7803 88.5752C60.7541 88.5864 60.7275 88.5961 60.7004 88.6043C60.6772 88.6146 60.6536 88.6234 60.6295 88.6307C60.6265 88.6316 60.6235 88.6325 60.6205 88.6334C60.6145 88.6352 60.61 88.6366 60.607 88.6375C60.5808 88.6487 60.5542 88.6584 60.5271 88.6666C60.5039 88.6769 60.4793 88.6876 60.4531 88.6989C60.4501 88.6998 60.4471 88.7007 60.4441 88.7016C60.3878 88.7219 60.332 88.7437 60.2766 88.767C60.2676 88.7698 60.259 88.774 60.2509 88.7798C60.2479 88.7807 60.2449 88.7816 60.2419 88.7825C60.2097 88.7955 60.179 88.8081 60.1498 88.8202C60.1297 88.8296 60.1091 88.8375 60.088 88.8439C60.0649 88.8542 60.0432 88.864 60.023 88.8734C59.9244 88.9164 59.8262 88.9609 59.7284 89.0069C59.7052 89.0172 59.6821 89.0275 59.6589 89.0378C59.6105 89.0623 59.5631 89.0849 59.5168 89.1054C59.4945 89.1188 59.4703 89.131 59.4442 89.1422C59.3392 89.197 59.2342 89.2517 59.1293 89.3065C58.9879 89.3822 58.846 89.4612 58.7034 89.5438C58.67 89.5638 58.6352 89.5842 58.5988 89.605C58.5522 89.6356 58.5051 89.6646 58.4576 89.6921C58.411 89.7227 58.3644 89.7532 58.3178 89.7837C58.3118 89.7855 58.3073 89.7869 58.3043 89.7878C58.2931 89.7945 58.2825 89.8026 58.2722 89.8123C58.2136 89.8465 58.1559 89.8836 58.0991 89.9238C58.0961 89.9247 58.0935 89.9272 58.0914 89.9311C58.0722 89.9435 58.0544 89.9554 58.0382 89.9669C57.9484 90.0286 57.8542 90.0916 57.7645 90.1532C57.7167 90.1907 57.6669 90.2271 57.6152 90.2625C57.6152 90.2625 57.6137 90.2629 57.6107 90.2638C57.5193 90.3309 57.4284 90.3995 57.3379 90.4696C57.3379 90.4696 57.3369 90.4715 57.3348 90.4755C57.287 90.5129 57.2407 90.5499 57.1959 90.5865C57.1716 90.6037 57.1487 90.6205 57.1274 90.6368C57.1223 90.6416 57.1172 90.6464 57.112 90.6513C57.0856 90.6724 57.0592 90.6936 57.0327 90.7147C56.9828 90.7561 56.9344 90.797 56.8876 90.8375C56.8377 90.8789 56.7893 90.9198 56.7424 90.9603C56.7057 90.9911 56.6691 91.0219 56.6324 91.0527C56.5895 91.0952 56.543 91.1372 56.4931 91.1786C56.4727 91.1979 56.4497 91.2197 56.4242 91.2438C56.4007 91.264 56.3773 91.2843 56.3539 91.3045C56.3139 91.3462 56.272 91.3868 56.2281 91.4263C56.1975 91.4553 56.1669 91.4843 56.1362 91.5133C56.1158 91.5326 56.0968 91.5515 56.0794 91.5699C56.0365 91.6125 55.9931 91.6535 55.9492 91.6931C55.9225 91.7242 55.8938 91.7542 55.8631 91.7832C55.8508 91.7968 55.838 91.8088 55.8248 91.8194C55.8176 91.8282 55.8089 91.8374 55.7987 91.847C55.7137 91.9352 55.6261 92.0257 55.536 92.1187C55.5288 92.1275 55.5231 92.1358 55.5189 92.1436C55.5108 92.1493 55.5016 92.157 55.4914 92.1667C55.395 92.2714 55.2991 92.3777 55.2036 92.4854C54.9663 92.7543 54.7291 93.0396 54.4919 93.3414C54.4919 93.3414 54.4904 93.3418 54.4874 93.3427C54.4853 93.3467 54.4817 93.351 54.4766 93.3559C54.4478 93.3909 54.4194 93.4274 54.3915 93.4654C54.3141 93.5677 54.2351 93.6704 54.1547 93.7736C54.1205 93.8234 54.0843 93.8721 54.0462 93.9198C53.9024 94.1177 53.7585 94.3205 53.6145 94.5284C53.2319 95.0876 52.8512 95.6857 52.4765 96.3362C50.9688 98.9409 49.3683 102.199 47.8663 105.507C47.7879 105.682 47.7079 105.857 47.6264 106.033C47.5357 106.238 47.4449 106.443 47.3528 106.643C47.2265 106.931 47.0996 107.217 46.9723 107.502C46.9181 107.627 46.8635 107.75 46.8084 107.872C46.7383 108.031 46.6687 108.192 46.5995 108.354C46.4647 108.658 46.3325 108.959 46.2029 109.258C46.0196 109.678 45.8422 110.101 45.6621 110.515C45.5804 110.717 45.4973 110.915 45.4097 111.114C45.4016 111.136 45.3936 111.158 45.381 111.182C45.3169 111.339 45.2509 111.495 45.1829 111.651C44.9656 112.17 44.7545 112.677 44.5498 113.173C44.4752 113.35 44.4022 113.526 44.3306 113.702C44.2594 113.868 44.19 114.035 44.1227 114.204C44.0844 114.294 44.048 114.386 44.0136 114.478C43.9636 114.595 43.9141 114.714 43.865 114.834C43.8138 114.957 43.7671 115.08 43.7146 115.199C43.6044 115.476 43.4955 115.745 43.3877 116.008C43.306 116.21 43.2319 116.405 43.152 116.597C42.8876 117.253 42.6451 117.868 42.4252 118.428C42.3978 118.5 42.3704 118.572 42.3417 118.64C42.2528 118.868 42.1687 119.084 42.0894 119.288C42.0687 119.334 42.0494 119.384 42.0333 119.428C41.4502 120.92 41.1163 121.82 41.1163 121.82C40.8803 122.261 39.7179 122.051 38.145 121.477Z" fill="#DF2626"/>
<path d="M37.25 121.955C32.5829 120.52 25.6146 116.056 26.669 114.086C26.6699 114.089 26.6746 114.083 26.683 114.067C26.6902 114.059 26.6995 114.046 26.7109 114.029C26.7496 113.978 26.818 113.879 26.9157 113.746C26.9292 113.725 26.9453 113.702 26.9639 113.677C26.9981 113.627 27.0374 113.572 27.0818 113.513C27.1067 113.476 27.1342 113.436 27.1642 113.394C27.1735 113.382 27.1818 113.371 27.189 113.362C27.2061 113.337 27.2263 113.307 27.2466 113.276C27.2961 113.212 27.3411 113.149 27.3924 113.074C27.4329 113.012 27.4825 112.948 27.5306 112.879C27.5743 112.812 27.6238 112.748 27.672 112.679C27.7848 112.52 27.904 112.349 28.0294 112.167C28.0966 112.074 28.1655 111.976 28.236 111.873C28.2545 111.852 28.2671 111.829 28.281 111.81C28.326 111.747 28.3711 111.684 28.4161 111.621C28.5052 111.492 28.5979 111.359 28.6942 111.221C28.7285 111.172 28.7658 111.116 28.8045 111.065C29.1543 110.56 29.5368 110.001 29.9519 109.402C30.0405 109.272 30.1292 109.141 30.2224 109.01C30.3065 108.881 30.3952 108.75 30.4884 108.619C30.5428 108.538 30.6004 108.452 30.6594 108.37C30.7176 108.28 30.7773 108.19 30.8385 108.099C30.9318 107.962 31.0252 107.826 31.1185 107.689C31.1621 107.622 31.2072 107.559 31.2553 107.49C31.425 107.236 31.6023 106.976 31.7783 106.711C31.8665 106.579 31.9558 106.445 32.0461 106.309C32.1364 106.174 32.2282 106.037 32.3215 105.901C32.3443 105.868 32.3652 105.833 32.384 105.798C32.5209 105.599 32.6568 105.397 32.7918 105.192C32.8179 105.148 32.846 105.105 32.876 105.063C32.9849 104.902 33.0929 104.738 33.2 104.571C33.2789 104.451 33.3589 104.33 33.4399 104.207C33.6319 103.919 33.8225 103.627 34.0118 103.33C34.0195 103.322 34.0258 103.311 34.0321 103.299C34.3111 102.869 34.5946 102.439 34.8754 101.999L34.8772 101.989C35.1688 101.536 35.4604 101.083 35.7492 100.621C35.796 100.548 35.8439 100.472 35.8928 100.395C35.9033 100.376 35.9157 100.357 35.9301 100.339C35.9661 100.279 36.0021 100.219 36.035 100.165C36.1191 100.036 36.2019 99.9024 36.2815 99.7748C38.2788 96.5736 40.196 93.3029 41.5749 90.5007C41.9084 89.8282 42.1996 89.1784 42.4483 88.5512C42.5198 88.3752 42.5873 88.202 42.6507 88.0317C42.7057 87.8771 42.7597 87.7244 42.8126 87.5737C42.8309 87.5255 42.8476 87.4777 42.8629 87.4304C42.8793 87.3762 42.8977 87.323 42.918 87.2708C42.9802 87.0746 43.0403 86.8823 43.0982 86.694C43.2422 86.2037 43.3628 85.7286 43.4601 85.2688C43.4874 85.1472 43.5115 85.0315 43.5297 84.9127C43.574 84.6792 43.6143 84.4486 43.6504 84.2208C43.731 83.6512 43.7761 83.1004 43.786 82.5686C43.7889 82.4642 43.7873 82.3612 43.7902 82.2569C43.7903 82.1813 43.7899 82.1042 43.7891 82.0256C43.7879 81.9997 43.7866 81.9738 43.7853 81.9479C43.7842 81.8464 43.7811 81.7439 43.776 81.6403C43.7718 81.5397 43.7662 81.4396 43.759 81.34C43.7518 81.2403 43.7431 81.1411 43.733 81.0424C43.7228 80.9436 43.7115 80.8468 43.6993 80.752C43.6748 80.5574 43.6473 80.3686 43.6152 80.1812C43.5981 80.0813 43.5795 79.9818 43.5594 79.8828C43.5307 79.7338 43.4994 79.5872 43.4657 79.443C43.4067 79.2047 43.3425 78.9711 43.2733 78.7424C43.2587 78.6943 43.2442 78.6462 43.2296 78.598C43.1886 78.4626 43.1446 78.3281 43.0976 78.1945C43.0967 78.1915 43.0943 78.1889 43.0904 78.1868C43.06 78.0975 43.0282 78.0086 42.9948 77.9201C42.9179 77.72 42.8368 77.5228 42.7517 77.3285C42.7257 77.2641 42.6981 77.2002 42.669 77.1367C42.6493 77.0934 42.6301 77.0516 42.6114 77.0113C42.5917 76.968 42.572 76.9247 42.5523 76.8813C42.5109 76.7986 42.4694 76.7159 42.4279 76.6332C42.3839 76.5529 42.3444 76.4712 42.299 76.3864C42.2585 76.3067 42.2164 76.2275 42.1729 76.1487C42.172 76.1457 42.1715 76.1442 42.1715 76.1442C42.1649 76.1331 42.1582 76.1219 42.1515 76.1108C42.1137 76.0401 42.0749 75.9714 42.035 75.9047C42.0132 75.8653 41.9914 75.8259 41.9696 75.7865C41.9251 75.7047 41.8781 75.6253 41.8285 75.5483C41.8028 75.5068 41.7767 75.4638 41.7501 75.4193C41.7235 75.3748 41.6964 75.3288 41.6689 75.2813C41.6641 75.2762 41.6592 75.2711 41.6544 75.266C41.6411 75.2437 41.6282 75.223 41.6158 75.2037C41.591 75.1652 41.5663 75.1267 41.5415 75.0883C41.5197 75.0489 41.4954 75.0119 41.4685 74.9773C41.4476 74.9409 41.4272 74.9061 41.4072 74.8727C41.3852 74.8432 41.3642 74.8118 41.3442 74.7784C41.2792 74.6831 41.2147 74.5893 41.1506 74.497C41.1307 74.4637 41.1092 74.4307 41.0863 74.3983C41.0633 74.3658 41.0403 74.3333 41.0173 74.3009C40.9772 74.244 40.9365 74.1857 40.8954 74.1259C40.8848 74.1127 40.8743 74.0994 40.8637 74.0862C40.8513 74.067 40.8394 74.0492 40.8279 74.033C40.8106 74.0087 40.7934 73.9843 40.7762 73.96C40.7043 73.8635 40.6324 73.767 40.5605 73.6705C40.5327 73.6329 40.5049 73.5953 40.4771 73.5578C40.4493 73.5202 40.4215 73.4826 40.3937 73.445C40.2489 73.2491 40.1021 73.057 39.9532 72.8688C39.8822 72.7754 39.8092 72.6808 39.7343 72.5852C39.7295 72.5801 39.7247 72.575 39.7198 72.5699C39.6162 72.4338 39.5115 72.2996 39.4058 72.1673C39.2952 72.03 39.1862 71.8922 39.0786 71.7539C38.8787 71.5056 38.6841 71.259 38.495 71.0141C38.4421 70.9479 38.3912 70.8829 38.3423 70.8189C38.2933 70.7548 38.2439 70.6893 38.1941 70.6223C38.1575 70.5775 38.1225 70.5322 38.089 70.4866C38.0678 70.4601 38.0482 70.4332 38.03 70.4058C37.9974 70.3632 37.9643 70.319 37.9308 70.2733C37.8982 70.2306 37.8651 70.1864 37.8315 70.1407C37.8019 70.0971 37.7703 70.0525 37.7368 70.0068C37.6736 69.9175 37.6109 69.8297 37.5487 69.7435C37.4722 69.6319 37.3973 69.5199 37.3238 69.4075C37.3008 69.375 37.2789 69.3406 37.2581 69.3042C37.2064 69.2312 37.1573 69.1557 37.1107 69.0778C36.9864 68.8789 36.8681 68.6832 36.7497 68.4874L49.527 75.327L73.4706 88.1437C73.2406 88.1542 73.0101 88.1632 72.7791 88.1707C72.6686 88.1746 72.5557 88.1759 72.4404 88.1747C72.3946 88.1754 72.3503 88.1757 72.3075 88.1755C72.3075 88.1755 72.306 88.1759 72.303 88.1768C72.2832 88.1763 72.2618 88.1762 72.2389 88.1765C72.1961 88.1763 72.1534 88.1762 72.1106 88.176C72.1007 88.1757 72.0892 88.1759 72.0763 88.1765C72.0564 88.1759 72.0365 88.1754 72.0166 88.1748C71.9968 88.1743 71.9769 88.1737 71.957 88.1732C71.9173 88.1721 71.8775 88.171 71.8378 88.1699C71.5962 88.1641 71.3533 88.1539 71.1091 88.1391C71.0256 88.1348 70.9437 88.13 70.8633 88.1248C70.7799 88.1205 70.696 88.1147 70.6116 88.1074C70.4041 88.0946 70.1942 88.0793 69.9818 88.0615C69.9213 88.0568 69.8623 88.0517 69.8047 88.0461C69.6737 88.0365 69.5422 88.0254 69.4103 88.0128C69.0769 87.9856 68.7434 87.9584 68.4055 87.9326C68.2269 87.9177 68.0472 87.9047 67.8665 87.8937C67.7454 87.8844 67.6248 87.8765 67.5046 87.8702C67.3844 87.8639 67.2643 87.8575 67.1441 87.8512C67.1302 87.8488 67.1153 87.8484 67.0994 87.85C67.0557 87.8468 67.012 87.8436 66.9683 87.8403C66.9515 87.8389 66.9366 87.8385 66.9236 87.8391C66.8938 87.8383 66.864 87.8374 66.8342 87.8366C66.8074 87.8349 66.7806 87.8331 66.7538 87.8314C66.7468 87.8302 66.7399 87.829 66.733 87.8278C66.6673 87.828 66.6012 87.8266 66.5347 87.8238C66.4949 87.8227 66.4536 87.822 66.4109 87.8218C66.3573 87.8184 66.3041 87.8164 66.2514 87.8159C66.1192 87.8132 65.9874 87.812 65.8562 87.8124C65.6354 87.8102 65.4141 87.8115 65.1921 87.8163C65.1662 87.8175 65.1388 87.8193 65.1099 87.8214C64.9109 87.8258 64.7097 87.8342 64.5065 87.8464C64.4616 87.8501 64.4148 87.8528 64.366 87.8544C64.363 87.8553 64.3585 87.8567 64.3525 87.8585C64.3197 87.8586 64.2858 87.8607 64.2509 87.8647C64.1991 87.8672 64.1448 87.8722 64.0879 87.8795C64.062 87.8808 64.0346 87.8825 64.0056 87.8847C63.9966 87.8874 63.9886 87.8882 63.9817 87.887C63.9627 87.8895 63.9438 87.8919 63.9248 87.8944C63.9059 87.8968 63.8864 87.8978 63.8666 87.8972C63.7094 87.9152 63.5523 87.9332 63.3919 87.9571C63.357 87.9611 63.3221 87.9651 63.2872 87.9691C63.2532 87.9761 63.2187 87.9816 63.1838 87.9856C63.0709 88.0034 62.958 88.0211 62.8451 88.0389C62.8421 88.0398 62.8391 88.0407 62.8361 88.0416C62.7762 88.0499 62.7152 88.0601 62.6532 88.0723C62.5912 88.0845 62.5277 88.0972 62.4627 88.1103C62.2737 88.1478 62.083 88.1907 61.8907 88.2391C61.8266 88.2552 61.7629 88.2728 61.6997 88.2919C61.6477 88.3044 61.5961 88.3184 61.5449 88.3339C61.5118 88.3439 61.4787 88.3539 61.4456 88.3639C61.4387 88.3628 61.4327 88.3646 61.4275 88.3694C61.3845 88.3791 61.3434 88.3899 61.3043 88.4018C61.2351 88.4227 61.1678 88.4447 61.1026 88.4678C61.0995 88.4687 61.0965 88.4696 61.0935 88.4705C61.0725 88.4769 61.0529 88.4828 61.0348 88.4883C61.0048 88.4974 60.9751 88.508 60.9459 88.5201C60.9189 88.5283 60.8918 88.5365 60.8647 88.5447C60.8355 88.5568 60.8074 88.567 60.7803 88.5752C60.7541 88.5864 60.7275 88.5961 60.7004 88.6043C60.6772 88.6146 60.6536 88.6234 60.6296 88.6307C60.6265 88.6316 60.6235 88.6325 60.6205 88.6334C60.6145 88.6352 60.61 88.6366 60.607 88.6375C60.5567 88.656 60.5054 88.6764 60.4531 88.6988C60.4501 88.6998 60.4471 88.7007 60.4441 88.7016C60.3878 88.7219 60.332 88.7437 60.2767 88.767C60.2676 88.7698 60.2591 88.774 60.2509 88.7798C60.2479 88.7807 60.2449 88.7816 60.2419 88.7825C60.2097 88.7955 60.179 88.8081 60.1498 88.8202C60.1297 88.8296 60.1091 88.8375 60.088 88.8438C60.0649 88.8541 60.0432 88.864 60.0231 88.8734C59.9244 88.9164 59.8262 88.9609 59.7284 89.0069C59.7052 89.0172 59.6821 89.0275 59.6589 89.0378C59.6105 89.0623 59.5631 89.0848 59.5168 89.1054C59.4945 89.1187 59.4703 89.131 59.4442 89.1422C59.3392 89.197 59.2342 89.2517 59.1293 89.3065C58.9879 89.3821 58.846 89.4612 58.7034 89.5438C58.6701 89.5638 58.6356 89.5857 58.6002 89.6096C58.5526 89.6371 58.5051 89.6646 58.4576 89.6921C58.411 89.7226 58.3644 89.7532 58.3178 89.7837C58.3118 89.7855 58.3073 89.7869 58.3043 89.7878C58.2931 89.7945 58.2825 89.8026 58.2723 89.8123C58.2359 89.8331 58.1999 89.8555 58.1645 89.8794C58.1209 89.909 58.0788 89.9382 58.0382 89.9669C57.9485 90.0285 57.8542 90.0916 57.7645 90.1532C57.7167 90.1907 57.6669 90.2271 57.6152 90.2625C57.6152 90.2625 57.6137 90.2629 57.6107 90.2638C57.5193 90.3309 57.4284 90.3995 57.3379 90.4696C57.3379 90.4696 57.3369 90.4715 57.3348 90.4754C57.287 90.5129 57.2407 90.5499 57.1959 90.5865C57.1716 90.6037 57.1487 90.6205 57.1274 90.6368C57.1223 90.6416 57.1172 90.6464 57.1121 90.6513C57.0856 90.6724 57.0592 90.6936 57.0327 90.7147C56.9828 90.7561 56.9344 90.797 56.8876 90.8375C56.8377 90.8788 56.7893 90.9198 56.7424 90.9602C56.7057 90.991 56.6695 91.0234 56.6338 91.0572C56.5899 91.0967 56.543 91.1372 56.4931 91.1786C56.4727 91.1979 56.4497 91.2196 56.4242 91.2438C56.4008 91.264 56.3773 91.2843 56.3539 91.3045C56.3139 91.3462 56.272 91.3868 56.2282 91.4263C56.1975 91.4553 56.1669 91.4843 56.1362 91.5133C56.1158 91.5326 56.0969 91.5515 56.0794 91.5699C56.0365 91.6125 55.9931 91.6535 55.9492 91.6931C55.9297 91.7154 55.9097 91.7362 55.8893 91.7556C55.8791 91.7652 55.8703 91.7744 55.8631 91.7832C55.8508 91.7968 55.8381 91.8088 55.8248 91.8194C55.8176 91.8282 55.8089 91.8374 55.7987 91.847C55.7137 91.9352 55.6261 92.0257 55.536 92.1187C55.5288 92.1275 55.5231 92.1357 55.5189 92.1436C55.5108 92.1493 55.5016 92.157 55.4914 92.1667C55.395 92.2714 55.2991 92.3777 55.2036 92.4854C54.9663 92.7543 54.7291 93.0396 54.492 93.3414C54.492 93.3414 54.4905 93.3418 54.4874 93.3427C54.4853 93.3466 54.4817 93.351 54.4766 93.3558C54.4478 93.3909 54.4194 93.4274 54.3915 93.4654C54.3141 93.5677 54.2351 93.6704 54.1547 93.7736C54.1205 93.8233 54.0843 93.8721 54.0462 93.9197C53.9024 94.1177 53.7585 94.3205 53.6145 94.5284C53.2319 95.0876 52.8512 95.6857 52.4766 96.3362C50.9688 98.9409 49.3683 102.199 47.8663 105.507C47.7879 105.682 47.7079 105.857 47.6264 106.033C47.5357 106.238 47.4449 106.443 47.3528 106.643C47.2265 106.931 47.0996 107.217 46.9723 107.502C46.9181 107.627 46.8635 107.75 46.8084 107.872C46.7383 108.031 46.6687 108.192 46.5995 108.354C46.4648 108.658 46.3325 108.959 46.2029 109.258C46.0196 109.678 45.8422 110.101 45.6621 110.515C45.5804 110.717 45.4973 110.915 45.4097 111.114C45.4017 111.136 45.3936 111.158 45.381 111.182C45.3169 111.339 45.2509 111.495 45.1829 111.651C44.9656 112.17 44.7545 112.677 44.5498 113.173C44.4752 113.35 44.4022 113.526 44.3306 113.702C44.2594 113.868 44.1901 114.035 44.1227 114.204C44.0844 114.294 44.048 114.386 44.0136 114.478C43.9636 114.595 43.9141 114.714 43.865 114.834C43.8138 114.957 43.7671 115.08 43.7146 115.199C43.6044 115.476 43.4955 115.745 43.3877 116.008C43.306 116.21 43.2319 116.405 43.152 116.597C42.8876 117.253 42.6452 117.868 42.4252 118.428C42.3978 118.5 42.3704 118.572 42.3417 118.64C42.2528 118.868 42.1687 119.084 42.0894 119.288C42.0688 119.334 42.0495 119.384 42.0333 119.428C41.4502 120.92 41.1163 121.82 41.1163 121.82C40.6851 122.625 39.1581 122.546 37.25 121.955Z" fill="#F7B763"/>
<path d="M37.25 121.955C37.5465 121.861 37.8506 121.709 38.145 121.477C38.351 121.312 38.5506 121.108 38.7397 120.854C39.7226 119.527 43.0995 111.035 46.7913 103.876C48.2092 101.121 51.1018 95.8802 53.7947 91.0542C56.4922 86.2269 58.9888 81.8102 59.6055 80.7218L61.9869 81.9966L60.6205 88.6334C60.6145 88.6352 60.61 88.6366 60.607 88.6375C60.5567 88.656 60.5054 88.6764 60.4531 88.6989C60.4501 88.6998 60.4471 88.7007 60.4441 88.7016C60.3878 88.7219 60.332 88.7437 60.2767 88.767C60.2676 88.7698 60.2591 88.774 60.2509 88.7798C60.2479 88.7807 60.2449 88.7816 60.2419 88.7825C60.2097 88.7955 60.179 88.8081 60.1499 88.8202C60.1297 88.8296 60.1091 88.8375 60.088 88.8438C60.0649 88.8541 60.0432 88.864 60.0231 88.8734C59.9244 88.9164 59.8262 88.9609 59.7284 89.0069C59.7052 89.0172 59.6821 89.0275 59.6589 89.0378C59.6105 89.0623 59.5631 89.0849 59.5168 89.1054C59.4945 89.1187 59.4703 89.131 59.4442 89.1422C59.3392 89.197 59.2342 89.2517 59.1293 89.3065C58.9879 89.3821 58.846 89.4612 58.7034 89.5438C58.6701 89.5638 58.6356 89.5857 58.6002 89.6096C58.5526 89.6371 58.5051 89.6646 58.4576 89.6921C58.411 89.7227 58.3644 89.7532 58.3178 89.7837C58.3118 89.7855 58.3073 89.7869 58.3043 89.7878C58.2931 89.7945 58.2825 89.8026 58.2723 89.8123C58.2359 89.8332 58.1999 89.8555 58.1645 89.8794C58.1209 89.909 58.0788 89.9382 58.0382 89.9669C57.9485 90.0285 57.8542 90.0916 57.7645 90.1532C57.7167 90.1907 57.6669 90.2271 57.6152 90.2625C57.6152 90.2625 57.6137 90.2629 57.6107 90.2638C57.5193 90.3309 57.4284 90.3995 57.3379 90.4696C57.3379 90.4696 57.3369 90.4715 57.3348 90.4755C57.287 90.5129 57.2407 90.5499 57.1959 90.5865C57.1716 90.6037 57.1487 90.6205 57.1274 90.6368C57.1223 90.6416 57.1172 90.6464 57.1121 90.6513C57.0856 90.6724 57.0592 90.6936 57.0327 90.7147C56.9828 90.7561 56.9344 90.797 56.8876 90.8375C56.8377 90.8789 56.7893 90.9198 56.7424 90.9602C56.7057 90.9911 56.6695 91.0234 56.6338 91.0572C56.5899 91.0967 56.543 91.1372 56.4932 91.1786C56.4727 91.1979 56.4497 91.2197 56.4242 91.2438C56.4008 91.264 56.3773 91.2843 56.3539 91.3045C56.3139 91.3462 56.272 91.3868 56.2282 91.4263C56.1975 91.4553 56.1669 91.4843 56.1362 91.5133C56.1158 91.5326 56.0969 91.5515 56.0794 91.5699C56.0365 91.6125 55.9931 91.6535 55.9492 91.6931C55.9297 91.7154 55.9097 91.7362 55.8893 91.7556C55.8791 91.7652 55.8703 91.7744 55.8631 91.7832C55.8508 91.7968 55.8381 91.8088 55.8248 91.8194C55.8176 91.8282 55.8089 91.8374 55.7987 91.847C55.7137 91.9352 55.6261 92.0257 55.536 92.1187C55.5288 92.1275 55.5231 92.1358 55.5189 92.1436C55.5108 92.1493 55.5016 92.157 55.4914 92.1667C55.395 92.2714 55.2991 92.3777 55.2036 92.4854C54.9663 92.7543 54.7291 93.0396 54.492 93.3414C54.492 93.3414 54.4905 93.3418 54.4874 93.3427C54.4853 93.3466 54.4817 93.351 54.4766 93.3559C54.4478 93.3909 54.4194 93.4274 54.3915 93.4654C54.3141 93.5677 54.2351 93.6704 54.1547 93.7736C54.1205 93.8234 54.0848 93.8736 54.0476 93.9243C53.9029 94.1192 53.7585 94.3205 53.6145 94.5284C53.2319 95.0876 52.8526 95.6903 52.4766 96.3362C50.9688 98.9409 49.3683 102.199 47.8663 105.507C47.7879 105.682 47.7079 105.857 47.6264 106.033C47.5357 106.238 47.4449 106.443 47.3528 106.643C47.2265 106.931 47.0996 107.217 46.9723 107.502C46.9181 107.627 46.8635 107.75 46.8084 107.872C46.7383 108.031 46.6687 108.192 46.5995 108.354C46.4648 108.658 46.3325 108.959 46.2029 109.258C46.0196 109.678 45.8422 110.101 45.6621 110.515C45.5804 110.717 45.4973 110.915 45.4097 111.114C45.4017 111.136 45.3936 111.158 45.381 111.182C45.3169 111.339 45.2509 111.495 45.1829 111.651C44.9656 112.17 44.7545 112.677 44.5498 113.173C44.4752 113.35 44.4022 113.526 44.3306 113.702C44.2594 113.868 44.1901 114.035 44.1227 114.204C44.0844 114.294 44.048 114.386 44.0136 114.478C43.9636 114.595 43.9141 114.714 43.865 114.834C43.8138 114.957 43.7671 115.08 43.7146 115.199C43.6044 115.476 43.4955 115.745 43.3877 116.008C43.306 116.21 43.2319 116.405 43.152 116.597C42.8876 117.253 42.6452 117.868 42.4252 118.428C42.3978 118.5 42.3704 118.572 42.3417 118.64C42.2528 118.868 42.1687 119.084 42.0894 119.288C42.0688 119.334 42.0495 119.384 42.0333 119.428C41.4502 120.92 41.1163 121.82 41.1163 121.82C40.6851 122.625 39.1581 122.546 37.25 121.955Z" fill="#D38B3D"/>
<path d="M53.6082 94.5401L53.6145 94.5284L55.2085 91.5576L60.6933 81.3041L73.4706 88.1437C73.2406 88.1542 73.0101 88.1632 72.7791 88.1707C72.6686 88.1746 72.5557 88.1759 72.4404 88.1747C72.3946 88.1754 72.3503 88.1757 72.3076 88.1755C72.3076 88.1755 72.306 88.1759 72.303 88.1768C72.2404 88.1761 72.1763 88.1758 72.1106 88.176C72.0808 88.1751 72.0495 88.1748 72.0166 88.1748C71.9968 88.1743 71.9769 88.1737 71.957 88.1732C71.6797 88.1684 71.397 88.1571 71.1091 88.1391C71.0256 88.1348 70.9437 88.13 70.8633 88.1248C70.7799 88.1205 70.696 88.1147 70.6116 88.1074C70.4041 88.0946 70.1942 88.0793 69.9818 88.0615C69.9213 88.0568 69.8623 88.0517 69.8047 88.0461C69.3462 88.0125 68.8803 87.9712 68.4055 87.9326C68.2269 87.9177 68.0472 87.9047 67.8665 87.8937C67.7454 87.8844 67.6248 87.8765 67.5046 87.8702C67.3844 87.8639 67.2643 87.8575 67.1441 87.8512C67.0835 87.8465 67.025 87.8429 66.9683 87.8403C66.9515 87.8389 66.9366 87.8385 66.9236 87.8391C66.867 87.8365 66.8104 87.834 66.7538 87.8314C66.7468 87.8302 66.7404 87.8305 66.7343 87.8323C66.6678 87.8295 66.6012 87.8266 66.5347 87.8238C66.4949 87.8227 66.4536 87.822 66.4109 87.8218C66.3305 87.8166 66.2495 87.8149 66.1678 87.8166C66.0645 87.8117 65.9606 87.8103 65.8562 87.8124C65.6086 87.8085 65.3599 87.8115 65.1099 87.8214C64.9109 87.8258 64.7113 87.8337 64.511 87.845C64.4632 87.8497 64.4153 87.8543 64.3674 87.859C64.3635 87.8569 64.3585 87.8567 64.3525 87.8585C64.2917 87.8638 64.2324 87.8686 64.1746 87.873C64.1168 87.8773 64.0605 87.8812 64.0057 87.8847C63.9966 87.8874 63.9886 87.8882 63.9817 87.887C63.9787 87.8879 63.9757 87.8888 63.9727 87.8897C63.9378 87.8937 63.9024 87.8962 63.8666 87.8972C63.673 87.9197 63.4798 87.9437 63.2872 87.9691C63.1394 87.9909 62.992 88.0141 62.8451 88.0389C62.8421 88.0398 62.8391 88.0407 62.8361 88.0416C62.7762 88.0499 62.7152 88.0601 62.6532 88.0723C62.5912 88.0845 62.5277 88.0972 62.4627 88.1103C62.2737 88.1478 62.083 88.1907 61.8907 88.2391C61.8266 88.2552 61.7629 88.2728 61.6997 88.2919C61.6477 88.3044 61.5961 88.3184 61.5449 88.3339C61.5118 88.3439 61.4787 88.3539 61.4456 88.3639C61.4387 88.3628 61.4327 88.3646 61.4276 88.3694C61.3845 88.3792 61.3434 88.3899 61.3043 88.4018C61.2351 88.4227 61.1678 88.4447 61.1026 88.4678C61.0995 88.4687 61.0965 88.4696 61.0935 88.4705C61.0725 88.4769 61.0529 88.4828 61.0349 88.4883C61.0048 88.4974 60.9766 88.5075 60.9505 88.5187C60.9204 88.5279 60.8918 88.5365 60.8647 88.5447C60.7813 88.5732 60.7 88.6028 60.6205 88.6334C60.5883 88.6464 60.5577 88.659 60.5285 88.6711C60.437 88.7054 60.3445 88.7416 60.2509 88.7798C60.2479 88.7807 60.2449 88.7816 60.2419 88.7825C60.2097 88.7955 60.179 88.8081 60.1499 88.8202C60.1297 88.8296 60.1091 88.8375 60.088 88.8438C59.946 88.9065 59.803 88.9712 59.6589 89.0378C59.6105 89.0623 59.5631 89.0848 59.5168 89.1054C59.3887 89.1705 59.2595 89.2375 59.1293 89.3065C58.9879 89.3821 58.846 89.4612 58.7034 89.5438C58.6701 89.5638 58.6356 89.5857 58.6002 89.6096C58.5526 89.6371 58.5051 89.6646 58.4576 89.6921C58.408 89.7236 58.3569 89.7555 58.3043 89.7878C58.2931 89.7945 58.2825 89.8026 58.2723 89.8123C58.2359 89.8332 58.1999 89.8555 58.1645 89.8794C58.1431 89.8957 58.1213 89.9105 58.0991 89.9238C58.0961 89.9247 58.0935 89.9272 58.0914 89.9311C57.9324 90.0351 57.7736 90.1455 57.6152 90.2625C57.6152 90.2625 57.6137 90.2629 57.6107 90.2638C57.5193 90.3309 57.4284 90.3995 57.3379 90.4696C57.3379 90.4696 57.3369 90.4715 57.3348 90.4754C57.2656 90.5292 57.1965 90.583 57.1274 90.6368C57.1223 90.6416 57.1172 90.6464 57.1121 90.6513C57.0856 90.6724 57.0592 90.6936 57.0327 90.7147C56.9828 90.7561 56.9344 90.797 56.8876 90.8375C56.7562 90.9462 56.6248 91.0599 56.4932 91.1786C56.4727 91.1979 56.4497 91.2197 56.4242 91.2438C56.3599 91.3027 56.2946 91.3635 56.2282 91.4263C56.1975 91.4553 56.1669 91.4843 56.1362 91.5133C56.0554 91.5936 55.9731 91.6743 55.8893 91.7556C55.8791 91.7652 55.8704 91.7744 55.8631 91.7832C55.8508 91.7968 55.8381 91.8088 55.8248 91.8194C55.7296 91.9172 55.6333 92.017 55.536 92.1187C55.5288 92.1275 55.5231 92.1357 55.5189 92.1436C55.4144 92.2541 55.3093 92.368 55.2036 92.4854C54.9663 92.7543 54.7287 93.0381 54.4906 93.3369C54.4915 93.3399 54.492 93.3414 54.492 93.3414C54.492 93.3414 54.4905 93.3418 54.4874 93.3427C54.4853 93.3466 54.4833 93.3506 54.4812 93.3545C54.4493 93.3904 54.4195 93.4274 54.3915 93.4654C54.3141 93.5677 54.2351 93.6704 54.1547 93.7736C54.1205 93.8234 54.0848 93.8736 54.0476 93.9243C53.9008 94.1231 53.7543 94.3284 53.6082 94.5401Z" fill="#E8A452"/>
<path d="M42.442 88.563C42.5126 88.3839 42.5822 88.2068 42.6507 88.0317C42.7057 87.8771 42.7597 87.7244 42.8126 87.5737C42.8309 87.5255 42.8476 87.4777 42.8629 87.4304C42.8823 87.3752 42.9007 87.322 42.9181 87.2708C42.93 87.2343 42.9409 87.1998 42.9508 87.1673C42.9499 87.1643 42.9509 87.1623 42.9539 87.1614C43.005 87.0047 43.0531 86.8489 43.0982 86.694C43.975 83.7629 43.9483 81.3467 43.4255 79.2778C43.4112 79.2197 43.3959 79.1636 43.3795 79.1094C43.2877 78.7627 43.1822 78.4251 43.063 78.0966C43.0518 78.0704 43.0406 78.0442 43.0294 78.018C42.9963 77.9197 42.9607 77.8237 42.9226 77.7301C42.9189 77.7181 42.9138 77.7065 42.9071 77.6954C42.8998 77.6713 42.8906 77.6462 42.8794 77.62C42.8745 77.6149 42.8708 77.6078 42.868 77.5988C42.8504 77.5516 42.8314 77.5048 42.8108 77.4585C42.7911 77.4151 42.7714 77.3718 42.7517 77.3285C42.7472 77.3135 42.7411 77.2989 42.7335 77.2847C42.7223 77.2586 42.7116 77.2339 42.7013 77.2107C42.6713 77.1443 42.6413 77.0778 42.6114 77.0113C42.5917 76.968 42.572 76.9247 42.5523 76.8813C42.4987 76.7695 42.4437 76.658 42.3871 76.547C42.3719 76.5188 42.3568 76.4905 42.3417 76.4622C42.3399 76.4562 42.337 76.4521 42.3331 76.45C42.301 76.3875 42.2694 76.3264 42.2382 76.2669C42.2155 76.2245 42.1933 76.1836 42.1715 76.1442C42.1649 76.1331 42.1582 76.1219 42.1515 76.1108C42.144 76.0967 42.1384 76.0836 42.1347 76.0715C42.1166 76.0442 42.1 76.0164 42.0848 75.9881C42.0479 75.9204 42.0095 75.8532 41.9696 75.7865C41.9251 75.7047 41.8781 75.6253 41.8285 75.5483C41.8028 75.5068 41.7767 75.4638 41.7501 75.4193C41.7235 75.3748 41.6964 75.3288 41.6689 75.2813C41.6641 75.2762 41.6592 75.2711 41.6544 75.266C41.6193 75.2043 41.5817 75.1451 41.5415 75.0883C41.4967 75.0164 41.452 74.9445 41.4072 74.8727C41.3852 74.8432 41.3642 74.8118 41.3442 74.7784C41.2593 74.6497 41.1733 74.523 41.0863 74.3983C41.0222 74.306 40.9586 74.2152 40.8954 74.1259C40.8724 74.0934 40.8499 74.0625 40.8279 74.033C40.8107 74.0087 40.7934 73.9843 40.7762 73.96C40.7043 73.8635 40.6324 73.767 40.5605 73.6705C40.5327 73.6329 40.5049 73.5953 40.4771 73.5578C40.4493 73.5202 40.4215 73.4826 40.3937 73.445C40.2489 73.2491 40.1021 73.057 39.9532 72.8688C39.8822 72.7754 39.8092 72.6808 39.7343 72.5852C39.7295 72.5801 39.7247 72.575 39.7198 72.5699C39.6162 72.4338 39.5115 72.2996 39.4058 72.1673C39.2952 72.03 39.1862 71.8922 39.0786 71.7539C38.8787 71.5056 38.6841 71.259 38.495 71.0141C38.4421 70.9479 38.3912 70.8829 38.3423 70.8189C38.2934 70.7548 38.2439 70.6893 38.1941 70.6223C38.1575 70.5775 38.1225 70.5322 38.089 70.4866C38.0678 70.4601 38.0482 70.4332 38.03 70.4058C37.9974 70.3632 37.9643 70.319 37.9308 70.2733C37.8982 70.2306 37.8651 70.1864 37.8315 70.1407C37.8019 70.0971 37.7703 70.0525 37.7368 70.0068C37.6736 69.9175 37.6109 69.8297 37.5487 69.7435C37.4722 69.6319 37.3973 69.5199 37.3238 69.4075C37.3008 69.375 37.2789 69.3406 37.2581 69.3042C37.2064 69.2312 37.1573 69.1557 37.1107 69.0778C36.9864 68.8789 36.8681 68.6832 36.7497 68.4874L49.527 75.327L43.3705 86.8284L42.4483 88.5512L42.442 88.563Z" fill="#E8A452"/>
<path d="M29.4072 117.5C29.4072 117.5 27.0114 115.185 27.3242 114.346C27.6325 113.509 35.3434 102.178 37.8575 97.9329C40.4532 93.5503 46.4226 82.1795 46.4226 82.1795C46.4226 82.1795 45.3758 85.0536 43.5899 89.1813C41.8854 93.1217 31.5463 111.56 30.6397 113.205C29.5932 115.103 29.4072 117.5 29.4072 117.5Z" fill="#FFCE94"/>
<path d="M98.8189 20.0077C96.6792 17.8714 93.9172 16.1206 91.1536 14.6412C74.5248 5.74004 52.9804 13.3354 42.0622 31.5701C42.0622 31.5701 41.37 32.6369 40.3912 34.4656C38.6488 37.7277 35.4247 43.6802 33.8224 49.7331C34.3268 45.8159 35.5601 42.565 36.8907 39.196C37.8817 36.7724 38.9061 34.7033 39.7276 33.1686C40.7064 31.3399 41.394 30.2744 41.394 30.2744C52.3154 12.0338 73.8566 4.44435 90.49 13.3442C90.49 13.3442 95.9314 16.117 98.8189 20.0077Z" fill="#F75757"/>
<path opacity="0.25" d="M61.8515 53.6314C55.8168 52.4475 52.1797 46.0637 53.4623 39.541C54.7404 33.0196 60.4488 28.828 66.4835 30.012C72.5137 31.1974 76.9048 37.2395 75.6267 43.7609C74.3486 50.2824 67.8862 54.8154 61.8515 53.6314Z" fill="#0C0C0C"/>
<path d="M69.3425 50.9501C69.1289 51.0476 68.9131 51.1376 68.6949 51.22C63.1099 53.3934 56.7916 50.9797 54.3346 45.6135C53.3346 43.4328 53.1224 41.0876 53.5777 38.8803C53.7121 38.2335 53.9029 37.5943 54.1512 36.9821C54.7833 35.3914 55.7848 33.9303 57.095 32.7405C57.3816 32.4829 57.6804 32.2381 57.9912 32.006C58.1923 31.8565 58.4006 31.7146 58.6103 31.5772C59.0767 31.2783 59.5706 31.0056 60.0936 30.7636C65.8316 28.1349 72.5472 30.5269 75.1014 36.1002C75.5669 37.1173 75.8613 38.1713 75.999 39.2284C76.2541 41.2108 75.9492 43.2149 75.1663 45.0237C74.86 45.7373 74.48 46.419 74.0325 47.057C73.0616 48.4398 71.7632 49.636 70.1915 50.5157C69.9167 50.6712 69.6337 50.816 69.3425 50.9501Z" fill="#F9BC26"/>
<path opacity="0.3" d="M75.8886 39.3357C75.7216 38.4747 75.4543 37.6243 75.0747 36.7932C72.4178 30.9948 65.4118 28.4738 59.4442 31.2065C59.2962 31.271 59.1315 31.3455 59.1315 31.3455C59.2491 31.2458 59.6068 31.0439 59.9832 30.8709C65.7211 28.2422 72.4413 30.6329 74.991 36.2076C75.461 37.2232 75.7554 38.2772 75.8886 39.3357Z" fill="white"/>
<path d="M69.3425 50.9501C68.9929 51.1085 68.6399 51.2498 68.2833 51.3742C62.8028 53.2745 56.7312 50.8452 54.3346 45.6135C53.2742 43.2983 53.0991 40.799 53.6679 38.4785C54.1983 36.3076 55.3836 34.2981 57.095 32.7405C57.5633 32.3179 58.0664 31.929 58.6103 31.5772C59.9788 33.8681 61.6602 35.9558 63.5612 37.6618C68.4053 42.0098 72.2361 43.9545 75.1663 45.0237C74.86 45.7373 74.48 46.4189 74.0325 47.057C72.8892 48.6842 71.298 50.0527 69.3425 50.9501Z" fill="url(#paint0_linear_572_41)"/>
<path opacity="0.35" d="M69.3425 50.9501C69.1289 51.0476 68.9131 51.1376 68.6949 51.22C63.1098 53.3935 56.7916 50.9797 54.3346 45.6135C53.3346 43.4328 53.1224 41.0876 53.5777 38.8803C53.712 38.2335 53.9029 37.5943 54.1512 36.9821C61.2167 46.7972 69.4744 50.2302 70.1915 50.5157C69.9167 50.6712 69.6337 50.816 69.3425 50.9501Z" fill="url(#paint1_linear_572_41)"/>
<path opacity="0.3" d="M69.5146 36.6728C68.5491 37.1129 67.412 36.6933 66.9719 35.7277C66.5273 34.7635 66.9513 33.625 67.9169 33.1849C68.8766 32.7417 70.0151 33.1658 70.4597 34.13C70.8984 35.0911 70.4757 36.234 69.5146 36.6728Z" fill="white"/>
<defs>
<linearGradient id="paint0_linear_572_41" x1="40988.6" y1="10812.3" x2="47725.1" y2="2993.23" gradientUnits="userSpaceOnUse">
<stop stop-color="#AA7704"/>
<stop offset="1" stop-color="#F9BC26"/>
</linearGradient>
<linearGradient id="paint1_linear_572_41" x1="45619.5" y1="18693.4" x2="48884.7" y2="14432.8" gradientUnits="userSpaceOnUse">
<stop stop-color="white"/>
<stop offset="1" stop-color="white"/>
</linearGradient>
</defs>
</svg>
