<svg width="286" height="60" viewBox="0 0 286 60" fill="none" xmlns="http://www.w3.org/2000/svg">
<path d="M285 48C281.933 52.4 278.333 55.8333 274.2 58.3C256.133 58.3667 238.033 58.4667 219.9 58.6C204.767 58.7333 189.633 58.8333 174.5 58.9C173.5 58.9 172.5 59 171.5 58.9C170.7 58.8 170.1 58.4 169.3 58.3C168.4 58.1 167.9 58.7 167.1 58.9C166.5 59 165.9 58.9 165.2 58.9C163.6 58.9667 161.967 59 160.3 59C157.1 59 153.933 59 150.8 59C146.8 59 142.833 59 138.9 59C136.9 59 134.933 59 133 59C131.3 59 129.5 58.6 127.9 58.9C127.5 58.9 127.2 59 126.8 59C126.5 58.9 126.3 58.8 126 58.7C125.467 58.4333 124.933 58.2 124.4 58C123.8 57.7 123.1 57.4 122.5 57.3C121.8 57.3 121.2 57.6 120.6 57.8C119.5 58.2 118.2 58.9 117 59C116.1 59.1 114.9 58.9 114 58.9C111.333 58.9 108.7 58.9 106.1 58.9C100.967 58.8333 95.8333 58.8 90.7 58.8C74.8333 58.6667 58.9667 58.5667 43.1 58.5L11.8 58.3C7.66668 55.8333 4.06668 52.4 1.00001 48C0.40001 40.2 0.10001 32.9 0.40001 26C3.10001 21.2 6.60001 17.4 11.2 14.9C12.1 14.2 14.7 14.9 15.2 14.9C18.8 14.9 22.4 15 26.1 15C32.3 15 39.3 14 45.3 16C45.6 16.1 45.9 16.2 46.2 16.2C46.4 16.1 46.7 16 46.9 15.9C51 13.8 57 14.9 61.5 14.9C87.1 14.8 112.8 14.3 138.4 14.4C154.1 14.4 169.8 14.5 185.5 14.6C192.633 14.6667 199.767 14.7333 206.9 14.8C210.5 14.8 214.1 14.8 217.7 14.8C219.5 14.9 221.3 14.8 223.2 14.8C223.9 14.8 225 14.7 225.8 15C226.4 15.2 226.4 15.7 227 16C227.4 16.3 228 16 228.4 15.7C229.1 15.3 229.5 14.9 230.4 14.9C231.933 14.9 233.433 14.9 234.9 14.9C237.833 14.9667 240.8 15 243.8 15C249.667 15 255.533 15 261.4 15C264.7 15 268 15 271.3 15C272 15 274.2 14.5 274.8 14.9C279.4 17.4 282.9 21.2 285.5 26C286.3 27.3 285.7 30.8 285.7 32.3C285.7 34.5 285.7 35.8 284.7 37.6C284.3 38.6 285.4 40.7 285.4 41.9C285.4 43.2 285.7 46.9 285 48Z" fill="#4BC98A"/>
<path d="M285 46.8C281.933 51.2 278.333 54.6333 274.2 57.1C256.133 57.1666 238.033 57.2666 219.9 57.4C204.767 57.5333 189.633 57.6333 174.5 57.7C173.5 57.7 172.5 57.8 171.5 57.7C170.7 57.6 170.1 57.2 169.3 57.1C168.4 56.9 167.9 57.4 167.1 57.7C166.5 57.8 165.9 57.7 165.2 57.7C163.6 57.7666 161.967 57.8 160.3 57.8C157.1 57.8 153.933 57.8 150.8 57.8C146.8 57.8 142.833 57.8 138.9 57.8C136.9 57.8 134.933 57.8 133 57.8C131.3 57.8 129.5 57.4 127.9 57.7C127.5 57.7 127.2 57.8 126.8 57.8C126.5 57.7 126.3 57.6 126 57.5C125.467 57.2333 124.933 56.9666 124.4 56.7C123.8 56.5 123.1 56.2 122.5 56.1C121.8 56.1 121.2 56.3 120.6 56.6C119.5 57 118.2 57.7 117 57.8C116.1 57.9 114.9 57.7 114 57.7C111.333 57.7 108.7 57.7 106.1 57.7C100.967 57.6333 95.8333 57.6 90.7 57.6C74.8333 57.4666 58.9667 57.3666 43.1 57.3L11.8 57.1C7.66668 54.6333 4.06668 51.2 1.00001 46.8C0.40001 39 0.10001 31.7 0.40001 24.8C3.10001 20 6.60001 16.2 11.2 13.7C12.1 13 14.7 13.7 15.2 13.7C18.8 13.7 22.4 13.8 26.1 13.8C32.3 13.8 39.3 12.8 45.3 14.8C45.6 14.9 45.9 15 46.2 15C46.4 14.9 46.7 14.8 46.9 14.7C51 12.6 57 13.7 61.5 13.7C87.1 13.6 112.8 13.1 138.4 13.2C154.1 13.2 169.8 13.3 185.5 13.4C192.633 13.4666 199.767 13.5333 206.9 13.6C210.5 13.6 214.1 13.6 217.7 13.6C219.5 13.7 221.3 13.6 223.2 13.6C223.9 13.6 225 13.5 225.8 13.8C226.4 14 226.4 14.5 227 14.8C227.4 15.1 228 14.8 228.4 14.5C229.1 14.1 229.5 13.7 230.4 13.7C231.933 13.7 233.433 13.7 234.9 13.7C237.833 13.7666 240.8 13.8 243.8 13.8C249.667 13.8 255.533 13.8 261.4 13.8C264.7 13.8 268 13.8 271.3 13.8C272 13.8 274.2 13.3 274.8 13.7C279.4 16.2 282.9 20 285.5 24.8C286.3 26.1 285.7 29.6 285.7 31.1C285.7 33.3 285.7 34.6 284.7 36.4C284.3 37.4 285.4 39.5 285.4 40.7C285.4 42 285.7 45.7 285 46.8Z" fill="url(#paint0_linear_603_42)"/>
<path d="M280.9 41.3C280.9 42.1 281.2 44.5 280.7 45.2C278.367 48.2666 275.767 50.7333 272.9 52.6L219.9 53L203.2 53.1C197.333 53.1 191.467 53.1333 185.6 53.2C182.667 53.2 179.733 53.2333 176.8 53.3C175.4 53.3 173.9 53.4 172.4 53.3C171.1 53.1 170.3 52.6 169.1 52C168.8 51.9 168.5 51.7 168.1 51.8C167.6 51.8 167.3 52.3 167 52.7C166.1 54 162.8 53.3 161.4 53.3C159.133 53.3 156.867 53.3333 154.6 53.4C152.2 53.4 149.8 53.4 147.4 53.4C145.267 53.4 143.1 53.4 140.9 53.4C138.767 53.4 136.6 53.4 134.4 53.4C132.5 53.4 131.2 53 129.3 52.5C127.9 52.2 126.3 53 125.1 52.2C124.6 51.9 124.3 51.4 123.8 51.2C123.3 51.1 122.9 51.3 122.4 51.5C120.6 52.3 118.5 53.1 116.6 53.3C112.8 53.6 108.9 53.3 105.2 53.2C102.133 53.2 99.0333 53.2 95.9 53.2C90.4333 53.1333 84.9333 53.1 79.4 53.1C69.2667 53.0333 59.1 52.9666 48.9 52.9C40.5 52.8333 32.0667 52.7666 23.6 52.7C21 52.7 18.4333 52.7 15.9 52.7C15.3 52.7 13.6 53 13.1 52.6C10.2 50.8 7.60001 48.3 5.30001 45.2C5.23335 44.5333 5.20001 43.9 5.20001 43.3C5.20001 43.2333 5.20001 43.1666 5.20001 43.1C5.13335 42.8333 5.10001 42.5666 5.10001 42.3C4.70001 36.5 4.60001 31.1 4.80001 26.1C6.90001 22.5 9.60001 19.8 12.9 17.8C13.2 17.8 13.6 17.9 13.8 17.9C14.3 18 14.6 18.1 15.1 18.1C16.5 18.1 17.8667 18.1333 19.2 18.2C21.4667 18.2 23.7333 18.2333 26 18.3C29.4667 18.2333 32.9667 18.2 36.5 18.2C38.3 18.2 40.1 18.2 41.9 18.2C43.5 18.3 44.8 19 46.3 19.5C46.6 19.5 46.9 19.6 47.2 19.5C47.4 19.4 47.5 19.3 47.6 19.2C49.2 17.6 52 18.2 54 18.2C56.5333 18.1333 59.0333 18.1 61.5 18.1C65.3 18.1 69.1 18.0666 72.9 18C78.9667 18 85.0333 17.9666 91.1 17.9C105.7 17.7 120.8 17.6 135.7 17.6H138.4C156.8 17.6 175.6 17.8 193.8 17.9C199.333 17.9666 204.833 18 210.3 18C213.033 18.0666 215.8 18.1 218.6 18.1C220.9 18.1 223.4 17.7 225.8 17.9C225.667 19.4333 225.533 20.9333 225.4 22.4C225.733 21.8666 226.1 21.3333 226.5 20.8C227 20 227.3 19.4 227.6 18.6C227.7 18.5 227.7 18.3 227.9 18.3C227.967 18.2333 228.067 18.2 228.2 18.2C233.5 18.1 238.9 18.2 244.2 18.2C249.6 18.2666 255.033 18.3 260.5 18.3H263.8C266.333 18.3 268.867 18.2666 271.4 18.2C271.9 18.2 272.5 18.1 273 18.1C273.9 18.1 274.8 18.8 275.4 19.4C276.2 20 276.9 20.6 277.5 21.3C278.233 21.9666 278.9 22.7 279.5 23.5C279.767 23.9 280.033 24.3 280.3 24.7C280.5 25 281.2 25.7 281.2 26.1C281.267 28.1666 281.267 30.2333 281.2 32.3C281.2 33.2 281.4 34.4 281 35.2C280.5 35.9 279.7 36.2 280 37.3C280.1 37.6 280.3 37.9 280.4 38.2C280.533 38.4 280.633 38.6 280.7 38.8C281.1 39.6 281 40.2 280.9 41.3Z" fill="url(#paint1_linear_603_42)"/>
<path d="M272.9 42.4C274.9 43.2 275.1 46.1 273 47C268.5 49.1 269.1 41 272.7 42.3C272.767 42.3 272.833 42.3333 272.9 42.4Z" fill="url(#paint2_radial_603_42)"/>
<path d="M208.9 23.7C211.9 23.2 214.3 26.5 212.6 29.2C208.9 35.1 203.4 25 208.6 23.8C208.733 23.8 208.833 23.7667 208.9 23.7Z" fill="url(#paint3_radial_603_42)"/>
<path d="M14.7 28.3C12.5 27.9 10.8 30.3 12 32.2C14.7 36.5 18.6 29.2 14.8 28.3C14.8 28.3 14.7667 28.3 14.7 28.3Z" fill="url(#paint4_radial_603_42)"/>
<path d="M142.6 41.2C145.6 40.7 148 43.9 146.3 46.6C142.7 52.5 137.2 42.4 142.4 41.2C142.467 41.2 142.533 41.2 142.6 41.2Z" fill="url(#paint5_radial_603_42)"/>
<path d="M152.5 44.2C153.7 44 154.6 45.3 154 46.3C152.5 48.7 150.3 44.7 152.4 44.2C152.4 44.2 152.433 44.2 152.5 44.2Z" fill="url(#paint6_radial_603_42)"/>
<path d="M81.3 27C82.5 26.8 83.5 28.1 82.8 29.2C81.3 31.5 79.2 27.5 81.2 27.1C81.2666 27.0334 81.3 27 81.3 27Z" fill="url(#paint7_radial_603_42)"/>
<path d="M19.5 27.3C20.4 27.2 21.1 28.2 20.6 29C19.5 30.8 17.8 27.7 19.4 27.4C19.4 27.3333 19.4333 27.3 19.5 27.3Z" fill="url(#paint8_radial_603_42)"/>
<path d="M45.2 45.4C47 45.1 48.4 47 47.4 48.7C45.2 52.2 41.9 46.2 45 45.4C45.0667 45.4 45.1333 45.4 45.2 45.4Z" fill="url(#paint9_radial_603_42)"/>
<path style="mix-blend-mode:screen" opacity="0.29" d="M147.4 53.4C145.267 53.4 143.1 53.4 140.9 53.4C138.767 53.4 136.6 53.4 134.4 53.4C132.5 53.4 131.2 53 129.3 52.5C127.9 52.2 126.3 53 125.1 52.2C124.6 51.9 124.3 51.4 123.8 51.2C123.3 51.1 122.9 51.3 122.4 51.5C120.6 52.3 118.5 53.1 116.6 53.3C112.8 53.6 108.9 53.3 105.2 53.2C102.133 53.2 99.0333 53.2 95.9 53.2L72.9 18C78.9667 18 85.0333 17.9666 91.1 17.9C105.7 17.7 120.8 17.6 135.7 17.6H138.2L147.4 53.4Z" fill="url(#paint10_linear_603_42)"/>
<path d="M281 35.2C280.5 35.9 279.7 36.2 280 37.3C280.1 37.6 280.3 37.9 280.4 38.2C280.533 38.4 280.633 38.6 280.7 38.8C280 37.9 279.4 36.9 279.7 35.9C279.9 35.5 280.1 35.2 280.2 34.9C280.5 34.2 280.5 33.4 280.5 32.6C280.5 28.2 279.2 24.8 276.2 21.6C273.5 18.6 270.2 19.2 266.5 19.2C262.433 19.2 258.333 19.2 254.2 19.2C246.067 19.1333 237.9 19.1 229.7 19.1C229 19.1 228.2 18.6 227.8 19.3C227 20.8333 226.2 22.3666 225.4 23.9C225.2 22.7 225.1 20 223.7 19.6C222.9 19.4 222 19.9 221.1 19.8C220.3 19.6 219.5 19.4 218.7 19.2C217 18.9 215.2 19.3 213.5 19.4C209.633 19.5333 205.767 19.6 201.9 19.6C199.433 19.6 196.933 19.5666 194.4 19.5C192.133 19.4333 189.833 19.3666 187.5 19.3C176 19.1 164.5 18.4 153 18.7C141.4 19 129.8 19.3 118.1 19.2C95.4 19 72.8 19.2 50.1 19.2C49 19.2 48.3 20.5 47.2 20.6C46.9 20.7 46.6 20.6 46.3 20.5C45.4 20.3 44.6 19.8 43.7 19.8C34.9 19.7333 26.1 19.6333 17.3 19.5C15.7 19.5 14.3 19.4 13.1 20.3C11.5667 21.3666 10.1333 22.5333 8.80001 23.8C5.50001 26.8 5.60001 30.4 5.50001 34.6C5.40001 37.2 5.50001 39.8 5.10001 42.3C4.70001 36.5 4.60001 31.1 4.80001 26C6.90001 22.5 9.60001 19.8 12.9 17.8C13.2 17.8 13.6 17.9 13.8 17.9C14.3 18 14.6 18.1 15.1 18.1C16.5 18.1 17.8667 18.1333 19.2 18.2C21.4667 18.2 23.7333 18.2 26 18.2C29.4667 18.2 32.9667 18.2 36.5 18.2C38.3 18.2 40.1 18.2 41.9 18.2C43.5 18.2 44.8 19 46.3 19.5C46.6 19.5 46.9 19.6 47.2 19.5C47.4 19.4 47.5 19.3 47.6 19.2C49.2 17.6 52 18.2 54 18.2C56.5333 18.1333 59.0333 18.1 61.5 18.1C71.3667 18.0333 81.2333 17.9666 91.1 17.9C105.7 17.7 120.8 17.6 135.7 17.6H138.4C156.8 17.6 175.6 17.8 193.8 17.9C199.333 17.9666 204.833 18 210.3 18C213.033 18.0666 215.8 18.1 218.6 18.1C220.9 18.1 223.4 17.7 225.8 17.9C225.667 19.4333 225.533 20.9333 225.4 22.4C225.733 21.8666 226.1 21.3333 226.5 20.8C227 20 227.3 19.4 227.6 18.6C227.7 18.5 227.8 18.3 227.9 18.3C227.967 18.2333 228.067 18.2 228.2 18.2C233.5 18.1 238.9 18.2 244.2 18.2C249.6 18.2 255.033 18.2 260.5 18.2H263.8C266.333 18.2666 268.867 18.2666 271.4 18.2C271.9 18.2 272.5 18.1 273 18.1C273.9 18.1 274.8 18.8 275.4 19.4C276.2 20 276.9 20.6 277.5 21.3C278.233 21.9666 278.9 22.7 279.5 23.5C279.767 23.9 280.033 24.3 280.3 24.7C280.5 25 281.1 25.7 281.2 26C281.267 28.1333 281.267 30.2333 281.2 32.3C281.2 33.2 281.4 34.4 281 35.2Z" fill="#B4F4FA"/>
<path d="M60.2872 12.3463C59.7718 14.5 58.6265 16.4209 57.3094 18.1672C56.5459 19.1761 55.7251 20.1269 54.847 21.0194C54.4462 21.4269 53.9881 22.0672 53.5299 22.3582C53.1863 22.5911 52.6137 22.4746 52.3274 22.7075C52.0983 22.9985 52.1556 23.4642 51.8692 23.8134C51.4684 24.2209 50.953 24.5702 50.4949 24.8612C49.6168 25.5209 48.7006 26.1418 47.7462 26.7239C46.2573 27.6552 44.6539 28.4702 42.9359 28.8194C42.745 28.8582 42.5732 28.897 42.4205 28.9358C42.2678 28.897 42.096 28.8582 41.9051 28.8194C38.7556 28.1791 35.8351 26.0836 33.3727 24.1627C32.3419 23.309 31.3493 22.4164 30.3949 21.4851C29.4786 20.612 28.7342 19.6224 27.9325 18.6911C27.9898 18.5164 28.1043 18.2836 28.2188 18.109C27.9898 18.109 27.7607 18.2254 27.5316 18.0508C27.2453 17.9343 27.0735 17.5851 26.9017 17.3523C26.4818 16.7314 26.1 16.1105 25.7564 15.4896C25.5846 15.1403 25.4128 14.8493 25.4701 14.4418C25.5846 14.0925 25.8137 13.7433 25.4128 13.4523C25.241 13.394 25.012 13.3358 24.8975 13.2194C24.6684 12.9866 24.5539 12.4045 24.4966 12.1134C24.4584 11.8418 24.4393 11.5508 24.4393 11.2403C24.4393 10.6 24.5539 9.95971 24.7257 9.31941C25.0692 7.80598 25.8137 6.35076 26.6154 5.01195C28.2761 2.56718 30.853 -0.0522271 34.0026 0.00598188C34.0026 0.00598188 34.0217 0.00598188 34.0598 0.00598188C38.0684 0.0641908 41.218 3.73136 42.4205 5.303C43.6231 3.73136 46.7727 0.0641908 50.7812 0.00598188C52.7282 -0.0522271 54.4462 0.937325 55.8205 2.21792C56.2786 2.64479 56.7177 3.11046 57.1376 3.61494C57.3285 3.84777 57.5194 4.10001 57.7103 4.37165C57.8821 4.60449 58.1684 4.83732 58.2257 5.12837C58.2257 5.303 58.1111 5.41941 57.9966 5.59404C57.8248 5.76867 57.7103 6.0015 57.5385 6.17613C57.7675 6.05971 57.9966 5.9433 58.2257 5.82688C58.4547 5.76867 58.5692 5.71046 58.741 5.94329C58.9701 6.17613 59.0274 6.46718 59.1419 6.75822C59.4091 7.2627 59.6382 7.76718 59.8291 8.27165C60.1727 9.203 60.4017 10.1925 60.4017 11.1821C60.4399 11.5702 60.4017 11.9582 60.2872 12.3463Z" fill="#4BC98A"/>
<path d="M37.4385 17.3523C38.9273 17.9926 39.0419 20.1463 37.4957 20.8448C34.2316 22.4164 34.6325 16.3045 37.3239 17.2941C37.3621 17.2941 37.4003 17.3135 37.4385 17.3523Z" fill="url(#paint11_radial_603_42)"/>
<path d="M32.8 5.01196C33.2009 5.18659 33.2581 5.76868 32.8573 5.94331C31.941 6.35077 32.0556 4.72092 32.8 5.01196Z" fill="url(#paint12_radial_603_42)"/>
<path d="M51.5256 8.1552C52.4419 8.56266 52.4991 9.95968 51.5829 10.4253C49.4641 11.4149 49.7504 7.5149 51.4111 8.1552C51.4493 8.1552 51.4875 8.1552 51.5256 8.1552Z" fill="url(#paint13_radial_603_42)"/>
<path d="M33.0863 14.9075C33.6017 15.4314 33.2581 16.3627 32.5137 16.3627C30.853 16.4209 32.1128 13.9761 33.0291 14.8493C33.0672 14.8881 33.0863 14.9075 33.0863 14.9075Z" fill="url(#paint14_radial_603_42)"/>
<path d="M47.5744 17.9343C48.0897 18.1672 48.147 18.9239 47.6316 19.2149C46.4863 19.7388 46.6008 17.5851 47.5744 17.9343Z" fill="url(#paint15_radial_603_42)"/>
<path d="M37.3239 6.23435C38.0684 6.5254 38.1256 7.57316 37.3812 7.92241C35.7778 8.67913 36.0068 5.71047 37.2667 6.17615C37.3048 6.21495 37.3239 6.23435 37.3239 6.23435Z" fill="url(#paint16_radial_603_42)"/>
<path d="M50.8385 5.5358C51.182 5.71043 51.182 6.1761 50.8385 6.35072C50.094 6.69998 50.2085 5.30296 50.7812 5.5358C50.8194 5.5358 50.8385 5.5358 50.8385 5.5358Z" fill="url(#paint17_radial_603_42)"/>
<path d="M55.0761 6.40897C55.3051 6.46718 55.3051 6.81643 55.0761 6.93285C54.6179 7.10747 54.6752 6.23434 55.0188 6.40897C55.057 6.40897 55.0761 6.40897 55.0761 6.40897Z" fill="url(#paint18_radial_603_42)"/>
<path d="M55.2478 10.8911C55.4769 11.1821 55.3051 11.5896 54.9615 11.6478C54.1598 11.6478 54.7897 10.4836 55.2478 10.8911Z" fill="url(#paint19_radial_603_42)"/>
<path d="M36.3504 8.97015C36.5795 9.08656 36.6368 9.43582 36.3504 9.55224C35.7778 9.84328 35.8923 8.79552 36.3504 8.97015Z" fill="url(#paint20_radial_603_42)"/>
<path d="M40.588 22.5329C40.8744 22.6493 40.8744 22.9985 40.6453 23.1149C40.0727 23.406 40.1299 22.3582 40.588 22.4746C40.588 22.5135 40.588 22.5329 40.588 22.5329Z" fill="url(#paint21_radial_603_42)"/>
<path style="mix-blend-mode:screen" opacity="0.22" d="M52.2701 20.088C52.1556 20.1657 52.041 20.2239 51.9265 20.2627C51.5256 20.4373 51.0675 20.3209 50.7239 20.6701C50.4376 20.9612 50.5521 21.4269 50.3231 21.7179C50.1513 22.0672 49.6359 22.3582 49.2923 22.5328C48.4906 23.1537 47.6698 23.7358 46.8299 24.2791C45.5128 25.094 44.0812 25.9089 42.5351 26.2C42.4969 26.2 42.4587 26.2 42.4205 26.2C42.3823 26.2 42.3442 26.2 42.306 26.2C42.1533 26.1612 42.0006 26.1224 41.8479 26.0836C39.0419 18.9239 34.4607 7.22387 32.3419 1.86865C32.4182 1.82984 32.4755 1.79103 32.5137 1.75223C32.6855 1.69402 32.9145 1.5776 33.0863 1.5776C33.3154 1.63581 33.4299 1.92686 33.6017 1.86865C33.8308 1.86865 33.888 1.5776 34.0598 1.51939C34.2316 1.40297 34.4607 1.51939 34.6325 1.51939C35.0906 1.597 35.5106 1.71342 35.8923 1.86865C36.694 2.2179 37.4385 2.68357 38.1256 3.20745C39.0992 3.96417 40.0154 4.95372 40.8171 5.94327L42.4205 8.097L44.0239 5.94327C44.7111 5.07014 46.9445 2.39253 49.6359 1.63581L52.2701 20.088Z" fill="url(#paint22_linear_603_42)"/>
<path d="M55.7632 5.07014C55.2479 4.25521 54.7325 3.73133 53.9308 3.14924C53.5299 2.8582 53.0718 2.62536 52.5564 2.50894C52.1555 2.39252 51.7547 2.33432 51.4111 2.15969C51.0102 1.98506 50.6667 1.98506 50.2658 2.15969C49.9222 2.27611 49.6359 2.50894 49.2923 2.68357C48.6624 2.91641 47.9752 3.03282 47.4026 3.44029C46.8299 3.78954 46.3145 4.25521 45.9137 4.77909C45.2837 5.53581 44.5966 6.17611 44.0239 6.93282C43.6231 7.34029 43.0504 8.79551 42.3632 8.67909C41.9624 8.62088 41.5043 7.68954 41.2752 7.39849C40.8934 6.85521 40.4926 6.33133 40.0726 5.82685C39.2709 4.8373 38.3547 3.90596 37.2667 3.14924C36.4077 2.56715 35.2624 1.69402 34.1171 1.92685C33.7162 1.98506 33.5444 2.10148 33.1436 2.10148C31.712 2.04327 30.2231 3.84775 29.3641 4.89551C28.3333 6.1179 27.4743 7.63133 27.0735 9.26118C26.9017 10.0761 26.6726 10.9492 26.959 11.7642C26.7872 11.4731 26.5581 11.2403 26.5008 10.9492C26.3863 10.4254 26.5581 9.72685 26.6726 9.26118C27.1308 7.57312 27.9325 6.05969 28.9632 4.72088C29.6504 3.84775 30.4521 3.03282 31.3684 2.39252C31.712 2.15969 32.0937 1.94626 32.5137 1.75223C32.6855 1.69402 32.9145 1.5776 33.0863 1.5776C33.3154 1.63581 33.4299 1.92685 33.6017 1.86864C33.8308 1.86864 33.888 1.5776 34.0598 1.51939C34.2316 1.40297 34.4607 1.51939 34.6325 1.51939C35.0906 1.597 35.5105 1.71342 35.8923 1.86864C36.694 2.2179 37.4384 2.68357 38.1256 3.20745C39.0991 3.96417 40.0154 4.95372 40.8171 5.94327L42.4205 8.097L44.0239 5.94327C44.8256 4.95372 47.6316 1.5776 50.8385 1.46118H50.953C52.041 1.46118 53.0718 2.04327 53.9308 2.68357C54.5607 3.20745 55.1333 3.73133 55.6487 4.37163C55.8778 4.66267 56.1641 5.01193 56.2786 5.41939C56.3932 5.76864 56.1641 6.05969 55.9923 6.29252C56.1068 5.94327 56.0496 5.53581 55.7632 5.07014Z" fill="#B4F4FA"/>
<path d="M58.3402 11.2403C58.1111 12.0552 57.8248 12.8119 57.4239 13.5687C57.4239 13.5687 57.4239 13.5493 57.4239 13.5105C57.8248 12.4627 58.2829 11.3567 57.9393 10.1925C57.7675 9.49404 57.7103 8.73732 57.4239 8.09702C57.1949 7.63135 57.0803 6.70001 56.565 6.46717C56.2786 6.40896 56.0496 6.6418 55.7632 6.70001C55.8014 6.62239 55.8396 6.56418 55.8778 6.52538C56.1068 6.29254 56.6795 5.94329 56.6795 6.0015C57.2521 6.93284 57.7675 7.86418 58.0538 8.85374C58.2829 9.61045 58.512 10.4836 58.3402 11.2403Z" fill="#B4F4FA"/>
<defs>
<linearGradient id="paint0_linear_603_42" x1="-3913" y1="704.895" x2="-3913" y2="16923.5" gradientUnits="userSpaceOnUse">
<stop stop-color="#40B8E3"/>
<stop offset="0.64" stop-color="#304891"/>
<stop offset="1" stop-color="#15AD8C"/>
</linearGradient>
<linearGradient id="paint1_linear_603_42" x1="-12202.4" y1="1725.02" x2="-12202.4" y2="30151" gradientUnits="userSpaceOnUse">
<stop stop-color="#4EBDE6"/>
<stop offset="1" stop-color="#085A8A"/>
</linearGradient>
<radialGradient id="paint2_radial_603_42" cx="0" cy="0" r="1" gradientUnits="userSpaceOnUse" gradientTransform="translate(1401.26 207.423) scale(18.7498 20.8087)">
<stop stop-color="#62CEF5"/>
<stop offset="1" stop-color="#237FCF"/>
</radialGradient>
<radialGradient id="paint3_radial_603_42" cx="0" cy="0" r="1" gradientUnits="userSpaceOnUse" gradientTransform="translate(1311.23 -537.004) rotate(-32.8952) scale(37.7427 41.6471)">
<stop stop-color="#62CEF5"/>
<stop offset="1" stop-color="#237FCF"/>
</radialGradient>
<radialGradient id="paint4_radial_603_42" cx="0" cy="0" r="1" gradientUnits="userSpaceOnUse" gradientTransform="translate(-9.69915 -109.656) rotate(-147.265) scale(19.4842 21.5703)">
<stop stop-color="#62CEF5"/>
<stop offset="1" stop-color="#237FCF"/>
</radialGradient>
<radialGradient id="paint5_radial_603_42" cx="0" cy="0" r="1" gradientUnits="userSpaceOnUse" gradientTransform="translate(985.142 -234.015) rotate(-32.8952) scale(37.1932 41.0911)">
<stop stop-color="#62CEF5"/>
<stop offset="1" stop-color="#237FCF"/>
</radialGradient>
<radialGradient id="paint6_radial_603_42" cx="0" cy="0" r="1" gradientUnits="userSpaceOnUse" gradientTransform="translate(511.938 -73.0941) rotate(-32.8951) scale(5.94501 6.45145)">
<stop stop-color="#62CEF5"/>
<stop offset="1" stop-color="#237FCF"/>
</radialGradient>
<radialGradient id="paint7_radial_603_42" cx="0" cy="0" r="1" gradientUnits="userSpaceOnUse" gradientTransform="translate(286.102 -36.0633) rotate(-32.8951) scale(5.93723 6.55844)">
<stop stop-color="#62CEF5"/>
<stop offset="1" stop-color="#237FCF"/>
</radialGradient>
<radialGradient id="paint8_radial_603_42" cx="0" cy="0" r="1" gradientUnits="userSpaceOnUse" gradientTransform="translate(88.5315 36.9437) rotate(-32.9102) scale(3.5008 3.92373)">
<stop stop-color="#62CEF5"/>
<stop offset="1" stop-color="#237FCF"/>
</radialGradient>
<radialGradient id="paint9_radial_603_42" cx="0" cy="0" r="1" gradientUnits="userSpaceOnUse" gradientTransform="translate(283.651 69.5442) rotate(-32.9036) scale(13.4928 14.91)">
<stop stop-color="#62CEF5"/>
<stop offset="1" stop-color="#237FCF"/>
</radialGradient>
<linearGradient id="paint10_linear_603_42" x1="4799.5" y1="7396.71" x2="9743.7" y2="13255.7" gradientUnits="userSpaceOnUse">
<stop stop-color="#C7F0E1"/>
<stop offset="1"/>
</linearGradient>
<radialGradient id="paint11_radial_603_42" cx="0" cy="0" r="1" gradientUnits="userSpaceOnUse" gradientTransform="translate(187.315 135.037) scale(17.7218 20.249)">
<stop stop-color="#62CEF5"/>
<stop offset="1" stop-color="#237FCF"/>
</radialGradient>
<radialGradient id="paint12_radial_603_42" cx="0" cy="0" r="1" gradientUnits="userSpaceOnUse" gradientTransform="translate(68.7992 19.6173) scale(1.2785 1.42647)">
<stop stop-color="#62CEF5"/>
<stop offset="1" stop-color="#237FCF"/>
</radialGradient>
<radialGradient id="paint13_radial_603_42" cx="0" cy="0" r="1" gradientUnits="userSpaceOnUse" gradientTransform="translate(194.897 52.8528) scale(7.06137 8.17351)">
<stop stop-color="#62CEF5"/>
<stop offset="1" stop-color="#237FCF"/>
</radialGradient>
<radialGradient id="paint14_radial_603_42" cx="0" cy="0" r="1" gradientUnits="userSpaceOnUse" gradientTransform="translate(68.8898 82.942) rotate(24.2443) scale(3.82732 3.97916)">
<stop stop-color="#62CEF5"/>
<stop offset="1" stop-color="#237FCF"/>
</radialGradient>
<radialGradient id="paint15_radial_603_42" cx="0" cy="0" r="1" gradientUnits="userSpaceOnUse" gradientTransform="translate(121.447 60.6437) scale(2.14847 2.54691)">
<stop stop-color="#62CEF5"/>
<stop offset="1" stop-color="#237FCF"/>
</radialGradient>
<radialGradient id="paint16_radial_603_42" cx="0" cy="0" r="1" gradientUnits="userSpaceOnUse" gradientTransform="translate(112.013 35.3242) scale(4.12493 4.76617)">
<stop stop-color="#62CEF5"/>
<stop offset="1" stop-color="#237FCF"/>
</radialGradient>
<radialGradient id="paint17_radial_603_42" cx="0" cy="0" r="1" gradientUnits="userSpaceOnUse" gradientTransform="translate(102.717 18.6115) scale(0.917052 1.05473)">
<stop stop-color="#62CEF5"/>
<stop offset="1" stop-color="#237FCF"/>
</radialGradient>
<radialGradient id="paint18_radial_603_42" cx="0" cy="0" r="1" gradientUnits="userSpaceOnUse" gradientTransform="translate(91.5021 15.3831) scale(0.375801 0.427747)">
<stop stop-color="#62CEF5"/>
<stop offset="1" stop-color="#237FCF"/>
</radialGradient>
<radialGradient id="paint19_radial_603_42" cx="0" cy="0" r="1" gradientUnits="userSpaceOnUse" gradientTransform="translate(98.0263 50.5618) rotate(24.2706) scale(0.881659 0.953992)">
<stop stop-color="#62CEF5"/>
<stop offset="1" stop-color="#237FCF"/>
</radialGradient>
<radialGradient id="paint20_radial_603_42" cx="0" cy="0" r="1" gradientUnits="userSpaceOnUse" gradientTransform="translate(62.8758 21.9209) scale(0.517612 0.581396)">
<stop stop-color="#62CEF5"/>
<stop offset="1" stop-color="#237FCF"/>
</radialGradient>
<radialGradient id="paint21_radial_603_42" cx="0" cy="0" r="1" gradientUnits="userSpaceOnUse" gradientTransform="translate(70.9229 47.4865) scale(0.516561 0.623587)">
<stop stop-color="#62CEF5"/>
<stop offset="1" stop-color="#237FCF"/>
</radialGradient>
<linearGradient id="paint22_linear_603_42" x1="1229.16" y1="1635.74" x2="2362.53" y2="2637.57" gradientUnits="userSpaceOnUse">
<stop stop-color="#C7F0E1"/>
<stop offset="1"/>
</linearGradient>
</defs>
</svg>
