<svg width="62" height="105" viewBox="0 0 62 105" fill="none" xmlns="http://www.w3.org/2000/svg">
<path d="M52.7197 1.16474L46.2832 0.930923L7.39929 59.2389H30.5004L12.8366 103.752L19.1556 103.869L60.567 44.9469L37.0251 44.5085L52.7197 1.16474Z" fill="#C5851A"/>
<path fill-rule="evenodd" clip-rule="evenodd" d="M19.1555 104.57L12.8072 104.453C12.6014 104.453 12.3663 104.336 12.2487 104.132C12.1312 103.956 12.1018 103.722 12.19 103.489L29.4717 59.9403H7.39928C7.13476 59.9403 6.89963 59.7942 6.78207 59.5604C6.66451 59.3558 6.66451 59.0635 6.81146 58.8589L45.6953 0.550959C45.8129 0.346369 46.048 0.229462 46.2831 0.229462L52.7491 0.463278C52.9548 0.492505 53.1606 0.609414 53.3075 0.784776C53.4251 0.960138 53.4545 1.19395 53.3663 1.39854L38.0244 43.8362L60.567 44.2454C60.8315 44.2454 61.0667 44.3915 61.1842 44.6254C61.3018 44.8592 61.2724 45.1222 61.1254 45.3268L19.7434 104.278C19.5964 104.453 19.3907 104.57 19.1555 104.57ZM13.8652 103.079L18.8029 103.167L59.2444 45.6191L37.0251 45.2099C36.79 45.2099 36.5842 45.093 36.4667 44.9176C36.3197 44.713 36.2903 44.4792 36.3785 44.2746L51.7498 1.83695L46.6358 1.63236L8.69246 58.5374H30.5004C30.7355 58.5374 30.9412 58.6543 31.0588 58.8589C31.2057 59.0343 31.2351 59.2973 31.1469 59.5019L13.8652 103.079Z" fill="#BD8034"/>
<g style="mix-blend-mode:multiply">
<path d="M40.4932 34.922H23.5935L17.1276 44.6254H43.5204L37.0251 44.5085L40.4932 34.922Z" fill="#F1B81A"/>
</g>
<g style="mix-blend-mode:multiply">
<path d="M24.4165 74.5539L12.8365 103.752L19.1555 103.869L39.7584 74.5539H24.4165Z" fill="#F1B81A"/>
</g>
<path d="M46.3126 1.16473L0.992126 59.2389H24.0932L12.7484 103.869L54.1599 44.9469L30.6179 44.5085L46.3126 1.16473Z" fill="#F1B81A"/>
<path fill-rule="evenodd" clip-rule="evenodd" d="M12.7484 104.57C12.6504 104.57 12.5525 104.551 12.4545 104.512C12.1606 104.365 11.9842 104.044 12.0724 103.722L23.1821 59.9404H0.992127C0.727611 59.9404 0.463094 59.7942 0.345532 59.5604C0.227969 59.2974 0.257359 59.0343 0.433703 58.8297L45.7541 0.755562C45.9599 0.463291 46.3419 0.404837 46.6358 0.550972C46.9591 0.726335 47.0767 1.07706 46.9591 1.39856L31.6172 43.8362L54.1599 44.2454C54.4244 44.2454 54.6595 44.3916 54.7771 44.6254C54.8946 44.8592 54.8652 45.1222 54.7183 45.3268L13.3362 104.278C13.1893 104.482 12.9835 104.57 12.7484 104.57ZM2.40288 58.5375H24.0932C24.2989 58.5375 24.5047 58.6544 24.6222 58.8005C24.7692 58.9759 24.828 59.2097 24.7692 59.4143L14.3649 100.361L52.8373 45.6191L30.6179 45.2099C30.3828 45.2099 30.1771 45.093 30.0301 44.9176C29.9126 44.7131 29.8832 44.4792 29.9713 44.2747L44.167 5.05194L2.40288 58.5375Z" fill="#BC7232"/>
</svg>
