<svg width="189" height="61" viewBox="0 0 189 61" fill="none" xmlns="http://www.w3.org/2000/svg">
<path opacity="0.42" fill-rule="evenodd" clip-rule="evenodd" d="M45 19.9226C41.913 19.9226 39.4348 17.3097 39.4348 14.0871C39.4348 10.8645 41.913 8.25161 45 8.25161C48.0435 8.25161 50.5217 10.8645 50.5217 14.0871C50.5217 17.3097 48.0435 19.9226 45 19.9226Z" fill="url(#paint0_radial_581_42)"/>
<path fill-rule="evenodd" clip-rule="evenodd" d="M45 19.9226C41.913 19.9226 39.4348 17.3097 39.4348 14.0871C39.4348 10.8645 41.913 8.25161 45 8.25161C48.0435 8.25161 50.5217 10.8645 50.5217 14.0871C50.5217 17.3097 48.0435 19.9226 45 19.9226ZM49.5217 14.6097C49.5217 12.0403 47.5652 9.95 45.087 9.95C42.6522 9.95 40.6957 12.0403 40.6957 14.6097C40.6957 17.179 42.6522 19.2694 45.087 19.2694C47.5652 19.2694 49.5217 17.179 49.5217 14.6097Z" fill="white"/>
<g style="mix-blend-mode:hard-light">
<path d="M48.3044 9.7758C49.2609 10.6903 49.5652 11.9968 48.9565 12.65C48.3478 13.3468 47.087 13.129 46.1739 12.2145C45.2174 11.3 44.913 9.99355 45.5217 9.29677C46.1304 8.64355 47.3478 8.81774 48.3044 9.7758Z" fill="white"/>
</g>
<g style="mix-blend-mode:multiply" opacity="0.37">
<path d="M7.82608 24.5823C8.34782 26.9774 8.99999 29.3726 9.69565 31.7242C10.6956 34.9032 11.8261 38.0387 13.0435 41.1306C12.913 39.5629 12.6956 37.9952 12.4348 36.471C12.1739 34.5548 11.8696 32.6387 11.6522 30.7226C11.3913 28.8065 11.2174 26.8903 11.1739 24.9306C11.1739 24.5532 11.1739 24.1758 11.1739 23.7984C10.087 24.1032 8.95652 24.4081 7.82608 24.5823Z" fill="#6C6C65"/>
</g>
<g style="mix-blend-mode:multiply" opacity="0.37">
<path d="M73.6956 30.2871C73.9565 33.8145 74.3043 37.3419 75 40.8258C75.7826 39.0403 76.3478 37.1677 76.7391 35.2516C77.5652 31.55 77.8696 27.8048 78.3478 24.0597C78.4927 22.8984 78.6522 21.7371 78.8261 20.5758C77.7826 20.4306 76.7536 20.2564 75.7391 20.0532H72.9565C73.3043 23.45 73.4783 26.8468 73.6956 30.2871Z" fill="#6C6C65"/>
</g>
<g style="mix-blend-mode:multiply" opacity="0.37">
<path d="M137.652 23.3629C137.783 26.0629 137.826 28.7629 137.913 31.4629C138 34.1629 138.087 36.8629 138.261 39.5629C138.435 41.9145 138.652 44.2661 139.087 46.6177C139.667 44.2661 140.246 41.9 140.826 39.5194C142 34.7726 143.13 30.0258 144.087 25.2355C144.319 24.0742 144.536 22.9129 144.739 21.7516C144.13 21.6645 143.522 21.5774 142.913 21.4903C141.116 21.2581 139.319 21.1129 137.522 21.0548C137.58 21.8387 137.623 22.6081 137.652 23.3629Z" fill="#6C6C65"/>
</g>
<path d="M130.739 36.8194C133.174 37.2548 135.739 37.5161 138.13 36.8629C140.217 36.2968 142.174 35.2081 144.348 34.8161C144.406 34.8161 144.464 34.8016 144.522 34.7726C142.565 34.4677 140.565 34.1194 138.609 33.8581C135.652 33.4661 132.696 33.2919 129.696 33.4661C126.13 33.6839 122.565 34.1629 119 34.5113C122.957 35.0774 126.783 36.1226 130.739 36.8194Z" fill="#828078"/>
<g style="mix-blend-mode:multiply">
<path d="M188 13.3032C186.435 8.99193 182.956 5.9 178 5.42096C174.522 5.02903 170.739 6.07419 168 8.20806C167.855 8.32419 167.71 8.44032 167.565 8.55645C167.42 8.67258 167.29 8.78871 167.174 8.90484C167.087 8.99193 167.014 9.06451 166.956 9.12258C166.565 9.47096 166 9.7758 165.913 10.3419C165.739 12.5194 165.435 14.6532 165.087 16.8306C162.261 15.9161 159.348 15.3064 156.478 14.6532C156.333 14.6242 156.188 14.5952 156.043 14.5661C153.058 13.8984 150.058 13.2887 147.043 12.7371C140.87 11.6484 134.609 10.7774 128.391 10.1242C122.043 9.42742 115.696 9.29677 109.261 9.12258C102.783 8.94838 96.3478 8.6 89.8696 8.55645C83.8261 8.46935 77.8261 8.81774 71.8261 9.20967C66 9.60161 60.1304 10.1242 54.3913 11.1258C49.6522 11.9532 45.0435 13.129 40.4348 14.4355C40.2609 14.4645 40.0869 14.5081 39.913 14.5661C38.9565 14.8274 38 15.1032 37.0435 15.3935C34.3913 16.1774 31.7826 16.9613 29.0869 17.6581C26.913 18.2242 24.7826 18.8774 22.8696 20.0097C22.6377 20.1258 22.4203 20.2564 22.2174 20.4016C22.0145 19.2113 21.8261 18.021 21.6522 16.8306C21.4783 15.6548 21.3913 14.4355 21.2609 13.2597C21.2174 12.7371 21.3043 12.171 21.2609 11.6484C21.2609 11.3871 21.2609 11.0823 21.1304 10.821C21 10.5161 20.4783 10.2113 20.2609 9.95C19.8696 9.51451 19.3478 9.20967 18.8696 8.90484C18.1739 8.4258 17.3913 8.07742 16.6087 7.85967C14.913 7.42419 13.1739 7.46774 11.5217 7.94677C10.6087 8.25161 9.69564 8.6 8.91303 9.03548C7.21738 10.0371 5.73912 11.4306 4.65216 13.0419C4.13042 13.8258 3.60869 14.6968 3.30434 15.6113C3.13043 16.0468 2.99999 16.5258 2.91303 16.9613C2.69564 17.7016 2.30434 18.4855 2.43477 19.2258C2.91303 21.7516 6.1739 35.0774 7.1739 38.5613C8.13042 42.1758 9.1739 45.7468 10.1304 49.3177C10.1594 49.55 10.2029 49.7677 10.2609 49.971C10.4348 50.6097 10.5942 51.2629 10.7391 51.9306C10.884 52.5984 11.029 53.2661 11.1739 53.9339C11.4348 55.3274 11.8261 56.6339 12.7391 57.7661C12.7826 57.8097 12.8261 57.8532 12.913 57.8097C13.3478 58.3758 13.913 58.8984 14.6522 59.2903C14.8261 59.3774 15 59.4645 15.1739 59.5516C15.2029 59.5806 15.2464 59.5952 15.3043 59.5952C15.4493 59.6532 15.5797 59.7113 15.6956 59.7694C15.7536 59.7984 15.8261 59.8274 15.913 59.8564C16 59.8855 16.1014 59.929 16.2174 59.9871C16.3043 59.9871 16.3913 60.0016 16.4783 60.0306C16.5652 60.0597 16.6667 60.1032 16.7826 60.1613C16.8696 60.1613 16.9565 60.1758 17.0435 60.2048C17.1594 60.2339 17.2609 60.2629 17.3478 60.2919C17.4348 60.2919 17.5217 60.3064 17.6087 60.3355C17.7246 60.3645 17.8406 60.379 17.9565 60.379C18.0435 60.4081 18.1304 60.4371 18.2174 60.4661C18.3043 60.4661 18.4058 60.4806 18.5217 60.5097C18.6087 60.5097 18.7101 60.5097 18.8261 60.5097C18.913 60.5387 19 60.5532 19.0869 60.5532C19.2029 60.5823 19.3043 60.5968 19.3913 60.5968C19.4783 60.5968 19.5797 60.5968 19.6956 60.5968C19.7826 60.6258 19.884 60.6403 20 60.6403C20.0869 60.6403 20.1594 60.6403 20.2174 60.6403C20.3623 60.6403 20.4927 60.6403 20.6087 60.6403C20.6667 60.6403 20.7101 60.6403 20.7391 60.6403C21.913 60.6839 23.0869 60.5968 24.1739 60.4661C27.3043 60.0742 30.3043 59.3339 33.3043 58.4193C33.971 58.1871 34.6377 57.9839 35.3043 57.8097C35.5362 57.7226 35.7681 57.65 36 57.5919C36.4348 57.4468 36.8406 57.3161 37.2174 57.2C37.4782 57.1419 37.7246 57.0694 37.9565 56.9823C38.3333 56.8661 38.7246 56.7645 39.1304 56.6774C39.3043 56.6194 39.4927 56.5613 39.6956 56.5032C40.1304 56.3581 40.5507 56.2274 40.9565 56.1113C41.1014 56.0823 41.2464 56.0532 41.3913 56.0242C41.8551 55.879 42.3043 55.7484 42.7391 55.6323C42.8551 55.6032 42.9565 55.5742 43.0435 55.5452C43.5072 55.4 43.971 55.2694 44.4348 55.1532C44.5217 55.1242 44.5942 55.1097 44.6522 55.1097C45.1449 54.9645 45.6232 54.8339 46.0869 54.7177C46.1159 54.6887 46.1594 54.6742 46.2174 54.6742C46.7101 54.5581 47.1884 54.4274 47.6522 54.2823C58.9565 51.321 64.6956 50.6242 67 50.2758C73.3913 49.3613 79.6956 48.7081 86.1304 48.1855C92.6087 47.6629 99.0869 47.3145 105.609 47.271C111.739 47.2274 117.913 47.5758 124.043 48.1855C130.174 48.7952 136.304 49.6661 142.348 50.7984C144.696 51.2339 147 51.6694 149.261 52.1484C149.377 52.1774 149.507 52.2064 149.652 52.2355C149.797 52.2645 149.942 52.2935 150.087 52.3226C150.261 52.3806 150.435 52.4242 150.609 52.4532C150.725 52.4823 150.855 52.5258 151 52.5839C151.174 52.6129 151.362 52.6564 151.565 52.7145C151.681 52.7435 151.797 52.7726 151.913 52.8016C152.116 52.8597 152.319 52.9177 152.522 52.9758C152.638 53.0048 152.754 53.0339 152.87 53.0629C153.072 53.15 153.275 53.2226 153.478 53.2806C153.594 53.3097 153.71 53.3387 153.826 53.3677C154.029 53.4258 154.246 53.4984 154.478 53.5855C154.565 53.6145 154.652 53.6435 154.739 53.6726C154.971 53.7597 155.203 53.8468 155.435 53.9339C155.522 53.9629 155.609 53.9919 155.696 54.021C156.014 54.1371 156.333 54.2532 156.652 54.3694C158.609 55.1968 160.565 56.0677 162.565 56.8081C163.261 57.0403 163.942 57.2581 164.609 57.4613C165.391 57.6645 166.159 57.7952 166.913 57.8532C166.971 57.8823 167.029 57.8968 167.087 57.8968C167.638 57.8968 168.188 57.8532 168.739 57.7661C168.797 57.7661 168.87 57.7661 168.957 57.7661C170.478 57.5484 172 57.1564 173.348 56.4161C173.464 56.3581 173.58 56.3 173.696 56.2419C173.725 56.2129 173.754 56.1984 173.783 56.1984C173.87 56.1403 173.971 56.0823 174.087 56.0242C174.116 55.9952 174.145 55.9661 174.174 55.9371C174.261 55.879 174.348 55.821 174.435 55.7629C174.493 55.7048 174.551 55.6613 174.609 55.6323C174.667 55.5742 174.739 55.5161 174.826 55.4581C174.884 55.429 174.942 55.3855 175 55.3274C175.058 55.2693 175.116 55.2113 175.174 55.1532C175.261 55.0952 175.333 55.0371 175.391 54.979C175.449 54.921 175.507 54.8629 175.565 54.8048C175.623 54.7468 175.696 54.6742 175.783 54.5871C175.812 54.5581 175.855 54.5145 175.913 54.4564C176 54.3403 176.101 54.2097 176.217 54.0645C177.609 52.3226 178.435 50.0581 179.217 48.0548C180.174 45.7468 180.913 43.3952 181.652 41.0435C183.087 36.2532 184.304 31.2452 185.348 26.3677C185.913 23.8419 186.478 21.4468 187.087 18.9645C187.522 17.2226 188.261 14.0871 188 13.3032Z" fill="#65C8D0"/>
</g>
<path d="M185.739 8.90484C184.217 4.59355 180.739 1.50161 175.783 1.02258C172.261 0.630645 168.522 1.6758 165.783 3.80968C165.406 4.1 165.058 4.40484 164.739 4.72419C164.348 5.07258 163.739 5.37742 163.696 5.94355C163.478 8.12097 163.174 10.2548 162.826 12.4323C160.043 11.5613 157.13 10.9081 154.261 10.2548C151.101 9.55806 147.942 8.91935 144.783 8.33871C138.652 7.25 132.391 6.37903 126.174 5.72581C119.783 5.02903 113.435 4.89839 107.043 4.72419C100.565 4.59355 94.087 4.20161 87.6087 4.15806C81.6087 4.11452 75.6087 4.41935 69.6087 4.81129C63.7826 5.20323 57.913 5.72581 52.1304 6.72742C46.2609 7.77258 40.5217 9.29677 34.8261 10.9952C32.1739 11.779 29.5652 12.5629 26.8696 13.2597C24.4348 13.8694 22.087 14.6532 20 16.0032C19.7971 14.8129 19.6087 13.6226 19.4348 12.4323C19.2609 11.2565 19.1739 10.0806 19.0435 8.90484C18.9565 8.33871 19.087 7.77258 19.0435 7.25C19.0435 6.98871 19.0435 6.68387 18.913 6.42258C18.7826 6.11774 18.2609 5.8129 18.0435 5.55161C17.6087 5.15968 17.1304 4.85484 16.6087 4.50645C15.9565 4.02742 15.1739 3.67903 14.3913 3.46129C12.6957 3.02581 10.9565 3.06935 9.26087 3.59193C8.3913 3.85322 7.47826 4.20161 6.69565 4.6371C5 5.63871 3.52174 7.03226 2.43478 8.64355C1.86956 9.47097 1.3913 10.2984 1.04348 11.2129C0.913041 11.6484 0.782606 12.1274 0.652171 12.5629C0.478258 13.3032 0.0434757 14.0871 0.217389 14.8274C0.69565 17.3532 3.95652 30.679 4.91304 34.2065C5.91304 37.7774 6.95652 41.3484 7.86956 44.9194C8.27536 46.4581 8.63768 47.9968 8.95652 49.5355C9.21739 50.929 9.60869 52.2355 10.4783 53.3677C10.5652 53.4548 10.6087 53.4548 10.6957 53.4113C11.087 53.9774 11.6522 54.5 12.4348 54.8919C15.2174 56.4161 18.8261 56.4597 21.9565 56.0677C25.0435 55.6758 28.087 54.9355 31.087 54.021C52.2174 47.4887 61.6522 46.3564 64.7826 45.8774C71.1739 44.9629 77.4783 44.3097 83.8696 43.7871C90.3478 43.2645 96.8696 42.9161 103.391 42.8726C109.522 42.8726 115.696 43.1774 121.826 43.7871C127.957 44.3968 134.087 45.2677 140.13 46.4C145.043 47.3145 149.783 48.0984 154.391 49.971C157.043 51.0597 159.652 52.3226 162.391 53.0629C163.174 53.2661 163.942 53.3968 164.696 53.4548C164.725 53.4839 164.783 53.4984 164.87 53.4984C165.42 53.4984 165.971 53.4548 166.522 53.3677C166.58 53.3677 166.638 53.3677 166.696 53.3677C169.522 52.9758 172.217 51.9306 174 49.6661C175.348 47.9242 176.174 45.6597 177 43.6565C177.913 41.3484 178.696 38.9968 179.391 36.6452C180.826 31.8548 182.043 26.8468 183.13 21.9694C183.696 19.4871 184.261 17.0919 184.87 14.5661C185.261 12.8242 186 9.68871 185.739 8.90484Z" fill="#34C5FE"/>
<g style="mix-blend-mode:multiply" opacity="0.52">
<path d="M29.1304 32.3774C28.2174 24.0597 31.5652 16.3081 38.4348 11.0823C39.3043 10.4435 40.2029 9.81935 41.1304 9.20968C39.0145 9.79032 36.913 10.3855 34.8261 10.9952C32.1739 11.779 29.5652 12.5629 26.8696 13.2597C24.4348 13.8694 22.087 14.6532 20 16.0032C19.7971 14.8129 19.6087 13.6226 19.4348 12.4323C19.2609 11.2565 19.1739 10.0806 19.0435 8.90484C18.9565 8.33871 19.087 7.77258 19.0435 7.25C19.0435 6.98871 19.0435 6.68387 18.913 6.42258C18.7826 6.11774 18.2609 5.8129 18.0435 5.55161C17.6087 5.15968 17.1304 4.85484 16.6087 4.50645C15.9565 4.02742 15.1739 3.67903 14.3913 3.46129C12.6957 3.0258 10.9565 3.06935 9.26087 3.59193C8.3913 3.85322 7.47826 4.20161 6.69565 4.6371C5 5.63871 3.52174 7.03226 2.43478 8.64355C1.86956 9.47097 1.3913 10.2984 1.04348 11.2129C0.913041 11.6484 0.782606 12.1274 0.652171 12.5629C0.478258 13.3032 0.0434757 14.0871 0.217389 14.8274C0.69565 17.3532 3.95652 30.679 4.91304 34.2065C5.91304 37.7774 6.95652 41.3484 7.86956 44.9194C8.27536 46.4581 8.63768 47.9968 8.95652 49.5355C9.21739 50.929 9.60869 52.2355 10.4783 53.3677C10.5652 53.4548 10.6087 53.4548 10.6957 53.4113C11.087 53.9774 11.6522 54.5 12.4348 54.8919C15.2174 56.4161 18.8261 56.4597 21.9565 56.0677C25.0435 55.6758 28.087 54.9355 31.087 54.021C36.6522 52.279 41.3913 50.929 45.4783 49.8839C37 47.271 30.1739 42.1323 29.1304 32.3774Z" fill="#6C6C65"/>
</g>
<g style="mix-blend-mode:multiply" opacity="0.52">
<path d="M27.1304 54.1952C25.1304 54.2823 23.9565 51.6694 25.4783 50.3629C27.8261 48.3597 27.7391 45.6161 27.3913 42.7419C26.9565 39.2581 26.0435 35.8177 25.1304 32.3774C23.6522 26.7161 22.4783 21.0113 21.1739 15.3064C20.7681 15.5097 20.3768 15.7419 20 16.0032C19.7971 14.8129 19.6087 13.6226 19.4348 12.4323C19.2609 11.2565 19.1739 10.0806 19.0435 8.90484C18.9565 8.33871 19.087 7.77258 19.0435 7.25C19.0435 6.98871 19.0435 6.68387 18.913 6.42258C18.7826 6.11774 18.2609 5.8129 18.0435 5.55161C17.6087 5.15968 17.1304 4.85484 16.6087 4.50645C15.9565 4.02742 15.1739 3.67903 14.3913 3.46129C12.6957 3.0258 10.9565 3.06935 9.26087 3.59193C8.3913 3.85322 7.47826 4.20161 6.69565 4.6371C5 5.63871 3.52174 7.03226 2.43478 8.64355C1.86956 9.47097 1.3913 10.2984 1.04348 11.2129C0.913041 11.6484 0.782606 12.1274 0.652171 12.5629C0.478258 13.3032 0.0434757 14.0871 0.217389 14.8274C0.69565 17.3532 3.95652 30.679 4.91304 34.2065C5.91304 37.7774 6.95652 41.3484 7.86956 44.9194C8.27536 46.4581 8.63768 47.9968 8.95652 49.5355C9.21739 50.929 9.60869 52.2355 10.4783 53.3677C10.5652 53.4548 10.6087 53.4548 10.6957 53.4113C11.087 53.9774 11.6522 54.5 12.4348 54.8919C15.2174 56.4161 18.8261 56.4597 21.9565 56.0677C25.0435 55.6758 28.087 54.9355 31.087 54.021C31.2609 53.9629 31.4203 53.9048 31.5652 53.8468C30.087 54.021 28.6087 54.1371 27.1304 54.1952Z" fill="#6C6C65"/>
</g>
<g style="mix-blend-mode:multiply" opacity="0.4">
<path d="M16.9131 55.1097C14.6957 54.1952 12.3478 52.671 12.4783 50.1016C12.5652 47.9242 15.0435 49.2742 16.0435 49.8839C18.8696 51.5823 22.9131 51.5823 24.5652 48.4032C25.8696 45.9645 25.2609 42.7855 23.0435 41C21.2174 39.4758 18.6957 39.0839 16.3478 39.5194C12.9131 40.2161 9.39131 42.4371 8.04349 45.5726C8.36233 46.879 8.66668 48.2 8.95653 49.5355C9.2174 50.929 9.60871 52.2355 10.4783 53.3677C10.5652 53.4548 10.6087 53.4548 10.6957 53.4113C11.087 53.9774 11.6522 54.5 12.4348 54.8919C15 56.2855 18.3044 56.4161 21.2174 56.1548C19.7391 56.0242 18.2609 55.7194 16.9131 55.1097Z" fill="#DAA044"/>
</g>
<g style="mix-blend-mode:multiply" opacity="0.52">
<path d="M185.739 8.90484C184.217 4.59355 180.739 1.50161 175.783 1.02258C172.261 0.630645 168.522 1.6758 165.783 3.80968C165.406 4.1 165.058 4.40484 164.739 4.72419C164.348 5.07258 163.739 5.37742 163.696 5.94355C163.478 8.12097 163.174 10.2548 162.826 12.4323C160.043 11.5613 157.13 10.9081 154.261 10.2548C154.087 10.2258 153.928 10.1968 153.783 10.1677C155.957 12.4758 157.217 15.4806 157.652 18.529C158.826 26.8468 157.739 35.9484 152.043 42.6984C150.435 44.571 148.565 46.2258 146.478 47.6629C149.174 48.229 151.826 48.9258 154.391 49.971C157.043 51.0597 159.652 52.3226 162.391 53.0629C163.174 53.2661 163.942 53.3968 164.696 53.4548C164.725 53.4839 164.783 53.4984 164.87 53.4984C165.42 53.4984 165.971 53.4548 166.522 53.3677C166.58 53.3677 166.638 53.3677 166.696 53.3677C169.522 52.9758 172.217 51.9306 174 49.6661C175.348 47.9242 176.174 45.6597 177 43.6565C177.913 41.3484 178.696 38.9968 179.391 36.6452C180.826 31.8548 182.043 26.8468 183.13 21.9694C183.696 19.4871 184.261 17.0919 184.87 14.5661C185.261 12.8242 186 9.68871 185.739 8.90484Z" fill="#6C6C65"/>
</g>
<g style="mix-blend-mode:multiply" opacity="0.52">
<path d="M185.739 8.90484C184.217 4.59355 180.739 1.50161 175.783 1.02258C172.261 0.630645 168.522 1.6758 165.783 3.80968C165.493 4.04193 165.203 4.28871 164.913 4.55C165.13 6.33548 165.565 8.16452 165.609 9.99355C165.609 10.2984 165.217 10.6903 165.087 10.9516C164.797 11.5323 164.551 12.1274 164.348 12.7371C163.957 13.8694 163.652 15.0452 163.435 16.2645C162.043 23.1016 160.217 29.9387 157.913 36.5581C157 39.0839 155.739 42.5242 157.391 45.0064C158.478 46.6613 159.957 47.0968 161.826 47.4016C163.043 47.6194 164.304 47.7935 165.304 48.5339C166.435 49.3613 166.739 50.7113 165.304 51.3645C163.826 52.1048 162 52.279 160.348 52.4097C161.014 52.6419 161.696 52.8597 162.391 53.0629C163.174 53.2661 163.942 53.3968 164.696 53.4548C164.725 53.4839 164.783 53.4984 164.87 53.4984C165.42 53.4984 165.971 53.4548 166.522 53.3677C166.58 53.3677 166.638 53.3677 166.696 53.3677C169.522 52.9758 172.217 51.9306 174 49.6661C175.348 47.9242 176.174 45.6597 177 43.6565C177.913 41.3484 178.696 38.9968 179.391 36.6452C180.826 31.8548 182.043 26.8468 183.13 21.9694C183.696 19.4871 184.261 17.0919 184.87 14.5661C185.261 12.8242 186 9.68871 185.739 8.90484Z" fill="#6C6C65"/>
</g>
<g style="mix-blend-mode:multiply" opacity="0.52">
<path d="M185.739 8.90484C184.217 4.59355 180.739 1.50161 175.783 1.02258C172.261 0.630645 168.522 1.6758 165.783 3.80968C165.493 4.04193 165.203 4.28871 164.913 4.55C165.13 6.33548 165.565 8.16452 165.609 9.99355C165.609 10.2984 165.217 10.6903 165.087 10.9516C164.797 11.5323 164.551 12.1274 164.348 12.7371C163.957 13.8694 163.652 15.0452 163.435 16.2645C162.044 23.1016 160.217 29.9387 157.913 36.5581C157.884 36.5871 157.855 36.6306 157.826 36.6887C157.609 37.6903 157.348 38.6919 157.391 39.7371C157.435 41.4355 157.826 43.1774 158.87 44.4839C159.13 42.9597 161.522 41.2177 162.826 40.6081C163.044 40.521 163.304 40.6516 163.217 40.8694C163 41.5661 162.783 42.2194 162.435 42.829C163.696 42.6548 164.826 43.3952 165.217 44.5274C165.565 43.6274 165.899 42.7274 166.217 41.8274C165.957 41.7403 166 41.3484 166.304 41.3484C166.362 41.3484 166.42 41.3484 166.478 41.3484C166.536 41.3484 166.594 41.3629 166.652 41.3919C169.174 41.6968 171 44.0919 171.609 46.3565C172.087 48.2726 171.87 50.2323 171.13 52.0613C172.217 51.4516 173.174 50.6677 174 49.6661C175.348 47.9242 176.174 45.6597 177 43.6565C177.913 41.3484 178.696 38.9968 179.391 36.6452C180.826 31.8548 182.043 26.8468 183.13 21.9694C183.696 19.4871 184.261 17.0919 184.87 14.5661C185.261 12.8242 186 9.68871 185.739 8.90484Z" fill="#6C6C65"/>
</g>
<path fill-rule="evenodd" clip-rule="evenodd" d="M184.87 14.5661C184.261 17.0919 183.696 19.4871 183.13 21.9694C182.043 26.8468 180.826 31.8548 179.391 36.6452C178.696 38.9968 177.913 41.3484 177 43.6565C176.174 45.6597 175.348 47.9242 174 49.6661C172.217 51.9306 169.522 52.9758 166.696 53.3677C166.638 53.3677 166.58 53.3677 166.522 53.3677C165.971 53.4548 165.42 53.4984 164.87 53.4984C164.783 53.4984 164.725 53.4839 164.696 53.4548C163.942 53.3968 163.174 53.2661 162.391 53.0629C159.652 52.3226 157.043 51.0597 154.391 49.971C149.783 48.0984 145.043 47.3145 140.13 46.4C134.087 45.2677 127.957 44.3968 121.826 43.7871C115.696 43.1774 109.522 42.8726 103.391 42.8726C96.8696 42.9161 90.3478 43.2645 83.8696 43.7871C77.4783 44.3097 71.1739 44.9629 64.7826 45.8774C61.6522 46.3564 52.2174 47.4887 31.087 54.021C28.087 54.9355 25.0435 55.6758 21.9565 56.0677C18.8261 56.4597 15.2174 56.4161 12.4348 54.8919C11.6522 54.5 11.087 53.9774 10.6957 53.4113C10.6087 53.4548 10.5652 53.4548 10.4783 53.3677C9.60869 52.2355 9.21739 50.929 8.95652 49.5355C8.63768 47.9968 8.27536 46.4581 7.86956 44.9194C6.95652 41.3484 5.91304 37.7774 4.91304 34.2065C3.95652 30.679 0.69565 17.3532 0.217389 14.8274C0.0434757 14.0871 0.478258 13.3032 0.652171 12.5629C0.782606 12.1274 0.913041 11.6484 1.04348 11.2129C1.3913 10.2984 1.86956 9.47097 2.43478 8.64355C3.52174 7.03226 5 5.63871 6.69565 4.6371C7.47826 4.20161 8.3913 3.85322 9.26087 3.59193C10.9565 3.06935 12.6957 3.02581 14.3913 3.46129C15.1739 3.67903 15.9565 4.02742 16.6087 4.50645C17.1304 4.85484 17.6087 5.15968 18.0435 5.55161C18.2609 5.8129 18.7826 6.11774 18.913 6.42258C19.0435 6.68387 19.0435 6.98871 19.0435 7.25C19.087 7.77258 18.9565 8.33871 19.0435 8.90484C19.1739 10.0806 19.2609 11.2565 19.4348 12.4323C19.6087 13.6226 19.7971 14.8129 20 16.0032C22.087 14.6532 24.4348 13.8694 26.8696 13.2597C29.5652 12.5629 32.1739 11.779 34.8261 10.9952C40.5217 9.29677 46.2609 7.77258 52.1304 6.72742C57.913 5.72581 63.7826 5.20323 69.6087 4.81129C75.6087 4.41935 81.6087 4.11452 87.6087 4.15806C94.087 4.20161 100.565 4.59355 107.043 4.72419C113.435 4.89839 119.783 5.02903 126.174 5.72581C132.391 6.37903 138.652 7.25 144.783 8.33871C147.942 8.91935 151.101 9.55806 154.261 10.2548C157.13 10.9081 160.043 11.5613 162.826 12.4323C163.174 10.2548 163.478 8.12097 163.696 5.94355C163.739 5.37742 164.348 5.07258 164.739 4.72419C165.058 4.40484 165.406 4.1 165.783 3.80968C168.522 1.6758 172.261 0.630645 175.783 1.02258C180.739 1.50161 184.217 4.59355 185.739 8.90484C186 9.68871 185.261 12.8242 184.87 14.5661ZM9.73913 50.0581C9.82608 48.7516 10.3913 47.3581 11.3478 46.1823C13.1304 44.0048 15.8696 42.1758 18.8696 42.1323C21.6087 42.0452 24.6522 43.5694 24.8261 46.3129C25.1304 44.7452 24.913 43.0032 24.7391 41.5226C24.1739 37.429 23.087 33.4661 22.087 29.4597C21.1304 25.5403 20.3478 21.621 19.6087 17.6581C19.2609 15.6984 18.9565 13.7387 18.6956 11.779C18.6087 10.821 18.3478 6.94516 18.2174 6.68387C18 6.29193 16.4783 5.20322 16.0435 4.89839C13.3043 2.89516 8.91304 3.85322 6.34782 5.63871C3.13043 7.81613 1.34782 11.0823 0.69565 14.6968C2.08695 21.1855 3.78261 27.6306 5.56522 34.0323C6.52174 37.4726 7.52174 40.9129 8.43478 44.3968C8.82608 45.9645 9.21739 47.5323 9.52174 49.1C9.57971 49.4194 9.65217 49.7387 9.73913 50.0581ZM172.696 46.7484C172.913 44.8323 172.565 42.35 171.13 40.8258C170.13 39.7806 168.696 39.171 167.217 38.9097C166.913 40.2161 166.391 41.5226 166.087 42.829C165.913 43.4823 165.783 44.2226 165.478 44.8758C165.304 45.921 164.217 46.7919 163.13 46.879C162.391 47.0532 161.565 46.9226 160.87 46.5742C158.87 45.921 157.435 44.2661 157.174 42.0887C156.913 40.1726 157.261 38.3 157.783 36.471C158.304 34.5113 158.87 32.5516 159.348 30.5919C160.348 26.5855 161.13 22.4919 161.826 18.3984C162.13 16.6565 162.435 14.871 162.739 13.0855C157.348 11.4306 151.696 10.2984 146.13 9.25322C140.391 8.20806 134.609 7.38064 128.826 6.68387C123.043 6.03064 117.174 5.50806 111.304 5.46452C105.478 5.42097 99.6522 5.11613 93.8696 4.94194C87.3913 4.72419 80.9565 4.85484 74.5217 5.15968C68.087 5.50806 61.6522 5.9 55.3043 6.85806C49.0435 7.77258 42.8696 9.29677 36.8261 11.0387C33.8696 11.9097 31 12.8242 28 13.5645C25.3043 14.2613 22.4783 15.0016 20.087 16.4823C20.2319 17.2952 20.3768 18.1081 20.5217 18.921C21.3478 23.1452 22.2609 27.2823 23.3043 31.4194C24.3043 35.3387 25.3913 39.3452 25.6087 43.3952C25.7391 45.8774 25.4783 48.9694 22.8261 50.2323C22.7971 50.2323 22.7536 50.2323 22.6957 50.2323C21.913 50.6677 20.9565 50.7984 20 50.5806C20 50.6242 19.9565 50.6677 19.8696 50.6677C16.7391 50.0581 16.1304 46.1387 15.6087 43.6565C13.3913 44.6581 11.5217 46.4871 10.6957 48.6645C10.2609 49.8839 10.087 51.321 10.7826 52.4968C11.6957 54.021 13.4348 54.7613 15.1304 55.1532C18.1739 55.85 21.2609 55.6323 24.2609 55.0226C26.1739 54.6306 28 54.0645 29.8696 53.5855C33.7826 52.5839 38.4783 50.8855 42.4348 49.8839C52.2609 47.4016 61.3913 45.7032 71.4783 44.3532C77.7826 43.5258 84.1739 43.0468 90.4783 42.6548C97 42.2629 103.522 42.1323 110 42.3064C116.391 42.5242 122.696 43.1339 129 44.0048C130.884 44.2661 132.768 44.5419 134.652 44.8323C137.913 45.3113 141.217 45.921 144.478 46.5742C147.174 47.1403 149.913 47.6629 152.478 48.5339C155 49.4048 157.391 50.5371 159.87 51.4952C161.826 52.2355 164 52.9323 166.087 52.8016C166.826 52.671 167.565 52.5403 168.261 52.3661C168.551 52.279 168.841 52.1629 169.13 52.0177C171.174 50.929 172.478 48.9694 172.696 46.7484ZM19 49.3613C20.6087 50.6242 23.1739 49.971 23.8696 48.0984C25.087 44.9194 22.087 42.8726 19.1304 42.7855C19.7391 43.7871 20.0435 44.9629 20.6522 45.9645C20.6956 46.0081 20.6522 46.0516 20.5652 46.0516C20.4783 45.9645 20.3913 45.8919 20.3043 45.8339C20.2754 45.8339 20.2464 45.8339 20.2174 45.8339C17.7826 45.2242 17.4348 48.1855 19 49.3613ZM19.9565 45.4855C19.6957 45.1806 19.4783 44.8758 19.3478 44.5274C19.087 44.0048 18.7391 43.3952 18.5652 42.829C18.2754 42.829 17.9855 42.8581 17.6957 42.9161C17.1159 43.0613 16.5362 43.25 15.9565 43.4823C16.4348 44.7016 16.6522 46.0081 17.1304 47.2274C17.2464 47.5468 17.3623 47.8516 17.4783 48.1419C17.1739 46.6177 18.0435 45.05 19.9565 45.4855ZM185.261 9.38387C184.522 6.94516 183.304 5.11613 181.087 3.59193C179.391 2.45968 177.391 1.71935 175.304 1.63226C171 1.37097 167.261 3.15645 164.087 5.76935C164.304 7.59839 164.043 9.47097 163.739 11.3C163.391 13.2597 163.043 15.1758 162.696 17.1355C162.087 20.8806 161.435 24.5823 160.565 28.2839C160.13 30.171 159.667 32.0435 159.174 33.9016C158.652 35.7742 158 37.7339 157.826 39.65C157.696 40.7823 157.739 42.0452 158.13 43.1339C158.087 41.9145 158.826 40.8258 159.783 40.0419C162.391 37.9516 166.522 37.5161 169.565 38.9532C172.957 40.521 174.13 44.7016 173.13 48.0113C172.783 49.3177 172.087 50.3629 171.217 51.2339C172.391 50.5371 173.304 49.579 174 48.4032C176.348 44.4403 177.739 39.8677 179.043 35.4694C180.348 31.0274 183.348 19.0952 184.174 14.6968C184.478 12.9113 185.174 11.0387 185.261 9.38387ZM163.609 41.4355C163.435 41.8274 163.261 42.35 162.913 42.6984C163.87 42.6113 164.913 42.9597 165.348 43.7435C165.696 42.1323 165.87 40.3903 166.565 38.8226C166.362 38.8226 166.174 38.8226 166 38.8226C165.536 38.7935 165.072 38.8081 164.609 38.8661C164.261 39.7371 163.957 40.6081 163.609 41.4355ZM163.87 38.9532C162.609 39.171 161.391 39.6064 160.435 40.3468C159.217 41.3484 158.261 42.829 159.174 44.3097C159.783 45.3548 161 46.2694 162.261 46.4435C163.348 46.3564 165.261 45.6597 164.87 44.3097C164.565 43.3516 163.478 42.9597 162.478 42.9597C162.391 42.9597 162.348 42.8726 162.391 42.7855C162.391 42.7565 162.406 42.7274 162.435 42.6984C162.957 42.1758 163.087 41.2177 163.304 40.5645C163.478 40.0419 163.652 39.4758 163.87 38.9532Z" fill="#0071BC"/>
<path d="M9.52173 49.1C9.21739 47.5323 8.82608 45.9645 8.43478 44.3968C7.52173 40.9129 6.52174 37.4726 5.56521 34.0323C3.7826 27.6306 2.08695 21.1855 0.695648 14.6968C1.34782 11.0823 3.13043 7.81613 6.34782 5.63871C8.91304 3.85323 13.3043 2.89516 16.0435 4.89839C16.4783 5.20323 18 6.29194 18.2174 6.68387C18.3478 6.94516 18.6087 10.821 18.6956 11.779C18.9565 13.7387 19.2609 15.6984 19.6087 17.6581C20.3478 21.621 21.1304 25.5403 22.087 29.4597C23.087 33.4661 24.1739 37.429 24.7391 41.5226C24.913 43.0032 25.1304 44.7452 24.8261 46.3129C24.6522 43.5694 21.6087 42.0452 18.8696 42.1323C15.8696 42.1758 13.1304 44.0048 11.3478 46.1823C10.3913 47.3581 9.82608 48.7516 9.73913 50.0581C9.65217 49.7387 9.57971 49.4194 9.52173 49.1Z" fill="#84EFE5"/>
<path d="M184.174 14.6968C183.348 19.0952 180.348 31.0274 179.043 35.4694C177.739 39.8677 176.348 44.4403 174 48.4032C173.304 49.579 172.391 50.5371 171.217 51.2339C172.087 50.3629 172.783 49.3177 173.13 48.0113C174.13 44.7016 172.957 40.521 169.565 38.9532C166.522 37.5161 162.391 37.9516 159.783 40.0419C158.826 40.8258 158.087 41.9145 158.13 43.1339C157.739 42.0452 157.696 40.7823 157.826 39.65C158 37.7339 158.652 35.7742 159.174 33.9016C159.667 32.0435 160.13 30.171 160.565 28.2839C161.435 24.5823 162.087 20.8806 162.696 17.1355C163.043 15.1758 163.391 13.2597 163.739 11.3C164.043 9.47096 164.304 7.59838 164.087 5.76935C167.261 3.15645 171 1.37096 175.304 1.63225C177.391 1.71935 179.391 2.45967 181.087 3.59193C183.304 5.11613 184.522 6.94516 185.261 9.38387C185.174 11.0387 184.478 12.9113 184.174 14.6968Z" fill="#84EFE5"/>
<g style="mix-blend-mode:multiply" opacity="0.52">
<path d="M10.9565 42.8726C8.21739 35.0339 6.73913 26.8468 5.34782 18.7032C4.65217 14.5226 4.30434 10.2548 5.3913 6.33549C2.7826 8.51291 1.30434 11.4742 0.695648 14.6968C2.08695 21.1855 3.7826 27.6306 5.56521 34.0323C6.52174 37.4726 7.52173 40.9129 8.43478 44.3968C8.82608 45.9645 9.21739 47.5323 9.52173 49.1C9.57971 49.4194 9.65217 49.7387 9.73913 50.0581C9.82608 48.7516 10.3913 47.3581 11.3478 46.1823C11.8696 45.5726 12.4348 45.0065 13.0435 44.4839C12.087 44.3968 11.3043 43.8306 10.9565 42.8726Z" fill="#6C6C65"/>
</g>
<g style="mix-blend-mode:multiply" opacity="0.52">
<path d="M24.7391 41.5226C24.1739 37.429 23.087 33.4661 22.087 29.4597C21.1304 25.5403 20.3478 21.621 19.6087 17.6581C19.2609 15.6984 18.9565 13.7387 18.6957 11.779C18.6087 10.821 18.3478 6.94516 18.2174 6.68387C18 6.29194 16.4783 5.20323 16.0435 4.89839C15.4783 4.4629 14.8261 4.20161 14.1739 4.02742C16.7391 7.42419 17.2609 13.2161 17.7391 16.6565C18.8696 25.3226 20.7391 34.3806 22.9565 43.2645C24 44.0048 24.7391 45.0065 24.8261 46.3129C25.1304 44.7452 24.913 43.0032 24.7391 41.5226Z" fill="#6C6C65"/>
</g>
<g style="mix-blend-mode:multiply" opacity="0.52">
<path d="M161.435 30.5484C162.348 26.0194 163.957 21.5774 164.739 17.0048C165.435 12.8242 165.913 7.38064 168.043 3.15645C166.652 3.85322 165.304 4.72419 164.087 5.76935C164.304 7.59838 164.043 9.47096 163.739 11.3C163.391 13.2597 163.043 15.1758 162.696 17.1355C162.087 20.8806 161.435 24.5823 160.565 28.2839C160.13 30.171 159.667 32.0435 159.174 33.9016C158.652 35.7742 158 37.7339 157.826 39.65C157.696 40.7823 157.739 42.0452 158.13 43.1339C158.087 42.0016 158.739 40.9564 159.609 40.1726C159.348 37.0371 160.87 33.4226 161.435 30.5484Z" fill="#6C6C65"/>
</g>
<g style="mix-blend-mode:multiply" opacity="0.52">
<path d="M181.783 4.11452C183.304 8.03387 182.957 12.8242 182.043 16.7436C180.043 25.1484 176.913 33.2919 174.957 41.7403C174.739 42.7419 174 43.2645 173.174 43.3516C173.609 44.8758 173.565 46.5306 173.13 48.0113C172.783 49.3177 172.087 50.3629 171.217 51.2339C172.391 50.5371 173.304 49.579 174 48.4032C176.348 44.4403 177.739 39.8677 179.043 35.4694C180.348 31.0274 183.348 19.0952 184.174 14.6968C184.478 12.9113 185.174 11.0387 185.261 9.38387C184.609 7.20645 183.565 5.50807 181.783 4.11452Z" fill="#6C6C65"/>
</g>
<path d="M11.6087 6.90161C10.9565 3.63548 14.9565 4.6371 14.9565 4.6371C11.4783 2.24194 5.91304 6.03065 5.91304 6.03065L5.3913 6.33548C6.34782 5.76936 8.43477 5.76935 9.13043 8.16452C9.7826 10.5597 16 42.6113 16 42.6113C17.3043 42.0887 18.8696 42.1323 18.8696 42.1323C18.8696 42.1323 12.3043 10.2113 11.6087 6.90161Z" fill="white"/>
<path d="M169.739 2.41613C173.087 1.85 174.913 2.98226 174.087 5.8129C173.304 8.6871 165.174 37.7339 165.174 37.7339L168.13 38.1258C168.13 38.1258 175.087 14 176.261 7.90323C177.478 1.85 181.783 4.11452 181.783 4.11452C176.304 -0.109677 169.739 2.41613 169.739 2.41613Z" fill="white"/>
<path d="M33.2609 11.9097C33.2609 11.9097 55.1739 3.50484 93.3478 4.6371C126.739 5.63871 137.565 6.77097 157.826 11.5177C157.826 11.5177 128.304 6.16129 91.7391 5.76936C55.1739 5.37742 33.2609 11.9097 33.2609 11.9097Z" fill="white"/>
<path d="M65.704 28.56C65.704 29.408 65.528 30.192 65.176 30.912C64.824 31.616 64.256 32.184 63.472 32.616C62.704 33.032 61.672 33.24 60.376 33.24C59.64 33.24 58.872 33.152 58.072 32.976C57.288 32.8 56.424 32.504 55.48 32.088L56.368 29.616C57.216 29.92 57.928 30.16 58.504 30.336C59.096 30.496 59.688 30.576 60.28 30.576C61.128 30.576 61.768 30.408 62.2 30.072C62.648 29.72 62.872 29.176 62.872 28.44V28.104C62.872 27.496 62.68 27.008 62.296 26.64C61.928 26.256 61.352 26.064 60.568 26.064H58.024V23.472H60.568C61.32 23.472 61.872 23.296 62.224 22.944C62.576 22.576 62.752 22.104 62.752 21.528V21.192C62.752 20.456 62.544 19.928 62.128 19.608C61.728 19.272 61.136 19.104 60.352 19.104C59.792 19.104 59.224 19.184 58.648 19.344C58.088 19.488 57.408 19.712 56.608 20.016L55.72 17.544C56.616 17.128 57.448 16.84 58.216 16.68C58.984 16.52 59.728 16.44 60.448 16.44C61.68 16.44 62.672 16.648 63.424 17.064C64.176 17.48 64.72 18.04 65.056 18.744C65.408 19.448 65.584 20.224 65.584 21.072V21.408C65.584 22.16 65.392 22.824 65.008 23.4C64.64 23.96 64.152 24.408 63.544 24.744C64.2 25.096 64.72 25.568 65.104 26.16C65.504 26.736 65.704 27.424 65.704 28.224V28.56ZM80.1034 23.112V26.544C80.1034 28.624 79.6154 30.264 78.6394 31.464C77.6634 32.648 76.2314 33.24 74.3434 33.24C72.4554 33.24 71.0234 32.648 70.0474 31.464C69.0714 30.264 68.5834 28.624 68.5834 26.544V23.112C68.5834 21.032 69.0714 19.4 70.0474 18.216C71.0234 17.032 72.4554 16.44 74.3434 16.44C76.2314 16.44 77.6634 17.032 78.6394 18.216C79.6154 19.4 80.1034 21.032 80.1034 23.112ZM77.1994 23.112C77.1994 20.44 76.2474 19.104 74.3434 19.104C73.3674 19.104 72.6474 19.44 72.1834 20.112C71.7194 20.784 71.4874 21.784 71.4874 23.112V26.544C71.4874 27.872 71.7194 28.88 72.1834 29.568C72.6474 30.24 73.3674 30.576 74.3434 30.576C76.2474 30.576 77.1994 29.232 77.1994 26.544V23.112ZM94.7519 23.112V26.544C94.7519 28.624 94.2639 30.264 93.2879 31.464C92.3119 32.648 90.8799 33.24 88.9919 33.24C87.1039 33.24 85.6719 32.648 84.6959 31.464C83.7199 30.264 83.2319 28.624 83.2319 26.544V23.112C83.2319 21.032 83.7199 19.4 84.6959 18.216C85.6719 17.032 87.1039 16.44 88.9919 16.44C90.8799 16.44 92.3119 17.032 93.2879 18.216C94.2639 19.4 94.7519 21.032 94.7519 23.112ZM91.8479 23.112C91.8479 20.44 90.8959 19.104 88.9919 19.104C88.0159 19.104 87.2959 19.44 86.8319 20.112C86.3679 20.784 86.1359 21.784 86.1359 23.112V26.544C86.1359 27.872 86.3679 28.88 86.8319 29.568C87.2959 30.24 88.0159 30.576 88.9919 30.576C90.8959 30.576 91.8479 29.232 91.8479 26.544V23.112ZM98.5763 33V16.68H103.952C105.664 16.68 106.944 17.112 107.792 17.976C108.656 18.84 109.088 19.992 109.088 21.432V22.704C109.088 24.144 108.656 25.304 107.792 26.184C106.944 27.048 105.664 27.48 103.952 27.48H101.456V33H98.5763ZM103.952 19.44H101.456V24.72H103.952C104.656 24.72 105.192 24.544 105.56 24.192C105.944 23.84 106.136 23.344 106.136 22.704V21.432C106.136 20.808 105.944 20.32 105.56 19.968C105.192 19.616 104.656 19.44 103.952 19.44ZM119.318 32.592C118.902 32.784 118.422 32.936 117.878 33.048C117.334 33.176 116.782 33.24 116.222 33.24C115.294 33.24 114.55 33.048 113.99 32.664C113.43 32.28 113.022 31.744 112.766 31.056C112.526 30.368 112.406 29.584 112.406 28.704V23.232H110.438V20.832H112.406V17.664H115.166V20.832H118.958V23.232H115.166V28.704C115.166 29.44 115.302 29.952 115.574 30.24C115.862 30.512 116.27 30.648 116.798 30.648C117.054 30.648 117.326 30.624 117.614 30.576C117.918 30.512 118.254 30.408 118.622 30.264L119.318 32.592ZM124.945 30.84C125.537 30.84 126.025 30.744 126.409 30.552C126.793 30.344 126.985 30.04 126.985 29.64C126.985 29.288 126.857 29.016 126.601 28.824C126.361 28.616 125.921 28.432 125.281 28.272L123.913 27.912C122.857 27.64 122.073 27.184 121.561 26.544C121.065 25.904 120.817 25.144 120.817 24.264C120.817 23.224 121.177 22.352 121.897 21.648C122.617 20.944 123.729 20.592 125.233 20.592C125.841 20.592 126.481 20.664 127.153 20.808C127.825 20.952 128.529 21.184 129.265 21.504L128.473 23.856C127.801 23.536 127.193 23.312 126.649 23.184C126.105 23.056 125.625 22.992 125.209 22.992C124.073 22.992 123.505 23.376 123.505 24.144C123.505 24.448 123.601 24.688 123.793 24.864C124.001 25.04 124.377 25.2 124.921 25.344L126.289 25.704C127.457 26.008 128.305 26.472 128.833 27.096C129.377 27.72 129.649 28.504 129.649 29.448C129.649 30.568 129.265 31.48 128.497 32.184C127.745 32.888 126.553 33.24 124.921 33.24C123.529 33.24 122.065 32.92 120.529 32.28L121.273 30C122.025 30.304 122.705 30.52 123.313 30.648C123.921 30.776 124.465 30.84 124.945 30.84Z" fill="white"/>
<defs>
<radialGradient id="paint0_radial_581_42" cx="0" cy="0" r="1" gradientUnits="userSpaceOnUse" gradientTransform="translate(679.605 333.081) rotate(4.23988) scale(141.491 148.941)">
<stop stop-color="#008586"/>
<stop offset="0.78" stop-color="#A7DBD6"/>
</radialGradient>
</defs>
</svg>
