<svg width="183" height="181" viewBox="0 0 183 181" fill="none" xmlns="http://www.w3.org/2000/svg">
<path fill-rule="evenodd" clip-rule="evenodd" d="M171.381 134.086C147.818 177.608 92.9706 193.446 48.9062 169.489C4.70874 145.665 -11.9319 91.0971 11.6312 47.5755C35.3275 4.05395 90.175 -11.7842 134.239 12.0396C178.304 35.9964 194.944 90.5647 171.381 134.086ZM129.713 14.7014C89.6425 -6.99281 39.5875 7.91366 17.8881 47.9748C-3.81126 88.036 10.9656 138.079 51.0362 159.773C91.1069 181.468 141.295 166.694 162.994 126.633C184.694 86.5719 169.784 36.3957 129.713 14.7014Z" fill="url(#paint0_linear_577_54)"/>
<path style="mix-blend-mode:multiply" d="M129.713 14.7014C89.6425 -6.9928 39.5875 7.91367 17.8881 47.9748C-3.81124 88.036 10.9656 138.079 51.0363 159.773C91.1069 181.468 141.295 166.694 162.994 126.633C184.694 86.5719 169.784 36.3957 129.713 14.7014Z" fill="url(#paint1_linear_577_54)"/>
<path d="M105.218 155.248C96.565 154.583 88.1781 153.119 80.0575 150.457C77.2619 153.784 74.3331 156.978 71.1381 159.906C81.1225 162.435 91.5062 163.5 101.624 162.835C102.822 160.306 104.02 157.777 105.218 155.248Z" fill="white"/>
<path d="M24.6775 60.8849C11.365 86.4389 14.9594 118.647 35.0613 139.41C39.8538 144.335 45.445 148.594 51.5688 151.921C55.8288 149.259 59.9556 146.331 64.0825 143.669C59.6894 141.14 55.2963 138.212 50.9031 134.619C41.185 126.766 34.2625 117.982 29.7363 106.27C24.8106 93.4928 22.2813 74.3273 24.9438 61.018C24.9438 61.018 24.8106 60.7518 24.6775 60.8849Z" fill="white"/>
<g style="mix-blend-mode:screen" opacity="0.4">
<path d="M127.983 22.2878C159.533 39.4568 171.781 77.7878 155.406 108.133C138.899 138.478 100.026 149.126 68.4756 132.09C36.925 114.921 24.6775 76.5899 41.185 46.2446C57.5594 15.8993 96.4319 5.2518 127.983 22.2878Z" fill="#B4F4FA"/>
</g>
<g style="mix-blend-mode:multiply" opacity="0.58">
<path d="M99.0944 23.3525C123.19 36.3957 131.311 68.205 117.199 94.2914C102.955 120.378 71.9369 130.892 47.8413 117.849C23.7456 104.806 15.625 72.9964 29.7363 46.9101C43.9806 20.8237 74.9988 10.3093 99.0944 23.3525Z" fill="#A6D5E8"/>
</g>
<path d="M151.546 57.8237C154.741 71.5324 150.081 84.4424 141.162 86.5719C132.109 88.5683 122.258 79.1187 118.93 65.4101C115.735 51.7014 120.394 38.7914 129.447 36.6619C138.366 34.6655 148.351 43.982 151.546 57.8237Z" fill="#B4F4FA"/>
<path d="M141.295 94.4245C145.954 96.9532 147.152 103.874 143.824 109.996C140.629 115.986 134.106 118.781 129.447 116.252C124.787 113.723 123.722 106.802 126.917 100.813C130.246 94.8237 136.636 91.8957 141.295 94.4245Z" fill="#B4F4FA"/>
<path d="M117.72 29.1647L111.283 28.9309L72.3993 87.2389H95.5004L77.8366 131.752L84.1556 131.869L125.567 72.9469L102.025 72.5085L117.72 29.1647Z" fill="#C5851A"/>
<path fill-rule="evenodd" clip-rule="evenodd" d="M84.1555 132.57L77.8072 132.453C77.6014 132.453 77.3663 132.336 77.2487 132.132C77.1312 131.956 77.1018 131.722 77.19 131.489L94.4717 87.9403H72.3993C72.1348 87.9403 71.8996 87.7942 71.7821 87.5604C71.6645 87.3558 71.6645 87.0635 71.8115 86.8589L110.695 28.551C110.813 28.3464 111.048 28.2295 111.283 28.2295L117.749 28.4633C117.955 28.4925 118.161 28.6094 118.308 28.7848C118.425 28.9601 118.454 29.194 118.366 29.3985L103.024 71.8362L125.567 72.2454C125.832 72.2454 126.067 72.3915 126.184 72.6254C126.302 72.8592 126.272 73.1222 126.125 73.3268L84.7434 132.278C84.5964 132.453 84.3907 132.57 84.1555 132.57ZM78.8652 131.079L83.8029 131.167L124.244 73.6191L102.025 73.2099C101.79 73.2099 101.584 73.093 101.467 72.9176C101.32 72.713 101.29 72.4792 101.378 72.2746L116.75 29.8369L111.636 29.6324L73.6925 86.5374H95.5004C95.7355 86.5374 95.9412 86.6543 96.0588 86.8589C96.2057 87.0343 96.2351 87.2973 96.1469 87.5019L78.8652 131.079Z" fill="#BD8034"/>
<g style="mix-blend-mode:multiply">
<path d="M105.493 62.922H88.5935L82.1276 72.6254H108.52L102.025 72.5085L105.493 62.922Z" fill="#F1B81A"/>
</g>
<g style="mix-blend-mode:multiply">
<path d="M89.4165 102.554L77.8365 131.752L84.1555 131.869L104.758 102.554H89.4165Z" fill="#F1B81A"/>
</g>
<path d="M111.313 29.1647L65.9921 87.2389H89.0932L77.7484 131.869L119.16 72.9469L95.6179 72.5085L111.313 29.1647Z" fill="#F1B81A"/>
<path fill-rule="evenodd" clip-rule="evenodd" d="M77.7484 132.57C77.6504 132.57 77.5525 132.551 77.4545 132.512C77.1606 132.365 76.9842 132.044 77.0724 131.722L88.1821 87.9404H65.9921C65.7276 87.9404 65.4631 87.7942 65.3455 87.5604C65.228 87.2974 65.2574 87.0343 65.4337 86.8297L110.754 28.7556C110.96 28.4633 111.342 28.4048 111.636 28.551C111.959 28.7263 112.077 29.0771 111.959 29.3986L96.6172 71.8362L119.16 72.2454C119.424 72.2454 119.66 72.3916 119.777 72.6254C119.895 72.8592 119.865 73.1222 119.718 73.3268L78.3362 132.278C78.1893 132.482 77.9835 132.57 77.7484 132.57ZM67.4029 86.5375H89.0932C89.2989 86.5375 89.5047 86.6544 89.6222 86.8005C89.7692 86.9759 89.828 87.2097 89.7692 87.4143L79.3649 128.361L117.837 73.6191L95.6179 73.2099C95.3828 73.2099 95.1771 73.093 95.0301 72.9176C94.9126 72.7131 94.8832 72.4792 94.9713 72.2747L109.167 33.0519L67.4029 86.5375Z" fill="#BC7232"/>
<defs>
<linearGradient id="paint0_linear_577_54" x1="-31522.9" y1="789.518" x2="36113.2" y2="789.518" gradientUnits="userSpaceOnUse">
<stop stop-color="white"/>
<stop offset="0.245192" stop-color="#87E5FF"/>
</linearGradient>
<linearGradient id="paint1_linear_577_54" x1="2350.07" y1="964.071" x2="22817.5" y2="964.071" gradientUnits="userSpaceOnUse">
<stop stop-color="white"/>
<stop offset="0.115385" stop-color="#87E5FF"/>
</linearGradient>
</defs>
</svg>
