<svg width="85" height="84" viewBox="0 0 85 84" fill="none" xmlns="http://www.w3.org/2000/svg">
<circle cx="42.5" cy="42" r="42" fill="#5562EA"/>
<g clip-path="url(#clip0_204_810)">
<mask id="mask0_204_810" style="mask-type:luminance" maskUnits="userSpaceOnUse" x="5" y="13" width="76" height="59">
<path d="M5.5 13H80.5V71.0986H5.5V13Z" fill="white"/>
</mask>
<g mask="url(#mask0_204_810)">
<path d="M56.7066 29.1352C54.2828 28.023 51.6836 27.2037 48.966 26.7344C48.9166 26.7253 48.8671 26.7479 48.8416 26.7932C48.5074 27.3877 48.1371 28.1634 47.8778 28.773C44.9549 28.3354 42.047 28.3354 39.184 28.773C38.9246 28.1498 38.5409 27.3877 38.2052 26.7932C38.1797 26.7495 38.1302 26.7268 38.0807 26.7344C35.3647 27.2022 32.7655 28.0215 30.3402 29.1352C30.3192 29.1442 30.3012 29.1593 30.2893 29.1789C25.3593 36.5443 24.0087 43.7286 24.6713 50.8239C24.6742 50.8586 24.6937 50.8918 24.7207 50.9129C27.9734 53.3016 31.1242 54.7517 34.2165 55.7129C34.266 55.728 34.3184 55.7099 34.3499 55.6692C35.0814 54.6703 35.7334 53.617 36.2925 52.5094C36.3255 52.4445 36.294 52.3675 36.2266 52.3419C35.1923 51.9495 34.2075 51.4712 33.2601 50.928C33.1852 50.8842 33.1792 50.777 33.2482 50.7257C33.4475 50.5764 33.6469 50.4209 33.8373 50.264C33.8717 50.2353 33.9197 50.2293 33.9602 50.2474C40.1837 53.0888 46.9215 53.0888 53.0716 50.2474C53.1121 50.2278 53.1601 50.2338 53.196 50.2625C53.3864 50.4194 53.5858 50.5764 53.7866 50.7257C53.8556 50.777 53.8511 50.8842 53.7761 50.928C52.8288 51.4817 51.844 51.9495 50.8082 52.3404C50.7408 52.366 50.7108 52.4445 50.7438 52.5094C51.3149 53.6154 51.9669 54.6687 52.6849 55.6677C52.7149 55.7099 52.7688 55.728 52.8183 55.7129C55.9256 54.7517 59.0763 53.3016 62.329 50.9129C62.3575 50.8918 62.3755 50.8601 62.3785 50.8254C63.1714 42.6225 61.0504 35.4971 56.756 29.1804C56.7455 29.1593 56.7275 29.1442 56.7066 29.1352ZM37.2219 46.5036C35.3482 46.5036 33.8043 44.7834 33.8043 42.6708C33.8043 40.5582 35.3182 38.838 37.2219 38.838C39.1405 38.838 40.6694 40.5733 40.6394 42.6708C40.6394 44.7834 39.1255 46.5036 37.2219 46.5036ZM49.8579 46.5036C47.9842 46.5036 46.4403 44.7834 46.4403 42.6708C46.4403 40.5582 47.9542 38.838 49.8579 38.838C51.7765 38.838 53.3054 40.5733 53.2755 42.6708C53.2755 44.7834 51.7765 46.5036 49.8579 46.5036Z" fill="white"/>
</g>
</g>
<defs>
<clipPath id="clip0_204_810">
<rect width="75" height="58.0986" fill="white" transform="translate(5.5 13)"/>
</clipPath>
</defs>
</svg>
