<?xml version="1.0" standalone="no"?>
<!DOCTYPE svg PUBLIC "-//W3C//DTD SVG 20010904//EN"
 "http://www.w3.org/TR/2001/REC-SVG-20010904/DTD/svg10.dtd">
<svg version="1.0" xmlns="http://www.w3.org/2000/svg"
 width="411.000000pt" height="396.000000pt" viewBox="0 0 411.000000 396.000000"
 preserveAspectRatio="xMidYMid meet">
<metadata>
Created by potrace 1.16, written by Peter Selinger 2001-2019
</metadata>
<g transform="translate(0.000000,396.000000) scale(0.100000,-0.100000)"
fill="#000000" stroke="none">
<path d="M0 1980 l0 -1980 955 0 c741 1 955 3 955 13 0 7 -14 28 -31 47 -17
19 -35 46 -40 59 -12 31 -1 105 23 156 13 29 17 32 13 13 -3 -14 -8 -33 -11
-42 -3 -9 -1 -16 6 -16 6 0 8 -4 5 -10 -3 -5 -1 -10 5 -10 7 0 9 8 5 21 -6 18
-5 20 14 10 23 -13 25 -7 23 111 -1 72 12 84 16 15 4 -81 22 -288 28 -329 l6
-38 104 0 c76 0 104 3 104 13 0 6 -14 92 -32 190 l-32 178 30 30 c27 26 33 29
58 19 31 -11 31 -13 6 -205 -5 -38 -12 -105 -16 -147 -6 -75 -5 -78 15 -78 16
0 21 7 22 28 2 24 2 25 6 4 3 -15 10 -22 18 -18 8 3 17 1 20 -4 4 -6 363 -10
920 -10 l915 0 0 1980 0 1980 -2055 0 -2055 0 0 -1980z m2050 1451 c-47 -97
-50 -243 -6 -330 37 -71 89 -117 169 -147 114 -44 180 -128 242 -309 33 -96
44 -111 69 -92 14 10 19 36 27 122 5 61 14 133 20 160 39 173 171 294 330 303
79 5 114 -10 151 -65 42 -61 51 -106 45 -212 -6 -108 -26 -178 -93 -319 -54
-116 -100 -180 -171 -237 -61 -50 -73 -54 -73 -25 0 27 -36 44 -92 43 -51 -1
-53 2 -38 41 l9 26 47 -20 c25 -11 52 -20 59 -20 49 0 227 208 287 336 31 64
33 76 33 174 0 93 -3 109 -23 143 -107 172 -379 -16 -423 -293 -7 -41 -18 -82
-25 -91 -8 -8 -14 -24 -14 -33 0 -16 6 -17 38 -11 49 9 59 20 77 90 46 177
153 306 242 292 44 -8 69 -39 83 -105 15 -68 1 -130 -45 -206 -87 -145 -197
-232 -240 -190 -13 13 -15 27 -10 61 6 39 4 44 -11 41 -22 -4 -62 -71 -99
-167 -16 -41 -44 -90 -62 -109 -32 -34 -34 -35 -48 -16 -8 10 -15 23 -15 27 0
16 -74 123 -122 179 -59 68 -171 156 -253 197 -44 23 -74 31 -113 31 -63 0
-98 -16 -140 -65 -37 -41 -47 -73 -38 -118 9 -42 9 -54 1 -103 l-7 -41 -77 -6
c-76 -6 -178 -31 -195 -48 -22 -20 9 -20 116 0 118 22 178 27 178 13 0 -5 37
-50 83 -101 152 -168 196 -269 197 -446 1 -198 32 -289 134 -391 l61 -61 -47
-102 c-76 -164 -129 -348 -143 -503 -10 -102 -37 -104 -51 -4 -10 76 -29 122
-80 193 -115 161 -248 218 -600 258 -125 14 -250 38 -263 50 -2 3 1 10 6 17
13 16 33 98 33 133 0 18 7 28 24 35 13 5 27 18 31 30 9 27 -18 68 -47 72 -16
2 -24 11 -26 28 -2 14 -9 52 -17 86 -31 128 -12 285 52 424 l34 75 20 -24 c29
-36 52 -127 46 -182 -3 -27 -23 -83 -44 -126 -32 -66 -38 -88 -37 -139 2 -166
138 -223 320 -134 61 30 120 92 170 178 10 18 49 53 85 77 37 24 76 56 88 71
24 31 27 80 7 128 -38 91 -156 88 -226 -7 -42 -58 -25 -67 25 -13 39 43 45 46
93 46 43 0 54 -4 71 -26 43 -55 23 -104 -67 -165 -48 -32 -84 -67 -127 -126
-73 -98 -129 -139 -212 -155 -53 -10 -68 -9 -107 6 -100 38 -118 128 -51 256
31 61 39 89 43 145 4 66 2 74 -35 145 l-39 76 23 49 c26 55 26 114 0 143 -9
11 -13 29 -10 49 7 45 -2 74 -34 109 -61 68 -139 82 -223 39 l-48 -25 -57 26
c-54 23 -56 26 -41 43 39 43 8 53 -168 54 -127 0 -163 -8 -203 -45 -29 -28
-29 -20 5 82 l29 85 84 7 c195 15 392 97 679 283 201 130 411 252 559 323 140
68 222 103 228 97 2 -1 -6 -20 -17 -44z m13 -785 c144 -52 301 -203 384 -371
103 -207 183 -548 183 -776 0 -178 -24 -214 -121 -178 -94 35 -143 63 -192
112 -68 67 -94 134 -118 296 -40 276 -80 369 -239 547 -73 81 -101 137 -81
157 14 14 44 -3 110 -60 143 -123 211 -211 268 -347 38 -89 53 -112 53 -79 0
29 -51 152 -92 221 -37 65 -157 188 -268 278 -66 53 -75 64 -78 97 -3 32 0 37
22 43 37 9 85 -11 166 -67 178 -125 291 -291 330 -481 12 -61 30 -78 30 -29 0
67 -66 233 -128 323 -68 99 -195 209 -302 264 -70 35 -68 33 -46 50 24 17 69
17 119 0z m-1564 -164 c39 -4 174 13 279 34 57 12 81 13 108 4 19 -6 34 -15
34 -19 0 -4 -16 -23 -36 -42 -57 -55 -121 -150 -169 -253 -25 -53 -45 -102
-45 -110 0 -8 -4 -17 -8 -20 -11 -6 -197 238 -212 279 -13 34 -15 138 -3 181
8 29 8 29 13 -11 5 -37 8 -40 39 -43z m611 30 c0 -4 -18 -26 -41 -47 -51 -50
-157 -185 -193 -246 -39 -69 -74 -181 -87 -278 -10 -85 -5 -191 10 -191 5 0
11 53 14 118 11 221 86 382 255 545 72 69 98 79 126 51 25 -25 19 -59 -21
-111 -20 -26 -59 -77 -87 -113 -59 -78 -128 -220 -150 -311 -17 -69 -22 -214
-7 -205 4 3 11 36 14 73 17 182 92 344 221 481 46 49 51 52 63 36 23 -31 14
-64 -39 -156 -66 -114 -104 -224 -119 -339 -10 -78 -9 -106 7 -202 10 -62 18
-153 18 -203 0 -82 -3 -97 -31 -155 -37 -74 -84 -124 -167 -173 -76 -46 -107
-46 -139 -3 -13 17 -29 46 -35 62 -25 63 -44 238 -49 455 -8 317 10 438 91
605 71 147 163 257 250 296 42 19 96 25 96 11z m1586 -255 c5 -15 -27 -106
-69 -196 l-26 -54 -10 39 c-34 130 -34 133 -17 159 32 49 110 82 122 52z
m-2104 -279 c37 -21 39 -25 34 -58 -3 -19 -6 -59 -6 -87 0 -29 -4 -53 -9 -53
-10 0 -131 184 -131 199 0 27 63 26 112 -1z m1465 -1573 l23 -34 -29 -128
c-16 -70 -32 -148 -36 -173 -5 -25 -9 -40 -11 -35 -9 26 -32 358 -27 373 16
43 52 42 80 -3z"/>
<path d="M1750 2981 c-68 -22 -214 -122 -264 -181 -28 -34 -32 -51 -16 -80 8
-15 3 -33 -25 -83 -42 -76 -51 -133 -35 -213 24 -123 157 -348 232 -392 46
-27 42 -6 -9 41 -26 25 -70 81 -96 125 -91 150 -120 256 -97 350 12 54 62 122
88 122 14 0 117 58 147 82 6 5 38 29 73 54 35 25 78 65 95 90 30 43 34 45 67
40 56 -9 151 -61 219 -120 71 -62 93 -71 61 -26 -33 46 -121 119 -176 145 -75
36 -218 61 -264 46z"/>
<path d="M1953 1799 c-22 -141 -113 -266 -221 -304 -26 -9 -84 -19 -129 -22
-121 -8 -102 -38 22 -36 116 3 233 67 293 161 43 66 72 154 72 219 0 80 -23
70 -37 -18z"/>
</g>
</svg>
