<svg width="85" height="84" viewBox="0 0 85 84" fill="none" xmlns="http://www.w3.org/2000/svg">
<circle cx="42.5" cy="42" r="42" fill="white"/>
<g clip-path="url(#clip0_204_817)">
<path d="M60.5 42.8831C60.5 41.3685 60.3775 40.2632 60.1123 39.117H42.8674V45.9532H52.9897C52.7857 47.652 51.6837 50.2105 49.2347 51.9297L49.2003 52.1586L54.6529 56.3949L55.0306 56.4327C58.4999 53.2192 60.5 48.4912 60.5 42.8831Z" fill="#4285F4"/>
<path d="M42.8673 60.8947C47.8264 60.8947 51.9896 59.2572 55.0306 56.4327L49.2346 51.9297C47.6836 53.0145 45.6019 53.7718 42.8673 53.7718C38.0102 53.7718 33.8878 50.5585 32.4183 46.117L32.2029 46.1353L26.5333 50.5359L26.4591 50.7426C29.4795 56.7601 35.6836 60.8947 42.8673 60.8947Z" fill="#34A853"/>
<path d="M32.4183 46.117C32.0305 44.9708 31.8061 43.7426 31.8061 42.4737C31.8061 41.2046 32.0305 39.9766 32.3979 38.8304L32.3876 38.5863L26.647 34.1151L26.4591 34.2047C25.2143 36.7018 24.5 39.5059 24.5 42.4737C24.5 45.4415 25.2143 48.2455 26.4591 50.7426L32.4183 46.117Z" fill="#FBBC05"/>
<path d="M42.8673 31.1755C46.3163 31.1755 48.6427 32.6696 49.9693 33.9183L55.153 28.8422C51.9694 25.8744 47.8264 24.0528 42.8673 24.0528C35.6836 24.0528 29.4795 28.1872 26.4591 34.2047L32.3979 38.8305C33.8878 34.389 38.0102 31.1755 42.8673 31.1755Z" fill="#EB4335"/>
</g>
<defs>
<clipPath id="clip0_204_817">
<rect width="36" height="36.9474" fill="white" transform="translate(24.5 24)"/>
</clipPath>
</defs>
</svg>
