<svg width="194" height="62" viewBox="0 0 194 62" fill="none" xmlns="http://www.w3.org/2000/svg">
<path d="M188.294 42.5671C186.35 46.6388 184.067 49.8159 181.447 52.0985C169.993 52.1601 158.518 52.2527 147.021 52.3761C137.427 52.4994 127.833 52.592 118.238 52.6537C117.604 52.6537 116.97 52.7462 116.336 52.6537C115.829 52.5611 115.449 52.191 114.942 52.0985C114.371 51.9134 114.054 52.4686 113.547 52.6537C113.166 52.7462 112.786 52.6537 112.342 52.6537C111.328 52.7154 110.292 52.7462 109.236 52.7462C107.207 52.7462 105.199 52.7462 103.213 52.7462C100.677 52.7462 98.1621 52.7462 95.6684 52.7462C94.4004 52.7462 93.1536 52.7462 91.9279 52.7462C90.8501 52.7462 89.7089 52.3761 88.6946 52.6537C88.441 52.6537 88.2508 52.7462 87.9972 52.7462C87.807 52.6537 87.6802 52.5611 87.49 52.4686C87.1519 52.2218 86.8137 52.0059 86.4756 51.8208C86.0952 51.5432 85.6514 51.2656 85.271 51.1731C84.8272 51.1731 84.4469 51.4507 84.0665 51.6358C83.3691 52.0059 82.5449 52.6537 81.7841 52.7462C81.2135 52.8388 80.4527 52.6537 79.8821 52.6537C78.1915 52.6537 76.522 52.6537 74.8736 52.6537C71.6192 52.592 68.3647 52.5611 65.1102 52.5611C55.051 52.4378 44.9917 52.3452 34.9325 52.2835L15.0887 52.0985C12.4682 49.8159 10.1859 46.6388 8.24163 42.5671C7.86124 35.3492 7.67104 28.594 7.86124 22.2089C9.573 17.7671 11.792 14.2507 14.7083 11.9373C15.2789 11.2895 16.9272 11.9373 17.2442 11.9373C19.5266 11.9373 21.8089 12.0298 24.1547 12.0298C28.0854 12.0298 32.5233 11.1044 36.3272 12.9552C36.5174 13.0477 36.7076 13.1402 36.8978 13.1402C37.0246 13.0477 37.2148 12.9552 37.3416 12.8626C39.941 10.9193 43.7449 11.9373 46.5978 11.9373C62.8279 11.8447 79.1214 11.382 95.3514 11.4746C105.305 11.4746 115.259 11.5671 125.212 11.6596C129.735 11.7213 134.257 11.783 138.78 11.8447C141.062 11.8447 143.344 11.8447 145.627 11.8447C146.768 11.9373 147.909 11.8447 149.114 11.8447C149.557 11.8447 150.255 11.7522 150.762 12.0298C151.142 12.2149 151.142 12.6776 151.523 12.9552C151.776 13.2328 152.157 12.9552 152.41 12.6776C152.854 12.3074 153.108 11.9373 153.678 11.9373C154.65 11.9373 155.601 11.9373 156.531 11.9373C158.391 11.9989 160.272 12.0298 162.174 12.0298C165.893 12.0298 169.612 12.0298 173.332 12.0298C175.424 12.0298 177.516 12.0298 179.608 12.0298C180.052 12.0298 181.447 11.5671 181.827 11.9373C184.744 14.2507 186.963 17.7671 188.611 22.2089C189.118 23.4119 188.738 26.6507 188.738 28.0388C188.738 30.0746 188.738 31.2776 188.104 32.9432C187.85 33.8686 188.547 35.8119 188.547 36.9223C188.547 38.1253 188.738 41.5492 188.294 42.5671Z" fill="#4BC98A"/>
<path d="M188.294 41.4568C186.35 45.5284 184.067 48.7055 181.447 50.9881C169.993 51.0498 158.518 51.1423 147.021 51.2657C137.427 51.3891 127.833 51.4816 118.238 51.5433C117.604 51.5433 116.97 51.6359 116.336 51.5433C115.829 51.4508 115.449 51.0806 114.942 50.9881C114.371 50.803 114.054 51.2657 113.547 51.5433C113.166 51.6359 112.786 51.5433 112.342 51.5433C111.328 51.605 110.292 51.6359 109.236 51.6359C107.207 51.6359 105.199 51.6359 103.213 51.6359C100.677 51.6359 98.1621 51.6359 95.6684 51.6359C94.4004 51.6359 93.1536 51.6359 91.9279 51.6359C90.8501 51.6359 89.7089 51.2657 88.6946 51.5433C88.441 51.5433 88.2508 51.6359 87.9972 51.6359C87.807 51.5433 87.6802 51.4508 87.49 51.3582C87.1519 51.1115 86.8137 50.8647 86.4756 50.6179C86.0952 50.4329 85.6514 50.1553 85.271 50.0627C84.8272 50.0627 84.4469 50.2478 84.0665 50.5254C83.3691 50.8956 82.5449 51.5433 81.7841 51.6359C81.2135 51.7284 80.4527 51.5433 79.8821 51.5433C78.1915 51.5433 76.522 51.5433 74.8736 51.5433C71.6192 51.4816 68.3647 51.4508 65.1102 51.4508C55.051 51.3274 44.9917 51.2349 34.9325 51.1732L15.0887 50.9881C12.4682 48.7055 10.1859 45.5284 8.24163 41.4568C7.86124 34.2388 7.67104 27.4836 7.86124 21.0985C9.573 16.6568 11.792 13.1403 14.7083 10.8269C15.2789 10.1791 16.9272 10.8269 17.2442 10.8269C19.5266 10.8269 21.8089 10.9194 24.1547 10.9194C28.0854 10.9194 32.5233 9.99407 36.3272 11.8448C36.5174 11.9374 36.7076 12.0299 36.8978 12.0299C37.0246 11.9374 37.2148 11.8448 37.3416 11.7523C39.941 9.80899 43.7449 10.8269 46.5978 10.8269C62.8279 10.7344 79.1214 10.2717 95.3514 10.3642C105.305 10.3642 115.259 10.4568 125.212 10.5493C129.735 10.611 134.257 10.6727 138.78 10.7344C141.062 10.7344 143.344 10.7344 145.627 10.7344C146.768 10.8269 147.909 10.7344 149.114 10.7344C149.557 10.7344 150.255 10.6418 150.762 10.9194C151.142 11.1045 151.142 11.5672 151.523 11.8448C151.776 12.1224 152.157 11.8448 152.41 11.5672C152.854 11.1971 153.108 10.8269 153.678 10.8269C154.65 10.8269 155.601 10.8269 156.531 10.8269C158.391 10.8886 160.272 10.9194 162.174 10.9194C165.893 10.9194 169.612 10.9194 173.332 10.9194C175.424 10.9194 177.516 10.9194 179.608 10.9194C180.052 10.9194 181.447 10.4568 181.827 10.8269C184.744 13.1403 186.963 16.6568 188.611 21.0985C189.118 22.3015 188.738 25.5403 188.738 26.9284C188.738 28.9642 188.738 30.1672 188.104 31.8329C187.85 32.7582 188.547 34.7015 188.547 35.812C188.547 37.015 188.738 40.4388 188.294 41.4568Z" fill="url(#paint0_linear_1644_207)"/>
<path d="M185.695 36.3674C185.695 37.1077 185.885 39.3286 185.568 39.9763C184.088 42.8141 182.44 45.0967 180.623 46.8241L147.021 47.1942L136.434 47.2868C132.714 47.2868 128.995 47.3176 125.276 47.3793C123.416 47.3793 121.556 47.4102 119.697 47.4719C118.809 47.4719 117.858 47.5644 116.907 47.4719C116.083 47.2868 115.576 46.8241 114.815 46.2689C114.625 46.1763 114.434 45.9913 114.181 46.0838C113.864 46.0838 113.674 46.5465 113.483 46.9166C112.913 48.1196 110.821 47.4719 109.933 47.4719C108.496 47.4719 107.059 47.5027 105.622 47.5644C104.1 47.5644 102.579 47.5644 101.057 47.5644C99.7048 47.5644 98.3312 47.5644 96.9364 47.5644C95.5839 47.5644 94.2103 47.5644 92.8155 47.5644C91.6109 47.5644 90.7868 47.1942 89.5822 46.7316C88.6946 46.4539 87.6802 47.1942 86.9194 46.4539C86.6024 46.1763 86.4122 45.7136 86.0952 45.5286C85.7783 45.436 85.5247 45.6211 85.2077 45.8062C84.0665 46.5465 82.7351 47.2868 81.5305 47.4719C79.1214 47.7495 76.6488 47.4719 74.3031 47.3793C72.3589 47.3793 70.3935 47.3793 68.407 47.3793C64.9412 47.3176 61.4543 47.2868 57.9462 47.2868C51.5218 47.2251 45.0763 47.1634 38.6096 47.1017C33.2841 47.04 27.9375 46.9783 22.5698 46.9166C20.9214 46.9166 19.2942 46.9166 17.6881 46.9166C17.3077 46.9166 16.2299 47.1942 15.9129 46.8241C14.0743 45.1584 12.426 42.845 10.9678 39.9763C10.9255 39.3594 10.9044 38.7733 10.9044 38.2181C10.9044 38.1564 10.9044 38.0947 10.9044 38.0331C10.8621 37.7863 10.841 37.5395 10.841 37.2928C10.5874 31.9256 10.524 26.9286 10.6508 22.3017C11.9822 18.9704 13.6939 16.4719 15.7861 14.6211C15.9763 14.6211 16.2299 14.7136 16.3567 14.7136C16.6737 14.8062 16.8639 14.8987 17.1809 14.8987C18.0684 14.8987 18.9349 14.9296 19.7802 14.9913C21.2172 14.9913 22.6543 15.0221 24.0913 15.0838C26.2891 15.0221 28.5081 14.9913 30.7482 14.9913C31.8894 14.9913 33.0305 14.9913 34.1717 14.9913C35.1861 15.0838 36.0103 15.7316 36.9613 16.1942C37.1515 16.1942 37.3417 16.2868 37.5318 16.1942C37.6586 16.1017 37.722 16.0092 37.7854 15.9166C38.7998 14.436 40.575 14.9913 41.843 14.9913C43.4491 14.9296 45.034 14.8987 46.5979 14.8987C49.007 14.8987 51.4162 14.8679 53.8253 14.8062C57.6715 14.8062 61.5177 14.7753 65.3639 14.7136C74.6201 14.5286 84.1933 14.436 93.6397 14.436H95.3514C107.017 14.436 118.936 14.6211 130.474 14.7136C133.982 14.7753 137.469 14.8062 140.935 14.8062C142.668 14.8679 144.422 14.8987 146.197 14.8987C147.655 14.8987 149.24 14.5286 150.762 14.7136C150.677 16.1326 150.593 17.5206 150.508 18.8778C150.72 18.3843 150.952 17.8908 151.206 17.3972C151.523 16.6569 151.713 16.1017 151.903 15.3614C151.966 15.2689 151.966 15.0838 152.093 15.0838C152.136 15.0221 152.199 14.9913 152.283 14.9913C155.644 14.8987 159.067 14.9913 162.427 14.9913C165.851 15.053 169.295 15.0838 172.761 15.0838H174.853C176.459 15.0838 178.066 15.053 179.672 14.9913C179.989 14.9913 180.369 14.8987 180.686 14.8987C181.257 14.8987 181.827 15.5465 182.208 16.1017C182.715 16.6569 183.159 17.2122 183.539 17.8599C184.004 18.4768 184.427 19.1554 184.807 19.8957C184.976 20.2659 185.145 20.636 185.314 21.0062C185.441 21.2838 185.885 21.9316 185.885 22.3017C185.927 24.2141 185.927 26.1266 185.885 28.039C185.885 28.8719 186.012 29.9823 185.758 30.7226C185.441 31.3704 184.934 31.648 185.124 32.6659C185.187 32.9435 185.314 33.2211 185.378 33.4987C185.462 33.6838 185.526 33.8689 185.568 34.0539C185.821 34.7942 185.758 35.3495 185.695 36.3674Z" fill="url(#paint1_linear_1644_207)"/>
<path d="M180.623 37.3852C181.891 38.1255 182.018 40.8091 180.687 41.6419C177.834 43.5852 178.214 36.0897 180.496 37.2927C180.539 37.2927 180.581 37.3235 180.623 37.3852Z" fill="url(#paint2_radial_1644_207)"/>
<path d="M140.048 20.0806C141.95 19.6179 143.471 22.6716 142.393 25.1701C140.048 30.6298 136.561 21.2836 139.857 20.1731C139.942 20.1731 140.005 20.1423 140.048 20.0806Z" fill="url(#paint3_radial_1644_207)"/>
<path d="M16.9273 24.3372C15.5325 23.9671 14.4548 26.188 15.2156 27.9462C16.9273 31.9253 19.3999 25.1701 16.9907 24.3372C16.9907 24.3372 16.9696 24.3372 16.9273 24.3372Z" fill="url(#paint4_radial_1644_207)"/>
<path d="M98.0146 36.2747C99.9166 35.812 101.438 38.7732 100.36 41.2717C98.078 46.7314 94.5911 37.3852 97.8878 36.2747C97.9301 36.2747 97.9723 36.2747 98.0146 36.2747Z" fill="url(#paint5_radial_1644_207)"/>
<path d="M104.291 39.0508C105.052 38.8657 105.622 40.0687 105.242 40.9941C104.291 43.2149 102.896 39.5135 104.228 39.0508C104.228 39.0508 104.249 39.0508 104.291 39.0508Z" fill="url(#paint6_radial_1644_207)"/>
<path d="M59.1508 23.1342C59.9116 22.9492 60.5456 24.1521 60.1018 25.1701C59.1508 27.2984 57.8195 23.5969 59.0874 23.2268C59.1297 23.1651 59.1508 23.1342 59.1508 23.1342Z" fill="url(#paint7_radial_1644_207)"/>
<path d="M19.9706 23.4117C20.5412 23.3192 20.985 24.2445 20.668 24.9848C19.9706 26.6505 18.8928 23.7819 19.9072 23.5042C19.9072 23.4425 19.9283 23.4117 19.9706 23.4117Z" fill="url(#paint8_radial_1644_207)"/>
<path d="M36.2639 40.161C37.4051 39.8834 38.2927 41.6416 37.6587 43.2147C36.2639 46.4535 34.1718 40.9013 36.1371 40.161C36.1794 40.161 36.2217 40.161 36.2639 40.161Z" fill="url(#paint9_radial_1644_207)"/>
<path style="mix-blend-mode:screen" opacity="0.29" d="M101.058 47.5644C99.7052 47.5644 98.3316 47.5644 96.9368 47.5644C95.5843 47.5644 94.2106 47.5644 92.8159 47.5644C91.6113 47.5644 90.7871 47.1942 89.5826 46.7316C88.695 46.4539 87.6806 47.1942 86.9198 46.4539C86.6028 46.1763 86.4126 45.7136 86.0956 45.5286C85.7786 45.436 85.525 45.6211 85.208 45.8062C84.0669 46.5465 82.7355 47.2868 81.5309 47.4719C79.1218 47.7495 76.6492 47.4719 74.3035 47.3793C72.3592 47.3793 70.3939 47.3793 68.4074 47.3793L53.8257 14.8062C57.6719 14.8062 61.5181 14.7753 65.3642 14.7136C74.6205 14.5286 84.1937 14.436 93.6401 14.436H95.225L101.058 47.5644Z" fill="url(#paint10_linear_1644_207)"/>
<path d="M185.758 30.7226C185.441 31.3704 184.934 31.648 185.124 32.6659C185.187 32.9435 185.314 33.2211 185.378 33.4987C185.462 33.6838 185.526 33.8689 185.568 34.0539C185.124 33.2211 184.744 32.2957 184.934 31.3704C185.061 31.0002 185.187 30.7226 185.251 30.445C185.441 29.7972 185.441 29.0569 185.441 28.3166C185.441 24.245 184.617 21.0987 182.715 18.1375C181.003 15.3614 178.911 15.9166 176.565 15.9166C173.987 15.9166 171.388 15.9166 168.767 15.9166C163.611 15.8549 158.433 15.8241 153.234 15.8241C152.791 15.8241 152.283 15.3614 152.03 16.0092C151.523 17.4281 151.016 18.847 150.508 20.2659C150.382 19.1554 150.318 16.6569 149.431 16.2868C148.923 16.1017 148.353 16.5644 147.782 16.4719C147.275 16.2868 146.768 16.1017 146.261 15.9166C145.183 15.639 144.042 16.0092 142.964 16.1017C140.512 16.2251 138.061 16.2868 135.61 16.2868C134.046 16.2868 132.461 16.2559 130.855 16.1942C129.418 16.1326 127.96 16.0709 126.48 16.0092C119.189 15.8241 111.899 15.1763 104.608 15.4539C97.2534 15.7316 89.8992 16.0092 82.4815 15.9166C68.09 15.7316 53.7619 15.9166 39.3704 15.9166C38.673 15.9166 38.2292 17.1196 37.5318 17.2122C37.3417 17.3047 37.1515 17.2122 36.9613 17.1196C36.3907 16.9345 35.8835 16.4719 35.3129 16.4719C29.7338 16.4102 24.1547 16.3176 18.5756 16.1942C17.5613 16.1942 16.6737 16.1017 15.9129 16.9345C14.9408 17.9216 14.0321 19.0012 13.1867 20.1733C11.0946 22.9495 11.158 26.2808 11.0946 30.1674C11.0312 32.5733 11.0946 34.9793 10.841 37.2928C10.5874 31.9256 10.524 26.9286 10.6508 22.2092C11.9822 18.9704 13.6939 16.4719 15.7861 14.6211C15.9763 14.6211 16.2299 14.7136 16.3567 14.7136C16.6737 14.8062 16.8639 14.8987 17.1809 14.8987C18.0684 14.8987 18.9349 14.9296 19.7802 14.9913C21.2172 14.9913 22.6543 14.9913 24.0913 14.9913C26.2891 14.9913 28.5081 14.9913 30.7482 14.9913C31.8894 14.9913 33.0305 14.9913 34.1717 14.9913C35.1861 14.9913 36.0103 15.7316 36.9613 16.1942C37.1515 16.1942 37.3417 16.2868 37.5318 16.1942C37.6586 16.1017 37.722 16.0092 37.7854 15.9166C38.7998 14.436 40.575 14.9913 41.843 14.9913C43.4491 14.9296 45.034 14.8987 46.5979 14.8987C52.8532 14.837 59.1085 14.7753 65.3639 14.7136C74.6201 14.5286 84.1933 14.436 93.6397 14.436H95.3514C107.017 14.436 118.936 14.6211 130.474 14.7136C133.982 14.7753 137.469 14.8062 140.935 14.8062C142.668 14.8679 144.422 14.8987 146.197 14.8987C147.655 14.8987 149.24 14.5286 150.762 14.7136C150.677 16.1326 150.593 17.5206 150.508 18.8778C150.72 18.3843 150.952 17.8908 151.206 17.3972C151.523 16.6569 151.713 16.1017 151.903 15.3614C151.966 15.2689 152.03 15.0838 152.093 15.0838C152.136 15.0221 152.199 14.9913 152.283 14.9913C155.644 14.8987 159.067 14.9913 162.427 14.9913C165.851 14.9913 169.295 14.9913 172.761 14.9913H174.853C176.459 15.053 178.066 15.053 179.672 14.9913C179.989 14.9913 180.369 14.8987 180.686 14.8987C181.257 14.8987 181.827 15.5465 182.208 16.1017C182.715 16.6569 183.159 17.2122 183.539 17.8599C184.004 18.4768 184.427 19.1554 184.807 19.8957C184.976 20.2659 185.145 20.636 185.314 21.0062C185.441 21.2838 185.821 21.9316 185.885 22.2092C185.927 24.1833 185.927 26.1266 185.885 28.039C185.885 28.8719 186.012 29.9823 185.758 30.7226Z" fill="#B4F4FA"/>
<defs>
<linearGradient id="paint0_linear_1644_207" x1="-2473.18" y1="650.44" x2="-2473.18" y2="15658.7" gradientUnits="userSpaceOnUse">
<stop stop-color="#40B8E3"/>
<stop offset="0.64" stop-color="#304891"/>
<stop offset="1" stop-color="#15AD8C"/>
</linearGradient>
<linearGradient id="paint1_linear_1644_207" x1="-7728.56" y1="1594.44" x2="-7728.56" y2="27899.1" gradientUnits="userSpaceOnUse">
<stop stop-color="#4EBDE6"/>
<stop offset="1" stop-color="#085A8A"/>
</linearGradient>
<radialGradient id="paint2_radial_1644_207" cx="0" cy="0" r="1" gradientUnits="userSpaceOnUse" gradientTransform="translate(895.99 190.093) scale(11.8871 19.2558)">
<stop stop-color="#62CEF5"/>
<stop offset="1" stop-color="#237FCF"/>
</radialGradient>
<radialGradient id="paint3_radial_1644_207" cx="0" cy="0" r="1" gradientTransform="matrix(20.0918 -18.9685 14.34 32.36 838.908 -498.78)" gradientUnits="userSpaceOnUse">
<stop stop-color="#62CEF5"/>
<stop offset="1" stop-color="#237FCF"/>
</radialGradient>
<radialGradient id="paint4_radial_1644_207" cx="0" cy="0" r="1" gradientTransform="matrix(-10.3909 -9.74996 7.39501 -16.7904 1.45856 -103.324)" gradientUnits="userSpaceOnUse">
<stop stop-color="#62CEF5"/>
<stop offset="1" stop-color="#237FCF"/>
</radialGradient>
<radialGradient id="paint5_radial_1644_207" cx="0" cy="0" r="1" gradientTransform="matrix(19.7993 -18.6923 14.1485 31.9279 632.175 -218.402)" gradientUnits="userSpaceOnUse">
<stop stop-color="#62CEF5"/>
<stop offset="1" stop-color="#237FCF"/>
</radialGradient>
<radialGradient id="paint6_radial_1644_207" cx="0" cy="0" r="1" gradientTransform="matrix(3.16475 -2.98779 2.22137 5.0128 332.17 -69.49)" gradientUnits="userSpaceOnUse">
<stop stop-color="#62CEF5"/>
<stop offset="1" stop-color="#237FCF"/>
</radialGradient>
<radialGradient id="paint7_radial_1644_207" cx="0" cy="0" r="1" gradientTransform="matrix(3.16061 -2.98389 2.25821 5.09593 188.993 -35.2229)" gradientUnits="userSpaceOnUse">
<stop stop-color="#62CEF5"/>
<stop offset="1" stop-color="#237FCF"/>
</radialGradient>
<radialGradient id="paint8_radial_1644_207" cx="0" cy="0" r="1" gradientTransform="matrix(1.86329 -1.76012 1.35157 3.04824 63.7357 32.3357)" gradientUnits="userSpaceOnUse">
<stop stop-color="#62CEF5"/>
<stop offset="1" stop-color="#237FCF"/>
</radialGradient>
<radialGradient id="paint9_radial_1644_207" cx="0" cy="0" r="1" gradientTransform="matrix(7.18203 -6.78265 5.135 11.5841 187.439 62.5034)" gradientUnits="userSpaceOnUse">
<stop stop-color="#62CEF5"/>
<stop offset="1" stop-color="#237FCF"/>
</radialGradient>
<linearGradient id="paint10_linear_1644_207" x1="3050.43" y1="6842.87" x2="7592.74" y2="10530.7" gradientUnits="userSpaceOnUse">
<stop stop-color="#C7F0E1"/>
<stop offset="1"/>
</linearGradient>
</defs>
</svg>
