<svg width="191" height="64" viewBox="0 0 191 64" fill="none" xmlns="http://www.w3.org/2000/svg">
<path d="M185.382 43.9401C183.468 48.1431 181.221 51.4227 178.641 53.7789C167.364 53.8426 156.067 53.9381 144.748 54.0655C135.302 54.1928 125.856 54.2884 116.41 54.3521C115.786 54.3521 115.162 54.4476 114.538 54.3521C114.038 54.2565 113.664 53.8744 113.164 53.7789C112.603 53.5879 112.291 54.161 111.791 54.3521C111.417 54.4476 111.042 54.3521 110.605 54.3521C109.607 54.4157 108.587 54.4476 107.547 54.4476C105.549 54.4476 103.573 54.4476 101.617 54.4476C99.1204 54.4476 96.6444 54.4476 94.1893 54.4476C92.9409 54.4476 91.7134 54.4476 90.5066 54.4476C89.4455 54.4476 88.322 54.0655 87.3233 54.3521C87.0736 54.3521 86.8864 54.4476 86.6367 54.4476C86.4494 54.3521 86.3246 54.2565 86.1374 54.161C85.8045 53.9063 85.4715 53.6834 85.1386 53.4924C84.7641 53.2058 84.3272 52.9192 83.9527 52.8237C83.5158 52.8237 83.1413 53.1103 82.7668 53.3013C82.0802 53.6834 81.2687 54.3521 80.5197 54.4476C79.9579 54.5431 79.2089 54.3521 78.6472 54.3521C76.9827 54.3521 75.339 54.3521 73.7161 54.3521C70.512 54.2884 67.3078 54.2565 64.1037 54.2565C54.2 54.1292 44.2963 54.0336 34.3926 53.97L14.8557 53.7789C12.2757 51.4227 10.0286 48.1431 8.11447 43.9401C7.73997 36.4894 7.55271 29.5162 7.73996 22.9252C9.42526 18.3401 11.6099 14.7103 14.4811 12.3222C15.0429 11.6535 16.6658 12.3222 16.9779 12.3222C19.2249 12.3222 21.472 12.4177 23.7815 12.4177C27.6514 12.4177 32.0207 11.4625 35.7658 13.373C35.953 13.4685 36.1403 13.564 36.3275 13.564C36.4524 13.4685 36.6396 13.3729 36.7645 13.2774C39.3236 11.2715 43.0687 12.3222 45.8775 12.3222C61.8566 12.2267 77.8981 11.7491 93.8772 11.8446C103.677 11.8446 113.477 11.9401 123.276 12.0356C127.729 12.0993 132.181 12.163 136.634 12.2267C138.881 12.2267 141.128 12.2267 143.375 12.2267C144.498 12.3222 145.622 12.2267 146.808 12.2267C147.245 12.2267 147.931 12.1312 148.431 12.4177C148.805 12.6088 148.805 13.0864 149.18 13.373C149.43 13.6595 149.804 13.3729 150.054 13.0864C150.491 12.7043 150.74 12.3222 151.302 12.3222C152.259 12.3222 153.195 12.3222 154.111 12.3222C155.942 12.3859 157.794 12.4177 159.666 12.4177C163.328 12.4177 166.99 12.4177 170.652 12.4177C172.712 12.4177 174.771 12.4177 176.831 12.4177C177.268 12.4177 178.641 11.9401 179.016 12.3222C181.887 14.7103 184.072 18.3401 185.695 22.9252C186.194 24.167 185.819 27.5103 185.819 28.9431C185.819 31.0446 185.819 32.2864 185.195 34.0058C184.946 34.961 185.632 36.967 185.632 38.1133C185.632 39.355 185.819 42.8894 185.382 43.9401Z" fill="#4BC98A"/>
<path d="M185.382 42.7941C183.468 46.9971 181.221 50.2767 178.641 52.6329C167.364 52.6966 156.067 52.7921 144.748 52.9195C135.302 53.0469 125.856 53.1424 116.41 53.2061C115.786 53.2061 115.162 53.3016 114.538 53.2061C114.038 53.1105 113.664 52.7284 113.164 52.6329C112.603 52.4419 112.291 52.9195 111.791 53.2061C111.417 53.3016 111.042 53.2061 110.605 53.2061C109.607 53.2697 108.587 53.3016 107.547 53.3016C105.549 53.3016 103.573 53.3016 101.617 53.3016C99.1204 53.3016 96.6444 53.3016 94.1893 53.3016C92.9409 53.3016 91.7134 53.3016 90.5066 53.3016C89.4455 53.3016 88.322 52.9195 87.3233 53.2061C87.0736 53.2061 86.8864 53.3016 86.6367 53.3016C86.4494 53.2061 86.3246 53.1105 86.1374 53.015C85.8045 52.7603 85.4715 52.5056 85.1386 52.2508C84.7641 52.0598 84.3272 51.7732 83.9527 51.6777C83.5158 51.6777 83.1413 51.8687 82.7668 52.1553C82.0802 52.5374 81.2687 53.2061 80.5197 53.3016C79.9579 53.3971 79.2089 53.2061 78.6472 53.2061C76.9827 53.2061 75.339 53.2061 73.7161 53.2061C70.512 53.1424 67.3078 53.1105 64.1037 53.1105C54.2 52.9832 44.2963 52.8876 34.3926 52.824L14.8557 52.6329C12.2757 50.2767 10.0286 46.9971 8.11447 42.7941C7.73997 35.3434 7.55271 28.3702 7.73996 21.7792C9.42526 17.1941 11.6099 13.5643 14.4811 11.1762C15.0429 10.5076 16.6658 11.1762 16.9779 11.1762C19.2249 11.1762 21.472 11.2717 23.7815 11.2717C27.6514 11.2717 32.0207 10.3165 35.7658 12.227C35.953 12.3225 36.1403 12.418 36.3275 12.418C36.4524 12.3225 36.6396 12.227 36.7645 12.1314C39.3236 10.1255 43.0687 11.1762 45.8775 11.1762C61.8566 11.0807 77.8981 10.6031 93.8772 10.6986C103.677 10.6986 113.477 10.7941 123.276 10.8896C127.729 10.9533 132.181 11.017 136.634 11.0807C138.881 11.0807 141.128 11.0807 143.375 11.0807C144.498 11.1762 145.622 11.0807 146.808 11.0807C147.245 11.0807 147.931 10.9852 148.431 11.2717C148.805 11.4628 148.805 11.9404 149.18 12.227C149.43 12.5135 149.804 12.227 150.054 11.9404C150.491 11.5583 150.74 11.1762 151.302 11.1762C152.259 11.1762 153.195 11.1762 154.111 11.1762C155.942 11.2399 157.794 11.2717 159.666 11.2717C163.328 11.2717 166.99 11.2717 170.652 11.2717C172.712 11.2717 174.771 11.2717 176.831 11.2717C177.268 11.2717 178.641 10.7941 179.016 11.1762C181.887 13.5643 184.072 17.1941 185.695 21.7792C186.194 23.021 185.819 26.3643 185.819 27.7971C185.819 29.8986 185.819 31.1404 185.195 32.8598C184.946 33.815 185.632 35.821 185.632 36.9673C185.632 38.209 185.819 41.7434 185.382 42.7941Z" fill="url(#paint0_linear_1464_221)"/>
<path d="M182.823 37.5402C182.823 38.3044 183.01 40.5969 182.698 41.2655C181.242 44.1949 179.619 46.5511 177.83 48.3342L144.748 48.7163L134.324 48.8118C130.662 48.8118 127 48.8437 123.339 48.9073C121.508 48.9073 119.677 48.9392 117.846 49.0029C116.972 49.0029 116.036 49.0984 115.099 49.0029C114.288 48.8118 113.789 48.3342 113.04 47.7611C112.852 47.6656 112.665 47.4745 112.415 47.57C112.103 47.57 111.916 48.0476 111.729 48.4297C111.167 49.6715 109.107 49.0029 108.233 49.0029C106.818 49.0029 105.404 49.0347 103.989 49.0984C102.491 49.0984 100.993 49.0984 99.4948 49.0984C98.1632 49.0984 96.8108 49.0984 95.4376 49.0984C94.106 49.0984 92.7536 49.0984 91.3804 49.0984C90.1944 49.0984 89.383 48.7163 88.197 48.2387C87.3232 47.9521 86.3245 48.7163 85.5755 47.9521C85.2634 47.6655 85.0761 47.1879 84.764 46.9969C84.4519 46.9014 84.2023 47.0924 83.8902 47.2835C82.7666 48.0476 81.4559 48.8118 80.2699 49.0029C77.898 49.2894 75.4637 49.0029 73.1542 48.9073C71.2401 48.9073 69.3051 48.9073 67.3493 48.9073C63.9371 48.8437 60.5041 48.8118 57.0503 48.8118C50.7253 48.7481 44.3794 48.6845 38.0127 48.6208C32.7696 48.5571 27.5056 48.4934 22.2209 48.4297C20.598 48.4297 18.9959 48.4297 17.4147 48.4297C17.0402 48.4297 15.9791 48.7163 15.667 48.3342C13.8568 46.6148 12.234 44.2267 10.7983 41.2655C10.7567 40.6287 10.7359 40.0238 10.7359 39.4506C10.7359 39.3869 10.7359 39.3233 10.7359 39.2596C10.6943 39.0048 10.6735 38.7501 10.6735 38.4954C10.4238 32.9551 10.3614 27.7969 10.4862 23.0208C11.797 19.582 13.4823 17.0029 15.5421 15.0924C15.7294 15.0924 15.9791 15.1879 16.1039 15.1879C16.416 15.2835 16.6032 15.379 16.9153 15.379C17.7892 15.379 18.6422 15.4108 19.4745 15.4745C20.8893 15.4745 22.3041 15.5063 23.7189 15.57C25.8828 15.5063 28.0674 15.4745 30.2729 15.4745C31.3964 15.4745 32.5199 15.4745 33.6434 15.4745C34.6421 15.57 35.4536 16.2387 36.3898 16.7163C36.5771 16.7163 36.7644 16.8118 36.9516 16.7163C37.0764 16.6208 37.1389 16.5252 37.2013 16.4297C38.2 14.9014 39.9477 15.4745 41.1961 15.4745C42.7773 15.4108 44.3378 15.379 45.8774 15.379C48.2493 15.379 50.6212 15.3471 52.9931 15.2835C56.7798 15.2835 60.5665 15.2516 64.3532 15.1879C73.4663 14.9969 82.8915 14.9014 92.1918 14.9014H93.8771C105.362 14.9014 117.097 15.0924 128.457 15.1879C131.911 15.2516 135.344 15.2835 138.756 15.2835C140.462 15.3471 142.189 15.379 143.937 15.379C145.372 15.379 146.933 14.9969 148.431 15.1879C148.347 16.6526 148.264 18.0854 148.181 19.4864C148.389 18.977 148.618 18.4675 148.868 17.9581C149.18 17.1939 149.367 16.6208 149.554 15.8566C149.617 15.7611 149.617 15.57 149.741 15.57C149.783 15.5063 149.846 15.4745 149.929 15.4745C153.237 15.379 156.608 15.4745 159.916 15.4745C163.286 15.5382 166.678 15.57 170.09 15.57H172.15C173.731 15.57 175.312 15.5382 176.893 15.4745C177.206 15.4745 177.58 15.379 177.892 15.379C178.454 15.379 179.016 16.0476 179.39 16.6208C179.89 17.1939 180.326 17.767 180.701 18.4357C181.159 19.0725 181.575 19.773 181.949 20.5372C182.116 20.9193 182.282 21.3014 182.449 21.6835C182.574 21.97 183.01 22.6387 183.01 23.0208C183.052 24.9949 183.052 26.969 183.01 28.9432C183.01 29.8029 183.135 30.9491 182.886 31.7133C182.574 32.382 182.074 32.6685 182.261 33.7193C182.324 34.0058 182.449 34.2924 182.511 34.579C182.594 34.77 182.657 34.9611 182.698 35.1521C182.948 35.9163 182.886 36.4894 182.823 37.5402Z" fill="url(#paint1_linear_1464_221)"/>
<path d="M177.83 38.5912C179.078 39.3553 179.203 42.1255 177.892 42.9852C175.083 44.9912 175.458 37.2539 177.705 38.4956C177.746 38.4956 177.788 38.5275 177.83 38.5912Z" fill="url(#paint2_radial_1464_221)"/>
<path d="M137.882 20.7286C139.755 20.251 141.253 23.4032 140.192 25.9823C137.882 31.6181 134.449 21.9704 137.695 20.8241C137.778 20.8241 137.841 20.7923 137.882 20.7286Z" fill="url(#paint3_radial_1464_221)"/>
<path d="M16.6655 25.1222C15.2923 24.7402 14.2312 27.0327 14.9802 28.8476C16.6655 32.9551 19.0998 25.9819 16.7279 25.1222C16.7279 25.1222 16.7071 25.1222 16.6655 25.1222Z" fill="url(#paint4_radial_1464_221)"/>
<path d="M96.4986 37.4447C98.3711 36.9671 99.8692 40.0238 98.808 42.6029C96.561 48.2388 93.128 38.591 96.3737 37.4447C96.4153 37.4447 96.457 37.4447 96.4986 37.4447Z" fill="url(#paint5_radial_1464_221)"/>
<path d="M102.678 40.3107C103.427 40.1196 103.989 41.3614 103.614 42.3166C102.678 44.6092 101.305 40.7883 102.616 40.3107C102.616 40.3107 102.636 40.3107 102.678 40.3107Z" fill="url(#paint6_radial_1464_221)"/>
<path d="M58.236 23.8805C58.9851 23.6894 59.6093 24.9312 59.1723 25.9819C58.236 28.179 56.9253 24.3581 58.1736 23.976C58.2152 23.9123 58.236 23.8805 58.236 23.8805Z" fill="url(#paint7_radial_1464_221)"/>
<path d="M19.6619 24.1673C20.2237 24.0718 20.6606 25.027 20.3485 25.7912C19.6619 27.5106 18.6008 24.5494 19.5995 24.2628C19.5995 24.1991 19.6203 24.1673 19.6619 24.1673Z" fill="url(#paint8_radial_1464_221)"/>
<path d="M35.7032 41.4568C36.8267 41.1703 37.7006 42.9852 37.0764 44.6091C35.7032 47.9524 33.6434 42.221 35.5783 41.4568C35.6199 41.4568 35.6616 41.4568 35.7032 41.4568Z" fill="url(#paint9_radial_1464_221)"/>
<path style="mix-blend-mode:screen" opacity="0.29" d="M99.4948 49.0984C98.1632 49.0984 96.8108 49.0984 95.4376 49.0984C94.106 49.0984 92.7536 49.0984 91.3804 49.0984C90.1945 49.0984 89.383 48.7163 88.1971 48.2387C87.3232 47.9521 86.3245 48.7163 85.5755 47.9521C85.2634 47.6655 85.0762 47.1879 84.7641 46.9969C84.452 46.9014 84.2023 47.0924 83.8902 47.2835C82.7667 48.0476 81.4559 48.8118 80.27 49.0029C77.8981 49.2894 75.4637 49.0029 73.1543 48.9073C71.2401 48.9073 69.3051 48.9073 67.3494 48.9073L52.9932 15.2835C56.7799 15.2835 60.5666 15.2516 64.3533 15.1879C73.4664 14.9969 82.8915 14.9014 92.1919 14.9014H93.7523L99.4948 49.0984Z" fill="url(#paint10_linear_1464_221)"/>
<path d="M182.886 31.7133C182.574 32.382 182.074 32.6685 182.261 33.7193C182.324 34.0058 182.449 34.2924 182.511 34.579C182.594 34.77 182.657 34.9611 182.698 35.1521C182.261 34.2924 181.887 33.3372 182.074 32.382C182.199 31.9999 182.324 31.7133 182.386 31.4267C182.574 30.7581 182.574 29.9939 182.574 29.2297C182.574 25.0267 181.762 21.779 179.89 18.7223C178.204 15.8566 176.144 16.4297 173.835 16.4297C171.297 16.4297 168.737 16.4297 166.158 16.4297C161.081 16.366 155.983 16.3342 150.865 16.3342C150.428 16.3342 149.929 15.8566 149.679 16.5252C149.18 17.9899 148.68 19.4546 148.181 20.9193C148.056 19.773 147.994 17.1939 147.12 16.8118C146.621 16.6208 146.059 17.0984 145.497 17.0029C144.998 16.8118 144.498 16.6208 143.999 16.4297C142.938 16.1432 141.814 16.5252 140.753 16.6208C138.34 16.7481 135.926 16.8118 133.513 16.8118C131.973 16.8118 130.413 16.78 128.831 16.7163C127.417 16.6526 125.981 16.5889 124.524 16.5252C117.346 16.3342 110.168 15.6655 102.99 15.9521C95.7497 16.2387 88.5091 16.5252 81.2062 16.4297C67.0372 16.2387 52.9307 16.4297 38.7617 16.4297C38.0751 16.4297 37.6382 17.6715 36.9516 17.767C36.7644 17.8626 36.5771 17.767 36.3898 17.6715C35.8281 17.4805 35.3287 17.0029 34.767 17.0029C29.2742 16.9392 23.7813 16.8437 18.2885 16.7163C17.2898 16.7163 16.416 16.6208 15.667 17.4805C14.7099 18.4994 13.8152 19.6138 12.983 20.8238C10.9232 23.6894 10.9856 27.1282 10.9232 31.1402C10.8608 33.6238 10.9232 36.1073 10.6735 38.4954C10.4238 32.9551 10.3614 27.7969 10.4862 22.9252C11.797 19.582 13.4823 17.0029 15.5421 15.0924C15.7294 15.0924 15.9791 15.1879 16.1039 15.1879C16.416 15.2835 16.6032 15.379 16.9153 15.379C17.7892 15.379 18.6422 15.4108 19.4745 15.4745C20.8893 15.4745 22.3041 15.4745 23.7189 15.4745C25.8828 15.4745 28.0674 15.4745 30.2729 15.4745C31.3964 15.4745 32.5199 15.4745 33.6434 15.4745C34.6421 15.4745 35.4536 16.2387 36.3898 16.7163C36.5771 16.7163 36.7644 16.8118 36.9516 16.7163C37.0764 16.6208 37.1389 16.5252 37.2013 16.4297C38.2 14.9014 39.9477 15.4745 41.1961 15.4745C42.7773 15.4108 44.3378 15.379 45.8774 15.379C52.036 15.3153 58.1946 15.2516 64.3532 15.1879C73.4663 14.9969 82.8915 14.9014 92.1918 14.9014H93.8771C105.362 14.9014 117.097 15.0924 128.457 15.1879C131.911 15.2516 135.344 15.2835 138.756 15.2835C140.462 15.3471 142.189 15.379 143.937 15.379C145.372 15.379 146.933 14.9969 148.431 15.1879C148.347 16.6526 148.264 18.0854 148.181 19.4864C148.389 18.977 148.618 18.4675 148.868 17.9581C149.18 17.1939 149.367 16.6208 149.554 15.8566C149.617 15.7611 149.679 15.57 149.741 15.57C149.783 15.5063 149.846 15.4745 149.929 15.4745C153.237 15.379 156.608 15.4745 159.916 15.4745C163.286 15.4745 166.678 15.4745 170.09 15.4745H172.15C173.731 15.5382 175.312 15.5382 176.893 15.4745C177.206 15.4745 177.58 15.379 177.892 15.379C178.454 15.379 179.016 16.0476 179.39 16.6208C179.89 17.1939 180.326 17.767 180.701 18.4357C181.159 19.0725 181.575 19.773 181.949 20.5372C182.116 20.9193 182.282 21.3014 182.449 21.6835C182.574 21.97 182.948 22.6387 183.01 22.9252C183.052 24.9631 183.052 26.969 183.01 28.9432C183.01 29.8029 183.135 30.9491 182.886 31.7133Z" fill="#B4F4FA"/>
<path d="M76.498 36.8047C76.498 37.6966 76.3418 38.4779 76.0293 39.1484C75.7233 39.8125 75.3001 40.3659 74.7598 40.8086C74.2259 41.2513 73.5977 41.5833 72.875 41.8047C72.1589 42.026 71.3874 42.1367 70.5605 42.1367C70.2415 42.1367 69.89 42.0944 69.5059 42.0098C69.1283 41.9251 68.7441 41.821 68.3535 41.6973C67.9629 41.5671 67.5853 41.4303 67.2207 41.2871C66.8626 41.1374 66.5436 40.9974 66.2637 40.8672L66.6934 36.8438C67.2467 37.1758 67.8587 37.4297 68.5293 37.6055C69.2064 37.7747 69.8704 37.8594 70.5215 37.8594C70.6452 37.8594 70.7949 37.8561 70.9707 37.8496C71.1465 37.8366 71.3125 37.8073 71.4688 37.7617C71.6315 37.7096 71.7682 37.6348 71.8789 37.5371C71.9896 37.4395 72.0449 37.2995 72.0449 37.1172C72.0449 36.9935 72.0059 36.8893 71.9277 36.8047C71.8496 36.7135 71.7487 36.6419 71.625 36.5898C71.5013 36.5312 71.3613 36.4889 71.2051 36.4629C71.0488 36.4303 70.8958 36.4076 70.7461 36.3945C70.5964 36.3815 70.4564 36.375 70.3262 36.375C70.196 36.375 70.0918 36.375 70.0137 36.375C69.4538 36.375 68.9427 36.2773 68.4805 36.082C68.0247 35.8867 67.6309 35.6165 67.2988 35.2715C66.9733 34.9199 66.7194 34.5065 66.5371 34.0312C66.3548 33.5495 66.2637 33.0286 66.2637 32.4688C66.2637 31.7005 66.4167 31.0137 66.7227 30.4082C67.0352 29.7962 67.4486 29.2786 67.9629 28.8555C68.4837 28.4258 69.0794 28.097 69.75 27.8691C70.4206 27.6413 71.1139 27.5273 71.8301 27.5273C72.1491 27.5273 72.4779 27.5404 72.8164 27.5664C73.1549 27.5859 73.4902 27.625 73.8223 27.6836C74.1608 27.7422 74.4896 27.8171 74.8086 27.9082C75.1276 27.9993 75.4303 28.1133 75.7168 28.25L75.3457 32.2148C74.903 32.0651 74.4375 31.9414 73.9492 31.8438C73.4674 31.7396 72.9954 31.6875 72.5332 31.6875C72.4486 31.6875 72.3379 31.6908 72.2012 31.6973C72.071 31.6973 71.931 31.707 71.7812 31.7266C71.638 31.7396 71.4915 31.7624 71.3418 31.7949C71.1921 31.8275 71.0586 31.873 70.9414 31.9316C70.8242 31.9837 70.7298 32.0553 70.6582 32.1465C70.5866 32.2376 70.554 32.3451 70.5605 32.4688C70.5671 32.612 70.6191 32.7292 70.7168 32.8203C70.821 32.9049 70.9512 32.9733 71.1074 33.0254C71.2702 33.071 71.446 33.1035 71.6348 33.123C71.8301 33.1426 72.0221 33.1556 72.2109 33.1621C72.3997 33.1621 72.5755 33.1621 72.7383 33.1621C72.901 33.1556 73.0345 33.1589 73.1387 33.1719C73.6595 33.2044 74.1283 33.3151 74.5449 33.5039C74.9616 33.6927 75.3132 33.9434 75.5996 34.2559C75.8926 34.5684 76.1139 34.9427 76.2637 35.3789C76.4199 35.8086 76.498 36.2839 76.498 36.8047ZM87.2305 28.2305L87.1328 32.3711L84.2227 32.4883L83.8711 41.5508L79.75 41.7656L79.3789 32.7031L76.4688 32.8594L76.5859 28.25L87.2305 28.2305ZM98.832 41.1602L93.9883 41.7852L93.4023 39.5781H91.1758L90.6875 41.7852L85.707 41.2969L89.5938 28.2891L95.0234 28.0156L98.832 41.1602ZM93.0508 36.5898L92.3086 33.1914L91.5859 36.5898H93.0508ZM110.482 32.5859C110.482 33.0938 110.437 33.556 110.346 33.9727C110.261 34.3828 110.124 34.7604 109.936 35.1055C109.747 35.4505 109.503 35.7695 109.203 36.0625C108.904 36.3555 108.542 36.6354 108.119 36.9023L110.443 41.043L106.049 41.9023L104.545 37.7422L103.334 37.7812L103.158 41.8438H98.959C98.9915 40.3594 99.0208 38.8815 99.0469 37.4102C99.0794 35.9388 99.1152 34.4609 99.1543 32.9766C99.1673 32.2279 99.1803 31.4857 99.1934 30.75C99.2064 30.0143 99.2324 29.2721 99.2715 28.5234C99.7272 28.3542 100.176 28.2142 100.619 28.1035C101.062 27.9928 101.505 27.9082 101.947 27.8496C102.396 27.7845 102.849 27.7422 103.305 27.7227C103.767 27.6966 104.239 27.6836 104.721 27.6836C105.463 27.6836 106.179 27.7878 106.869 27.9961C107.566 28.1979 108.181 28.5039 108.715 28.9141C109.249 29.3242 109.675 29.8353 109.994 30.4473C110.32 31.0592 110.482 31.7721 110.482 32.5859ZM106.107 32.8984C106.107 32.625 106.068 32.3743 105.99 32.1465C105.919 31.9186 105.808 31.7233 105.658 31.5605C105.515 31.3913 105.333 31.2611 105.111 31.1699C104.896 31.0723 104.643 31.0234 104.35 31.0234C104.219 31.0234 104.092 31.0332 103.969 31.0527C103.845 31.0658 103.725 31.0885 103.607 31.1211L103.451 34.7539H103.686C103.965 34.7539 104.249 34.7181 104.535 34.6465C104.828 34.5749 105.089 34.4642 105.316 34.3145C105.551 34.1647 105.74 33.9727 105.883 33.7383C106.033 33.5039 106.107 33.224 106.107 32.8984ZM121.508 28.2305L121.41 32.3711L118.5 32.4883L118.148 41.5508L114.027 41.7656L113.656 32.7031L110.746 32.8594L110.863 28.25L121.508 28.2305Z" fill="white"/>
<defs>
<linearGradient id="paint0_linear_1464_221" x1="-2434.94" y1="671.422" x2="-2434.94" y2="16163.8" gradientUnits="userSpaceOnUse">
<stop stop-color="#40B8E3"/>
<stop offset="0.64" stop-color="#304891"/>
<stop offset="1" stop-color="#15AD8C"/>
</linearGradient>
<linearGradient id="paint1_linear_1464_221" x1="-7609.05" y1="1645.87" x2="-7609.05" y2="28799.1" gradientUnits="userSpaceOnUse">
<stop stop-color="#4EBDE6"/>
</linearGradient>
<radialGradient id="paint2_radial_1464_221" cx="0" cy="0" r="1" gradientUnits="userSpaceOnUse" gradientTransform="translate(882.134 196.225) scale(11.7033 19.8769)">
<stop stop-color="#62CEF5"/>
<stop offset="1" stop-color="#237FCF"/>
</radialGradient>
<radialGradient id="paint3_radial_1464_221" cx="0" cy="0" r="1" gradientTransform="matrix(19.7811 -19.5804 14.1182 33.4038 825.936 -514.869)" gradientUnits="userSpaceOnUse">
<stop stop-color="#62CEF5"/>
<stop offset="1" stop-color="#237FCF"/>
</radialGradient>
<radialGradient id="paint4_radial_1464_221" cx="0" cy="0" r="1" gradientTransform="matrix(-10.2302 -10.0645 7.28066 -17.332 1.43596 -106.657)" gradientUnits="userSpaceOnUse">
<stop stop-color="#62CEF5"/>
<stop offset="1" stop-color="#237FCF"/>
</radialGradient>
<radialGradient id="paint5_radial_1464_221" cx="0" cy="0" r="1" gradientTransform="matrix(19.4931 -19.2953 13.9297 32.9579 622.399 -225.447)" gradientUnits="userSpaceOnUse">
<stop stop-color="#62CEF5"/>
<stop offset="1" stop-color="#237FCF"/>
</radialGradient>
<radialGradient id="paint6_radial_1464_221" cx="0" cy="0" r="1" gradientTransform="matrix(3.11581 -3.08418 2.18702 5.17451 327.033 -71.7315)" gradientUnits="userSpaceOnUse">
<stop stop-color="#62CEF5"/>
<stop offset="1" stop-color="#237FCF"/>
</radialGradient>
<radialGradient id="paint7_radial_1464_221" cx="0" cy="0" r="1" gradientTransform="matrix(3.11173 -3.08014 2.22329 5.26032 186.07 -36.3592)" gradientUnits="userSpaceOnUse">
<stop stop-color="#62CEF5"/>
<stop offset="1" stop-color="#237FCF"/>
</radialGradient>
<radialGradient id="paint8_radial_1464_221" cx="0" cy="0" r="1" gradientTransform="matrix(1.83447 -1.8169 1.33067 3.14657 62.7502 33.3792)" gradientUnits="userSpaceOnUse">
<stop stop-color="#62CEF5"/>
<stop offset="1" stop-color="#237FCF"/>
</radialGradient>
<radialGradient id="paint9_radial_1464_221" cx="0" cy="0" r="1" gradientTransform="matrix(7.07097 -7.00145 5.0556 11.9577 184.54 64.52)" gradientUnits="userSpaceOnUse">
<stop stop-color="#62CEF5"/>
<stop offset="1" stop-color="#237FCF"/>
</radialGradient>
<linearGradient id="paint10_linear_1464_221" x1="3003.26" y1="7063.6" x2="7641.77" y2="10655.4" gradientUnits="userSpaceOnUse">
<stop stop-color="#C7F0E1"/>
<stop offset="1"/>
</linearGradient>
</defs>
</svg>
