<svg width="261" height="91" viewBox="0 0 261 91" fill="none" xmlns="http://www.w3.org/2000/svg">
<path d="M0 17.9846H11.6199V61.0235H0L0 17.9846Z" fill="white"/>
<path fill-rule="evenodd" clip-rule="evenodd" d="M68.3785 0.5V45.8927L75.3057 53.6262L82.3447 61.0235H124.243V15.6309L117.093 7.89732L110.277 0.5L68.3785 0.5ZM79.9983 13.053V39.6161L84.0438 44.1417L88.1546 48.4705H112.623V21.9074L108.447 17.3818L104.467 13.053H79.9983Z" fill="white"/>
<path d="M205.135 0.5L247.034 0.5L253.849 7.89732L261 15.6309V22.0195L249.38 22.0195V21.9074L245.204 17.3818L241.224 13.053H216.755V39.6161L220.801 44.1417L224.911 48.4705H249.38V30.9859L261 30.9859V61.0235H219.101L212.062 53.6262L205.135 45.8927V0.5Z" fill="white"/>
<path d="M233.291 30.9859L249.38 30.9859L249.38 39.5041H233.291V30.9859Z" fill="white"/>
<path d="M136.696 0.5L178.594 0.5L185.41 7.89732L192.561 15.6309V61.0235H180.945V23.3542H180.941V21.9074L176.765 17.3818L172.784 13.053H148.316V39.6161L148.34 39.6437V58.5836L143.623 53.6262L136.696 45.8927V0.5Z" fill="white"/>
<path d="M73.7701 78.0038V79.3192H70.4034V90.3933H68.7909V79.3192H65.4064V78.0038H73.7701Z" fill="#FE5821"/>
<path d="M92.5357 78.0038V90.3933H90.9232V84.7763H84.6327V90.3933H83.0202V78.0038H84.6327V83.4431H90.9232V78.0038H92.5357Z" fill="#FE5821"/>
<path d="M104.167 79.3192V83.4609H108.668V84.7941H104.167V89.0602H109.199V90.3933H102.554V77.986H109.199V79.3192H104.167Z" fill="#FE5821"/>
<path d="M140.25 81.5945C139.907 80.8716 139.411 80.3146 138.761 79.9236C138.111 79.5206 137.355 79.3192 136.493 79.3192C135.631 79.3192 134.851 79.5206 134.154 79.9236C133.469 80.3146 132.925 80.8834 132.524 81.63C132.134 82.3647 131.939 83.218 131.939 84.1897C131.939 85.1614 132.134 86.0146 132.524 86.7494C132.925 87.4841 133.469 88.0529 134.154 88.4558C134.851 88.8469 135.631 89.0424 136.493 89.0424C137.698 89.0424 138.69 88.681 139.47 87.9581C140.25 87.2352 140.704 86.2576 140.834 85.0251H135.908V83.7097H142.553V84.954C142.459 85.9732 142.14 86.9093 141.596 87.7626C141.053 88.6039 140.338 89.2735 139.452 89.7712C138.566 90.2571 137.58 90.5 136.493 90.5C135.347 90.5 134.302 90.2334 133.357 89.7001C132.411 89.155 131.661 88.4025 131.106 87.4426C130.563 86.4827 130.291 85.3984 130.291 84.1897C130.291 82.981 130.563 81.8966 131.106 80.9368C131.661 79.965 132.411 79.2125 133.357 78.6793C134.302 78.1342 135.347 77.8616 136.493 77.8616C137.804 77.8616 138.962 78.1875 139.966 78.8393C140.982 79.491 141.72 80.4094 142.181 81.5945H140.25Z" fill="#FE5821"/>
<path d="M159.251 87.6381H153.864L152.872 90.3933H151.171L155.636 78.0749H157.497L161.944 90.3933H160.243L159.251 87.6381ZM158.79 86.3227L156.557 80.0658L154.325 86.3227H158.79Z" fill="#FE5821"/>
<path d="M183.684 78.0927V90.3933H182.071V81.2212L177.995 90.3933H176.861L172.768 81.2034V90.3933H171.156V78.0927H172.892L177.428 88.2603L181.965 78.0927H183.684Z" fill="#FE5821"/>
<path d="M195.296 79.3192V83.4609H199.797V84.7941H195.296V89.0602H200.328V90.3933H193.683V77.986H200.328V79.3192H195.296Z" fill="#FE5821"/>
<path fill-rule="evenodd" clip-rule="evenodd" d="M42.1479 0.5L0 0.5L0 28.0717L14.0493 45.7006H56.1972V17.7323L42.1479 0.5ZM35.9459 9.13382H11.6445V25.2431L19.745 35.5432H44.0464V19.2021L35.9459 9.13382Z" fill="white"/>
</svg>
